<svg xmlns="http://www.w3.org/2000/svg" width="94.001" height="86.999" viewBox="0 0 94.001 86.999">
  <g id="Grupo_58449" data-name="Grupo 58449" transform="translate(-663 -1985)">
    <rect id="Retângulo_4174" data-name="Retângulo 4174" width="94" height="85" rx="8" transform="translate(663 1986)" fill="none"/>
    <g id="Grupo_57934" data-name="Grupo 57934" transform="translate(0 -2)">
      <path id="Caminho_1827" data-name="Caminho 1827" d="M25.436,13.541s-3.807-.707-6-2.755v12" transform="translate(678.564 1977.214)" fill="none" stroke="#d57032" stroke-linecap="round" stroke-linejoin="round" stroke-width="2" stroke-dasharray="190 10"/>
      <path id="Caminho_1828" data-name="Caminho 1828" d="M25.421,15.849a4.365,4.365,0,0,1-4.5,4.217,4.366,4.366,0,0,1-4.5-4.217,4.056,4.056,0,0,1,1.119-2.783" transform="translate(672.578 1983.934)" fill="none" stroke="#d57032" stroke-linecap="round" stroke-linejoin="round" stroke-width="2" stroke-dasharray="190 10"/>
    </g>
    <g id="nota-musical" transform="translate(722 1988.582)">
      <path id="Caminho_1253" data-name="Caminho 1253" d="M13.5,17.5V6.233L23.5,4.5V15.767" transform="translate(-9.5 -5.082)" fill="none" stroke="#d57032" stroke-linecap="round" stroke-linejoin="round" stroke-width="2" stroke-dasharray="190 10"/>
      <path id="Caminho_1254" data-name="Caminho 1254" d="M9.5,25A2.5,2.5,0,1,1,7,22.5,2.5,2.5,0,0,1,9.5,25Z" transform="translate(-5.5 -12.082)" fill="none" stroke="#d57032" stroke-linecap="round" stroke-linejoin="round" stroke-width="2" stroke-dasharray="8 8"/>
      <path id="Caminho_1255" data-name="Caminho 1255" d="M5,2.5A2.5,2.5,0,1,0,2.5,5,2.5,2.5,0,0,0,5,2.5Z" transform="translate(9 14.418) rotate(-90)" fill="none" stroke="#d57032" stroke-linecap="round" stroke-linejoin="round" stroke-width="2" stroke-dasharray="7 6"/>
    </g>
    <g id="Grupo_57936" data-name="Grupo 57936" transform="translate(571.682 1945.726)">
      <circle id="Elipse_208" data-name="Elipse 208" cx="8" cy="8" r="8" transform="translate(99.318 65.274)" fill="none" stroke="#d57032" stroke-linecap="round" stroke-linejoin="round" stroke-width="2" stroke-dasharray="27 8"/>
      <path id="União_22" data-name="União 22" d="M7.931,37a3,3,0,0,1-3-3V25.226H3.766A3.705,3.705,0,0,1,.7,23.5a4.941,4.941,0,0,1-.559-3.8l2.048-8.927L3.831,3.621l.116-.49L3.986,3A3.92,3.92,0,0,1,7.633,0h7.734a3.9,3.9,0,0,1,3.558,2.716,1.752,1.752,0,0,1,.09.282l.142.608,1.65,7.167L22.854,19.7a4.937,4.937,0,0,1-.558,3.8,3.707,3.707,0,0,1-3.063,1.73H18.07V34a3,3,0,0,1-3,3Z" transform="translate(95.318 88.274)" fill="none" stroke="#d57032" stroke-linecap="round" stroke-linejoin="round" stroke-width="2" stroke-dasharray="73 10"/>
    </g>
    <g id="Grupo_57937" data-name="Grupo 57937" transform="translate(603.682 1945.726)">
      <circle id="Elipse_208-2" data-name="Elipse 208" cx="8" cy="8" r="8" transform="translate(99.318 65.274)" fill="none" stroke="#d57032" stroke-linecap="round" stroke-linejoin="round" stroke-width="2" stroke-dasharray="27 8"/>
      <path id="União_22-2" data-name="União 22" d="M7.931,37a3,3,0,0,1-3-3V25.226H3.766A3.705,3.705,0,0,1,.7,23.5a4.941,4.941,0,0,1-.559-3.8l2.048-8.927L3.831,3.621l.116-.49L3.986,3A3.92,3.92,0,0,1,7.633,0h7.734a3.9,3.9,0,0,1,3.558,2.716,1.752,1.752,0,0,1,.09.282l.142.608,1.65,7.167L22.854,19.7a4.937,4.937,0,0,1-.558,3.8,3.707,3.707,0,0,1-3.063,1.73H18.07V34a3,3,0,0,1-3,3Z" transform="translate(95.318 88.274)" fill="none" stroke="#d57032" stroke-linecap="round" stroke-linejoin="round" stroke-width="2" stroke-dasharray="73 10"/>
    </g>
    <g id="Grupo_57938" data-name="Grupo 57938" transform="translate(635.682 1945.726)">
      <circle id="Elipse_208-3" data-name="Elipse 208" cx="8" cy="8" r="8" transform="translate(99.318 65.274)" fill="none" stroke="#d57032" stroke-linecap="round" stroke-linejoin="round" stroke-width="2" stroke-dasharray="27 8"/>
      <path id="União_22-3" data-name="União 22" d="M7.931,37a3,3,0,0,1-3-3V25.226H3.766A3.705,3.705,0,0,1,.7,23.5a4.941,4.941,0,0,1-.559-3.8l2.048-8.927L3.831,3.621l.116-.49L3.986,3A3.92,3.92,0,0,1,7.633,0h7.734a3.9,3.9,0,0,1,3.558,2.716,1.752,1.752,0,0,1,.09.282l.142.608,1.65,7.167L22.854,19.7a4.937,4.937,0,0,1-.558,3.8,3.707,3.707,0,0,1-3.063,1.73H18.07V34a3,3,0,0,1-3,3Z" transform="translate(95.318 88.274)" fill="none" stroke="#d57032" stroke-linecap="round" stroke-linejoin="round" stroke-width="2" stroke-dasharray="73 10"/>
    </g>
  </g>
</svg>
