<svg xmlns="http://www.w3.org/2000/svg" width="94.001" height="87" viewBox="0 0 94.001 87">
  <g id="Grupo_58452" data-name="Grupo 58452" transform="translate(-663 -1985)">
    <rect id="Retângulo_4174" data-name="Retângulo 4174" width="94" height="85" rx="8" transform="translate(663 1986)" fill="none"/>
    <g id="Grupo_57930" data-name="Grupo 57930" transform="translate(601.523 1946.057)">
      <circle id="Elipse_207" data-name="Elipse 207" cx="8" cy="8" r="8" transform="translate(68.477 64.943)" fill="none" stroke="#d57032" stroke-linecap="round" stroke-linejoin="round" stroke-width="2" stroke-dasharray="27 8"/>
      <path id="União_21" data-name="União 21" d="M8,36a3,3,0,0,1-3-3V18H4a3,3,0,0,1-3-3V3A3,3,0,0,1,4,0H20a3,3,0,0,1,3,3V15a3,3,0,0,1-3,3H19V33a3,3,0,0,1-3,3Z" transform="translate(64.477 88.943)" fill="none" stroke="#d57032" stroke-linecap="round" stroke-linejoin="round" stroke-width="2" stroke-dasharray="80 10"/>
    </g>
    <g id="Grupo_57932" data-name="Grupo 57932" transform="translate(633.523 1946.057)">
      <circle id="Elipse_207-2" data-name="Elipse 207" cx="8" cy="8" r="8" transform="translate(68.477 64.943)" fill="none" stroke="#d57032" stroke-linecap="round" stroke-linejoin="round" stroke-width="2" stroke-dasharray="27 8"/>
      <path id="União_21-2" data-name="União 21" d="M8,36a3,3,0,0,1-3-3V18H4a3,3,0,0,1-3-3V3A3,3,0,0,1,4,0H20a3,3,0,0,1,3,3V15a3,3,0,0,1-3,3H19V33a3,3,0,0,1-3,3Z" transform="translate(64.477 88.943)" fill="none" stroke="#d57032" stroke-linecap="round" stroke-linejoin="round" stroke-width="2" stroke-dasharray="80 10"/>
    </g>
    <g id="Grupo_57933" data-name="Grupo 57933" transform="translate(665.523 1946.057)">
      <circle id="Elipse_207-3" data-name="Elipse 207" cx="8" cy="8" r="8" transform="translate(68.477 64.943)" fill="none" stroke="#d57032" stroke-linecap="round" stroke-linejoin="round" stroke-width="2" stroke-dasharray="27 8"/>
      <path id="União_21-3" data-name="União 21" d="M8,36a3,3,0,0,1-3-3V18H4a3,3,0,0,1-3-3V3A3,3,0,0,1,4,0H20a3,3,0,0,1,3,3V15a3,3,0,0,1-3,3H19V33a3,3,0,0,1-3,3Z" transform="translate(64.477 88.943)" fill="none" stroke="#d57032" stroke-linecap="round" stroke-linejoin="round" stroke-width="2" stroke-dasharray="80 10"/>
    </g>
    <g id="Grupo_57934" data-name="Grupo 57934" transform="translate(0 -2)">
      <path id="Caminho_1827" data-name="Caminho 1827" d="M25.436,13.541s-3.807-.707-6-2.755v12" transform="translate(678.564 1977.214)" fill="none" stroke="#d57032" stroke-linecap="round" stroke-linejoin="round" stroke-width="2" stroke-dasharray="190 10"/>
      <path id="Caminho_1828" data-name="Caminho 1828" d="M25.421,15.849a4.365,4.365,0,0,1-4.5,4.217,4.366,4.366,0,0,1-4.5-4.217,4.056,4.056,0,0,1,1.119-2.783" transform="translate(672.578 1983.934)" fill="none" stroke="#d57032" stroke-linecap="round" stroke-linejoin="round" stroke-width="2" stroke-dasharray="190 10"/>
    </g>
    <g id="nota-musical" transform="translate(722 1988.582)">
      <path id="Caminho_1253" data-name="Caminho 1253" d="M13.5,17.5V6.233L23.5,4.5V15.767" transform="translate(-9.5 -5.082)" fill="none" stroke="#d57032" stroke-linecap="round" stroke-linejoin="round" stroke-width="2" stroke-dasharray="190 10"/>
      <path id="Caminho_1254" data-name="Caminho 1254" d="M9.5,25A2.5,2.5,0,1,1,7,22.5,2.5,2.5,0,0,1,9.5,25Z" transform="translate(-5.5 -12.082)" fill="none" stroke="#d57032" stroke-linecap="round" stroke-linejoin="round" stroke-width="2" stroke-dasharray="8 8"/>
      <path id="Caminho_1255" data-name="Caminho 1255" d="M5,2.5A2.5,2.5,0,1,0,2.5,5,2.5,2.5,0,0,0,5,2.5Z" transform="translate(9 14.418) rotate(-90)" fill="none" stroke="#d57032" stroke-linecap="round" stroke-linejoin="round" stroke-width="2" stroke-dasharray="7 6"/>
    </g>
  </g>
</svg>
