<svg xmlns="http://www.w3.org/2000/svg" width="94" height="87.05" viewBox="0 0 94 87.05">
  <g id="Grupo_58453" data-name="Grupo 58453" transform="translate(-253 -1040.977)">
    <rect id="Retângulo_4174" data-name="Retângulo 4174" width="94" height="85" rx="8" transform="translate(253 1042)" fill="none"/>
    <path id="tau" d="M215.523,212.353a132.434,132.434,0,0,0,7.639,28.829,1.76,1.76,0,0,1-2.232,2.306,44.179,44.179,0,0,0-29.35,0,1.76,1.76,0,0,1-2.232-2.306,132.428,132.428,0,0,0,7.639-28.83q.319-2.064.586-4.168a145.337,145.337,0,0,0,1.048-25.582,1.763,1.763,0,0,0-1.884-1.663c-12.188.853-22.658,3.311-29.418,6.7a1.761,1.761,0,0,1-2.421-2.248,73.633,73.633,0,0,0,4.068-13.009,75.869,75.869,0,0,0,1.637-12.105,1.766,1.766,0,0,1,2.647-1.441c5.034,2.881,13.229,5.047,22.954,5.944,3.2.3,6.573.452,10.05.452s6.845-.157,10.048-.452c9.726-.9,17.92-3.063,22.954-5.944a1.766,1.766,0,0,1,2.647,1.441,75.869,75.869,0,0,0,1.637,12.105,73.647,73.647,0,0,0,4.068,13.009,1.761,1.761,0,0,1-2.421,2.248c-6.76-3.387-17.228-5.845-29.417-6.7a1.763,1.763,0,0,0-1.884,1.664,145.643,145.643,0,0,0,1.048,25.582Q215.2,210.29,215.523,212.353Z" transform="translate(93.744 883.405)" fill="none" stroke="#62bcc4" stroke-linecap="round" stroke-linejoin="round" stroke-width="2" stroke-dasharray="128 10"/>
  </g>
</svg>
