<svg xmlns="http://www.w3.org/2000/svg" width="94.001" height="87.001" viewBox="0 0 94.001 87.001">
  <g id="pdf-laranja" transform="translate(-57 -47.899)">
    <rect id="Retângulo_4174" data-name="Retângulo 4174" width="94" height="85" rx="8" transform="translate(57 48.9)" fill="none"/>
    <g id="ilustração" transform="translate(-714.504 -2073.101)">
      <path id="União_20" data-name="União 20" d="M23721.908-1397.19l-28.625-16.146-28.631,16.146a3.62,3.62,0,0,1-4.889-1.28,3.451,3.451,0,0,1,1.311-4.782l30.131-17a3.627,3.627,0,0,1,2.078-.46,3.61,3.61,0,0,1,2.072.46l30.133,17a3.459,3.459,0,0,1,1.314,4.782,3.6,3.6,0,0,1-3.105,1.752A3.624,3.624,0,0,1,23721.908-1397.19Z" transform="translate(-22875.277 3555.719)" fill="none" stroke="#d57032" stroke-linecap="round" stroke-linejoin="round" stroke-width="2" stroke-dasharray="76 10"/>
      <line id="Linha_580" data-name="Linha 580" y1="12" transform="translate(818 2122)" fill="none" stroke="#d57032" stroke-linecap="round" stroke-linejoin="round" stroke-width="2"/>
      <line id="Linha_581" data-name="Linha 581" x2="8" transform="translate(814 2126)" fill="none" stroke="#d57032" stroke-linecap="round" stroke-linejoin="round" stroke-width="2"/>
      <path id="Exclusão_1" data-name="Exclusão 1" d="M23676-1357h-13a5.007,5.007,0,0,1-5-5V-1407l25-15,25,15V-1362a5.007,5.007,0,0,1-5,5h-13v-19a7.01,7.01,0,0,0-7-7,7.008,7.008,0,0,0-7,7v19Z" transform="translate(-22865 3564)" fill="none" stroke="#d57032" stroke-linecap="round" stroke-linejoin="round" stroke-width="2" stroke-dasharray="190 10"/>
      <path id="Icon_feather-heart" data-name="Icon feather-heart" d="M14.321,5.47a3.5,3.5,0,0,0-4.839,0l-.659.64-.659-.64a3.5,3.5,0,0,0-4.839,0,3.249,3.249,0,0,0,0,4.694l.659.64L8.823,15.5,13.661,10.8l.659-.64a3.249,3.249,0,0,0,0-4.694Z" transform="translate(809.182 2154.502)" fill="rgba(0,0,0,0)" stroke="#d57032" stroke-linecap="round" stroke-linejoin="round" stroke-width="2"/>
    </g>
  </g>
</svg>
