<svg xmlns="http://www.w3.org/2000/svg" width="96.001" height="87.018" viewBox="0 0 96.001 87.018">
  <g id="Grupo_58451" data-name="Grupo 58451" transform="translate(-662 -1985)">
    <rect id="Retângulo_4174" data-name="Retângulo 4174" width="94" height="85" rx="8" transform="translate(663 1986)" fill="none"/>
    <g id="Grupo_57934" data-name="Grupo 57934" transform="translate(22.001 -2)">
      <path id="Caminho_1827" data-name="Caminho 1827" d="M25.436,13.541s-3.807-.707-6-2.755v12" transform="translate(676.564 1977.214)" fill="none" stroke="#d57032" stroke-linecap="round" stroke-linejoin="round" stroke-width="2" stroke-dasharray="190 10"/>
      <path id="Caminho_1828" data-name="Caminho 1828" d="M22.421,15.054a3,3,0,1,1-5.254-1.988" transform="translate(673.577 1984.934)" fill="none" stroke="#d57032" stroke-linecap="round" stroke-linejoin="round" stroke-width="2" stroke-dasharray="190 10"/>
    </g>
    <g id="nota-musical" transform="translate(741 2049.582)">
      <path id="Caminho_1253" data-name="Caminho 1253" d="M13.5,20.5V6.633L25.5,4.5V18.367" transform="translate(-9.501 -5.082)" fill="none" stroke="#d57032" stroke-linecap="round" stroke-linejoin="round" stroke-width="2" stroke-dasharray="190 10"/>
      <path id="Caminho_1254" data-name="Caminho 1254" d="M10.5,25.5a3,3,0,1,1-3-3A3,3,0,0,1,10.5,25.5Z" transform="translate(-6.5 -10.082)" fill="none" stroke="#d57032" stroke-linecap="round" stroke-linejoin="round" stroke-width="2" stroke-dasharray="11 8"/>
      <path id="Caminho_1255" data-name="Caminho 1255" d="M6,3A3,3,0,1,0,3,6,3,3,0,0,0,6,3Z" transform="translate(10.001 16.418) rotate(-90)" fill="none" stroke="#d57032" stroke-linecap="round" stroke-linejoin="round" stroke-width="2" stroke-dasharray="8 6"/>
    </g>
    <g id="Grupo_57949" data-name="Grupo 57949" transform="translate(-1 -2)">
      <g id="Grupo_57948" data-name="Grupo 57948" transform="translate(664 2021.403)">
        <path id="Caminho_1846" data-name="Caminho 1846" d="M352,238.82c1.457,3.3,2.956,6.707,3,6.784" transform="translate(-336.062 -224.933)" fill="none" stroke="#d57032" stroke-linecap="round" stroke-linejoin="round" stroke-width="2"/>
        <line id="Linha_584" data-name="Linha 584" x1="3.539" y1="3.145" transform="translate(10.969 23.348)" fill="none" stroke="#d57032" stroke-linecap="round" stroke-linejoin="round" stroke-width="2"/>
        <line id="Linha_585" data-name="Linha 585" y1="5.806" transform="translate(24.27 17.728)" fill="none" stroke="#d57032" stroke-linecap="round" stroke-linejoin="round" stroke-width="2"/>
        <path id="Caminho_1847" data-name="Caminho 1847" d="M365.137,277.013c-5.208,2.171-9.375-2.171-10.989-5.481-.082-.169-.167-.326-.24-.488-4.542-9.334-8.719-12.5-8.719-12.5l-7-6.121a4.454,4.454,0,0,1-.51-6.111,4.049,4.049,0,0,1,5.864-.543l4.125,3.6q-2.656-5.91-5.292-11.831a4.423,4.423,0,0,1,2.01-5.774,3.989,3.989,0,0,1,3.188-.141,4.345,4.345,0,0,1,2.354,2.247c.042.076,1.354,3.007,2.708,6.046v-9.573a4.463,4.463,0,0,1,1.219-3.072A4.109,4.109,0,0,1,356.8,226a4.256,4.256,0,0,1,4.167,4.342v13.415a4.081,4.081,0,0,1,3.125-1.476h10.417a4.256,4.256,0,0,1,4.167,4.341,4.463,4.463,0,0,1-1.219,3.072,4.109,4.109,0,0,1-2.948,1.27H366.96a3.509,3.509,0,0,0-2.552,1.1l-.021.022a3.836,3.836,0,0,0-1.073,2.681,3.729,3.729,0,0,0,3.646,3.8,3.533,3.533,0,0,0,2.344-1.085l2.312-2.225,3.312-3.18,1.156-1.1a6.079,6.079,0,0,1,8.854,0,2.226,2.226,0,0,1,0,3.061,20.45,20.45,0,0,0-5.146,5.362,24.427,24.427,0,0,0-3.2,7.847,11.3,11.3,0,0,1-3.219,5.47C371.3,274.435,367.6,275.985,365.137,277.013Z" transform="translate(-336.7 -226)" fill="none" stroke="#d57032" stroke-linecap="round" stroke-linejoin="round" stroke-width="2" stroke-dasharray="213 10"/>
        <path id="Caminho_1848" data-name="Caminho 1848" d="M358.266,260.3a5.5,5.5,0,0,1,3.4,1.766,6.085,6.085,0,0,1,1.505,3.391" transform="translate(-335.8 -223.125)" fill="none" stroke="#d57032" stroke-linecap="round" stroke-linejoin="round" stroke-width="2"/>
      </g>
      <path id="Subtração_1" data-name="Subtração 1" d="M3.637,44.8h0a6.033,6.033,0,0,0-2.764-.038,2.856,2.856,0,0,1-.744-.678l-.02-.026c-.035-.051-.074-.1-.109-.156a4.5,4.5,0,0,0,.342-1.717,4.441,4.441,0,0,0-.312-1.653,3.012,3.012,0,0,1,.512-.574l1.611-1.375L48.488.579A2.276,2.276,0,0,1,49.9,0a1.428,1.428,0,0,1,1.369.974,2.086,2.086,0,0,1-.777,2.218L6.08,42.774l-2.045,1.75a2.589,2.589,0,0,1-.4.281Z" transform="translate(705.639 2000)" fill="rgba(0,0,0,0)" stroke="#d57032" stroke-linecap="round" stroke-linejoin="round" stroke-width="2"/>
    </g>
  </g>
</svg>
