<svg xmlns="http://www.w3.org/2000/svg" width="97" height="83" viewBox="0 0 97 83">
  <g id="conductor" transform="translate(-3 -0.264)">
    <path id="Caminho_1279" data-name="Caminho 1279" d="M15.443-8.847c-21.328,0-53.782,6.545-55.764,30.735S3.067,66.153,24.394,66.153,50.616,51.081,50.616,29.345,36.771-8.847,15.443-8.847Z" transform="translate(46.384 13.11)" fill="#fcf7f9"/>
    <rect id="Retângulo_3713" data-name="Retângulo 3713" width="97" height="83" transform="translate(3 0.264)" fill="none"/>
    <path id="conductor-2" data-name="conductor" d="M73.812,8.5a6.249,6.249,0,0,1-1.672,2.588q-22.434,23.3-44.858,46.594a9.967,9.967,0,0,0-2.893,6.309,10.4,10.4,0,0,1-3.592,6.9,1.029,1.029,0,0,1-1.526.019,1.062,1.062,0,0,1,.086-1.582,8.829,8.829,0,0,0,2.706-4.423c.206-.9.255-1.828.42-2.737a10.646,10.646,0,0,1,2.753-5.429L21.2,52.711c-.665.463-1.39,1.032-2.175,1.5a10.669,10.669,0,0,1-4.659,1.39A8.213,8.213,0,0,0,9.22,57.92C7.856,59.24,6.5,60.574,5.2,61.947A7.612,7.612,0,0,0,15.9,72.771c.121-.112.236-.234.366-.338a1.042,1.042,0,0,1,1.474.007,1.054,1.054,0,0,1-.012,1.528,9.446,9.446,0,0,1-4.6,2.694,9.752,9.752,0,0,1-9.534-16.14c1.352-1.429,2.753-2.816,4.176-4.176a10.236,10.236,0,0,1,6.424-2.874,9.341,9.341,0,0,0,5.922-2.762q8.456-8.2,16.957-16.339L55.695,16.465c.068-.066.134-.136.2-.2a1.1,1.1,0,0,1,1.588-.055,1.077,1.077,0,0,1-.1,1.584c-.892.885-1.8,1.752-2.71,2.623L23.282,50.6a2.816,2.816,0,0,1-.5.319l4.1,4.09c.1-.1.276-.252.433-.416Q48.974,32.08,70.628,9.561a7.46,7.46,0,0,0,.755-.848,1.579,1.579,0,0,0-2.246-2.166c-.518.413-.981.9-1.46,1.355q-3.391,3.254-6.771,6.51c-.187.178-.385.462-.59.478a2.141,2.141,0,0,1-1.225-.175.846.846,0,0,1-.208-1.206,3.216,3.216,0,0,1,.557-.638c2.44-2.359,4.9-4.695,7.325-7.063A6.183,6.183,0,0,1,69.4,4.085a2.359,2.359,0,0,1,1.423,0,4.268,4.268,0,0,1,2.984,2.99A2.359,2.359,0,0,1,73.812,8.5Z" transform="translate(14.078 1.289)" fill="#991c3a"/>
    <path id="Caminho_1608" data-name="Caminho 1608" d="M3266.112,22730a5.238,5.238,0,0,1-2.71-.752,4.992,4.992,0,0,1-1.907-2.064,4.837,4.837,0,0,1,1.6-6.1,1.781,1.781,0,0,1,.99-.379.98.98,0,0,1,.811.449.867.867,0,0,1,.19.771,1.738,1.738,0,0,1-.667.844,2.777,2.777,0,0,0-.97,3.459,2.894,2.894,0,0,0,2.671,1.652,3.27,3.27,0,0,0,.483-.037,2.751,2.751,0,0,0,1.759-.973,3.079,3.079,0,0,0,.675-1.975c0-1.662,0-3.367,0-4.865v-1.615c0-1.062,0-2.17,0-3.242,0-1.168.227-1.426,1.431-1.617.514-.084,1.045-.176,1.5-.254l.322-.055.088-.016c.381-.064.785-.139,1.183-.2a1.852,1.852,0,0,1,.3-.027,1.059,1.059,0,0,1,1.122.811.919.919,0,0,1-.121.732,1.369,1.369,0,0,1-.894.549c-.511.105-1.023.2-1.455.273l-.181.033c-.273.047-.583.105-.9.164a.235.235,0,0,0-.193.232v9.012a5.276,5.276,0,0,1-1.025,3.229,5.071,5.071,0,0,1-2.79,1.8A5.37,5.37,0,0,1,3266.112,22730Z" transform="translate(-3182 -22646.732)" fill="#991c3a"/>
    <path id="Caminho_1609" data-name="Caminho 1609" d="M3266.068,22738c-.058,0-.119,0-.2-.008h-.008a5.117,5.117,0,0,1-2.825-9.2,1.493,1.493,0,0,1,.856-.32.994.994,0,0,1,.78.383,1.123,1.123,0,0,1-.283,1.658,3.281,3.281,0,0,0-1.184,2.605,2.81,2.81,0,0,0,1.229,2.16,2.91,2.91,0,0,0,1.68.531,2.906,2.906,0,0,0,2.861-2.381v-.008a6.715,6.715,0,0,0,.079-1.139v-14.652c0-1.3.164-1.494,1.461-1.725l15.926-2.865a2.671,2.671,0,0,1,.46-.043c.471,0,1.1.141,1.1,1.354.008,5.047.008,10.16,0,15.2,0,.619-.184,1.363-1.061,1.375h-.031c-.646,0-1.019-.432-1.108-1.268a2.888,2.888,0,0,0-2.779-2.729c-.045,0-.087,0-.132,0a2.939,2.939,0,0,0-1.9.705,2.905,2.905,0,0,0-.993,1.775,2.779,2.779,0,0,0,.435,2.008,3.145,3.145,0,0,0,1.731,1.256c.068.02.135.035.2.051l.015,0a.437.437,0,0,0,.066.02c.033.008.065.02.1.027a1.094,1.094,0,0,1-.252,2.168,1.592,1.592,0,0,1-.23-.02,5.127,5.127,0,0,1-.446-10.023,5.234,5.234,0,0,1,1.3-.168,5.457,5.457,0,0,1,2.5.637.226.226,0,0,0,.112.027.24.24,0,0,0,.126-.035.249.249,0,0,0,.118-.211v-9.469a.249.249,0,0,0-.09-.191.238.238,0,0,0-.155-.055.164.164,0,0,0-.044,0l-14.036,2.531a.241.241,0,0,0-.2.238v1.01c0,.748,0,1.5,0,2.254v.023c0,.736,0,1.467,0,2.184.005,2.684.009,5.84,0,8.936a5.556,5.556,0,0,1-1.478,3.877A5.092,5.092,0,0,1,3266.068,22738Z" transform="translate(-3251.006 -22712.736)" fill="#991c3a"/>
  </g>
</svg>
