<svg xmlns="http://www.w3.org/2000/svg" width="195.139" height="176.792" viewBox="0 0 195.139 176.792">
  <g id="Grupo_57956" data-name="Grupo 57956" transform="translate(-1393.005 -788.848)">
    <g id="Grupo_57468" data-name="Grupo 57468" transform="translate(1393.005 788.848)">
      <path id="Caminho_1758" data-name="Caminho 1758" d="M79.331-8.847C33.6-8.847-36,6.581-40.249,63.6S52.791,167.946,98.526,167.946s56.23-35.529,56.23-86.765S125.066-8.847,79.331-8.847Z" transform="translate(40.384 8.847)" fill="rgba(173,73,97,0.5)"/>
      <g id="Grupo_57467" data-name="Grupo 57467" transform="translate(31.997 9.447)">
        <path id="conductor" d="M130.876,12.044a11.141,11.141,0,0,1-2.981,4.614q-40,41.536-79.977,83.071a17.771,17.771,0,0,0-5.158,11.249,18.535,18.535,0,0,1-6.4,12.3,1.835,1.835,0,0,1-2.721.034,1.894,1.894,0,0,1,.152-2.821,15.742,15.742,0,0,0,4.824-7.886c.368-1.6.455-3.26.749-4.879a18.98,18.98,0,0,1,4.908-9.679l-7.2-7.185c-1.186.825-2.479,1.84-3.878,2.676a19.022,19.022,0,0,1-8.307,2.479,14.643,14.643,0,0,0-9.169,4.133c-2.432,2.353-4.848,4.732-7.174,7.179a13.572,13.572,0,0,0,19.075,19.3c.216-.2.421-.418.652-.6a1.857,1.857,0,0,1,2.629.013,1.88,1.88,0,0,1-.021,2.723,16.84,16.84,0,0,1-8.2,4.8,17.387,17.387,0,0,1-17-28.775c2.411-2.547,4.908-5.021,7.445-7.445a18.249,18.249,0,0,1,11.454-5.124A16.654,16.654,0,0,0,35.131,87.3Q50.207,72.686,65.362,58.17L98.575,26.243c.121-.118.239-.242.365-.352a1.955,1.955,0,0,1,2.831-.1,1.92,1.92,0,0,1-.179,2.823c-1.59,1.577-3.218,3.123-4.832,4.677Q68.767,60.2,40.788,87.1a5.02,5.02,0,0,1-.894.568l7.316,7.292c.187-.179.492-.45.773-.741Q86.593,54.082,125.2,13.934a13.3,13.3,0,0,0,1.346-1.512,2.816,2.816,0,0,0-4-3.862c-.923.736-1.748,1.6-2.6,2.416q-6.046,5.8-12.072,11.606c-.334.318-.686.823-1.052.852a3.817,3.817,0,0,1-2.185-.313,1.509,1.509,0,0,1-.371-2.15,5.733,5.733,0,0,1,.994-1.138c4.351-4.206,8.73-8.37,13.06-12.592a11.023,11.023,0,0,1,4.7-3.07,4.206,4.206,0,0,1,2.537,0A7.61,7.61,0,0,1,130.876,9.5,4.206,4.206,0,0,1,130.876,12.044Z" transform="translate(-0.922 -3.975)" fill="#fff"/>
        <path id="Caminho_1608" data-name="Caminho 1608" d="M3270.214,22744.322a9.29,9.29,0,0,1-4.884-1.385,9.035,9.035,0,0,1-.561-15.049,3.143,3.143,0,0,1,1.783-.7,1.756,1.756,0,0,1,1.461.824,1.636,1.636,0,0,1,.342,1.426,3.19,3.19,0,0,1-1.2,1.555,5.179,5.179,0,0,0,3.066,9.42,6.284,6.284,0,0,0,.87-.064,4.964,4.964,0,0,0,3.17-1.795,5.76,5.76,0,0,0,1.218-3.645c.008-3.061.007-6.2,0-8.963v-2.975c0-1.963,0-4,0-5.975,0-2.156.409-2.631,2.578-2.982.927-.154,1.884-.322,2.7-.467l.581-.1.159-.033c.685-.115,1.414-.252,2.131-.373a2.967,2.967,0,0,1,.536-.047,1.913,1.913,0,0,1,2.022,1.488,1.722,1.722,0,0,1-.218,1.35,2.44,2.44,0,0,1-1.611,1.012c-.921.2-1.843.367-2.623.506l-.326.063c-.492.084-1.051.2-1.627.3a.431.431,0,0,0-.348.428v16.611a9.855,9.855,0,0,1-1.848,5.945,9.112,9.112,0,0,1-5.028,3.326A9.322,9.322,0,0,1,3270.214,22744.322Z" transform="translate(-3143.124 -22596.395)" fill="#fff"/>
        <path id="Caminho_1609" data-name="Caminho 1609" d="M3269.979,22757.379c-.1,0-.21,0-.349-.016h-.014a9.027,9.027,0,0,1-8.234-6.457,9.13,9.13,0,0,1,3.227-9.867,2.621,2.621,0,0,1,1.517-.57,1.759,1.759,0,0,1,1.382.676c.749.9.561,2-.5,2.945a5.833,5.833,0,0,0-2.1,4.629,4.99,4.99,0,0,0,2.178,3.832,5.152,5.152,0,0,0,2.978.943,5.14,5.14,0,0,0,5.071-4.23v-.012a11.84,11.84,0,0,0,.14-2.02v-26.012c0-2.3.29-2.654,2.59-3.059l28.229-5.09a4.338,4.338,0,0,1,.816-.072c.834,0,1.944.248,1.944,2.4.014,8.961.014,18.033,0,26.988,0,1.094-.326,2.414-1.88,2.436h-.054c-1.145,0-1.806-.764-1.965-2.248a5.121,5.121,0,0,0-4.926-4.844c-.08,0-.155,0-.234,0a5.181,5.181,0,0,0-3.376,1.252,5.127,5.127,0,0,0-1.76,3.148,4.928,4.928,0,0,0,.771,3.563,5.547,5.547,0,0,0,3.067,2.227c.121.039.239.068.363.1l.026.01c.039.012.078.025.117.033.058.014.115.031.17.047a1.942,1.942,0,0,1-.448,3.848,2.724,2.724,0,0,1-.407-.035,9.106,9.106,0,0,1-.79-17.8,9.342,9.342,0,0,1,2.311-.293,9.654,9.654,0,0,1,4.44,1.131.46.46,0,0,0,.2.047.43.43,0,0,0,.224-.062.446.446,0,0,0,.21-.377v-16.8a.441.441,0,0,0-.16-.342.41.41,0,0,0-.274-.1.259.259,0,0,0-.079.008l-24.878,4.494a.43.43,0,0,0-.358.424v1.789c0,1.326,0,2.664,0,4v.039c0,1.309,0,2.607,0,3.881.009,4.762.016,10.367-.005,15.863a9.867,9.867,0,0,1-2.621,6.881A9.011,9.011,0,0,1,3269.979,22757.379Z" transform="translate(-3261.006 -22713)" fill="#fff"/>
      </g>
    </g>
  </g>
</svg>
