<svg xmlns="http://www.w3.org/2000/svg" width="97" height="83" viewBox="0 0 97 83">
  <g id="guitar" transform="translate(-1 -0.063)">
    <rect id="Retângulo_3715" data-name="Retângulo 3715" width="97" height="83" transform="translate(1 0.063)" fill="none"/>
    <path id="Caminho_1277" data-name="Caminho 1277" d="M15.443-8.847c-21.328,0-53.782,6.545-55.764,30.735S3.067,66.153,24.394,66.153,50.616,51.081,50.616,29.345,36.771-8.847,15.443-8.847Z" transform="translate(44.384 12.909)" fill="#fcf7f9"/>
    <path id="Caminho_1268" data-name="Caminho 1268" d="M124.53,0l.258.184a1.329,1.329,0,0,1,.628,1.6,1.341,1.341,0,0,1-1.417.98h-7.667c-1.342,0-1.813.463-1.814,1.785v7.211c0,1.25.462,1.723,1.692,1.727q4.235.01,8.474,0c1.276,0,1.733-.472,1.743-1.773.01-1.134-.01-2.268.008-3.4.015-1.056.482-1.527,1.534-1.547q1.491-.03,2.983,0a1.361,1.361,0,0,1,1.481,1.365,1.4,1.4,0,0,1-1.481,1.388c-.557.028-1.117,0-1.77,0,0,.855.01,1.63,0,2.4a4.266,4.266,0,0,1-2.434,3.985,1.048,1.048,0,0,0-.477.767c-.035,2.862,0,5.726-.036,8.589,0,.576.257.714.724.83a16.281,16.281,0,0,1,7.725,4.151c3.277,3.3,3.924,7.275,2.862,11.675-.525,2.172-1.1,4.345-1.423,6.55a9.891,9.891,0,0,0,1.385,6.518,43.372,43.372,0,0,1,3.44,6.57,14.694,14.694,0,0,1-6.639,17.978,26.511,26.511,0,0,1-10.936,3.321c-.262.025-.517.1-.775.148h-4.364c-1.667-.271-3.355-.45-5-.83-4.058-.92-7.773-2.559-10.619-5.73-4.176-4.649-4.891-11.137-1.92-17.075a25.549,25.549,0,0,1,1.972-3.433c2.2-3.077,2.426-6.427,1.6-9.972-.5-2.1-1.069-4.184-1.427-6.309A11.324,11.324,0,0,1,108.3,28.458a1.37,1.37,0,0,1,1.571,2.241c-.454.38-.964.694-1.407,1.086-2.883,2.552-3.468,5.755-2.6,9.364.5,2.044,1.08,4.074,1.418,6.143a12.7,12.7,0,0,1-1.657,9.037c-.78,1.26-1.541,2.534-2.263,3.829-3.826,6.835-1.147,14.534,5.6,17.6a26.47,26.47,0,0,0,22.881-.038,12.232,12.232,0,0,0,5.6-17.425,31.181,31.181,0,0,0-1.71-2.932c-2.592-3.719-2.983-7.764-1.932-12.065a57.428,57.428,0,0,0,1.355-6.151,8.169,8.169,0,0,0-3.635-7.978,14.329,14.329,0,0,0-5.282-2.381V42.55a3.97,3.97,0,0,1-.091,1.043,1.343,1.343,0,0,1-2.613-.111,6.146,6.146,0,0,1-.053-1.049V16.307h-6.161v7.548h2.055c1.067.01,1.723.555,1.71,1.408s-.638,1.342-1.669,1.353c-.671.008-1.342,0-2.083,0v9.323c.8,0,1.6-.013,2.4,0,1.036.02,1.612.541,1.594,1.41-.018.83-.6,1.328-1.586,1.353-.752.018-1.506.017-2.258.028-.046,0-.093.042-.179.083v8.873c.32-.076.621-.138.916-.219a8.805,8.805,0,1,1-6.46,9.417c-.076-1.114.346-1.767,1.2-1.856s1.42.5,1.541,1.592a6.019,6.019,0,1,0,9.64-5.437,5.909,5.909,0,0,0-7.077-.166c-.582.405-1.208.819-1.823.3a2.2,2.2,0,0,1-.706-1.413c-.085-1.7-.031-3.4-.031-5.1q0-13.985.01-27.966a1.078,1.078,0,0,0-.636-1.127,3.929,3.929,0,0,1-2.123-3.571c-.017-.83,0-1.66,0-2.617h-1.64c-1.168-.012-1.781-.5-1.773-1.413s.588-1.343,1.727-1.355H111.8C111.549,3.764,111.688,1,115.163,0Z" transform="translate(-70.882 0.063)" fill="#991c3a"/>
    <path id="Caminho_1270" data-name="Caminho 1270" d="M194.75,418.844h-4.976c-1.025,0-1.587-.5-1.584-1.351s.586-1.345,1.6-1.348q4.978-.01,9.954,0c.974,0,1.606.554,1.6,1.363s-.616,1.33-1.624,1.335C198.066,418.852,196.408,418.844,194.75,418.844Z" transform="translate(-145.853 -346.514)" fill="#991c3a"/>
    <path id="Caminho_1610" data-name="Caminho 1610" d="M3266.068,22738c-.058,0-.119,0-.2-.008h-.008a5.117,5.117,0,0,1-2.825-9.2,1.493,1.493,0,0,1,.856-.32.994.994,0,0,1,.78.383,1.123,1.123,0,0,1-.283,1.658,3.281,3.281,0,0,0-1.184,2.605,2.81,2.81,0,0,0,1.229,2.16,2.91,2.91,0,0,0,1.68.531,2.906,2.906,0,0,0,2.861-2.381v-.008a6.715,6.715,0,0,0,.079-1.139v-14.652c0-1.3.164-1.494,1.461-1.725l15.926-2.865a2.671,2.671,0,0,1,.46-.043c.471,0,1.1.141,1.1,1.354.008,5.047.008,10.16,0,15.2,0,.619-.184,1.363-1.061,1.375h-.031c-.646,0-1.019-.432-1.108-1.268a2.888,2.888,0,0,0-2.779-2.729c-.045,0-.087,0-.132,0a2.939,2.939,0,0,0-1.9.705,2.905,2.905,0,0,0-.993,1.775,2.779,2.779,0,0,0,.435,2.008,3.145,3.145,0,0,0,1.731,1.256c.068.02.135.035.2.051l.015,0a.437.437,0,0,0,.066.02c.033.008.065.02.1.027a1.094,1.094,0,0,1-.252,2.168,1.592,1.592,0,0,1-.23-.02,5.127,5.127,0,0,1-.446-10.023,5.234,5.234,0,0,1,1.3-.168,5.457,5.457,0,0,1,2.5.637.226.226,0,0,0,.112.027.24.24,0,0,0,.126-.035.249.249,0,0,0,.118-.211v-9.469a.249.249,0,0,0-.09-.191.238.238,0,0,0-.155-.055.164.164,0,0,0-.044,0l-14.036,2.531a.241.241,0,0,0-.2.238v1.01c0,.748,0,1.5,0,2.254v.023c0,.736,0,1.467,0,2.184.005,2.684.009,5.84,0,8.936a5.556,5.556,0,0,1-1.478,3.877A5.092,5.092,0,0,1,3266.068,22738Z" transform="translate(-3190.006 -22712.934)" fill="#991c3a"/>
    <path id="Caminho_1611" data-name="Caminho 1611" d="M3266.112,22730a5.238,5.238,0,0,1-2.71-.752,4.992,4.992,0,0,1-1.907-2.064,4.837,4.837,0,0,1,1.6-6.1,1.781,1.781,0,0,1,.99-.379.98.98,0,0,1,.811.449.867.867,0,0,1,.19.771,1.738,1.738,0,0,1-.667.844,2.777,2.777,0,0,0-.97,3.459,2.894,2.894,0,0,0,2.671,1.652,3.27,3.27,0,0,0,.483-.037,2.751,2.751,0,0,0,1.759-.973,3.079,3.079,0,0,0,.675-1.975c0-1.662,0-3.367,0-4.865v-1.615c0-1.062,0-2.17,0-3.242,0-1.168.227-1.426,1.431-1.617.514-.084,1.045-.176,1.5-.254l.322-.055.088-.016c.381-.064.785-.139,1.183-.2a1.852,1.852,0,0,1,.3-.027,1.059,1.059,0,0,1,1.122.811.919.919,0,0,1-.121.732,1.369,1.369,0,0,1-.894.549c-.511.105-1.023.2-1.455.273l-.181.033c-.273.047-.583.105-.9.164a.235.235,0,0,0-.193.232v9.012a5.276,5.276,0,0,1-1.025,3.229,5.071,5.071,0,0,1-2.79,1.8A5.37,5.37,0,0,1,3266.112,22730Z" transform="translate(-3260 -22646.934)" fill="#991c3a"/>
  </g>
</svg>
