<svg xmlns="http://www.w3.org/2000/svg" width="97" height="83.002" viewBox="0 0 97 83.002">
  <g id="organ" transform="translate(-1 -0.068)">
    <path id="Caminho_1278" data-name="Caminho 1278" d="M15.443-8.847c-21.328,0-53.782,6.545-55.764,30.735S3.067,66.153,24.394,66.153,50.616,51.081,50.616,29.345,36.771-8.847,15.443-8.847Z" transform="translate(44.384 12.915)" fill="#fbf0ea"/>
    <path id="Caminho_1612" data-name="Caminho 1612" d="M3336.38,22314.988a8.774,8.774,0,0,1-2.081-1.3,4.333,4.333,0,0,1-1.13-2.25c-.464-4.7-.807-9.416-1.164-14.127-.079-1.029.464-1.637,1.341-1.641a1.362,1.362,0,0,1,1.4,1.383c.343,4.2.667,8.4,1,12.6.037.461.062.92.138,1.371a1.392,1.392,0,0,0,1.409,1.2,1.435,1.435,0,0,0,1.347-1.281,3.588,3.588,0,0,0,.017-.488V22294c0-.238-.025-.471-.042-.748h-72.246v17.02c0,.191-.009.383,0,.568a1.43,1.43,0,0,0,1.338,1.377,1.36,1.36,0,0,0,1.428-1.258c.2-1.8.323-3.607.467-5.408.18-2.264.343-4.525.528-6.783.082-.949.515-1.465,1.246-1.568a1.387,1.387,0,0,1,1.515,1.645c-.245,3.322-.511,6.623-.771,9.934-.059.756-.121,1.508-.191,2.262a4.14,4.14,0,0,1-3.036,3.793,1.387,1.387,0,0,0-.262.156H3267a4.407,4.407,0,0,1-3.326-3.393,6.2,6.2,0,0,1-.079-1.209v-16.693a1.126,1.126,0,0,0-.627-1.148,3.948,3.948,0,0,1-1.954-3.5c-.02-1.027-.017-2.051,0-3.078a4.16,4.16,0,0,1,4.088-4.18c.613-.021,1.232,0,1.948,0,0-1.494-.017-2.92,0-4.342a4.14,4.14,0,0,1,3.259-4.184,5.573,5.573,0,0,1,1.206-.1q31,0,61.995-.012a4.391,4.391,0,0,1,2.806.861,1.411,1.411,0,0,1,.385,1.934,1.432,1.432,0,0,1-1.937.361,3.31,3.31,0,0,0-1.364-.369q-30.914-.026-61.831-.014c-1.277,0-1.743.471-1.752,1.773-.009,1.73,0,3.459,0,5.189-.009,1.2-.473,1.648-1.679,1.66-.439,0-.874,0-1.31,0-.478,0-.962,0-1.442,0a1.432,1.432,0,0,0-1.606,1.605c-.017.891-.014,1.783,0,2.672a1.436,1.436,0,0,0,1.594,1.615c.214.006.43,0,.647,0h73.013a7.94,7.94,0,0,0,.888-.027,1.343,1.343,0,0,0,1.3-1.391c.031-1.025.031-2.055,0-3.078a1.368,1.368,0,0,0-1.313-1.387,6.8,6.8,0,0,0-.891-.014H3276.7c-.335,0-.653.01-.973-.02a1.33,1.33,0,0,1-1.262-1.238,1.348,1.348,0,0,1,1.06-1.432,4.946,4.946,0,0,1,1.046-.062h62.239c3.045,0,4.041.648,5.188,3.385v4.7a4.56,4.56,0,0,1-2.007,2.715,1,1,0,0,0-.6,1.072q.025,8.376,0,16.748a5.957,5.957,0,0,1-.087,1.205A4.383,4.383,0,0,1,3338,22315Zm-75.361-38.488c-.014-2.154,0-4.314,0-6.482,0-1.809-.014-3.619,0-5.428a4.126,4.126,0,0,1,4.189-4.225c1.049-.012,2.1,0,3.25,0v-13.65a4.142,4.142,0,0,1,4.473-4.5c.54,0,1.08-.023,1.62.01a1.368,1.368,0,1,1,0,2.736c-.34.02-.683.018-1.023.014-.309,0-.616-.008-.922.01a1.33,1.33,0,0,0-1.375,1.395c-.017,4.615,0,9.236,0,13.924h6.556v-1.027c0-7.352.051-14.7-.028-22.045-.04-2.58.81-4.395,3.348-5.223h5.516c.166.08.318.168.487.236a4.091,4.091,0,0,1,2.761,3.891c.02,2.07,0,4.141,0,6.154h6.594c0-1.928-.048-3.893.025-5.854a6.487,6.487,0,0,1,.537-2.322,4.36,4.36,0,0,1,2.722-2.111h5.511c.14.064.275.145.422.2a4.074,4.074,0,0,1,2.848,3.91c.031,2.07,0,4.137,0,6.174h6.6v-.814c0-1.8-.031-3.613.011-5.418a4.013,4.013,0,0,1,2.454-3.691c.265-.123.532-.232.793-.35h5.511c2.53.828,3.388,2.643,3.363,5.223-.079,7.338-.028,14.682-.028,22.025v1.057h6.56v-13.33c0-1.588-.332-1.932-1.915-2.006a1.421,1.421,0,0,1-1.49-1.383,1.4,1.4,0,0,1,1.485-1.375,4.173,4.173,0,0,1,4.681,4.451q.009,6.4,0,12.8v.9h.92c.81,0,1.622-.023,2.429,0,2.221.1,3.461,1.389,4.094,3.406l0,13.3a1.462,1.462,0,0,0-.157.176,1.309,1.309,0,0,1-1.645.662,1.391,1.391,0,0,1-.962-1.51q.008-5.678,0-11.346c0-1.5-.43-1.932-1.926-1.932h-42.864c-1.355,0-2.05-.488-2.024-1.422.025-.9.686-1.336,2.016-1.338h9.337v-23.686c0-1.5-.413-1.914-1.926-1.916h-2.593c-1.662,0-2.021.371-2.021,2.061v16.855c-.017,1.1-.517,1.719-1.395,1.721s-1.366-.607-1.369-1.723v-6.887c0-1.342-.475-1.814-1.8-1.826H3291.6c-1.217.01-1.712.5-1.712,1.732v14.51c0,1.494-.416,1.916-1.926,1.916h-22.215c-1.558,0-1.971.408-1.971,1.955v11.426a1.426,1.426,0,0,1-1.38,1.5A1.4,1.4,0,0,1,3261.019,22276.5Zm21.515-41.729c-1.572,0-1.977.391-1.977,1.947v22.764c0,.281.031.563.051.863l6.458,0c.02-.184.042-.285.042-.391V22236.3c0-1.01-.543-1.514-1.58-1.527-.333-.006-.666-.008-1-.008C3283.865,22234.764,3283.2,22234.771,3282.534,22234.771Zm27.6,10.2a1.389,1.389,0,0,0-1.577,1.537c-.017,4.51,0,9.016,0,13.525a1.453,1.453,0,0,0,.062.289h15.835v-16.865c0-2.324.009-4.646,0-6.969,0-1.248-.486-1.717-1.712-1.727h-2.992c-1.4,0-1.847.447-1.847,1.834v15.875c0,.975.023,1.945-.008,2.922a1.351,1.351,0,0,1-1.5,1.428c-.8-.057-1.254-.613-1.257-1.58v-8.59c0-1.176-.509-1.674-1.681-1.68-.738,0-1.476-.008-2.215-.008C3310.877,22244.963,3310.507,22244.967,3310.136,22244.971Z" transform="translate(-3252.999 -22231.93)" fill="#d57032"/>
    <rect id="Retângulo_3714" data-name="Retângulo 3714" width="97" height="83" transform="translate(1 0.068)" fill="none"/>
  </g>
</svg>
