<svg xmlns="http://www.w3.org/2000/svg" width="197.692" height="175.179" viewBox="0 0 197.692 175.179">
  <g id="Grupo_58590" data-name="Grupo 58590" transform="translate(-1460.293 -755.092)">
    <path id="Caminho_1575" data-name="Caminho 1575" d="M80.9-8.847C34.564-8.847-35.941,5.1-40.247,56.67s94.257,94.357,140.59,94.357,56.966-32.129,56.966-78.462S127.23-8.847,80.9-8.847Z" transform="translate(1500.677 772.542)" fill="rgba(248,210,31,0.5)"/>
    <g id="bird" transform="translate(1478.859 757.614)">
      <path id="Caminho_1654" data-name="Caminho 1654" d="M98.223,65.229s.792,33.345-29.008,45.157c-24.354,9.656-45.6,4.146-60.647-5.51C-5.344,95.949,5.508,86.507,5.508,86.507l5.476-6.464L71.446,8.652s10.5,6.568,15.23,15.23" transform="translate(-0.575 35.089)" fill="none" stroke="#fff" stroke-linecap="round" stroke-linejoin="round" stroke-width="5"/>
      <path id="Caminho_1655" data-name="Caminho 1655" d="M13.488,15.35" transform="translate(56.857 67.118)" fill="none" stroke="#fff" stroke-linecap="round" stroke-linejoin="round" stroke-width="5"/>
      <path id="Caminho_1656" data-name="Caminho 1656" d="M3.363,48.822S48.387,74.159,61.906,15.35" transform="translate(8.44 67.118)" fill="none" stroke="#fff" stroke-linecap="round" stroke-linejoin="round" stroke-width="5"/>
      <path id="Caminho_1657" data-name="Caminho 1657" d="M36.3,37.562S21.2,35.053,9.844,27.12" transform="translate(39.432 123.402)" fill="none" stroke="#fff" stroke-linecap="round" stroke-width="5"/>
      <path id="Caminho_1658" data-name="Caminho 1658" d="M9.314,25.294,2.226,41.073s-3.365,7.979,2.891,12.7c7.731,5.846,21-5.51,21-5.51" transform="translate(-1.322 114.67)" fill="none" stroke="#fff" stroke-linecap="round" stroke-linejoin="round" stroke-width="5"/>
      <path id="Caminho_1659" data-name="Caminho 1659" d="M31.648,15.383s-7.748-1.18-12.212-4.6V30.809" transform="translate(85.301 45.293)" fill="none" stroke="#fff" stroke-linecap="round" stroke-linejoin="round" stroke-width="5"/>
      <path id="Caminho_1660" data-name="Caminho 1660" d="M33.512,8.949s-5.909-7.355-11.419,0" transform="translate(98.006 20.88)" fill="none" stroke="#fff" stroke-linecap="round" stroke-linejoin="round" stroke-width="5"/>
      <path id="Caminho_1661" data-name="Caminho 1661" d="M13.594,44.828S12.281,17.392,32.1,6.759,70.83,1.249,83.3,15.426s8.667,35.7,3.81,49.355L98.132,92.876" transform="translate(57.278 -1.087)" fill="none" stroke="#fff" stroke-linecap="round" stroke-linejoin="round" stroke-width="5"/>
      <path id="Caminho_1662" data-name="Caminho 1662" d="M26.679,4.952S43.088,9.023,46.367,18.863,40.59,30.942,40.59,30.942" transform="translate(119.937 17.395)" fill="none" stroke="#fff" stroke-linecap="round" stroke-linejoin="round" stroke-width="5"/>
      <path id="Caminho_1663" data-name="Caminho 1663" d="M21,82.663V34.748c0-9.055,7.482-9.974,7.482-9.974s34.391-7.881,41.873-7.482,6.3,9.055,6.3,9.055V71.111" transform="translate(92.794 76.335)" fill="none" stroke="#fff" stroke-linecap="round" stroke-linejoin="round" stroke-width="5"/>
      <line id="Linha_536" data-name="Linha 536" y1="7.22" x2="36.099" transform="translate(113.796 113.447)" fill="none" stroke="#fff" stroke-linecap="round" stroke-linejoin="round" stroke-width="5"/>
      <path id="Caminho_1664" data-name="Caminho 1664" d="M33.854,18.819a8.716,8.716,0,1,1-15.264-5.753" transform="translate(70.883 56.196)" fill="none" stroke="#fff" stroke-linecap="round" stroke-linejoin="round" stroke-width="5"/>
      <path id="Caminho_1665" data-name="Caminho 1665" d="M35.425,33.428a8.719,8.719,0,1,1-15.264-5.753" transform="translate(78.372 126.056)" fill="none" stroke="#fff" stroke-linecap="round" stroke-linejoin="round" stroke-width="5"/>
      <path id="Caminho_1666" data-name="Caminho 1666" d="M45.063,31.273A8.719,8.719,0,1,1,29.8,25.52" transform="translate(124.46 115.751)" fill="none" stroke="#fff" stroke-linecap="round" stroke-linejoin="round" stroke-width="5"/>
    </g>
  </g>
</svg>
