<svg xmlns="http://www.w3.org/2000/svg" width="208.28" height="163.182" viewBox="0 0 208.28 163.182">
  <g id="piano" transform="translate(29.003 1.094)">
    <path id="Caminho_1276" data-name="Caminho 1276" d="M83.752-8.847c-47.424,0-119.589,14.24-124,66.873s96.476,96.31,143.9,96.31,58.307-32.794,58.307-80.086S131.176-8.847,83.752-8.847Z" transform="translate(11.381 7.753)" fill="rgba(213,112,50,0.5)"/>
    <path id="piano-2" data-name="piano" d="M41.731,0a78.5,78.5,0,0,1,8.328,1.827C61.376,5.539,69.482,12.908,74.022,23.936A61.018,61.018,0,0,0,97.809,52.771a60,60,0,0,0,28.523,9.559,21.692,21.692,0,0,1,20.017,21.2c.035,3.572.018,7.146,0,10.721,0,1.783-.963,2.928-2.418,2.928s-2.438-1.124-2.444-2.9c-.015-3.384,0-6.766,0-10.15-.053-9.21-6.753-16.032-15.921-17.007-25.86-2.74-44.524-15.859-55.223-39.658-3.65-8.124-8.545-14.8-16.56-18.9A33.6,33.6,0,0,0,5.243,33.111a34.456,34.456,0,0,0-.363,5.41q-.035,30.02-.015,60.037c0,3.856,1.92,5.75,5.819,5.759H16.1c.029-.609.07-1.118.073-1.631,0-2.761-.061-5.527.035-8.288a7.246,7.246,0,0,1,7.359-7.187h.714q49.237,0,98.474.015a10.45,10.45,0,0,1,3.091.416,7.421,7.421,0,0,1,4.976,7.951,2.484,2.484,0,0,1-2.406,2.374,2.452,2.452,0,0,1-2.441-2.468c-.269-2.942-.782-3.417-3.7-3.417H24.639c-2.927,0-3.583.667-3.586,3.63v8.6h113.7c1.835.047,2.74.9,2.743,2.72.015,10.721.035,21.442,0,32.16a7.241,7.241,0,0,1-7.084,7.173H16.776c-4.054,0-6.941-2.161-7.766-5.794a5.271,5.271,0,0,1-.146-1.13q-.018-10.648,0-21.3a2.348,2.348,0,0,1,1.78-2.453,2.119,2.119,0,0,1,2.6.963,4.143,4.143,0,0,1,.465,2.029c.032,6.385.018,12.77.018,19.155v1a2.422,2.422,0,0,0,2.558,2.635c4.145.035,8.29,0,12.435,0a2.486,2.486,0,0,0,.527-.161c0-3.018.02-6.054-.029-9.093a1.236,1.236,0,0,0-.705-.846c-3.554-1.388-5.093-4.04-5.064-7.785.044-4.239,0-8.49,0-12.721V109.2H13.2a31.17,31.17,0,0,1-4.564-.117,9.621,9.621,0,0,1-8.346-7.366c-.079-.269-.187-.53-.293-.793V34.88c.085-.363.2-.72.252-1.089C2.719,17.3,12.037,6.631,27.809,1.531A66.171,66.171,0,0,1,35.157,0Zm76.291,109.306H96.343v22.115c0,1.95-1.265,3.089-2.927,2.734-1.294-.272-1.92-1.2-1.92-2.928v-21.94H69.833c0,4.945-.018,9.793,0,14.638,0,2.125.969,2.948,3.3,2.957,2.45,0,3.413-.8,3.445-2.957s0-4.289,0-6.441c0-1.871.852-2.928,2.342-2.966,1.554-.047,2.515,1.054,2.529,2.954q.026,3.22,0,6.441a7.37,7.37,0,0,1-4.962,7.425c-.328.132-.79.518-.8.793-.056,3.077-.035,6.148-.035,9.3H112.13V131.65l-.893-.369a7.144,7.144,0,0,1-4.815-6.786c-.108-2.567-.053-5.144,0-7.717.026-1.707,1.007-2.731,2.474-2.72s2.365,1.016,2.386,2.772c.026,2.286,0,4.576,0,6.862.015,2.371.878,3.194,3.349,3.2s3.384-.811,3.4-3.147v-7.717Zm-47.3,32.163c0-3.165.026-6.2-.038-9.24,0-.313-.492-.752-.849-.9a7.348,7.348,0,0,1-4.906-7.319c-.023-2.573,0-5.144,0-7.717v-7.026H54.887V132.6c0,1.757-1.063,2.884-2.529,2.816-1.417-.064-2.327-1.153-2.342-2.866q-.018-10.862,0-21.72v-1.572H28.395c-.026.389-.07.711-.07,1.033,0,4.526-.015,9.049,0,13.575,0,2.2.951,3.013,3.384,3.013s3.331-.8,3.358-3.042,0-4.476,0-6.716c0-1.85.878-2.928,2.342-2.986,1.5-.05,2.506,1.113,2.523,2.989.021,2.193,0,4.391,0,6.575,0,3.668-1.528,6.3-5.035,7.662-.293.117-.741.442-.744.676-.05,3.127-.032,6.253-.032,9.421ZM122.9,109.247v14.568c0,3.619-1.557,6.183-4.976,7.545-.322.129-.758.527-.764.808-.056,3.074-.035,6.148-.035,9.342h12.295c2.421,0,3.22-.82,3.22-3.285V110.659c0-.46-.038-.919-.061-1.411Z" transform="translate(20.085 1.066)" fill="#fff"/>
    <path id="Caminho_1732" data-name="Caminho 1732" d="M0,0H172.413V146.023H0Z" transform="translate(6.864 0.252)" fill="none"/>
  </g>
</svg>
