<svg xmlns="http://www.w3.org/2000/svg" width="156" height="126" viewBox="0 0 156 126">
  <g id="sem_imagem" data-name="sem imagem" transform="translate(-704.999 -935.878)">
    <path id="Caminho_1575" data-name="Caminho 1575" d="M55.319-8.847c-36.562,0-92.2,11-95.6,51.635S34.1,117.153,70.664,117.153s44.952-25.321,44.952-61.838S91.881-8.847,55.319-8.847Z" transform="translate(745.383 944.725)" fill="#eff8f9"/>
    <g id="sem-foto" transform="translate(-879.5 -1068.623)">
      <path id="Caminho_2252" data-name="Caminho 2252" d="M18317.229,23279.4l0,0H18228a9.989,9.989,0,0,1-9.994-9.994v-67a10,10,0,0,1,9.994-10h2.232l87,87Z" transform="translate(-16613.998 -21168.402)" fill="none" stroke="#62bcc4" stroke-linecap="round" stroke-linejoin="round" stroke-width="4"/>
      <path id="Caminho_2253" data-name="Caminho 2253" d="M18250.031,23192.4h2.016a10,10,0,0,1,9.949-9h33a10,10,0,0,1,9.947,9H18327a10,10,0,0,1,9.994,10v66.125c-.113,2.32-.568,4.01-2.156,4.98" transform="translate(-16613.494 -21168.402)" fill="none" stroke="#62bcc4" stroke-linecap="round" stroke-linejoin="round" stroke-width="4" stroke-dasharray="293 160"/>
      <line id="Linha_640" data-name="Linha 640" x2="118.004" y2="118" transform="translate(1601.5 2008.5)" fill="rgba(0,0,0,0)" stroke="#62bcc4" stroke-linecap="round" stroke-width="4"/>
      <path id="Caminho_2251" data-name="Caminho 2251" d="M18273.064,23261.7a27.49,27.49,0,0,1-21.686-44.416l38.6,38.6a27.34,27.34,0,0,1-7.814,4.275C18279.346,23261.139,18273.064,23261.7,18273.064,23261.7Z" transform="translate(-16609.338 -21167.695)" fill="none" stroke="#62bcc4" stroke-linecap="round" stroke-linejoin="round" stroke-width="4" stroke-dasharray="61 55"/>
      <path id="Caminho_2254" data-name="Caminho 2254" d="M18262.639,23208.738a27.5,27.5,0,0,1,37.924,25.459,28.374,28.374,0,0,1-2.043,10.41" transform="translate(-16609.252 -21167.695)" fill="none" stroke="#62bcc4" stroke-linecap="round" stroke-linejoin="round" stroke-width="4"/>
      <circle id="Elipse_248" data-name="Elipse 248" cx="2" cy="2" r="2" transform="translate(1704.504 2038)" fill="none" stroke="#62bcc4" stroke-linecap="round" stroke-linejoin="round" stroke-width="4"/>
    </g>
  </g>
</svg>
