<svg xmlns="http://www.w3.org/2000/svg" width="192.6" height="174.491" viewBox="0 0 192.6 174.491">
  <g id="violin" transform="translate(2.908 2.624)">
    <path id="Caminho_1280" data-name="Caminho 1280" d="M77.773-8.847C32.633-8.847-36.056,6.38-40.251,62.66S51.578,165.645,96.717,165.645s55.5-35.066,55.5-85.636S122.912-8.847,77.773-8.847Z" transform="translate(37.476 6.223)" fill="rgba(248,210,31,0.5)"/>
    <path id="Caminho_1613" data-name="Caminho 1613" d="M4266.308,22388.648a73,73,0,0,1-8.738-1.867c-18.873-6.428-31.223-19.18-35.582-38.752-3.087-13.871,1.2-26,10.991-36.164a5.435,5.435,0,0,1,3.361-1.1,34.23,34.23,0,0,0,20.4-7.941c5.329-4.434,9.341-9.8,10.565-16.795a19.613,19.613,0,0,0-.106-5.969,3.653,3.653,0,0,1,1.2-3.727c1.528-1.287,3.015-2.625,4.637-4.047-4.065-4.041-8.092-8.029-12.114-12.037-3.182-3.176-6.344-6.348-9.546-9.527-2.369-2.352-4.4-2.3-6.812.055-1.176,1.148-2.416,2.221-3.817,3.518,1.707,1.627,3.162,3.01,4.59,4.416,3.818,3.781,7.593,7.592,11.39,11.381a2.574,2.574,0,0,1,.567,3.365,2.4,2.4,0,0,1-2.915,1.186,3.8,3.8,0,0,1-1.533-.979q-11.736-11.692-23.441-23.434c-1.339-1.346-1.435-2.83-.347-3.975s2.725-1.1,4.085.27,2.61,2.768,4.081,4.346c1.433-1.5,2.6-2.807,3.843-4.047,4.19-4.178,9.672-4.211,13.858-.047q10.759,10.7,21.46,21.469a9.812,9.812,0,0,1,.977,1.346,45.681,45.681,0,0,1,32.662-4.8c2.017.441,3.036,1.686,2.689,3.275s-1.733,2.373-3.787,1.906a40.3,40.3,0,0,0-18.567.037,38.961,38.961,0,0,0-16.925,8.926,1.964,1.964,0,0,0-.693,1.375c.851,8.51-2.431,15.588-7.793,21.8a38.579,38.579,0,0,1-27.406,13.787,3.7,3.7,0,0,0-2.752,1.709c-8.029,9.846-10.618,21.072-6.71,33.094,5.476,16.836,17.014,27.854,34.431,31.828,11.217,2.539,21.321-.564,30.136-7.941a3.939,3.939,0,0,0,1.224-3c1.812-15.453,9.552-26.629,23.9-32.98a22.616,22.616,0,0,1,11.374-1.674,2.128,2.128,0,0,0,1.574-.555c10.935-11.467,13.224-32.189,5.11-45.914a6.6,6.6,0,0,0-.572-.635,8.1,8.1,0,0,1-.915,1.455q-8.238,8.619-16.525,17.2c-4.725,4.9-10,4.934-14.839.109-.766-.766-1.538-1.523-2.3-2.3-4.186-4.277-4.133-9.818.188-13.969q16.061-15.363,32.152-30.687c4.9-4.666,9.779-9.334,14.9-14.227-1.192-1.094-2.363-2.1-3.45-3.18-1.36-1.35-1.417-2.965-.236-4.076s2.595-.988,3.965.371c1.092,1.09,2.132,2.225,3.309,3.5l5.892-5.641c-1.13-1.1-2.227-2.117-3.251-3.16-2.284-2.283-1.329-3.549-.373-4.5a2.493,2.493,0,0,1,3.5,0c1.553,1.543,2.262,2.414,3.97,3.934,4.919-4.295,9.472-4.5,13.5-.994,4.453,3.9,6.07,9.771.634,15.121,1.624,1.615,2.579,2.566,3.849,3.842a2.517,2.517,0,0,1-.319,3.49c-1.271,1.266-3.177.947-4.386-.525-.955-.959-2.226-2.225-2.929-2.965-2.09,1.9-3.5,3.807-5.394,5.77,1.271,1.207,2.117,2.23,3.183,3.332a2.556,2.556,0,0,1,.1,3.848,2.586,2.586,0,0,1-3.859-.176c-1.065-1.031-1.959-1.871-3.272-3.252-.635.635-.924.955-1.343,1.393q-5.515,5.774-11.05,11.508c-1.427,1.48-3.029,1.674-4.2.561s-1.066-2.693.373-4.2q12.825-13.336,25.647-26.684c2.778-2.889,1.676-6.957-2.21-8.1-1.68-.5-2.961.227-4.159,1.379q-11.674,11.218-23.4,22.369-18.472,17.634-36.969,35.264c-.446.424-1.066.816-1.255,1.342-.384,1.064-1.028,2.426-.667,3.3a11.919,11.919,0,0,0,6.364,6.381c1.644.721,3.057-.289,4.228-1.518q8.153-8.5,16.311-16.977c1.276-1.338,2.578-2.68,3.891-4,1.66-1.656,3.314-1.5,4.6.471a45.523,45.523,0,0,1,7.52,26.365,44.087,44.087,0,0,1-5.168,19.869,1.571,1.571,0,0,0,.341,2.23c6.927,6.855,13.653,13.943,20.759,20.617,5.35,5.031,5.3,11.434,0,15.912-.982.838-1.886,1.758-3,2.818,1.492,1.451,2.868,2.754,4.2,4.1s1.491,2.949.363,4.094-2.673,1.055-4.086-.354q-13.642-13.623-27.263-27.264c-1.393-1.4-1.445-2.949-.248-4.09,1.145-1.08,2.626-.975,3.975.363,1.712,1.707,3.372,3.457,4.972,5.1l6.858-6.836-10.57-10.553a60.187,60.187,0,0,1-4.054,4.525,3.474,3.474,0,0,1-2.683,1.014,18.9,18.9,0,0,0-14.116,2.545c-10.3,6.092-16.131,15.172-17.134,27.1a8.808,8.808,0,0,1-3.429,6.65,41.05,41.05,0,0,1-21.84,9.7c-.289.029-.6.084-.8.109-1.135.1-2.272.156-3.408.156S4267.441,22388.75,4266.308,22388.648Zm78.946-30.289,10.193,10.252c1.464-1.465,2.945-2.814,4.285-4.309,1.275-1.4,1.549-3.381.32-4.668-2.678-2.8-5.6-5.385-8.213-7.857Zm-79.938-.479c-2.022-1.721-3.818-3.723-5.7-5.578q-3.252-3.261-6.491-6.51c-1.317-1.338-1.433-2.891-.335-3.988s2.615-.988,3.971.357q5.922,5.895,11.81,11.854a14,14,0,0,1,1.5,2.287c-.7.816-1.187,1.889-1.9,2.082a3.033,3.033,0,0,1-.834.1A3.289,3.289,0,0,1,4265.316,22357.881Zm16.041-6.086a2.565,2.565,0,0,1-1.89-3.012,21.608,21.608,0,0,1,8.334-13.7c1.69-1.254,3.46-2.406,5.168-3.646a5.725,5.725,0,0,0,2.693-4.631c.042-2.074,1.034-3.215,2.6-3.189,1.633.029,2.583,1.32,2.537,3.416a10.535,10.535,0,0,1-4.717,8.514c-1.569,1.168-3.2,2.25-4.8,3.377a15.961,15.961,0,0,0-6.511,9.809,11.124,11.124,0,0,1-.331,1.313,2.61,2.61,0,0,1-2.429,1.838A2.52,2.52,0,0,1,4281.357,22351.795Zm-22.291-22.377a2.572,2.572,0,0,1,1.639-3.066c.473-.16.971-.244,1.459-.357a16.241,16.241,0,0,0,9.762-6.633c1.45-2.045,2.846-4.148,4.458-6.066a9.591,9.591,0,0,1,8.045-3.369,2.609,2.609,0,0,1,2.657,2.541,2.475,2.475,0,0,1-2.568,2.582c-2.5-.07-4.144,1.178-5.5,3.1-1.549,2.17-3.009,4.4-4.732,6.418-3.218,3.793-7.509,5.779-12.3,6.746a2.363,2.363,0,0,1-.42.033A2.57,2.57,0,0,1,4259.066,22329.418Z" transform="translate(-4199.648 -22227.488)" fill="#fff"/>
    <rect id="Retângulo_3716" data-name="Retângulo 3716" width="187.05" height="158.42" transform="translate(2.642 2.384)" fill="none"/>
  </g>
</svg>
