<svg xmlns="http://www.w3.org/2000/svg" width="194.331" height="176.061" viewBox="0 0 194.331 176.061">
  <g id="Grupo_57924" data-name="Grupo 57924" transform="translate(-1394.617 -790.309)">
    <path id="Caminho_1767" data-name="Caminho 1767" d="M78.835-8.847C33.29-8.847-36.017,6.517-40.25,63.3S52.4,167.214,97.95,167.214s56-35.382,56-86.406S124.381-8.847,78.835-8.847Z" transform="translate(1435.001 799.155)" fill="rgba(98,188,196,0.5)"/>
    <g id="Grupo_57483" data-name="Grupo 57483" transform="translate(1399.302 799.764)">
      <rect id="Retângulo_3715" data-name="Retângulo 3715" width="184.962" height="156.652" fill="none"/>
      <path id="Caminho_1268" data-name="Caminho 1268" d="M147.7,0l.492.349a2.508,2.508,0,0,1,1.2,3.025,2.551,2.551,0,0,1-2.7,1.853H132.1c-2.555,0-3.45.876-3.453,3.377V22.245c0,2.365.88,3.26,3.22,3.267q8.061.019,16.128,0c2.428,0,3.3-.892,3.318-3.355.019-2.145-.019-4.291.016-6.436.028-2,.918-2.89,2.92-2.927q2.838-.057,5.677,0a2.583,2.583,0,0,1,2.819,2.582A2.654,2.654,0,0,1,159.922,18c-1.06.053-2.126,0-3.368,0,0,1.618.019,3.084,0,4.548a8.065,8.065,0,0,1-4.633,7.538,1.981,1.981,0,0,0-.908,1.451c-.066,5.415,0,10.833-.069,16.249,0,1.09.489,1.351,1.378,1.571,5.541,1.417,10.619,3.769,14.7,7.853,6.238,6.248,7.468,13.764,5.446,22.088-1,4.108-2.088,8.22-2.709,12.391a18.619,18.619,0,0,0,2.636,12.332c2.368,4.039,4.923,8.076,6.547,12.429,4.866,13.032-.539,27.079-12.637,34.011a50.682,50.682,0,0,1-20.814,6.282c-.5.047-.984.185-1.476.28H135.71c-3.173-.512-6.386-.851-9.515-1.57-7.723-1.74-14.794-4.84-20.212-10.84-7.947-8.795-9.31-21.07-3.655-32.3a48.263,48.263,0,0,1,3.753-6.5c4.182-5.82,4.617-12.159,3.043-18.865-.946-3.97-2.034-7.915-2.715-11.936-1.366-8.063,3.236-17.2,10.407-21.177a2.6,2.6,0,0,1,3.542.685,2.544,2.544,0,0,1-.552,3.556c-.864.719-1.835,1.313-2.677,2.054-5.487,4.828-6.6,10.887-4.948,17.715.946,3.867,2.056,7.708,2.7,11.622a23.9,23.9,0,0,1-3.154,17.1c-1.485,2.384-2.933,4.793-4.308,7.243-7.282,12.932-2.182,27.5,10.653,33.295,14.444,6.524,29.118,6.521,43.55-.072,12.719-5.8,17.661-20.282,10.663-32.965a58.905,58.905,0,0,0-3.255-5.547c-4.932-7.036-5.677-14.687-3.677-22.826a108.082,108.082,0,0,0,2.58-11.638c.823-6.335-1.817-11.352-6.919-15.093a27.353,27.353,0,0,0-10.054-4.5V80.5a7.466,7.466,0,0,1-.173,1.973,2.559,2.559,0,0,1-4.973-.21,11.558,11.558,0,0,1-.1-1.985V30.851H133.985V45.13H137.9c2.031.019,3.28,1.049,3.255,2.664s-1.214,2.538-3.176,2.56c-1.277.016-2.555,0-3.964,0V67.991c1.526,0,3.046-.025,4.57,0,1.971.038,3.069,1.024,3.034,2.667-.035,1.571-1.145,2.513-3.018,2.56-1.432.035-2.867.031-4.3.053-.088,0-.177.079-.341.157V90.214c.609-.144,1.183-.261,1.744-.415a16.662,16.662,0,1,1,6.191,32.642c-9.291,1-17.869-5.886-18.487-14.826-.145-2.108.659-3.342,2.286-3.512s2.7.942,2.933,3.012a11.458,11.458,0,1,0,4.879-10.6c-1.107.766-2.3,1.549-3.469.575a4.15,4.15,0,0,1-1.343-2.673c-.161-3.21-.06-6.436-.06-9.656q0-26.457.019-52.908a2.037,2.037,0,0,0-1.211-2.133,7.426,7.426,0,0,1-4.04-6.756c-.032-1.571,0-3.141,0-4.95h-3.122c-2.223-.022-3.39-.942-3.374-2.673s1.12-2.541,3.286-2.563h3.289C122.992,7.121,123.257,1.885,129.87,0Z" transform="translate(-46.91 0.126)" fill="#fff"/>
      <path id="Caminho_1270" data-name="Caminho 1270" d="M200.571,421.244h-9.392c-1.934,0-2.995-.944-2.989-2.55s1.107-2.538,3.019-2.544q9.4-.018,18.788,0c1.839,0,3.032,1.045,3.022,2.572s-1.162,2.51-3.065,2.52C206.83,421.259,203.7,421.244,200.571,421.244Z" transform="translate(-108.285 -284.73)" fill="#fff"/>
      <path id="Caminho_1610" data-name="Caminho 1610" d="M3270.531,22760.107c-.109,0-.224,0-.371-.014h-.014a9.575,9.575,0,0,1-8.74-6.854,9.693,9.693,0,0,1,3.426-10.477,2.806,2.806,0,0,1,1.61-.607,1.885,1.885,0,0,1,1.466.725c.8.959.6,2.123-.532,3.129a6.177,6.177,0,0,0-2.228,4.906,5.3,5.3,0,0,0,2.312,4.07,5.457,5.457,0,0,0,3.161,1,5.34,5.34,0,0,0,2.069-.4,5.445,5.445,0,0,0,3.314-4.08v-.018a12.623,12.623,0,0,0,.148-2.143v-27.611c0-2.449.308-2.814,2.749-3.256l29.963-5.393a4.913,4.913,0,0,1,.866-.082c.885,0,2.063.268,2.063,2.553.015,9.51.015,19.145,0,28.65,0,1.164-.346,2.561-2,2.59h-.058c-1.215,0-1.917-.816-2.085-2.393a5.436,5.436,0,0,0-5.229-5.139c-.085-.008-.164-.008-.248-.008a5.519,5.519,0,0,0-5.451,4.678,5.225,5.225,0,0,0,.818,3.777,5.935,5.935,0,0,0,3.256,2.371c.127.037.253.063.385.092l.028.008a.784.784,0,0,0,.124.037c.062.014.122.037.18.049a2.063,2.063,0,0,1-.474,4.088,2.591,2.591,0,0,1-.433-.039,9.663,9.663,0,0,1-.839-18.885,9.772,9.772,0,0,1,2.454-.316,10.267,10.267,0,0,1,4.713,1.2.421.421,0,0,0,.21.053.431.431,0,0,0,.239-.068.471.471,0,0,0,.222-.4v-17.838a.457.457,0,0,0-.169-.359.44.44,0,0,0-.291-.105.562.562,0,0,0-.083,0l-26.407,4.771a.456.456,0,0,0-.38.451v1.9c0,1.4,0,2.83,0,4.244v.041c0,1.391,0,2.768,0,4.119.01,5.053.017,11.008-.006,16.834a10.5,10.5,0,0,1-2.781,7.313A9.58,9.58,0,0,1,3270.531,22760.107Z" transform="translate(-3136.183 -22712.875)" fill="#fff"/>
      <path id="Caminho_1611" data-name="Caminho 1611" d="M3270.78,22746.254a9.9,9.9,0,0,1-5.184-1.465,9.712,9.712,0,0,1-3.65-4.047,9.588,9.588,0,0,1,3.055-11.934,3.362,3.362,0,0,1,1.893-.738,1.856,1.856,0,0,1,1.551.875,1.73,1.73,0,0,1,.363,1.512,3.415,3.415,0,0,1-1.276,1.652,5.5,5.5,0,0,0,3.253,10,6.494,6.494,0,0,0,.924-.07,5.227,5.227,0,0,0,3.365-1.906,6.085,6.085,0,0,0,1.292-3.863c.008-3.254.007-6.582,0-9.516v-3.16c0-2.078,0-4.246,0-6.34,0-2.289.435-2.789,2.737-3.168.985-.16,2-.34,2.864-.5l.617-.1.169-.039c.728-.121,1.5-.27,2.262-.391a3.426,3.426,0,0,1,.57-.059,2.032,2.032,0,0,1,2.146,1.59,1.833,1.833,0,0,1-.231,1.434,2.618,2.618,0,0,1-1.709,1.066c-.978.211-1.957.387-2.784.543l-.346.063c-.523.094-1.115.2-1.727.32a.452.452,0,0,0-.369.457v17.629a10.482,10.482,0,0,1-1.962,6.316,9.693,9.693,0,0,1-5.336,3.523A9.837,9.837,0,0,1,3270.78,22746.254Z" transform="translate(-3251.235 -22589.102)" fill="#fff"/>
    </g>
  </g>
</svg>
