<svg xmlns="http://www.w3.org/2000/svg" width="97" height="83" viewBox="0 0 97 83">
  <g id="violin" transform="translate(-3 0.732)">
    <path id="Caminho_1280" data-name="Caminho 1280" d="M15.443-8.847c-21.328,0-53.782,6.545-55.764,30.735S3.067,66.153,24.394,66.153,50.616,51.081,50.616,29.345,36.771-8.847,15.443-8.847Z" transform="translate(46.384 12.114)" fill="#fffbe5"/>
    <path id="Caminho_1613" data-name="Caminho 1613" d="M4244.682,22312.92a38.367,38.367,0,0,1-4.567-.975c-9.864-3.361-16.32-10.027-18.6-20.256-1.614-7.25.625-13.59,5.745-18.9a2.822,2.822,0,0,1,1.756-.574,17.918,17.918,0,0,0,10.664-4.15,14.657,14.657,0,0,0,5.522-8.781,10.245,10.245,0,0,0-.055-3.119,1.9,1.9,0,0,1,.628-1.945c.8-.674,1.576-1.373,2.424-2.117-2.125-2.111-4.229-4.2-6.332-6.291-1.663-1.66-3.315-3.316-4.989-4.979-1.238-1.229-2.3-1.2-3.561.027-.615.6-1.263,1.162-2,1.84.892.85,1.652,1.572,2.4,2.307,2,1.979,3.969,3.969,5.953,5.949a1.344,1.344,0,0,1,.3,1.758,1.252,1.252,0,0,1-1.523.621,1.981,1.981,0,0,1-.8-.514q-6.134-6.108-12.252-12.246a1.387,1.387,0,0,1-.182-2.078,1.416,1.416,0,0,1,2.135.143c.711.709,1.364,1.445,2.133,2.27.749-.785,1.361-1.465,2.009-2.113a4.827,4.827,0,0,1,7.244-.025q5.623,5.593,11.217,11.221a5.25,5.25,0,0,1,.511.7,23.882,23.882,0,0,1,17.072-2.51c1.054.23,1.586.881,1.406,1.711s-.906,1.24-1.979,1a21.05,21.05,0,0,0-9.7.02,20.352,20.352,0,0,0-8.846,4.664,1.027,1.027,0,0,0-.363.719c.445,4.449-1.271,8.146-4.073,11.4a20.155,20.155,0,0,1-14.324,7.205,1.933,1.933,0,0,0-1.438.895c-4.2,5.146-5.55,11.014-3.507,17.3,2.862,8.8,8.893,14.557,18,16.635,5.863,1.328,11.144-.293,15.752-4.148a2.067,2.067,0,0,0,.64-1.57c.947-8.076,4.992-13.916,12.494-17.236a11.825,11.825,0,0,1,5.945-.875,1.114,1.114,0,0,0,.823-.291c5.715-5.994,6.912-16.824,2.671-24a3.412,3.412,0,0,0-.3-.334,4.255,4.255,0,0,1-.478.762q-4.306,4.5-8.638,8.99c-2.47,2.564-5.229,2.58-7.756.059-.4-.4-.8-.8-1.2-1.205a4.83,4.83,0,0,1,.1-7.3q8.394-8.03,16.805-16.039c2.559-2.439,5.111-4.879,7.79-7.436-.623-.572-1.235-1.1-1.8-1.662a1.4,1.4,0,0,1-.124-2.131,1.366,1.366,0,0,1,2.072.2c.571.568,1.115,1.16,1.729,1.824l3.08-2.947c-.59-.574-1.164-1.105-1.7-1.65-1.194-1.193-.694-1.855-.195-2.354a1.305,1.305,0,0,1,1.828,0c.812.809,1.183,1.262,2.075,2.055,2.571-2.242,4.951-2.352,7.057-.518,2.327,2.041,3.172,5.107.332,7.9.849.846,1.348,1.344,2.012,2.008a1.317,1.317,0,0,1-.167,1.826,1.512,1.512,0,0,1-2.292-.275c-.5-.5-1.163-1.164-1.531-1.551-1.093,1-1.831,1.99-2.819,3.018.664.629,1.106,1.164,1.663,1.74a1.339,1.339,0,0,1,.055,2.014,1.354,1.354,0,0,1-2.017-.094c-.557-.539-1.024-.979-1.71-1.7-.332.33-.482.5-.7.727q-2.883,3.018-5.775,6.016c-.746.775-1.583.875-2.193.293s-.558-1.408.195-2.193q6.7-6.973,13.4-13.947a2.457,2.457,0,0,0-1.155-4.232,2.113,2.113,0,0,0-2.173.721q-6.1,5.862-12.23,11.691-9.656,9.214-19.323,18.43c-.233.225-.557.428-.656.7-.2.557-.538,1.27-.349,1.725a6.23,6.23,0,0,0,3.327,3.336c.859.377,1.6-.152,2.209-.795q4.261-4.441,8.525-8.871c.667-.7,1.347-1.4,2.034-2.088a1.379,1.379,0,0,1,2.4.244,23.79,23.79,0,0,1,3.931,13.779,23.038,23.038,0,0,1-2.7,10.387.818.818,0,0,0,.178,1.164c3.621,3.586,7.136,7.289,10.85,10.777,2.8,2.631,2.772,5.977,0,8.318-.513.436-.986.918-1.57,1.471.78.76,1.5,1.439,2.193,2.143a1.441,1.441,0,0,1,.19,2.139,1.4,1.4,0,0,1-2.135-.184q-7.131-7.119-14.25-14.252a1.393,1.393,0,1,1,1.949-1.947c.895.893,1.762,1.809,2.6,2.666l3.585-3.572-5.525-5.514a31.732,31.732,0,0,1-2.119,2.365,1.83,1.83,0,0,1-1.4.529,9.884,9.884,0,0,0-7.378,1.328,17.4,17.4,0,0,0-8.956,14.164,4.606,4.606,0,0,1-1.792,3.475,21.474,21.474,0,0,1-11.416,5.068c-.151.016-.313.045-.417.057-.593.051-1.187.08-1.781.08S4245.274,22312.971,4244.682,22312.92Zm41.264-15.83,5.328,5.355c.765-.764,1.539-1.471,2.24-2.25a1.775,1.775,0,0,0,.167-2.441c-1.4-1.463-2.926-2.812-4.293-4.105Zm-41.782-.252c-1.057-.9-2-1.943-2.979-2.914-1.133-1.139-2.267-2.27-3.393-3.4a1.4,1.4,0,0,1-.175-2.082,1.381,1.381,0,0,1,2.075.184q3.1,3.082,6.173,6.2a7.226,7.226,0,0,1,.782,1.2c-.368.428-.62.986-.993,1.088a1.61,1.61,0,0,1-.436.053A1.714,1.714,0,0,1,4244.163,22296.838Zm8.384-3.182a1.339,1.339,0,0,1-.988-1.572,11.291,11.291,0,0,1,4.356-7.16c.884-.656,1.809-1.26,2.7-1.908a2.986,2.986,0,0,0,1.408-2.42c.022-1.082.541-1.68,1.358-1.666.854.016,1.351.689,1.326,1.785a5.509,5.509,0,0,1-2.465,4.451c-.82.609-1.671,1.174-2.509,1.764a8.352,8.352,0,0,0-3.4,5.127,5.77,5.77,0,0,1-.173.686,1.361,1.361,0,0,1-1.27.961A1.293,1.293,0,0,1,4252.547,22293.656Zm-11.651-11.693a1.343,1.343,0,0,1,.856-1.6c.247-.082.508-.127.763-.187a8.489,8.489,0,0,0,5.1-3.467c.758-1.068,1.487-2.166,2.33-3.17a5.011,5.011,0,0,1,4.206-1.762,1.363,1.363,0,0,1,1.389,1.328,1.3,1.3,0,0,1-1.343,1.352,3.245,3.245,0,0,0-2.876,1.619c-.81,1.133-1.573,2.3-2.474,3.355a10.918,10.918,0,0,1-6.43,3.525,1.407,1.407,0,0,1-.22.018A1.343,1.343,0,0,1,4240.9,22281.963Z" transform="translate(-4211 -22230.734)" fill="#f7d204"/>
    <rect id="Retângulo_3716" data-name="Retângulo 3716" width="97" height="83" transform="translate(3 -0.732)" fill="none"/>
  </g>
</svg>
