<svg xmlns="http://www.w3.org/2000/svg" width="49.5" height="29.516" viewBox="0 0 49.5 29.516">
  <g id="aspas" transform="translate(-55.501 -55.484)">
    <g id="aspa02" transform="translate(58 57)">
      <path id="Caminho_1813" data-name="Caminho 1813" d="M21.87,152.544a16.665,16.665,0,0,1,10.145-15.569l.551-.189c1.311-.355,1.691.879.852,1.635s-1.726,1.23-1.726,3.3a4.74,4.74,0,0,0,.11,1.017,11.055,11.055,0,0,1,1.121-.057,10.851,10.851,0,0,1,6.753,2.348,10.991,10.991,0,1,1-17.411,11.2A17.141,17.141,0,0,1,21.87,152.544Z" transform="translate(3.131 -136.723)" fill="#eff8f9"/>
      <path id="Caminho_1814" data-name="Caminho 1814" d="M21.87,152.544a16.665,16.665,0,0,1,10.145-15.569l.551-.189c1.311-.355,1.691.879.852,1.635s-1.726,1.23-1.726,3.3a4.74,4.74,0,0,0,.11,1.017,11.055,11.055,0,0,1,1.121-.057,10.851,10.851,0,0,1,6.753,2.348,10.991,10.991,0,1,1-17.411,11.2A17.141,17.141,0,0,1,21.87,152.544Z" transform="translate(-21.869 -136.723)" fill="#eff8f9"/>
    </g>
    <g id="aspa01" transform="translate(56 56)">
      <path id="Caminho_1813-2" data-name="Caminho 1813" d="M21.87,152.544a16.665,16.665,0,0,1,10.145-15.569l.551-.189c1.311-.355,1.691.879.852,1.635s-1.726,1.23-1.726,3.3a4.74,4.74,0,0,0,.11,1.017,11.055,11.055,0,0,1,1.121-.057,10.851,10.851,0,0,1,6.753,2.348,10.991,10.991,0,1,1-17.411,11.2A17.141,17.141,0,0,1,21.87,152.544Z" transform="translate(3.131 -136.723)" fill="none" stroke="#80c9cf" stroke-linecap="round" stroke-linejoin="round" stroke-width="1" stroke-dasharray="71 4"/>
      <path id="Caminho_1814-2" data-name="Caminho 1814" d="M21.87,152.544a16.665,16.665,0,0,1,10.145-15.569l.551-.189c1.311-.355,1.691.879.852,1.635s-1.726,1.23-1.726,3.3a4.74,4.74,0,0,0,.11,1.017,11.055,11.055,0,0,1,1.121-.057,10.851,10.851,0,0,1,6.753,2.348,10.991,10.991,0,1,1-17.411,11.2A17.141,17.141,0,0,1,21.87,152.544Z" transform="translate(-21.869 -136.723)" fill="none" stroke="#80c9cf" stroke-linecap="round" stroke-linejoin="round" stroke-width="1" stroke-dasharray="71 4"/>
    </g>
  </g>
</svg>
