<svg xmlns="http://www.w3.org/2000/svg" width="1920" height="816" viewBox="0 0 1920 816">
  <g id="fundo" transform="translate(0 -1292)">
    <rect id="Retângulo_4062" data-name="Retângulo 4062" width="1920" height="540" transform="translate(0 1434)" fill="#f4e6d4"/>
    <g id="ilustração-borda" transform="translate(0 1292.007)">
      <path id="Caminho_1304" data-name="Caminho 1304" d="M1498.057,131.172c-165.315,0-317.434,37.3-441.141,71.6-115.4,32,866.365,2.031,866.365,2.031s-202.3-73.63-425.224-73.63" transform="translate(-3.281 -63.085)" fill="#f4e6d4"/>
      <path id="Caminho_1776" data-name="Caminho 1776" d="M-10074.172-3578.454a289.9,289.9,0,0,1-91.387-14.7c-.468-.161-.957-.319-1.442-.477,72.34-3.952,142.6-16.016,201.838-36.273h81.028c-57.394,27.62-121.111,51.452-190.015,51.453Zm354.885-119.876a339.821,339.821,0,0,1,80.861-9.678c135.038,0,235.6,78.1,235.6,78.1S-9543.39-3681.24-9719.287-3698.33Zm-245.876,68.423c3.348-1.156,7.188-2.319,10.543-3.672,44.941-16.573,97.409-28.254,152.952-34.908l-81.929,38.58Z" transform="translate(11322.824 3771.447)" fill="#991c3a"/>
      <path id="Caminho_1310" data-name="Caminho 1310" d="M1408.534,208.315,1341.421,190.2C1274.7,172.176,1198.158,163.306,1122,163.306a951.347,951.347,0,0,0-113.126,6.662c26.216-11.512,51.965-21.562,75.11-27.768,2.7-.722,5.416-1.415,8.091-2.07,175.9,17.032,316.462,68.186,316.462,68.186" transform="translate(511.466 -66.598)" fill="#d57032"/>
      <path id="Caminho_1780" data-name="Caminho 1780" d="M-9742.328-3601.3h-.011c-22.7,0-45.527-.8-67.861-2.365-22.484-1.579-44.742-3.963-66.147-7.086-21.719-3.164-42.846-7.132-62.8-11.788a594.42,594.42,0,0,1-57.714-16.45h-.09c-7.654-2.707-15.8-5.611-22.992-8.515l-84.868-34.069a531.856,531.856,0,0,0-62.192-20.4c.278-.038.544-.077.84-.107a660.481,660.481,0,0,1,86.276-5.927c109.1,0,188.435,30.869,285.956,67.668.018-.005,2.432.878,3.612,1.322h-8.23l-.009,0h8.242l3.386,1.263.036.013c30.6,11.416,62.243,23.219,97.715,34.995-17.577.962-35.459,1.449-53.144,1.449Z" transform="translate(10844.997 3780.556)" fill="#d57032"/>
      <path id="Caminho_1314" data-name="Caminho 1314" d="M108.082,120.459c65.767-39.824,103.163-95.489,205.9-100.886,5.729-.294,11.18-.437,16.4-.437,63.168,0,90.825,20.712,119.25,41.425,6.183,4.5,12.4,9.015,19.029,13.312-18.969-1.121-38.11-1.679-57.286-1.679-72.47,0-145.371,8.027-210.052,24.478l-93.241,23.787" transform="translate(50.365 -19.144)" fill="#d57032"/>
      <path id="Caminho_1316" data-name="Caminho 1316" d="M1159.106,231.249c-36.817-12.182-69.907-24.539-101.143-36.149h302.979c-59.235,20.188-129.5,32.21-201.837,36.149M1923.281,195.1H1441.97c26.033-12.543,54.085-26.254,81.648-38.348a951.349,951.349,0,0,1,113.126-6.662c76.161,0,152.7,8.87,219.424,26.895l67.114,18.115m-865.318,0h0m-206.632,0H3.281c73.84,0,120.785-17.6,158.447-40.4l93.241-23.787c64.68-16.451,137.582-24.478,210.052-24.478,19.176,0,38.317.558,57.286,1.679,23.818,15.437,52.9,28.108,104.627,28.108a425.811,425.811,0,0,0,54.345-3.846,532.982,532.982,0,0,1,62.188,20.321l84.872,33.927c7.187,2.892,15.337,5.784,22.991,8.478" transform="translate(-3.281 -53.383)" fill="#f4e6d4"/>
      <path id="Caminho_1779" data-name="Caminho 1779" d="M-9593.077-3701.443a762.408,762.408,0,0,1,104.066,19.472c-10.065,1.305-19.8,2.29-28.946,2.928-8.829.616-17.372.929-25.392.929-24.007,0-44.541-2.713-62.777-8.294a152.879,152.879,0,0,1-22.726-8.969,180.3,180.3,0,0,1-19.122-10.942C-9666.857-3707.437-9629.521-3705.8-9593.077-3701.443Zm104.07,19.473,0,0S-9469.994-3676.937-9489.007-3681.969Z" transform="translate(10167 3761.016)" fill="#f7d204"/>
      <path id="Caminho_1778" data-name="Caminho 1778" d="M-10166.993-3619.03v0l157.5-40.308.747-.191.19-.04a274.039,274.039,0,0,1-30.262,15.986,255.539,255.539,0,0,1-35.4,12.864,296.514,296.514,0,0,1-42.178,8.574A391.973,391.973,0,0,1-10166.993-3619.03Z" transform="translate(10167 3760.794)" fill="#f7d204"/>
    </g>
    <g id="ilustração-borda-2" data-name="ilustração-borda" transform="translate(0 1915)">
      <path id="Caminho_1304-2" data-name="Caminho 1304" d="M1472.708,217.538c165.315,0,317.434-37.3,441.141-71.6,115.4-32-866.365-2.031-866.365-2.031s202.3,73.63,425.224,73.63" transform="translate(-1047.484 -92.632)" fill="#f4e6d4"/>
      <path id="Caminho_1776-2" data-name="Caminho 1776" d="M-9495.653-3708.009a289.9,289.9,0,0,1,91.387,14.7c.468.161.957.319,1.442.477-72.34,3.952-142.6,16.016-201.838,36.273h-81.028c57.394-27.62,121.111-51.452,190.015-51.453Zm-354.885,119.876a339.821,339.821,0,0,1-80.861,9.678c-135.038,0-235.6-78.1-235.6-78.1S-10026.436-3605.223-9850.538-3588.133Zm245.876-68.423c-3.348,1.156-7.187,2.319-10.543,3.672-44.941,16.573-97.409,28.254-152.952,34.908l81.929-38.58Z" transform="translate(10167.001 3708.009)" fill="#991c3a"/>
      <path id="Caminho_1310-2" data-name="Caminho 1310" d="M1008.871,140.129l67.114,18.115c66.724,18.025,143.263,26.895,219.424,26.895a951.347,951.347,0,0,0,113.126-6.662c-26.216,11.512-51.965,21.562-75.11,27.768-2.7.722-5.416,1.415-8.091,2.07-175.9-17.032-316.462-68.186-316.462-68.186" transform="translate(-1008.871 -88.853)" fill="#d57032"/>
      <path id="Caminho_1780-2" data-name="Caminho 1780" d="M-10113.849-3708.008h.011c22.7,0,45.527.8,67.861,2.365,22.484,1.579,44.742,3.963,66.147,7.086,21.719,3.164,42.846,7.132,62.8,11.788a594.42,594.42,0,0,1,57.714,16.45h.09c7.654,2.707,15.8,5.611,22.992,8.515l84.868,34.069a531.856,531.856,0,0,0,62.192,20.4c-.278.038-.544.077-.84.107a660.481,660.481,0,0,1-86.276,5.927c-109.1,0-188.435-30.869-285.956-67.668-.018.005-2.432-.878-3.612-1.322h8.23l.009,0h-8.242l-3.386-1.263-.036-.013c-30.6-11.416-62.243-23.219-97.715-34.995,17.577-.962,35.459-1.449,53.144-1.449Z" transform="translate(10931.18 3721.741)" fill="#d57032"/>
      <path id="Caminho_1314-2" data-name="Caminho 1314" d="M468.661,19.137c-65.767,39.824-103.163,95.489-205.9,100.886-5.729.294-11.18.437-16.4.437-63.168,0-90.825-20.712-119.25-41.425-6.183-4.5-12.4-9.015-19.029-13.312,18.969,1.121,38.11,1.679,57.286,1.679,72.47,0,145.371-8.027,210.052-24.478l93.241-23.787" transform="translate(1292.892 72.541)" fill="#d57032"/>
      <path id="Caminho_1316-2" data-name="Caminho 1316" d="M767.456,106.434c36.817,12.182,69.907,24.539,101.143,36.149H565.62c59.235-20.188,129.5-32.21,201.837-36.149M3.281,142.583H484.592c-26.033,12.543-54.085,26.254-81.648,38.348a951.345,951.345,0,0,1-113.125,6.662c-76.161,0-152.7-8.87-219.424-26.895L3.281,142.583m865.318,0h0m206.632,0h848.049c-73.84,0-120.786,17.6-158.447,40.4l-93.241,23.787c-64.68,16.451-137.582,24.478-210.052,24.478-19.176,0-38.317-.558-57.286-1.679-23.818-15.437-52.9-28.108-104.627-28.108a425.812,425.812,0,0,0-54.345,3.846,532.976,532.976,0,0,1-62.188-20.321l-84.872-33.927c-7.187-2.892-15.337-5.784-22.991-8.478" transform="translate(-3.281 -91.307)" fill="#f4e6d4"/>
      <path id="Caminho_1779-2" data-name="Caminho 1779" d="M-9540.521-3683.331a762.408,762.408,0,0,1-104.066-19.472c10.065-1.305,19.8-2.29,28.946-2.928,8.829-.616,17.372-.929,25.392-.929,24.007,0,44.541,2.713,62.777,8.294a152.879,152.879,0,0,1,22.726,8.969,180.3,180.3,0,0,1,19.122,10.942C-9466.741-3677.337-9504.078-3678.974-9540.521-3683.331Zm-104.07-19.473,0,0S-9663.6-3707.837-9644.592-3702.8Z" transform="translate(10886.599 3816.75)" fill="#f7d204"/>
      <path id="Caminho_1778-2" data-name="Caminho 1778" d="M-10008.553-3659.571v0l-157.5,40.308-.747.191-.19.04a274.039,274.039,0,0,1,30.262-15.986,255.539,255.539,0,0,1,35.4-12.864,296.514,296.514,0,0,1,42.178-8.574A391.973,391.973,0,0,1-10008.553-3659.571Z" transform="translate(11928.546 3710.8)" fill="#f7d204"/>
    </g>
  </g>
</svg>
