<svg width="450" height="55" viewBox="0 0 450 55" fill="none" xmlns="http://www.w3.org/2000/svg">
<g clip-path="url(#clip0_4_2)">
<path d="M350.338 13.105C275.395 13.105 212.022 40.0095 186.179 37.5559C173.879 36.4019 167.704 37.9434 162.249 39.484C154.708 41.6161 148.549 43.7486 129.436 38.745C111.345 34.0068 100.649 39.845 88.436 45.6782C78.424 50.4599 67.399 55.2431 50.445 54.205C12.805 51.8999 -0.00305176 27.299 -0.00305176 27.299H449.997C449.997 27.299 402.582 13.1035 350.335 13.1035" fill="rgba(0,0,0,0.15)"/>
<path d="M434.271 23.8104C398.991 15.9786 352.023 17.1297 320.671 26.594C319.885 26.8535 318.985 27.0765 318.2 27.2985H450L434.27 23.8104H434.271ZM173.481 19.1332C142.92 9.07636 95.392 7.33279 58.989 14.9391L0 27.2965H198.762C196.968 26.7775 195.062 26.221 193.373 25.664L173.481 19.1312V19.1332ZM318.202 27.296H198.762C232.922 36.9094 283.594 36.9834 318.202 27.296Z" fill="#F7D204"/>
<path d="M292.726 37.1689C285.228 37.146 277.864 36.1757 271.317 34.3483C271.208 34.3178 271.093 34.2868 270.98 34.2568C287.927 33.4987 304.387 31.1837 318.264 27.2975H337.246C323.799 32.5977 308.871 37.1704 292.727 37.1689H292.726ZM450.001 27.2975C450.001 27.2975 417.071 17.4472 375.864 14.1705C381.881 12.9494 388.313 12.3191 394.807 12.314C426.441 12.314 450 27.2975 450 27.2975" fill="transparent"/>
<path d="M449.999 27.3059L434.265 23.8158C418.623 20.3432 400.679 18.6346 382.824 18.6346C373.921 18.6309 365.039 19.0608 356.303 19.9182C362.449 17.7001 368.485 15.764 373.912 14.568C374.545 14.429 375.182 14.2955 375.812 14.168C417.049 17.4491 450.002 27.3045 450.002 27.3045" fill="#D57032"/>
<path d="M240.396 27.611H197.645C195.995 27.133 194.238 26.62 192.688 26.107L174.388 20.0893C170.135 18.6961 165.649 17.49 160.98 16.4846C161.04 16.4781 161.097 16.4711 161.161 16.4656C167.269 15.7873 173.504 15.4363 179.761 15.4186C203.287 15.4186 220.394 20.8728 241.426 27.3745L240.393 27.6105" fill="#D57032"/>
<path d="M37.094 19.5277C52.518 11.8524 61.288 1.12453 85.382 0.084491C86.725 0.0279889 88.004 0.000488281 89.228 0.000488281C104.042 0.000488281 110.528 3.99213 117.195 7.98428C118.645 8.85231 120.104 9.72184 121.658 10.5499C117.209 10.3339 112.72 10.2264 108.223 10.2264C91.3428 10.1701 74.605 11.773 58.961 14.944L37.094 19.5282" fill="#D57032"/>
<path d="M270.897 34.2687C262.268 31.9217 254.513 29.5401 247.192 27.303H318.203C304.32 31.1931 287.852 33.5097 270.898 34.2687H270.897ZM449.998 27.303H337.193C343.293 24.8859 349.869 22.2443 356.329 19.9137C365.063 19.0563 373.943 18.6264 382.843 18.6302C400.693 18.6302 418.632 20.3392 434.271 23.8124L450.001 27.303H449.998ZM198.763 27.303H0C17.306 27.303 28.309 23.9109 37.136 19.5182L58.989 14.9345C74.6225 11.7642 91.35 10.1616 108.22 10.2179C112.714 10.2179 117.201 10.3254 121.646 10.5414C127.228 13.516 134.046 15.9576 146.168 15.9576C150.454 15.933 154.723 15.6846 158.905 15.2165C163.981 16.3087 168.857 17.6188 173.48 19.1322L193.372 25.6694C195.057 26.2265 196.967 26.784 198.761 27.303" fill="rgba(0,0,0,0.1)"/>
</g>
<defs>
<clipPath id="clip0_4_2">
<rect width="450" height="54.35" fill="white"/>
</clipPath>
</defs>
</svg>
