<svg xmlns="http://www.w3.org/2000/svg" width="1920" height="246" viewBox="0 0 1920 246">
  <g id="ilustra-ondas" transform="translate(0 -247)">
    <path id="Caminho_1909" data-name="Caminho 1909" d="M1919.98,416.968l-.02-.01c-.02-.009-.05-.018-.09-.037-4.87-1.857-150.76-57.129-329.85-73.373-30.94-2.809-62.87-4.451-95.24-4.451-166.28,0-319.2,39.906-443.06,76.294l-5.95,1.586-38.44,8.407c-57.3,12.129-102.33,20.032-169.73-15.8-47.27-25.117-103.67-44.869-165.1-58.724q-26.745-6.047-54.68-10.581c-28.5-4.637-57.77-8.07-87.43-10.272C413.01,321.3,289.39,332,182,364.821l-42.12,12.073L15.87,412.433,0,416.977V493H1920V416.977ZM127.08,386.71v-.01l.02-.009Z" fill="#991c3a"/>
    <path id="Caminho_1910" data-name="Caminho 1910" d="M1590.02,343.548a284.274,284.274,0,0,1,82.623-15.395C1811.98,322.816,1920,416.977,1920,416.977s-79.81-29.241-173-49C1659,349.314,1590.02,343.548,1590.02,343.548Z" fill="#62bcc4"/>
    <path id="Caminho_1911" data-name="Caminho 1911" d="M1501.02,375.588l-85.61,40.96c-60.17,29.381-126.97,54.74-199.21,54.74-30.96,0-60.389-1.685-92.8-13.78-2.4-.9-4.46-1.978-4.97-2.146,32.58-.541,113.59-14.661,216.57-56.059S1501.02,375.588,1501.02,375.588Z" fill="#d57032"/>
    <path id="Caminho_1912" data-name="Caminho 1912" d="M530.39,330.01C413.01,321.3,289.39,332,182,364.821l-42.12,12.073C199,311.06,260.94,253.492,342,247.614,445,240.15,506,302.663,530.39,330.01Z" fill="#d57032"/>
    <path id="Caminho_1913" data-name="Caminho 1913" d="M15.79,412.433c10.66,2.043,47.69,8.1,73.13-.606a115.74,115.74,0,0,0,50.88-34.933ZM127,386.71v-.01l.02-.009Z" fill="#62bcc4"/>
    <path id="Caminho_1914" data-name="Caminho 1914" d="M672.5,350.863c-50.5,16.178-69.109,20.2-93.5,15.245-14.241-2.891-28-10.263-48.61-36.1,29.66,2.2,58.93,5.635,87.43,10.272Q645.7,344.816,672.5,350.863Z" fill="#f7d204"/>
    <path id="Caminho_1312" data-name="Caminho 1312" d="M1118.434,455.365c-65.2-26.141-97.615-39.912-97.615-39.912-90.931-39.006-164.895-71.737-266.61-71.737-24.928,0-48.518,1.963-77.427,6.282-.28.033-4.023.824-4.282.865,20.562,6.193,18.841,4.186,58.471,20.876s60.677,30.943,100.549,45.132,65.77,24.535,137.754,33.631S1118.434,455.365,1118.434,455.365Z" fill="#62bcc4"/>
    <path id="Caminho_1915" data-name="Caminho 1915" d="M1920,416.977l-70.4-19.771c-69.94-19.239-150.17-30.575-230.01-30.575-39.81-.028-78.59,2.277-118.59,8.976,27.48-12.288,54.47-23.018,78.74-29.643,1.61-.438,6.15-1.474,10.28-2.416,179.09,16.244,324.98,71.516,329.85,73.373C1919.91,416.94,1920,416.977,1920,416.977Z" fill="#f7d204"/>
  </g>
</svg>
