<svg xmlns="http://www.w3.org/2000/svg" width="218.908" height="219" viewBox="0 0 218.908 219">
  <g id="nota-musical" transform="translate(39.246 -961.891)">
    <g id="preenchido_Icon-feather-music" transform="translate(-22.355 978.782)">
      <g id="Icon_feather-music" data-name="Icon feather-music" transform="translate(0)">
        <path id="Caminho_1253" data-name="Caminho 1253" d="M13.5,166.386V26.085L143.009,4.5V144.8" transform="translate(51.008 -4.5)" fill="none" stroke="#d57032" stroke-linecap="round" stroke-linejoin="round" stroke-width="16"/>
        <path id="Caminho_1254" data-name="Caminho 1254" d="M69.254,54.877A32.377,32.377,0,1,1,36.877,22.5,32.377,32.377,0,0,1,69.254,54.877Z" transform="translate(-4.5 106.854)" fill="none" stroke="#d57032" stroke-linecap="round" stroke-linejoin="round" stroke-width="16"/>
        <path id="Caminho_1255" data-name="Caminho 1255" d="M87.254,51.877A32.377,32.377,0,1,1,54.877,19.5,32.377,32.377,0,0,1,87.254,51.877Z" transform="translate(106.762 88.27)" fill="none" stroke="#d57032" stroke-linecap="round" stroke-linejoin="round" stroke-width="16"/>
      </g>
      <circle id="Elipse_141" data-name="Elipse 141" cx="33" cy="33" r="33" transform="translate(128.109 107.063)" fill="#d57032"/>
      <circle id="Elipse_142" data-name="Elipse 142" cx="33" cy="33" r="33" transform="translate(0.355 125.063)" fill="#d57032"/>
    </g>
    <g id="Icon-feather-music" transform="translate(-38.246 962.891)">
      <path id="Caminho_1253-2" data-name="Caminho 1253" d="M13.5,166.386V26.085L143.009,4.5V144.8" transform="translate(51.008 -4.5)" fill="none" stroke="#f7d204" stroke-linecap="round" stroke-linejoin="round" stroke-width="2"/>
      <path id="Caminho_1254-2" data-name="Caminho 1254" d="M69.254,54.877A32.377,32.377,0,1,1,36.877,22.5,32.377,32.377,0,0,1,69.254,54.877Z" transform="translate(-4.5 106.854)" fill="none" stroke="#f7d204" stroke-linecap="round" stroke-linejoin="round" stroke-width="2"/>
      <path id="Caminho_1255-2" data-name="Caminho 1255" d="M87.254,51.877A32.377,32.377,0,1,1,54.877,19.5,32.377,32.377,0,0,1,87.254,51.877Z" transform="translate(106.762 88.27)" fill="none" stroke="#f7d204" stroke-linecap="round" stroke-linejoin="round" stroke-width="2"/>
    </g>
  </g>
</svg>
