<svg width="1921" height="214" viewBox="0 0 1921 214" fill="none" xmlns="http://www.w3.org/2000/svg">
<g clip-path="url(#clip0_301_2)">
<path d="M0 0V213L1920 213.5V179.5L1650.5 117L1389 110.5L1172.5 127.5L1006 146L760.5 179.5L596.5 195L493.5 199.5L390.5 195L311.5 181.5L272 173.5L209.5 152.5L152.5 127.5L109.5 101L69.5 70.5L53 56.5L29.5 33.5L12.5 15L5.5 7L0 0Z" fill="#FDFAF7"/>
<path d="M1920 213.446C1919.93 213.415 1912.44 210.183 1898.44 205.203C1885.46 200.588 1864.03 193.462 1835.61 185.726C1803.67 177.026 1769.59 169.349 1734.31 162.895C1690.22 154.829 1644.13 148.671 1597.33 144.595C1578.52 142.956 1557.57 141.716 1535.05 140.911C1513.28 140.133 1489.44 139.739 1464.18 139.739C1365.51 139.739 1240.45 145.577 1081.88 157.587C933.363 168.835 774.919 184.041 639.515 197.432C616.064 199.751 592.685 201.502 570.025 202.632C548.425 203.714 526.918 204.263 506.1 204.264H506.051C474.125 204.264 442.78 202.974 412.885 200.431C385.694 198.118 332.047 194.192 265.591 175.731C199.135 157.27 157.043 133.81 148.56 128.95C134.042 120.634 60.193 80.7368 0.00195312 -0.00415039C0.00195312 -0.00415039 34.8193 41.1069 78.1533 74.5029C107.782 97.3923 139.676 117.187 173.338 133.579C186.038 139.628 199.328 145.29 212.85 150.409C226.24 155.477 240.25 160.162 254.498 164.334C268.598 168.462 283.338 172.209 298.311 175.469C313.111 178.693 328.593 181.54 344.317 183.93C359.837 186.29 376.062 188.275 392.543 189.83C408.793 191.365 425.774 192.53 443.016 193.288C459.989 194.036 477.735 194.416 495.763 194.417H495.822C515.241 194.417 535.605 193.977 556.35 193.11C576.65 192.261 597.96 190.976 619.681 189.29C640.881 187.644 663.146 185.565 685.856 183.11C707.942 180.722 731.176 177.9 754.913 174.721C800.56 168.608 848.613 161.152 901.823 151.928C950.482 143.492 1002.46 133.744 1060.72 122.128C1095.77 115.139 1131.22 108.997 1166.08 103.875C1199.28 98.998 1232.81 94.918 1265.74 91.749C1296.97 88.743 1328.48 86.4759 1359.39 85.0129C1388.58 83.6319 1417.99 82.9309 1446.79 82.9309C1482.31 82.9309 1517.93 83.994 1552.65 86.092C1584.23 87.998 1615.77 90.8021 1646.41 94.4241C1696.38 100.247 1746.02 108.686 1795.11 119.708C1813.6 123.902 1831.67 128.445 1848.82 133.208C1862.55 137.022 1875.71 140.985 1887.96 144.989C1908.41 151.677 1919.53 156.289 1920 156.48L1920 213.446Z" fill="#991C3A"/>
</g>
<defs>
<clipPath id="clip0_301_2">
<rect width="1920" height="213.446" fill="white"/>
</clipPath>
</defs>
</svg>
