<svg xmlns="http://www.w3.org/2000/svg" width="171.654" height="35" viewBox="0 0 171.654 35">
  <g id="logo-canarinhos" transform="translate(-155.129 -2656.936)">
    <path id="Caminho_1242" data-name="Caminho 1242" d="M-238.389-22.411v-8.37h1.693v8.37Zm9.052,0h-1.607v-3.094a4.776,4.776,0,0,0-.1-1.27.891.891,0,0,0-.335-.448.957.957,0,0,0-.558-.16,1.29,1.29,0,0,0-.749.228,1.151,1.151,0,0,0-.455.605,5.226,5.226,0,0,0-.123,1.393v2.746h-1.607v-6.063h1.493v.891a2.433,2.433,0,0,1,2-1.028,2.414,2.414,0,0,1,.972.191,1.629,1.629,0,0,1,.666.488,1.767,1.767,0,0,1,.315.674,5,5,0,0,1,.089,1.079Zm1.3-1.73,1.613-.245a1.179,1.179,0,0,0,.417.711,1.412,1.412,0,0,0,.881.243,1.592,1.592,0,0,0,.938-.228.51.51,0,0,0,.212-.428.421.421,0,0,0-.114-.3,1.282,1.282,0,0,0-.537-.211,8.679,8.679,0,0,1-2.465-.782,1.561,1.561,0,0,1-.721-1.364,1.681,1.681,0,0,1,.623-1.325,2.914,2.914,0,0,1,1.933-.537,3.376,3.376,0,0,1,1.853.405,2.072,2.072,0,0,1,.835,1.2l-1.515.28a.936.936,0,0,0-.369-.542,1.35,1.35,0,0,0-.775-.188,1.748,1.748,0,0,0-.909.177.38.38,0,0,0-.183.325.354.354,0,0,0,.16.291,6.037,6.037,0,0,0,1.5.451,4.472,4.472,0,0,1,1.793.714,1.482,1.482,0,0,1,.5,1.193,1.83,1.83,0,0,1-.7,1.433,3.092,3.092,0,0,1-2.064.6,3.392,3.392,0,0,1-1.964-.5A2.315,2.315,0,0,1-228.039-24.141Zm10.1-4.333v1.279h-1.1v2.444a6.072,6.072,0,0,0,.031.865.352.352,0,0,0,.143.2.454.454,0,0,0,.272.08,2.082,2.082,0,0,0,.646-.154l.137,1.245a3.2,3.2,0,0,1-1.269.24,2.017,2.017,0,0,1-.783-.146,1.144,1.144,0,0,1-.512-.377,1.487,1.487,0,0,1-.226-.625,7.769,7.769,0,0,1-.051-1.13v-2.643h-.738v-1.279h.738v-1.2l1.613-.936v2.141Zm1.349-.822V-30.78h1.607V-29.3Zm0,6.885v-6.063h1.607v6.063Zm6.273-6.063v1.279h-1.1v2.444a6.059,6.059,0,0,0,.031.865.352.352,0,0,0,.143.2.454.454,0,0,0,.272.08,2.082,2.082,0,0,0,.646-.154l.137,1.245a3.2,3.2,0,0,1-1.27.24,2.017,2.017,0,0,1-.783-.146,1.143,1.143,0,0,1-.512-.377,1.486,1.486,0,0,1-.226-.625,7.761,7.761,0,0,1-.051-1.13v-2.643h-.738v-1.279h.738v-1.2l1.613-.936v2.141Zm5.347,6.063v-.908a2.34,2.34,0,0,1-.872.765,2.448,2.448,0,0,1-1.141.28,2.234,2.234,0,0,1-1.1-.268,1.586,1.586,0,0,1-.7-.754A3.358,3.358,0,0,1-209-24.637v-3.837h1.607v2.786a7.716,7.716,0,0,0,.089,1.567.855.855,0,0,0,.323.457.994.994,0,0,0,.595.168,1.266,1.266,0,0,0,.738-.226,1.148,1.148,0,0,0,.446-.56,6.485,6.485,0,0,0,.12-1.636v-2.558h1.607v6.063Zm6.176-6.063v1.279h-1.1v2.444a6.07,6.07,0,0,0,.031.865.352.352,0,0,0,.143.2.454.454,0,0,0,.272.08,2.081,2.081,0,0,0,.646-.154l.137,1.245a3.2,3.2,0,0,1-1.27.24,2.016,2.016,0,0,1-.783-.146,1.143,1.143,0,0,1-.512-.377,1.487,1.487,0,0,1-.226-.625,7.774,7.774,0,0,1-.051-1.13v-2.643h-.738v-1.279h.738v-1.2l1.613-.936v2.141Zm.978,2.946a3.276,3.276,0,0,1,.395-1.547,2.706,2.706,0,0,1,1.118-1.142,3.322,3.322,0,0,1,1.615-.394,3.035,3.035,0,0,1,2.259.893,3.084,3.084,0,0,1,.881,2.258,3.121,3.121,0,0,1-.889,2.281,3.008,3.008,0,0,1-2.239.9,3.531,3.531,0,0,1-1.593-.377,2.587,2.587,0,0,1-1.152-1.1A3.676,3.676,0,0,1-197.819-25.528Zm1.647.086a2.007,2.007,0,0,0,.429,1.382,1.364,1.364,0,0,0,1.058.48,1.355,1.355,0,0,0,1.055-.48,2.034,2.034,0,0,0,.426-1.393,2,2,0,0,0-.426-1.37,1.355,1.355,0,0,0-1.055-.48,1.364,1.364,0,0,0-1.058.48A2.007,2.007,0,0,0-196.172-25.442ZM-181-22.411h-1.493V-23.3a2.41,2.41,0,0,1-.878.774,2.255,2.255,0,0,1-1.021.254,2.315,2.315,0,0,1-1.793-.842,3.422,3.422,0,0,1-.746-2.349,3.382,3.382,0,0,1,.726-2.344,2.369,2.369,0,0,1,1.836-.8,2.275,2.275,0,0,1,1.761.845V-30.78H-181Zm-4.289-3.163a2.772,2.772,0,0,0,.269,1.4,1.215,1.215,0,0,0,1.087.628,1.183,1.183,0,0,0,.944-.471,2.171,2.171,0,0,0,.389-1.407,2.376,2.376,0,0,0-.377-1.5,1.2,1.2,0,0,0-.966-.46,1.208,1.208,0,0,0-.958.454A2.048,2.048,0,0,0-185.29-25.574Zm5.735.046a3.275,3.275,0,0,1,.395-1.547,2.706,2.706,0,0,1,1.118-1.142,3.322,3.322,0,0,1,1.615-.394,3.034,3.034,0,0,1,2.259.893,3.084,3.084,0,0,1,.881,2.258,3.121,3.121,0,0,1-.889,2.281,3.008,3.008,0,0,1-2.239.9,3.531,3.531,0,0,1-1.593-.377,2.587,2.587,0,0,1-1.152-1.1A3.675,3.675,0,0,1-179.555-25.528Zm1.647.086a2.007,2.007,0,0,0,.429,1.382,1.364,1.364,0,0,0,1.058.48,1.355,1.355,0,0,0,1.055-.48,2.034,2.034,0,0,0,.426-1.393,2,2,0,0,0-.426-1.37,1.355,1.355,0,0,0-1.055-.48,1.364,1.364,0,0,0-1.058.48A2.007,2.007,0,0,0-177.908-25.442Zm5.547,1.3,1.613-.245a1.179,1.179,0,0,0,.417.711,1.412,1.412,0,0,0,.881.243,1.592,1.592,0,0,0,.938-.228.509.509,0,0,0,.212-.428.421.421,0,0,0-.114-.3,1.281,1.281,0,0,0-.538-.211,8.679,8.679,0,0,1-2.465-.782,1.561,1.561,0,0,1-.72-1.364,1.68,1.68,0,0,1,.623-1.325,2.914,2.914,0,0,1,1.933-.537,3.376,3.376,0,0,1,1.853.405,2.072,2.072,0,0,1,.835,1.2l-1.515.28a.935.935,0,0,0-.369-.542,1.35,1.35,0,0,0-.775-.188,1.748,1.748,0,0,0-.909.177.38.38,0,0,0-.183.325.354.354,0,0,0,.16.291,6.037,6.037,0,0,0,1.5.451,4.473,4.473,0,0,1,1.793.714,1.482,1.482,0,0,1,.5,1.193,1.83,1.83,0,0,1-.7,1.433,3.092,3.092,0,0,1-2.064.6,3.392,3.392,0,0,1-1.964-.5A2.315,2.315,0,0,1-172.361-24.141Zm10.79,1.73v-8.37h2.533l1.521,5.709,1.5-5.709h2.539v8.37h-1.573V-29l-1.664,6.588h-1.63L-160-29v6.588Zm13.518-1.93,1.6.268a2.622,2.622,0,0,1-.975,1.339,2.868,2.868,0,0,1-1.667.46,2.719,2.719,0,0,1-2.345-1.033,3.468,3.468,0,0,1-.6-2.09,3.344,3.344,0,0,1,.789-2.361,2.6,2.6,0,0,1,2-.854,2.7,2.7,0,0,1,2.139.893,3.949,3.949,0,0,1,.749,2.738h-4.026a1.622,1.622,0,0,0,.389,1.11,1.217,1.217,0,0,0,.926.4.985.985,0,0,0,.635-.206A1.269,1.269,0,0,0-148.052-24.34Zm.091-1.621a1.543,1.543,0,0,0-.36-1.059,1.106,1.106,0,0,0-.835-.363,1.117,1.117,0,0,0-.869.383,1.478,1.478,0,0,0-.337,1.039Zm8.663,3.551H-140.9v-3.094a4.774,4.774,0,0,0-.1-1.27.891.891,0,0,0-.334-.448.958.958,0,0,0-.558-.16,1.29,1.29,0,0,0-.749.228,1.15,1.15,0,0,0-.455.605,5.222,5.222,0,0,0-.123,1.393v2.746h-1.607v-6.063h1.493v.891a2.433,2.433,0,0,1,2-1.028,2.415,2.415,0,0,1,.972.191,1.629,1.629,0,0,1,.666.488,1.767,1.767,0,0,1,.315.674,5,5,0,0,1,.089,1.079Zm1.864-6.885V-30.78h1.607V-29.3Zm0,6.885v-6.063h1.607v6.063Zm9.012,0h-1.607v-3.094a4.775,4.775,0,0,0-.1-1.27.891.891,0,0,0-.334-.448.957.957,0,0,0-.558-.16,1.29,1.29,0,0,0-.749.228,1.151,1.151,0,0,0-.455.605,5.223,5.223,0,0,0-.123,1.393v2.746h-1.607v-6.063h1.493v.891a2.433,2.433,0,0,1,2-1.028,2.414,2.414,0,0,1,.972.191,1.628,1.628,0,0,1,.666.488,1.767,1.767,0,0,1,.315.674,5,5,0,0,1,.089,1.079Zm1.492-3.117a3.276,3.276,0,0,1,.395-1.547,2.706,2.706,0,0,1,1.118-1.142,3.322,3.322,0,0,1,1.616-.394,3.035,3.035,0,0,1,2.259.893,3.084,3.084,0,0,1,.881,2.258,3.121,3.121,0,0,1-.889,2.281,3.008,3.008,0,0,1-2.239.9,3.531,3.531,0,0,1-1.593-.377,2.587,2.587,0,0,1-1.152-1.1A3.676,3.676,0,0,1-126.929-25.528Zm1.647.086a2.007,2.007,0,0,0,.429,1.382,1.364,1.364,0,0,0,1.058.48,1.355,1.355,0,0,0,1.055-.48,2.034,2.034,0,0,0,.426-1.393,2,2,0,0,0-.426-1.37,1.355,1.355,0,0,0-1.055-.48,1.364,1.364,0,0,0-1.058.48A2.007,2.007,0,0,0-125.283-25.442Zm5.547,1.3,1.613-.245a1.18,1.18,0,0,0,.417.711,1.412,1.412,0,0,0,.881.243,1.592,1.592,0,0,0,.938-.228.509.509,0,0,0,.212-.428.421.421,0,0,0-.114-.3,1.281,1.281,0,0,0-.538-.211,8.679,8.679,0,0,1-2.465-.782,1.561,1.561,0,0,1-.721-1.364,1.68,1.68,0,0,1,.623-1.325,2.914,2.914,0,0,1,1.933-.537,3.376,3.376,0,0,1,1.853.405,2.072,2.072,0,0,1,.835,1.2l-1.515.28a.935.935,0,0,0-.369-.542,1.35,1.35,0,0,0-.775-.188,1.748,1.748,0,0,0-.909.177.38.38,0,0,0-.183.325.354.354,0,0,0,.16.291,6.035,6.035,0,0,0,1.5.451,4.473,4.473,0,0,1,1.793.714,1.482,1.482,0,0,1,.5,1.193,1.83,1.83,0,0,1-.7,1.433,3.092,3.092,0,0,1-2.064.6,3.392,3.392,0,0,1-1.964-.5A2.315,2.315,0,0,1-119.736-24.141ZM-236.688-12.164l1.641.52A3.674,3.674,0,0,1-236.3-9.609a3.584,3.584,0,0,1-2.227.665,3.609,3.609,0,0,1-2.745-1.139,4.354,4.354,0,0,1-1.075-3.114,4.571,4.571,0,0,1,1.081-3.246,3.709,3.709,0,0,1,2.842-1.156,3.49,3.49,0,0,1,2.5.908,3.3,3.3,0,0,1,.858,1.541l-1.676.4a1.774,1.774,0,0,0-.62-1.028,1.779,1.779,0,0,0-1.147-.377,1.909,1.909,0,0,0-1.513.668,3.27,3.27,0,0,0-.58,2.164,3.506,3.506,0,0,0,.572,2.261,1.858,1.858,0,0,0,1.487.674,1.7,1.7,0,0,0,1.161-.428A2.486,2.486,0,0,0-236.688-12.164Zm4.517-1.136-1.458-.263a2.267,2.267,0,0,1,.846-1.3A3.1,3.1,0,0,1-231-15.287a3.85,3.85,0,0,1,1.6.254,1.6,1.6,0,0,1,.741.645,3.3,3.3,0,0,1,.214,1.436l-.017,1.873a6.486,6.486,0,0,0,.077,1.179,3.434,3.434,0,0,0,.289.814h-1.59q-.063-.16-.154-.474-.04-.143-.057-.188a2.9,2.9,0,0,1-.881.6,2.526,2.526,0,0,1-1,.2,2.071,2.071,0,0,1-1.478-.508,1.688,1.688,0,0,1-.54-1.285,1.722,1.722,0,0,1,.246-.916,1.606,1.606,0,0,1,.689-.617,5.392,5.392,0,0,1,1.278-.374,8.766,8.766,0,0,0,1.561-.394v-.16a.83.83,0,0,0-.229-.659,1.372,1.372,0,0,0-.864-.2,1.151,1.151,0,0,0-.669.168A1.17,1.17,0,0,0-232.17-13.3Zm2.15,1.3a10.057,10.057,0,0,1-.978.245,2.948,2.948,0,0,0-.875.28.669.669,0,0,0-.314.565.786.786,0,0,0,.252.582.879.879,0,0,0,.64.245,1.393,1.393,0,0,0,.829-.285,1,1,0,0,0,.383-.531,3.166,3.166,0,0,0,.063-.782Zm8.921,2.912h-1.607v-3.094a4.779,4.779,0,0,0-.1-1.27.891.891,0,0,0-.335-.448.957.957,0,0,0-.558-.16,1.29,1.29,0,0,0-.749.228,1.151,1.151,0,0,0-.455.605,5.222,5.222,0,0,0-.123,1.393v2.746h-1.607V-15.15h1.493v.891a2.433,2.433,0,0,1,2-1.028,2.414,2.414,0,0,1,.972.191,1.628,1.628,0,0,1,.666.488,1.767,1.767,0,0,1,.315.674,5,5,0,0,1,.089,1.079Zm4.649-6.063v1.279h-1.1v2.444a6.044,6.044,0,0,0,.032.865.352.352,0,0,0,.143.2.454.454,0,0,0,.272.08,2.082,2.082,0,0,0,.646-.154l.137,1.245a3.2,3.2,0,0,1-1.269.24,2.017,2.017,0,0,1-.783-.146,1.143,1.143,0,0,1-.512-.377,1.486,1.486,0,0,1-.226-.625,7.769,7.769,0,0,1-.051-1.13v-2.643h-.738V-15.15h.738v-1.2l1.613-.936v2.141Zm.978,2.946a3.276,3.276,0,0,1,.395-1.547,2.706,2.706,0,0,1,1.118-1.142,3.322,3.322,0,0,1,1.615-.394,3.035,3.035,0,0,1,2.259.893,3.084,3.084,0,0,1,.881,2.258,3.121,3.121,0,0,1-.889,2.281,3.008,3.008,0,0,1-2.239.9,3.531,3.531,0,0,1-1.593-.377,2.587,2.587,0,0,1-1.152-1.1A3.676,3.676,0,0,1-215.473-12.2Zm1.647.086a2.006,2.006,0,0,0,.429,1.382,1.364,1.364,0,0,0,1.058.48,1.355,1.355,0,0,0,1.055-.48,2.035,2.035,0,0,0,.426-1.393,2,2,0,0,0-.426-1.37,1.355,1.355,0,0,0-1.055-.48,1.364,1.364,0,0,0-1.058.48A2.006,2.006,0,0,0-213.826-12.118Zm7.651,3.032h-1.607V-15.15h1.492v.862a2.593,2.593,0,0,1,.689-.8,1.269,1.269,0,0,1,.695-.194,2.042,2.042,0,0,1,1.058.3l-.5,1.4a1.412,1.412,0,0,0-.755-.263.893.893,0,0,0-.572.186,1.268,1.268,0,0,0-.369.671,9.51,9.51,0,0,0-.134,2.032Zm6.77-1.93,1.6.268a2.623,2.623,0,0,1-.975,1.339,2.868,2.868,0,0,1-1.667.46,2.719,2.719,0,0,1-2.345-1.033,3.468,3.468,0,0,1-.6-2.09,3.344,3.344,0,0,1,.789-2.361,2.6,2.6,0,0,1,2-.854,2.7,2.7,0,0,1,2.139.893,3.949,3.949,0,0,1,.749,2.738h-4.026a1.622,1.622,0,0,0,.389,1.11,1.217,1.217,0,0,0,.926.4.985.985,0,0,0,.635-.206A1.268,1.268,0,0,0-199.4-11.016Zm.091-1.621a1.543,1.543,0,0,0-.36-1.059,1.106,1.106,0,0,0-.835-.363,1.117,1.117,0,0,0-.869.383,1.479,1.479,0,0,0-.337,1.039Zm2.573,1.821,1.613-.245a1.179,1.179,0,0,0,.417.711,1.412,1.412,0,0,0,.881.243,1.592,1.592,0,0,0,.938-.228.509.509,0,0,0,.212-.428.421.421,0,0,0-.114-.3,1.282,1.282,0,0,0-.538-.211,8.678,8.678,0,0,1-2.465-.782,1.561,1.561,0,0,1-.72-1.364,1.68,1.68,0,0,1,.623-1.325,2.914,2.914,0,0,1,1.933-.537,3.376,3.376,0,0,1,1.853.405,2.072,2.072,0,0,1,.835,1.2l-1.515.28a.935.935,0,0,0-.369-.542,1.351,1.351,0,0,0-.775-.188,1.748,1.748,0,0,0-.909.177.38.38,0,0,0-.183.325.354.354,0,0,0,.16.291,6.036,6.036,0,0,0,1.5.451,4.473,4.473,0,0,1,1.793.714,1.482,1.482,0,0,1,.5,1.193,1.83,1.83,0,0,1-.7,1.433,3.091,3.091,0,0,1-2.064.6,3.392,3.392,0,0,1-1.964-.5A2.315,2.315,0,0,1-196.74-10.817Zm16.372,1.73h-1.493v-.891a2.41,2.41,0,0,1-.878.774,2.255,2.255,0,0,1-1.021.254,2.315,2.315,0,0,1-1.793-.842,3.422,3.422,0,0,1-.746-2.349,3.382,3.382,0,0,1,.726-2.344,2.369,2.369,0,0,1,1.836-.8,2.275,2.275,0,0,1,1.761.845v-3.014h1.607Zm-4.289-3.163a2.772,2.772,0,0,0,.269,1.4,1.215,1.215,0,0,0,1.087.628,1.183,1.183,0,0,0,.944-.471,2.171,2.171,0,0,0,.389-1.407,2.376,2.376,0,0,0-.377-1.5,1.2,1.2,0,0,0-.966-.46,1.208,1.208,0,0,0-.958.454A2.049,2.049,0,0,0-184.658-12.25Zm9.624,1.233,1.6.268a2.622,2.622,0,0,1-.975,1.339,2.868,2.868,0,0,1-1.667.46,2.719,2.719,0,0,1-2.345-1.033,3.468,3.468,0,0,1-.6-2.09,3.345,3.345,0,0,1,.789-2.361,2.6,2.6,0,0,1,2-.854,2.7,2.7,0,0,1,2.139.893,3.949,3.949,0,0,1,.749,2.738h-4.026a1.622,1.622,0,0,0,.389,1.11,1.217,1.217,0,0,0,.926.4.985.985,0,0,0,.635-.206A1.269,1.269,0,0,0-175.034-11.016Zm.091-1.621a1.543,1.543,0,0,0-.36-1.059,1.106,1.106,0,0,0-.835-.363,1.117,1.117,0,0,0-.869.383,1.478,1.478,0,0,0-.337,1.039Zm6.639,3.551v-8.37h2.716a9.866,9.866,0,0,1,2.013.126,2.2,2.2,0,0,1,1.207.819,2.6,2.6,0,0,1,.486,1.63,2.727,2.727,0,0,1-.28,1.3,2.3,2.3,0,0,1-.712.825,2.455,2.455,0,0,1-.878.4,9.677,9.677,0,0,1-1.756.12h-1.1v3.157Zm1.693-6.954v2.375h.926a4.384,4.384,0,0,0,1.338-.131,1.111,1.111,0,0,0,.529-.411,1.124,1.124,0,0,0,.192-.651,1.08,1.08,0,0,0-.269-.754,1.171,1.171,0,0,0-.68-.371,8.149,8.149,0,0,0-1.218-.057Zm9.858,5.024,1.6.268a2.622,2.622,0,0,1-.975,1.339,2.868,2.868,0,0,1-1.667.46,2.719,2.719,0,0,1-2.345-1.033,3.467,3.467,0,0,1-.6-2.09,3.344,3.344,0,0,1,.789-2.361,2.6,2.6,0,0,1,2-.854,2.7,2.7,0,0,1,2.139.893,3.949,3.949,0,0,1,.749,2.738h-4.026a1.622,1.622,0,0,0,.389,1.11,1.217,1.217,0,0,0,.926.4.985.985,0,0,0,.635-.206A1.268,1.268,0,0,0-156.753-11.016Zm.092-1.621a1.543,1.543,0,0,0-.36-1.059,1.106,1.106,0,0,0-.835-.363,1.117,1.117,0,0,0-.869.383,1.479,1.479,0,0,0-.337,1.039Zm5.924-2.512v1.279h-1.1v2.444a6.082,6.082,0,0,0,.031.865.353.353,0,0,0,.143.2.454.454,0,0,0,.272.08,2.082,2.082,0,0,0,.646-.154l.137,1.245a3.2,3.2,0,0,1-1.27.24,2.017,2.017,0,0,1-.783-.146,1.143,1.143,0,0,1-.512-.377,1.486,1.486,0,0,1-.226-.625,7.765,7.765,0,0,1-.051-1.13v-2.643h-.738V-15.15h.738v-1.2l1.613-.936v2.141Zm2.888,6.063h-1.607V-15.15h1.492v.862a2.593,2.593,0,0,1,.689-.8,1.269,1.269,0,0,1,.695-.194,2.042,2.042,0,0,1,1.058.3l-.5,1.4a1.412,1.412,0,0,0-.755-.263.893.893,0,0,0-.572.186,1.268,1.268,0,0,0-.369.671,9.517,9.517,0,0,0-.134,2.032Zm2.882-3.117a3.276,3.276,0,0,1,.395-1.547,2.706,2.706,0,0,1,1.118-1.142,3.322,3.322,0,0,1,1.615-.394,3.035,3.035,0,0,1,2.259.893,3.084,3.084,0,0,1,.881,2.258,3.121,3.121,0,0,1-.889,2.281,3.008,3.008,0,0,1-2.239.9,3.532,3.532,0,0,1-1.593-.377,2.587,2.587,0,0,1-1.152-1.1A3.676,3.676,0,0,1-144.967-12.2Zm1.647.086a2.006,2.006,0,0,0,.429,1.382,1.364,1.364,0,0,0,1.058.48,1.355,1.355,0,0,0,1.055-.48,2.034,2.034,0,0,0,.426-1.393,2,2,0,0,0-.426-1.37,1.355,1.355,0,0,0-1.055-.48,1.364,1.364,0,0,0-1.058.48A2.006,2.006,0,0,0-143.321-12.118Zm.675-3.774.789-1.707h1.8l-1.573,1.707Zm5.392.742h1.5v.891a2.24,2.24,0,0,1,.789-.742,2.178,2.178,0,0,1,1.1-.285,2.317,2.317,0,0,1,1.8.828,3.347,3.347,0,0,1,.738,2.307,3.449,3.449,0,0,1-.743,2.361,2.318,2.318,0,0,1-1.8.842,2.049,2.049,0,0,1-.912-.2,3.074,3.074,0,0,1-.861-.685V-6.78h-1.607Zm1.59,2.929a2.333,2.333,0,0,0,.406,1.51,1.243,1.243,0,0,0,.989.488,1.162,1.162,0,0,0,.932-.448,2.307,2.307,0,0,0,.372-1.47,2.189,2.189,0,0,0-.383-1.416,1.186,1.186,0,0,0-.949-.462,1.234,1.234,0,0,0-.978.454A2.018,2.018,0,0,0-135.664-12.221Zm5.472.017a3.275,3.275,0,0,1,.395-1.547,2.706,2.706,0,0,1,1.118-1.142,3.322,3.322,0,0,1,1.615-.394,3.035,3.035,0,0,1,2.259.893,3.084,3.084,0,0,1,.881,2.258,3.121,3.121,0,0,1-.889,2.281,3.008,3.008,0,0,1-2.239.9,3.531,3.531,0,0,1-1.593-.377,2.587,2.587,0,0,1-1.152-1.1A3.676,3.676,0,0,1-130.191-12.2Zm1.647.086a2.007,2.007,0,0,0,.429,1.382,1.364,1.364,0,0,0,1.058.48,1.355,1.355,0,0,0,1.055-.48,2.034,2.034,0,0,0,.426-1.393A2,2,0,0,0-126-13.5a1.355,1.355,0,0,0-1.055-.48,1.364,1.364,0,0,0-1.058.48A2.006,2.006,0,0,0-128.545-12.118Zm6.113,3.032v-8.37h1.607v8.37Zm3.488-6.885v-1.484h1.607v1.484Zm0,6.885V-15.15h1.607v6.063Zm2.922-1.73,1.613-.245a1.179,1.179,0,0,0,.417.711,1.412,1.412,0,0,0,.881.243,1.592,1.592,0,0,0,.938-.228.509.509,0,0,0,.212-.428.421.421,0,0,0-.114-.3,1.281,1.281,0,0,0-.538-.211,8.679,8.679,0,0,1-2.465-.782,1.561,1.561,0,0,1-.72-1.364,1.681,1.681,0,0,1,.623-1.325,2.914,2.914,0,0,1,1.933-.537,3.376,3.376,0,0,1,1.853.405,2.072,2.072,0,0,1,.835,1.2l-1.515.28a.935.935,0,0,0-.369-.542,1.35,1.35,0,0,0-.775-.188,1.748,1.748,0,0,0-.909.177.38.38,0,0,0-.183.325.354.354,0,0,0,.16.291,6.035,6.035,0,0,0,1.5.451,4.472,4.472,0,0,1,1.793.714,1.482,1.482,0,0,1,.5,1.193,1.83,1.83,0,0,1-.7,1.433,3.092,3.092,0,0,1-2.064.6,3.392,3.392,0,0,1-1.964-.5A2.315,2.315,0,0,1-116.022-10.817Z" transform="translate(397.479 2693.216)" fill="#fff"/>
    <path id="União_8" data-name="União 8" d="M2.477,33.8A3.327,3.327,0,0,1,.041,30.958,2.854,2.854,0,0,1,1.5,28.01a4.422,4.422,0,0,1,3.3-.672,11.712,11.712,0,0,1,1.475.328V16.4l3.186-.75-2.192-8.7L5.772,6.7,7.145,3.857,3.624.056l2.3-.027S9.649,0,11.515,0a3.555,3.555,0,0,1,3.094,1.483q6.152,8.7,12.3,17.408c.022.032.087.146.087.146s-.831.605-1.218.9c.034.264.073.45.128.887h-4l0,6.853c0,2.34-1.734,3.489-3.745,3.751a3.869,3.869,0,0,1-2.6-.569,3.132,3.132,0,0,1-1.611-3.436,3.627,3.627,0,0,1,3.1-2.6,7.426,7.426,0,0,1,1.359,0c.441.034.876.132,1.439.223v-5.85C15.779,19.861,8.1,21.175,8.1,21.175V30.01A4.124,4.124,0,0,1,3.818,34,4.514,4.514,0,0,1,2.477,33.8ZM21.9,19.058h3.257c-1.057-1.514-2.123-2.976-3.257-4.6ZM6.63,1.315c.884.985,1.688,1.819,2.418,2.633L8.019,6.231l1.2.4,2.064,8.737,10.042-1.806c-.3-.461-.524-.824-.771-1.172C19.565,11,18.565,9.622,17.583,8.233c-1.263-1.786-2.514-3.581-3.773-5.37-.482-.684-.993-1.434-1.926-1.48-1.247-.062-2.556-.069-3.947-.069Zm3.635,2.448a1.1,1.1,0,0,1,2.187,0,1.1,1.1,0,0,1-2.187,0Z" transform="translate(299.129 2657.436)" fill="#fff" stroke="rgba(0,0,0,0)" stroke-width="1"/>
  </g>
</svg>
