<svg xmlns="http://www.w3.org/2000/svg" width="94.964" height="86.094" viewBox="0 0 94.964 86.094">
  <g id="anexos" transform="translate(-670.036 -1062.246)">
    <path id="Caminho_1575" data-name="Caminho 1575" d="M17.875-8.847c-22.257,0-56.125,6.7-58.193,31.472S4.959,67.95,27.216,67.95,54.58,52.517,54.58,30.26,40.131-8.847,17.875-8.847Z" transform="translate(710.42 1078.396)" fill="#fcf7f9"/>
    <g id="anexo" transform="translate(698.773 1062.246)">
      <path id="Caminho_1572" data-name="Caminho 1572" d="M93.41,894.63c0,7.564-.193,15.135.058,22.691.226,6.8,2.944,12.568,8.64,16.613a14.462,14.462,0,0,0,18.876-2.253,21.787,21.787,0,0,0,5.843-12.712,31.67,31.67,0,0,0,.174-3.85q.017-14.145.006-28.291a8.8,8.8,0,0,1,.01-.915,2.05,2.05,0,0,1,1.846-1.838,1.924,1.924,0,0,1,1.877,1.665,6.024,6.024,0,0,1,.07,1.111c0,9.4-.016,18.793.009,28.189.019,7.038-1.934,13.417-6.584,18.753a18.533,18.533,0,0,1-10.38,6.032c-9.308,1.933-17.125-3.563-21.074-10.945a28.145,28.145,0,0,1-3.2-13.429q-.053-21.065,0-42.131a20.51,20.51,0,0,1,5-14.073c6.283-7.1,16.571-6.776,22.461.667a20.928,20.928,0,0,1,4.4,13.383q.045,21.065,0,42.131a14.223,14.223,0,0,1-3.4,9.813c-4.864,5.471-12.587,4.874-16.679-1.247a14.716,14.716,0,0,1-2.437-8.319c-.028-9.735-.012-19.471-.008-29.206,0-1.427.8-2.408,1.92-2.4s1.894.979,1.9,2.422c.01,10.075-.02,20.149.045,30.224a9.05,9.05,0,0,0,3.241,6.942c2.873,2.508,6.982,1.991,9.457-1.177a9.683,9.683,0,0,0,2.143-6.08c.007-14.925.076-29.852-.046-44.776a14.438,14.438,0,0,0-5.268-11.207c-4.812-4.079-11.46-3.238-15.452,1.881a15.793,15.793,0,0,0-3.449,9.836c-.042,7.5-.012,14.993-.012,22.49Z" transform="translate(-89.558 -854.122)" fill="#ad4961"/>
      <path id="Caminho_1573" data-name="Caminho 1573" d="M143.478,992.676a1.9,1.9,0,1,1,1.894-1.906A2.061,2.061,0,0,1,143.478,992.676Z" transform="translate(-132.189 -964.578)" fill="#ad4961"/>
    </g>
  </g>
</svg>
