<svg id="botão-slider-destaque" xmlns="http://www.w3.org/2000/svg" width="40" height="40" viewBox="0 0 40 40">
  <g id="Icon_ionic-ios-arrow-dropdown" data-name="Icon ionic-ios-arrow-dropdown" transform="translate(0 40) rotate(-90)">
    <path id="Caminho_1581" data-name="Caminho 1581" d="M10.522,14.964a1.876,1.876,0,0,0,0,2.633L19.7,26.8a1.842,1.842,0,0,0,2.551.058L31.3,17.79a1.853,1.853,0,1,0-2.609-2.633l-7.769,7.7-7.779-7.9A1.842,1.842,0,0,0,10.522,14.964Z" transform="translate(-0.919 0.66)" fill="#991c3a"/>
    <path id="Caminho_1582" data-name="Caminho 1582" d="M3.375,23.375a20,20,0,1,0,20-20A20,20,0,0,0,3.375,23.375ZM35.337,11.413A16.916,16.916,0,1,1,11.413,35.337,16.916,16.916,0,1,1,35.337,11.413Z" transform="translate(-3.375 -3.375)" fill="#991c3a"/>
  </g>
</svg>
