<svg xmlns="http://www.w3.org/2000/svg" width="94" height="93" viewBox="0 0 94 93">
  <g id="calendario-numero" transform="translate(20716 1033)">
    <path id="Caminho_1276" data-name="Caminho 1276" d="M17.283-8.847c-22.031,0-55.555,6.632-57.6,31.145S4.5,67.153,26.529,67.153s27.086-15.273,27.086-37.3S39.314-8.847,17.283-8.847Z" transform="translate(-20675.615 -1010.153)" fill="#fbf0ea"/>
    <rect id="Retângulo_3712" data-name="Retângulo 3712" width="94" height="93" transform="translate(-20716 -1033)" fill="none"/>
    <g id="calendar" transform="translate(276 -45)">
      <g id="União_17" data-name="União 17" transform="translate(-20983 -985)" fill="none" stroke-linecap="round" stroke-linejoin="round">
        <path d="M0,34V27.333a16,16,0,0,1,16-16V4.5a4.5,4.5,0,0,1,9,0v6.834H36V4.5a4.5,4.5,0,0,1,9,0v6.834H56V4.5a4.5,4.5,0,1,1,9,0v6.865A16,16,0,0,1,80,27.333V34Z" stroke="none"/>
        <path d="M 78.00009918212891 32.00020599365234 L 78.00009918212891 27.33299446105957 C 78.00009918212891 23.74606513977051 76.64515686035156 20.33476066589355 74.18488311767578 17.72745323181152 C 71.7344970703125 15.13063049316406 68.42910003662109 13.57984256744385 64.8775634765625 13.36074829101562 C 63.82281494140625 13.29568958282471 63.00070953369141 12.42130088806152 63.00070953369141 11.36454772949219 L 63.00070953369141 4.499995231628418 C 63.00070953369141 3.121489286422729 61.87921524047852 1.999995231628418 60.50070953369141 1.999995231628418 C 59.1222038269043 1.999995231628418 58.00070953369141 3.121489286422729 58.00070953369141 4.499995231628418 L 58.00070953369141 11.33370113372803 C 58.00070953369141 12.43826580047607 57.10527420043945 13.33370113372803 56.00070953369141 13.33370113372803 L 44.99909591674805 13.33370113372803 C 43.89453125 13.33370113372803 42.99909591674805 12.43826580047607 42.99909591674805 11.33370113372803 L 42.99909591674805 4.499995231628418 C 42.99909591674805 3.121489286422729 41.87760162353516 1.999995231628418 40.49909591674805 1.999995231628418 C 39.12059020996094 1.999995231628418 37.99909591674805 3.121489286422729 37.99909591674805 4.499995231628418 L 37.99909591674805 11.33370113372803 C 37.99909591674805 12.43826580047607 37.10366058349609 13.33370113372803 35.99909591674805 13.33370113372803 L 25.00020217895508 13.33370113372803 C 23.89563751220703 13.33370113372803 23.00020217895508 12.43826580047607 23.00020217895508 11.33370113372803 L 23.00020217895508 4.499995231628418 C 23.00020217895508 3.121489286422729 21.87870788574219 1.999995231628418 20.50020217895508 1.999995231628418 C 19.12169647216797 1.999995231628418 18.00020217895508 3.121489286422729 18.00020217895508 4.499995231628418 L 18.00020217895508 11.33370113372803 C 18.00020217895508 12.43826580047607 17.10476684570312 13.33370113372803 16.00020217895508 13.33370113372803 C 12.26075553894043 13.33370113372803 8.745038032531738 14.78990077972412 6.100685119628906 17.43404197692871 C 3.456320285797119 20.07820701599121 2.00000262260437 23.59372520446777 2.00000262260437 27.33299446105957 L 2.00000262260437 32.00020599365234 L 78.00009918212891 32.00020599365234 M 80.00009918212891 34.00020599365234 L 2.532240841901512e-06 34.00020599365234 L 2.532240841901512e-06 27.33299446105957 C 2.532240841901512e-06 18.49680709838867 7.164002418518066 11.33370113372803 16.00020217895508 11.33370113372803 L 16.00020217895508 4.499995231628418 C 16.00020217895508 2.015101194381714 18.01529693603516 -4.792875188286416e-06 20.50020217895508 -4.792875188286416e-06 C 22.9850959777832 -4.792875188286416e-06 25.00020217895508 2.015101194381714 25.00020217895508 4.499995231628418 L 25.00020217895508 11.33370113372803 L 35.99909591674805 11.33370113372803 L 35.99909591674805 4.499995231628418 C 35.99909591674805 2.015101194381714 38.01420211791992 -4.792875188286416e-06 40.49909591674805 -4.792875188286416e-06 C 42.98489761352539 -4.792875188286416e-06 44.99909591674805 2.015101194381714 44.99909591674805 4.499995231628418 L 44.99909591674805 11.33370113372803 L 56.00070953369141 11.33370113372803 L 56.00070953369141 4.499995231628418 C 56.00070953369141 2.015101194381714 58.01489639282227 -4.792875188286416e-06 60.50070953369141 -4.792875188286416e-06 C 62.98560333251953 -4.792875188286416e-06 65.00070953369141 2.015101194381714 65.00070953369141 4.499995231628418 L 65.00070953369141 11.36454772949219 C 73.37167358398438 11.88094806671143 80.00009918212891 18.83279609680176 80.00009918212891 27.33299446105957 L 80.00009918212891 34.00020599365234 Z" stroke="none" fill="#d57032"/>
      </g>
      <g id="Retângulo_3869" data-name="Retângulo 3869" transform="translate(-20967 -985)" fill="none" stroke="#d57032" stroke-linecap="round" stroke-linejoin="round" stroke-width="2">
        <rect width="9" height="23" rx="4.5" stroke="none"/>
        <rect x="1" y="1" width="7" height="21" rx="3.5" fill="none"/>
      </g>
      <g id="Retângulo_3871" data-name="Retângulo 3871" transform="translate(-20947 -985)" fill="none" stroke="#d57032" stroke-linecap="round" stroke-linejoin="round" stroke-width="2">
        <rect width="9" height="23" rx="4.5" stroke="none"/>
        <rect x="1" y="1" width="7" height="21" rx="3.5" fill="none"/>
      </g>
      <g id="Retângulo_3872" data-name="Retângulo 3872" transform="translate(-20927 -985)" fill="none" stroke="#d57032" stroke-linecap="round" stroke-linejoin="round" stroke-width="2">
        <rect width="9" height="23" rx="4.5" stroke="none"/>
        <rect x="1" y="1" width="7" height="21" rx="3.5" fill="none"/>
      </g>
      <g id="Retângulo_3875" data-name="Retângulo 3875" transform="translate(-20983 -953)" fill="none" stroke="#d57032" stroke-linecap="round" stroke-linejoin="round" stroke-width="2" stroke-dasharray="320 20">
        <path d="M0,0H80a0,0,0,0,1,0,0V33A16,16,0,0,1,64,49H16A16,16,0,0,1,0,33V0A0,0,0,0,1,0,0Z" stroke="none"/>
        <path d="M2,1H78a1,1,0,0,1,1,1V33A15,15,0,0,1,64,48H16A15,15,0,0,1,1,33V2A1,1,0,0,1,2,1Z" fill="none"/>
      </g>
      <text id="número_1" data-name="número 1" transform="translate(-20943 -922)" fill="#d57032" font-size="21" font-family="Poppins-Regular, Poppins"><tspan x="-9" y="0">01</tspan></text>
      <circle id="Elipse_178" data-name="Elipse 178" cx="1" cy="1" r="1" transform="translate(-20906 -916)" fill="#d57032"/>
    </g>
  </g>
</svg>
