<svg xmlns="http://www.w3.org/2000/svg" width="123.5" height="97.998" viewBox="0 0 123.5 97.998">
  <g id="clave-de-sol" transform="translate(-1.391 -1.518)">
    <path id="Caminho_1650" data-name="Caminho 1650" d="M16781.066,22785.588h-.2a8.934,8.934,0,0,1-8.7-8.389c-.014-.262-.018-1.574,1.23-1.693a1.554,1.554,0,0,1,.162-.006,1,1,0,0,1,.781.32,2.5,2.5,0,0,1,.537,1.322c.57,3.574,2.977,5.793,6.275,5.793.18,0,.361-.008.514-.018a5.877,5.877,0,0,0,4.172-2.035,7.114,7.114,0,0,0,1.592-4.576c.006-.24.039-6.656.039-6.656l-.912-.086c-1.031-.1-2.248-.3-3.41-.5a22.169,22.169,0,0,1-10.35-4.535,20.947,20.947,0,0,1-6.248-8.332,20.658,20.658,0,0,1-1.4-10.248,21.486,21.486,0,0,1,4.184-10.363,41.521,41.521,0,0,1,4.209-4.787l.006-.006c.133-.135.275-.27.4-.389l.129-.125,5.508-4.971,7.346-6.611.561-.5c0-4.418.018-16.359.018-20.5a12.557,12.557,0,0,1,1.646-5.639,9.807,9.807,0,0,1,3.045-3.281,7.185,7.185,0,0,1,3.941-1.2h.734a8.176,8.176,0,0,1,5.658,3.3,12.343,12.343,0,0,1,2.473,7.441,15.89,15.89,0,0,1-1.109,5.473,22.485,22.485,0,0,1-4.443,6.84c-.8.871-2.354,2.492-9.316,8.762v18.785l.838.139c.26.043.514.1.705.145l.012,0a15.1,15.1,0,0,1,6.664,3.357l.051.057a16.681,16.681,0,0,1,4.883,12.039v.021a17.216,17.216,0,0,1-3.295,10.266,12.915,12.915,0,0,1-8.008,5.158l-.039.006-.037.012a6.945,6.945,0,0,1-.883.166l-.873.119v.871c-.006.475-.006.965,0,1.457,0,1.912,0,3.889-.092,5.633a8.057,8.057,0,0,1-2.791,5.656A9.324,9.324,0,0,1,16781.066,22785.588Zm9.1-44.3v20.992l.033,4.283,1.064-.068c5.477-.361,9.766-5.85,9.766-12.5a15.4,15.4,0,0,0-.207-2.518,13.232,13.232,0,0,0-3.162-6.736c-1.68-1.857-5.791-3.582-7.494-3.455Zm-2.637-19.5h0l-6.426,5.811-.051.039c-1.732,1.506-3.564,3.111-5.264,4.764-.764.738-1.477,1.463-2.117,2.156a25.617,25.617,0,0,0-3.982,5.49l-.01.012a17.783,17.783,0,0,0-1.082,13.949,16.863,16.863,0,0,0,8.879,9.967,22.35,22.35,0,0,0,8.922,2.539l1.051.047.006-25.268a7.081,7.081,0,0,0-1.473.275,9.4,9.4,0,0,0-5.4,7.914,1.4,1.4,0,0,1-.838,1.355,2.079,2.079,0,0,1-.508.064,1.358,1.358,0,0,1-.846-.24,2.411,2.411,0,0,1-.5-2.02,12.137,12.137,0,0,1,.85-3.088l.006-.006a12.666,12.666,0,0,1,8-7.246l.705-.223v-1.492c-.047-2.7-.033-5.424-.016-7.984.012-1.592.016-3,.016-4.3Zm8.686-31.426a5.473,5.473,0,0,0-3.668,1.459,8.492,8.492,0,0,0-2.4,5.719v18.215c7.43-6.307,9.877-9.8,11.166-12.748l0-.006a12.048,12.048,0,0,0,.98-5.1v-.365a8.3,8.3,0,0,0-.285-2.23c-.816-2.959-3.139-4.947-5.785-4.947h-.012Z" transform="translate(-16763.611 -22686.072)"/>
    <path id="União_19" data-name="União 19" d="M67,0V0ZM53,80h0V60h0V40h0V20h0v0h0V40h0V60h0V80h0ZM0,80H0ZM12,0h0Z" transform="translate(56.891 10.018)" fill="none" stroke="#000" stroke-linecap="round" stroke-linejoin="round" stroke-width="2"/>
  </g>
</svg>
