<svg xmlns="http://www.w3.org/2000/svg" width="94.964" height="91.896" viewBox="0 0 94.964 91.896">
  <g id="editais" transform="translate(18927 117.754)">
    <path id="Caminho_1575" data-name="Caminho 1575" d="M17.875-8.847c-22.257,0-56.125,6.7-58.193,31.472S4.959,67.95,27.216,67.95,54.58,52.517,54.58,30.26,40.131-8.847,17.875-8.847Z" transform="translate(-18886.615 -101.604)" fill="#eff8f9"/>
    <g id="editais-2" data-name="editais" transform="translate(-18775.443 -22.754)">
      <path id="Caminho_1560" data-name="Caminho 1560" d="M1730.656,142.186a5.066,5.066,0,0,0-5.329-5.212c-1.046-.017-2.093-.007-3.138-.006-.6,0-.862-.265-.858-.867.008-1.016,0-2.033,0-3.049-.008-2.858-1.135-4.3-3.87-4.956h-44.331a3.291,3.291,0,0,0-1.4.923q-7.028,7.047-14.081,14.07a3.531,3.531,0,0,0-1.135,2.695q.031,29.994.018,59.988a4.972,4.972,0,0,0,5.248,5.327c1.016.017,2.032.012,3.048,0,.606-.005.863.252.856.86-.012,1.076-.027,2.152.005,3.228a4.683,4.683,0,0,0,3.846,4.8h57.074a4.488,4.488,0,0,0,3.972-4.186,9.838,9.838,0,0,0,.077-1.521q0-35.647,0-71.293C1730.665,142.725,1730.668,142.455,1730.656,142.186Zm-58.549-8.643c0,2.084,0,4.158,0,6.232,0,.686.019,1.373-.01,2.058a1.443,1.443,0,0,1-1.579,1.553c-2.744.022-5.488.007-8.229.007Zm-9.98,74.212c-1.834,0-2.266-.435-2.266-2.279q0-28.979-.021-57.958c0-.852.179-1.1,1.06-1.078,3.049.061,6.1.027,9.151.023,3.338,0,5.119-1.8,5.123-5.171,0-3.11.025-6.221-.017-9.33-.009-.7.2-.823.853-.822q20.006.03,40.012.015c1.541,0,2.029.486,2.03,2.036q0,18.123,0,36.246,0,18.033,0,36.066c0,1.843-.414,2.251-2.277,2.251Zm65.138-52.909v23.774q0,17.943,0,35.886c0,2.074-.362,2.429-2.469,2.429h-53.467c-1.851,0-2.285-.429-2.286-2.258,0-1.077.028-2.154-.012-3.229-.02-.529.169-.7.665-.635a4.19,4.19,0,0,0,.538,0q22.921,0,45.842,0a4.675,4.675,0,0,0,4.888-3.4,7.178,7.178,0,0,0,.157-1.959q0-32.028-.018-64.056c0-.837.152-1.168,1.057-1.089,1.039.09,2.092.015,3.138.022,1.411.009,1.961.542,1.964,1.951C1727.27,146.473,1727.264,150.66,1727.264,154.847Z" transform="translate(-1797.52 -223.097)" fill="#80c9cf"/>
      <path id="Caminho_1561" data-name="Caminho 1561" d="M1732.219,276.116q-10.54,0-21.08,0c-1.285,0-2.082-.8-1.833-1.827a1.5,1.5,0,0,1,1.378-1.217,6.48,6.48,0,0,1,.807-.013q20.766,0,41.532,0a4.837,4.837,0,0,1,.983.044,1.5,1.5,0,0,1,1.182,1.576,1.464,1.464,0,0,1-1.351,1.42,8.376,8.376,0,0,1-.9.016Z" transform="translate(-1840.791 -342.025)" fill="#80c9cf"/>
      <path id="Caminho_1562" data-name="Caminho 1562" d="M1732.338,443.8q10.5,0,20.99,0c1.148,0,1.753.4,1.893,1.232a1.529,1.529,0,0,1-1.326,1.8,5.955,5.955,0,0,1-.9.025q-20.72,0-41.441,0a2.91,2.91,0,0,1-1.323-.155,1.441,1.441,0,0,1-.9-1.594,1.41,1.41,0,0,1,1.292-1.287,7.9,7.9,0,0,1,.985-.025Z" transform="translate(-1840.841 -482.114)" fill="#80c9cf"/>
      <path id="Caminho_1563" data-name="Caminho 1563" d="M1724.66,315.847q6.724,0,13.447,0a1.569,1.569,0,0,1,1.755,1.193,1.542,1.542,0,0,1-1.377,1.844,10.231,10.231,0,0,1-1.254.021h-25.549c-.209,0-.418,0-.627,0-1.1-.029-1.816-.661-1.794-1.577.021-.89.7-1.478,1.773-1.48Q1717.846,315.839,1724.66,315.847Z" transform="translate(-1840.791 -377.137)" fill="#80c9cf"/>
      <path id="Caminho_1564" data-name="Caminho 1564" d="M1809.957,361.423q-6.506,0-13.012,0a4.837,4.837,0,0,1-1.07-.069,1.366,1.366,0,0,1-1.128-1.327,1.389,1.389,0,0,1,.969-1.538,3.22,3.22,0,0,1,1.06-.128q13.236-.01,26.473,0a4.194,4.194,0,0,1,.89.07,1.434,1.434,0,0,1,1.178,1.564,1.392,1.392,0,0,1-1.273,1.389,6.341,6.341,0,0,1-.984.043Q1816.508,361.425,1809.957,361.423Z" transform="translate(-1910.924 -412.011)" fill="#80c9cf"/>
      <path id="Caminho_1565" data-name="Caminho 1565" d="M1788.369,404.075c-2.988,0-5.976,0-8.964,0-1.129,0-1.8-.594-1.795-1.538s.691-1.515,1.828-1.516q8.874-.007,17.748-.008a1.7,1.7,0,0,1,1.661.83,1.4,1.4,0,0,1-.06,1.529,1.655,1.655,0,0,1-1.544.712C1794.285,404.067,1791.327,404.075,1788.369,404.075Z" transform="translate(-1896.869 -447.011)" fill="#80c9cf"/>
      <path id="Caminho_1566" data-name="Caminho 1566" d="M1715.358,489.348c-1.433,0-2.867.014-4.3,0-1.125-.014-1.82-.632-1.8-1.551a1.581,1.581,0,0,1,1.765-1.508q4.345-.027,8.691,0c1.131.006,1.8.62,1.781,1.563-.015.914-.651,1.481-1.746,1.5C1718.285,489.363,1716.822,489.348,1715.358,489.348Z" transform="translate(-1840.788 -516.963)" fill="#80c9cf"/>
      <path id="Caminho_1567" data-name="Caminho 1567" d="M1714.516,361.386c-1.135,0-2.27.011-3.4,0s-1.834-.583-1.852-1.5.687-1.553,1.8-1.561q3.583-.026,7.166,0a1.563,1.563,0,0,1,1.755,1.511c.016.931-.66,1.531-1.794,1.548C1716.965,361.4,1715.74,361.386,1714.516,361.386Z" transform="translate(-1840.791 -411.975)" fill="#80c9cf"/>
      <path id="Caminho_1568" data-name="Caminho 1568" d="M1910.889,315.833c1.224,0,2.448-.012,3.671,0,1.079.013,1.706.592,1.7,1.527a1.514,1.514,0,0,1-1.636,1.523q-3.716.034-7.431,0a1.526,1.526,0,1,1,.027-3.046C1908.441,315.819,1909.666,315.834,1910.889,315.833Z" transform="translate(-2001.86 -377.122)" fill="#80c9cf"/>
      <path id="Caminho_1569" data-name="Caminho 1569" d="M1713.043,404.042c-.745,0-1.491.021-2.236-.005A1.52,1.52,0,1,1,1710.8,401q2.279-.048,4.561,0a1.52,1.52,0,1,1,.008,3.039C1714.594,404.063,1713.818,404.041,1713.043,404.042Z" transform="translate(-1840.781 -446.98)" fill="#80c9cf"/>
      <path id="Caminho_1570" data-name="Caminho 1570" d="M1926.453,404.03c-.745,0-1.49.02-2.234,0a1.519,1.519,0,1,1-.055-3.038c1.549-.036,3.1-.039,4.647,0a1.516,1.516,0,0,1-.035,3.032C1928,404.053,1927.228,404.03,1926.453,404.03Z" transform="translate(-2015.879 -446.969)" fill="#80c9cf"/>
      <path id="Caminho_1571" data-name="Caminho 1571" d="M1805.394,489.359c-1.546.021-2.278-.466-2.283-1.5s.75-1.551,2.269-1.548a6.386,6.386,0,0,1,.984.039,1.529,1.529,0,0,1,1.346,1.539,1.51,1.51,0,0,1-1.42,1.465A8.279,8.279,0,0,1,1805.394,489.359Z" transform="translate(-1917.791 -516.995)" fill="#80c9cf"/>
    </g>
  </g>
</svg>
