<svg xmlns="http://www.w3.org/2000/svg" width="100.073" height="74.579" viewBox="0 0 100.073 74.579">
  <g id="email" transform="translate(-4447.619 -2033.361) rotate(-11)">
    <g id="Grupo_57254" data-name="Grupo 57254" transform="translate(3990.953 2861.546)">
      <path id="Caminho_1681" data-name="Caminho 1681" d="M4198.941,2896.408a9.318,9.318,0,0,1-.382,4.067,7.666,7.666,0,0,1-4.873,4.867q-24.417,8.112-48.847,16.187a7.878,7.878,0,0,1-9.876-4.957q-4.772-14.317-9.487-28.652a7.872,7.872,0,0,1,4.913-9.785q24.385-8.106,48.785-16.171a7.864,7.864,0,0,1,9.268,3.392c.126.2.27.394.4.591Zm-30.77,13.93c8.06-2.671,16.11-5.373,24.186-8a4.794,4.794,0,0,0,3.149-5.917q-4.176-12.517-8.3-25.05c-.209-.632-.276-.634-.743-.123q-3.269,3.575-6.542,7.146-7.721,8.419-15.436,16.845a2.189,2.189,0,0,1-2.268.745c-3.917-.78-7.842-1.515-11.765-2.264q-10.063-1.921-20.127-3.84c-.754-.144-.791-.118-.551.605q4.1,12.37,8.2,24.738a5.151,5.151,0,0,0,.518,1.2,4.851,4.851,0,0,0,5.689,1.881C4152.167,2915.614,4160.174,2912.989,4168.172,2910.338Zm-12.26-37.331q-11.935,3.956-23.871,7.912a4.888,4.888,0,0,0-3.656,4.25c-.121.98-.027,1.045.954,1.23q6.787,1.279,13.572,2.574,9.324,1.776,18.647,3.569a1.31,1.31,0,0,0,1.38-.439c3.083-3.391,6.191-6.759,9.29-10.135q6.4-6.97,12.792-13.94c.812-.883.826-1-.012-1.845a4.806,4.806,0,0,0-.99-.747,5.042,5.042,0,0,0-4.36-.3Q4167.785,2869.071,4155.912,2873.007Z" transform="translate(-4125.104 -2861.546)" fill="#d57032"/>
    </g>
    <path id="Caminho_1682" data-name="Caminho 1682" d="M3965.938,3163.152a3.688,3.688,0,0,0,3.055-.018c1.052-.411,2.156-.7,3.215-1.1,1.219-.456,1.787-1.413,1.474-2.356a1.926,1.926,0,0,0-2.589-1.008c-1.335.4-2.645.883-3.975,1.3a3.292,3.292,0,0,0-1.719,1.551Z" transform="translate(0 -249.476)" fill="#d57032"/>
    <path id="Caminho_1683" data-name="Caminho 1683" d="M4054.214,3189.316c1.9-.63,3.809-1.245,5.7-1.9,1.43-.491,2.075-1.416,1.756-2.432s-1.4-1.429-2.816-.969q-5.777,1.882-11.534,3.822c-1.407.474-2.033,1.446-1.678,2.459s1.421,1.36,2.862.9C4050.416,3190.592,4052.313,3189.947,4054.214,3189.316Z" transform="translate(-67.325 -270.719)" fill="#d57032"/>
    <path id="Caminho_1684" data-name="Caminho 1684" d="M4045.3,3127.7c1.612-.535,3.231-1.049,4.833-1.61,1.337-.468,1.955-1.4,1.658-2.378-.311-1.028-1.4-1.445-2.8-.991q-4.785,1.548-9.549,3.163c-1.417.479-2.046,1.435-1.7,2.451s1.41,1.377,2.847.923C4042.164,3128.755,4043.729,3128.218,4045.3,3127.7Z" transform="translate(-60.688 -219.23)" fill="#d57032"/>
    <path id="Caminho_1685" data-name="Caminho 1685" d="M4047.838,3065.706c.992-.328,1.994-.63,2.973-.992,1.236-.457,1.825-1.384,1.542-2.33-.3-.994-1.358-1.444-2.67-1.034q-2.99.934-5.948,1.975a1.911,1.911,0,0,0-1.465,2.354c.315.941,1.342,1.365,2.591,1C4045.863,3066.394,4046.846,3066.034,4047.838,3065.706Z" transform="translate(-64.498 -167.707)" fill="#d57032"/>
    <path id="Caminho_1686" data-name="Caminho 1686" d="M3984.824,3089.982c.7-.233,1.419-.432,2.1-.707a1.908,1.908,0,0,0,1.374-2.3,1.865,1.865,0,0,0-2.444-1.06c-1.46.423-2.912.9-4.334,1.439a1.853,1.853,0,0,0-1.3,2.32,1.923,1.923,0,0,0,2.493,1C3983.428,3090.483,3984.122,3090.216,3984.824,3089.982Z" transform="translate(-12.372 -188.382)" fill="#d57032"/>
  </g>
</svg>
