<svg xmlns="http://www.w3.org/2000/svg" width="94.964" height="91.896" viewBox="0 0 94.964 91.896">
  <g id="financas" transform="translate(18927 118)">
    <path id="Caminho_1575" data-name="Caminho 1575" d="M17.875-8.847c-22.257,0-56.125,6.7-58.193,31.472S4.959,67.95,27.216,67.95,54.58,52.517,54.58,30.26,40.131-8.847,17.875-8.847Z" transform="translate(-18886.615 -101.604)" fill="#fbf0ea"/>
    <g id="financas-2" data-name="financas" transform="translate(-18914 -118)">
      <path id="Caminho_1558" data-name="Caminho 1558" d="M660.031,884.109a1.791,1.791,0,0,0-1.913-1.2c-2.412.018-4.824-.032-7.235.028-.785.02-.913-.223-.911-.947q.037-16.009.015-32.018c0-1.351-.668-2.144-1.777-2.152s-1.8.788-1.8,2.125q-.006,17.185,0,34.37c0,1.479.668,2.145,2.156,2.162,1.236.014,2.472-.011,3.708.011a2.117,2.117,0,0,1,1.239.136c-5.36,4.787-10.67,9.518-15.957,14.274-.465.419-.657.111-.94-.141q-6.478-5.778-12.957-11.555c-.955-.852-1.9-1.711-3.028-2.721,1.786,0,3.341,0,4.9,0,1.726,0,2.357-.624,2.361-2.324,0-2.14.039-4.282-.02-6.421-.021-.751.178-1.014.937-1.129a17.615,17.615,0,0,0,14-23.3c-2.421-6.732-7.348-10.6-14.4-11.755-.5-.082-.639-.23-.628-.717.031-1.326.057-2.655-.008-3.978-.035-.712.207-.841.861-.83,2.441.039,4.884.033,7.325.008a1.811,1.811,0,0,0,1.933-2.3,2.55,2.55,0,0,0-.925-1.192q-10.246-9.161-20.493-18.32a1.852,1.852,0,0,0-2.93.006q-10.33,9.2-20.657,18.409a1.873,1.873,0,0,0-.778,2.206,1.942,1.942,0,0,0,2.109,1.2c2.352-.01,4.7.028,7.054-.022.749-.016.942.186.939.941-.03,7.446-.018,14.893-.018,22.34q0,4.794,0,9.588a3.309,3.309,0,0,0,.133,1.251,1.775,1.775,0,0,0,2,1.037,1.7,1.7,0,0,0,1.394-1.747c.023-2.231.011-4.462.011-6.693q0-13.793,0-27.586c0-.271.006-.543,0-.814a1.74,1.74,0,0,0-1.93-1.886c-1.724-.013-3.448,0-5.365,0,5.505-4.908,10.841-9.654,16.156-14.422.463-.415.662-.108.949.148q5.026,4.485,10.055,8.967c1.925,1.717,3.848,3.438,5.94,5.307-1.885,0-3.512,0-5.138,0-1.517,0-2.127.606-2.136,2.143-.012,2.02-.019,4.04.008,6.06.007.555-.063.8-.73.908-11.791,1.852-18.578,13.837-13.848,24.581A17.112,17.112,0,0,0,623.3,876.609c.773.128,1.118.307,1.055,1.189a36.551,36.551,0,0,0-.009,4.158c.031.725-.123.976-.913.957-2.471-.058-4.944-.034-7.416-.013a1.731,1.731,0,0,0-1.855,1.774,2.16,2.16,0,0,0,.96,1.653q10.289,9.18,20.575,18.365a1.82,1.82,0,0,0,2.866.025q10.4-9.257,20.794-18.527A1.8,1.8,0,0,0,660.031,884.109Zm-48.114-24.953a14.167,14.167,0,1,1,14.325,14.158A14.214,14.214,0,0,1,611.917,859.156Z" transform="translate(-591.978 -813.505)" fill="#d57032"/>
      <path id="Caminho_1559" data-name="Caminho 1559" d="M714.686,965.827A4.873,4.873,0,0,0,710.793,962c-.756-.183-1.766-.125-2.2-.6-.489-.528-.082-1.549-.15-2.208,0-.838.012-1.531-.005-2.224-.008-.326.109-.423.423-.366a2.646,2.646,0,0,1,2.476,2.34,1.683,1.683,0,0,0,1.837,1.593,1.758,1.758,0,0,0,1.651-1.808,4.884,4.884,0,0,0-1.05-3.1,6.549,6.549,0,0,0-4.6-2.553c-.355-.044-.738.039-.759-.6a1.677,1.677,0,0,0-1.673-1.763,1.712,1.712,0,0,0-1.838,1.7c-.053.479-.206.574-.644.592a6.788,6.788,0,0,0-4.585,1.839,5.057,5.057,0,0,0-1.592,5.164,4.992,4.992,0,0,0,4.015,3.822c.762.173,1.525.349,2.3.472.387.062.487.233.483.594-.015,1.3-.019,2.591,0,3.887.006.407-.143.493-.525.5a2.771,2.771,0,0,1-2.929-2.457,1.755,1.755,0,0,0-3.5.262,4.452,4.452,0,0,0,.141,1.251,6.329,6.329,0,0,0,6.092,4.5c.5.019.718.074.738.671a1.768,1.768,0,1,0,3.527-.079c.011-.477.158-.576.6-.62a6.7,6.7,0,0,0,3.639-1.445A5.273,5.273,0,0,0,714.686,965.827Zm-9.946-5.212a3.913,3.913,0,0,1-2.654-.623,1.529,1.529,0,0,1-.258-2.241,3.257,3.257,0,0,1,2.613-1.191c.4-.02.44.174.431.488-.015.512,0,1.024,0,1.536,0,.09.007.181,0,.271C704.814,959.471,705.043,960.584,704.741,960.615Zm6.511,6.695a2.8,2.8,0,0,1-2.453,1.939c-.375,0-.363-.192-.36-.445.005-.541,0-1.083,0-1.624a3.026,3.026,0,0,1,.005-.54c.086-.471-.273-1.25.188-1.359a2.681,2.681,0,0,1,2.037.529A1.383,1.383,0,0,1,711.252,967.31Z" transform="translate(-672.294 -917.54)" fill="#d57032"/>
    </g>
  </g>
</svg>
