<svg xmlns="http://www.w3.org/2000/svg" width="94.964" height="76.797" viewBox="0 0 94.964 76.797">
  <g id="interrogacao" transform="translate(18927 110.45)">
    <path id="Caminho_1575" data-name="Caminho 1575" d="M17.875-8.847c-22.257,0-56.125,6.7-58.193,31.472S4.959,67.95,27.216,67.95,54.58,52.517,54.58,30.26,40.131-8.847,17.875-8.847Z" transform="translate(-18886.615 -101.604)" fill="#fdfaf7"/>
    <g id="interrogacao-2" data-name="interrogacao" transform="translate(-20764.254 -936.53)">
      <path id="Caminho_1577" data-name="Caminho 1577" d="M1884.123,828.978c7.2.014,12.4,1.212,17.313,3.609a1.757,1.757,0,0,1-.268,3.382,2.176,2.176,0,0,1-1.4-.316,30.8,30.8,0,0,0-9.539-2.88,31.376,31.376,0,0,0-22.428,5.292,31.972,31.972,0,0,0-6.206,47.229,30.089,30.089,0,0,0,18.38,10.576c12.106,2.029,22.329-1.647,30.4-10.931a30.065,30.065,0,0,0,7.207-16.6,31.561,31.561,0,0,0-6.286-23.252c-.222-.3-.464-.581-.678-.884a1.721,1.721,0,0,1,.262-2.429,1.746,1.746,0,0,1,2.477.3,35.2,35.2,0,0,1,7.7,26.325c-1.93,14.246-9.652,24.222-23.1,29.334-19.6,7.452-41.692-4.443-46.561-24.812a35.47,35.47,0,0,1,22.909-42.023A33.17,33.17,0,0,1,1884.123,828.978Z" fill="#e8c79e"/>
      <path id="Caminho_1578" data-name="Caminho 1578" d="M1991.9,923.463a11.142,11.142,0,0,1,6.023,20.54,8.363,8.363,0,0,0-4.256,7.134,1.784,1.784,0,0,1-1.124,1.76,1.641,1.641,0,0,1-1.808-.347,1.789,1.789,0,0,1-.55-1.515,11.488,11.488,0,0,1,5.537-9.734,7.682,7.682,0,1,0-11.338-8.135,12.024,12.024,0,0,0-.138,1.313,1.757,1.757,0,0,1-1.822,1.854,1.736,1.736,0,0,1-1.667-1.918A11.137,11.137,0,0,1,1991.9,923.463Z" transform="translate(-106.074 -76.879)" fill="#e8c79e"/>
      <path id="Caminho_1579" data-name="Caminho 1579" d="M2032.928,1100.189a1.906,1.906,0,1,1,1.955-1.857A1.926,1.926,0,0,1,2032.928,1100.189Z" transform="translate(-146.979 -217.573)" fill="#e8c79e"/>
    </g>
  </g>
</svg>
