<svg xmlns="http://www.w3.org/2000/svg" width="94.964" height="76.797" viewBox="0 0 94.964 76.797">
  <g id="pdf-bordo" transform="translate(-56.001 -53)">
    <path id="Caminho_1607" data-name="Caminho 1607" d="M17.875-8.847c-22.257,0-56.125,6.7-58.193,31.472S4.959,67.95,27.216,67.95,54.58,52.517,54.58,30.26,40.131-8.847,17.875-8.847Z" transform="translate(96.385 61.847)" fill="#fcf7f9"/>
    <g id="pdf" transform="translate(505.047 -230.357)">
      <path id="Caminho_1596" data-name="Caminho 1596" d="M-371.779,298.908q-5.707-5.691-11.4-11.4a3.755,3.755,0,0,0-2.783-1.152q-13.9.012-27.8.006a3.649,3.649,0,0,0-3.854,3.858c-.007,1.925-.014,3.851.008,5.776,0,.415-.107.529-.524.526-2.263-.021-4.527-.012-6.791-.009a3.871,3.871,0,0,0-4.125,4.123q-.011,6,0,12a3.9,3.9,0,0,0,4.158,4.172c2.137.005,4.273,0,6.41,0,.863,0,.863,0,.863.867q0,14.852,0,29.7a3.636,3.636,0,0,0,2.792,3.871c.053.017.094.073.141.111h41c2.22-.787,3.067-1.855,3.067-3.915q0-22.849.008-45.7A3.808,3.808,0,0,0-371.779,298.908Zm-11.806-7.655v-.405l8.491,8.494h-.536c-2.43,0-4.859-.014-7.289.011-.528.005-.683-.155-.678-.683C-383.571,296.2-383.585,293.725-383.585,291.253ZM-373.147,325q0,11.106,0,22.213c0,1.294-.314,1.609-1.6,1.609h-38.774c-1.213,0-1.552-.333-1.552-1.531q0-14.915-.017-29.829c0-.6.187-.666.7-.664,4.7.019,9.392.012,14.088.011,2.748,0,4.334-1.577,4.336-4.319q.005-5.839,0-11.678a3.914,3.914,0,0,0-4.281-4.3c-.275,0-.551-.011-.825,0a1.237,1.237,0,0,0-1.217,1.214,1.24,1.24,0,0,0,1.131,1.3c.377.04.761.009,1.141.017a1.364,1.364,0,0,1,1.512,1.545c.015,2.137,0,4.273,0,6.41,0,1.862.006,3.723,0,5.585-.005,1.2-.5,1.685-1.711,1.685q-12.311,0-24.623,0c-1.175,0-1.673-.491-1.674-1.647q-.006-5.966,0-11.932c0-1.187.464-1.645,1.658-1.646q5.426,0,10.852,0a1.33,1.33,0,0,0,1.407-.856,1.252,1.252,0,0,0-1.18-1.681c-.417-.025-.967.183-1.217-.085-.273-.292-.081-.845-.084-1.282-.011-1.629-.008-3.258,0-4.887,0-.957.4-1.356,1.343-1.356q13.549,0,27.1-.01c.41,0,.524.1.522.517-.019,3.131-.012,6.262-.009,9.393a2.811,2.811,0,0,0,3.066,3.077c3.088.008,6.177.016,9.265-.011.534,0,.657.142.655.662Q-373.161,313.763-373.147,325Z" transform="translate(0)" fill="#ad4961"/>
      <path id="Caminho_1597" data-name="Caminho 1597" d="M-290.027,521.087q-6.592,0-13.185,0a1.4,1.4,0,0,1-1.465-.84,1.337,1.337,0,0,1,1.027-1.834,3.477,3.477,0,0,1,.6-.023q13.118,0,26.236,0c1.08,0,1.667.455,1.693,1.3a1.3,1.3,0,0,1-1.388,1.389c-1.637.016-3.274.005-4.911.006Z" transform="translate(-104.361 -192.772)" fill="#ad4961"/>
      <path id="Caminho_1598" data-name="Caminho 1598" d="M-289.921,558.395q-6.592,0-13.185,0c-1,0-1.6-.493-1.626-1.306a1.309,1.309,0,0,1,1.194-1.374,1.808,1.808,0,0,1,.2-.01q13.42,0,26.841,0a1.3,1.3,0,0,1,1.413,1.487,1.353,1.353,0,0,1-1.519,1.2c-1.816.009-3.633,0-5.449,0Z" transform="translate(-104.403 -223.769)" fill="#ad4961"/>
      <path id="Caminho_1599" data-name="Caminho 1599" d="M-289.926,592.876q6.591,0,13.182,0c1.044,0,1.619.448,1.662,1.257a1.281,1.281,0,0,1-1.089,1.39,4.241,4.241,0,0,1-.736.044q-12.981,0-25.961,0H-303c-1.121-.007-1.725-.469-1.735-1.329-.011-.889.594-1.363,1.764-1.363Q-296.45,592.873-289.926,592.876Z" transform="translate(-104.399 -254.651)" fill="#ad4961"/>
      <path id="Caminho_1600" data-name="Caminho 1600" d="M-302.469,387.894c0-1.008-.007-2.017,0-3.025.007-.745.317-1.07,1.056-1.085.873-.018,1.748-.009,2.621,0,.561.005.965.235,1.006.846.037.547-.344.859-1.028.875a6.23,6.23,0,0,1-1.007-.007c-.624-.088-.831.095-.819.77.011.615.187.778.757.712a5.456,5.456,0,0,1,1.141.011.738.738,0,0,1,.708.76.733.733,0,0,1-.649.87,7.882,7.882,0,0,1-1.406.05c-.4-.02-.56.08-.531.512a17.465,17.465,0,0,1,0,1.747c-.024.722-.336,1.058-.938,1.056s-.907-.333-.914-1.065C-302.476,389.911-302.469,388.9-302.469,387.894Z" transform="translate(-105.212 -81.027)" fill="#ad4961"/>
      <path id="Caminho_1601" data-name="Caminho 1601" d="M-306.262,347.594a1.328,1.328,0,0,1-1.315,1.325,1.379,1.379,0,0,1-1.359-1.37,1.36,1.36,0,0,1,1.337-1.314A1.312,1.312,0,0,1-306.262,347.594Z" transform="translate(-99.793 -49.182)" fill="#ad4961"/>
      <path id="Caminho_1602" data-name="Caminho 1602" d="M-342.609,383.753a19.825,19.825,0,0,0-2.55-.021.884.884,0,0,0-.926,1c0,1.008,0,2.015,0,3.023s-.01,2.015,0,3.023c.01.789.31,1.086,1.1,1.1.627.013,1.254.01,1.881,0a3.722,3.722,0,0,0,3.864-3.207A3.919,3.919,0,0,0-342.609,383.753Zm1.367,4.844a2.242,2.242,0,0,1-2.787,1.568c-.268-.066-.222-.232-.223-.4,0-.67,0-1.34,0-2.01,0-.6.03-1.208-.01-1.808-.028-.434.138-.507.532-.51C-341.689,385.416-340.746,386.6-341.242,388.6Z" transform="translate(-68.995 -80.967)" fill="#ad4961"/>
      <path id="Caminho_1603" data-name="Caminho 1603" d="M-380.092,383.813a14.262,14.262,0,0,0-2.679-.08c-.853-.009-1.154.318-1.16,1.19-.007.985,0,1.97,0,2.955s-.01,1.97,0,2.955c.01.762.329,1.112.958,1.1.6-.013.882-.351.9-1.084.016-.51-.155-1.174.1-1.489.273-.336.963-.089,1.471-.112a2.534,2.534,0,0,0,2.565-2.558A2.628,2.628,0,0,0-380.092,383.813Zm-.395,3.669a3.317,3.317,0,0,1-1.386.127c-.193.009-.194-.135-.194-.273q0-.4,0-.8c0-1.262.117-1.356,1.339-1.1a.956.956,0,0,1,.846.9A1.04,1.04,0,0,1-380.487,387.482Z" transform="translate(-36.994 -80.974)" fill="#ad4961"/>
    </g>
  </g>
</svg>
