<svg id="ilustra" xmlns="http://www.w3.org/2000/svg" width="180" height="180" viewBox="0 0 180 180">
  <g id="disco-icon">
    <path id="Elipse_154" data-name="Elipse 154" d="M12.8,128.735a2.5,2.5,0,0,1,2.206,1.321,85.151,85.151,0,0,0,95.008,42.575,84.713,84.713,0,0,0,34.354-17.292,85.642,85.642,0,0,0,13.243-13.82,2.5,2.5,0,0,1,3.976,3.031c-.2.26-.4.517-.6.774h0l-.019.024,0,0-.122.155,0,0-.018.023,0,0-.018.023,0,0-.079.1,0,.005-.017.022,0,.006-.017.021-.005.007-.017.022,0,0-.059.074,0,0-.016.021-.006.008-.015.019-.007.009-.015.019-.007.008-.016.02,0,.005-.037.046,0,0-.015.019-.007.009-.015.019-.007.009-.015.019-.008.009-.014.018-.008.01-.015.019v0l-.037.046,0,.006-.014.017-.01.012-.013.016-.009.012-.014.017-.009.012-.014.017-.009.011-.014.018,0,.006-.028.035-.011.014-.012.015-.011.014-.011.014-.012.015-.012.014-.012.014-.011.014-.011.014-.022.028-.011.014-.012.015-.011.013-.012.015-.011.014-.011.014-.012.015-.011.013-.013.016-.01.013-.014.018-.014.017-.017.021-.01.012-.014.017-.01.013-.013.016-.01.013-.013.016-.01.013-.016.02-.006.008-.024.029,0,0-.021.026-.008.009-.016.019-.009.011-.015.019-.008.01-.016.02-.008.009-.02.024,0,0-.024.029,0,0-.02.025-.007.008-.017.021-.007.009-.017.021-.007.008-.018.022-.006.008-.048.059,0,0-.022.027,0,.005-.019.023-.007.008-.018.021-.006.008-.02.024,0,0-.049.059,0,0-.02.024-.005.006-.019.023-.006.008-.018.022-.006.007-.019.023-.005.006-.048.058-.005.006-.019.023-.006.007-.018.022-.006.007-.02.024,0,.005-.024.029h0l-.025.03h0l-.023.028-.007.008-.018.021-.006.008-.018.022-.007.008-.02.024,0,0-.05.059h0l-.023.027-.006.007-.019.023-.006.007-.018.021-.007.008-.021.025,0,0-.05.059,0,0-.021.025-.006.007-.019.022-.006.007-.02.023-.005.006-.024.028h0l-.026.03h0l-.024.029,0,0-.02.024-.006.007-.019.022-.006.007-.019.023-.005.006-.05.058,0,0-.022.025-.006.007-.018.021-.008.009-.017.02-.007.008-.019.022-.006.007-.049.057,0,.005-.021.024,0,.006-.02.023-.006.006-.02.023,0,.005-.022.026,0,0-.05.058,0,0-.021.024-.006.007-.019.022-.006.007-.021.024,0,0-.076.087,0,.006-.02.023-.005.006-.02.023-.006.006-.021.024,0,0-.051.058h0l-.024.027-.005.006-.02.022-.006.007-.019.021-.007.008-.022.025,0,0-.052.059h0l-.023.026-.006.007-.02.022-.006.007-.02.022-.005.006-.021.024,0,0-.025.029,0,0-.023.026-.005.006-.02.023-.006.007-.019.022-.006.007-.02.022-.005.006-.051.058h0l-.024.027-.005.006-.02.022-.006.007-.02.023,0,.005-.022.025,0,0-.051.058,0,0-.022.025-.006.007-.019.021-.008.008-.018.02-.006.007-.02.023,0,.005-.051.057,0,.005-.02.023-.007.008-.018.02-.008.009-.019.021-.006.007-.051.057h0l-.024.027-.006.007-.019.021-.006.007-.019.022-.007.008-.019.022-.006.006-.024.027h0l-.026.029h0l-.024.027-.007.007-.019.021-.008.008-.017.019-.009.009-.019.021-.005.006-.051.057,0,0-.022.024-.006.007-.019.021-.006.007-.02.022-.006.006-.023.026v0l-.026.029,0,0-.023.025,0,.005-.02.022-.007.008-.019.021-.007.007-.019.02-.007.008-.022.024,0,0-.026.028,0,.005-.02.022-.008.009-.017.018-.009.01-.017.018-.008.009-.019.02-.007.008-.05.055-.007.008-.018.02-.008.009-.016.017-.01.011-.016.017-.01.01-.017.018-.008.009-.025.027,0,0-.022.024-.009.01-.016.018-.01.01-.016.017-.01.011-.016.017-.009.01-.018.02-.007.008-.026.027,0,0-.022.024-.01.011-.015.016-.01.011-.015.016-.01.011-.016.018-.009.01-.018.02-.007.008-.025.027-.007.007-.019.02-.009.009-.016.017-.01.011-.015.016-.012.012-.015.016-.01.01-.02.021-.009.009-.021.023-.01.011-.014.015-.011.012-.015.016-.01.011-.015.016-.011.012-.014.015-.012.012-.016.017-.019.02-.014.015-.011.012-.014.015-.011.012-.015.016-.01.011-.015.016-.011.011-.016.017-.009.009-.025.026-.009.01-.017.017-.011.012-.014.015-.012.013-.014.015-.011.011-.016.016-.01.01-.021.022,0,0-.025.026-.01.01-.016.017-.011.011-.015.016-.011.012-.014.015-.012.012-.013.014-.013.013-.022.023-.007.007-.021.022-.011.012-.015.015-.011.012-.014.014-.012.012-.014.015-.011.012-.015.016-.01.011-.025.026-.008.009-.018.018-.011.011-.015.015-.011.012-.015.015-.011.012-.015.016-.01.01-.017.018-.009.009-.025.026-.01.01-.016.016-.012.012-.015.015-.012.012-.013.014-.013.013-.013.014-.012.013-.017.018-.011.011-.022.023-.011.012-.014.015-.012.012-.015.015-.01.01-.017.017-.01.01-.016.016-.01.01-.02.02-.013.013-.018.019-.01.01-.015.016-.012.012-.014.014-.012.012-.015.015-.011.011-.017.017-.009.009-.025.025-.011.011-.015.015-.012.012-.014.014-.013.013-.012.013-.013.013-.014.014-.011.011-.021.021,0,0-.026.026-.01.01-.017.017-.01.01-.016.016-.011.011-.016.016-.011.011-.015.015-.011.011-.022.022-.005.005-.024.024-.009.009-.017.017-.011.011-.016.016-.011.011-.016.017-.009.009-.019.019-.008.008-.026.026,0,0-.021.021-.009.009-.018.018-.009.009-.018.018-.009.009-.017.017-.009.009-.02.02-.006.006-.026.026-.007.007-.02.02-.009.009-.017.017-.01.009-.017.017-.01.01-.017.017-.009.009-.022.022,0,0-.026.026-.007.007-.019.018-.01.01-.016.016-.01.01-.017.016-.01.01-.019.018-.008.008-.022.022-.012.012-.018.018-.01.01-.017.017-.011.01-.016.016-.01.01-.017.017-.01.01-.022.022,0,0-.027.027,0,0-.021.021-.01.01-.016.016-.01.01-.017.017-.009.009-.019.018-.008.008-.025.024h0l-.028.027,0,0-.023.022-.008.008-.019.018-.009.009-.018.018-.009.008-.019.018-.009.008-.053.052-.006.006-.021.02-.008.007-.019.018-.009.008-.02.019-.007.007-.024.023,0,0-.055.053-.007.007-.021.02-.006.006-.021.02-.007.007-.022.021-.005.005-.025.024,0,0-.055.053-.005.005-.022.021-.007.007-.02.019-.008.007-.022.021,0,0-.056.054h0l-.027.025-.005,0-.023.022,0,0-.024.023,0,0-.111.106,0,0-.024.023,0,0-.024.023,0,0-.085.08h0l-.026.024-.006.006-.023.021,0,0-.024.023,0,0-.085.08h0l-.027.025,0,0-.026.024,0,0-.115.108h0l-.028.026,0,0-.027.025h0q-1.9,1.774-3.893,3.437a90.348,90.348,0,0,1-7.631,5.7h0l-.2.132h0l-.165.109h0l-.031.02h0l-.132.087h0l-.031.021,0,0-.031.02h0l-.131.086,0,0-.031.02h0l-.031.02h0l-.131.086,0,0-.03.02h0l-.132.086h0l-.031.02,0,0-.03.019h0l-.132.085h0l-.03.019,0,0-.03.019h0l-.133.085h0l-.031.02,0,0-.03.019,0,0-.132.084,0,0-.029.019,0,0-.132.083,0,0-.03.019,0,0-.03.019,0,0-.132.083,0,0-.028.018,0,0-.028.018,0,0-.131.082,0,0-.029.018,0,0-.133.083h0l-.032.02,0,0-.03.019,0,0-.032.02h0l-.1.062,0,0-.028.018-.006,0-.028.018,0,0-.134.082h0l-.031.019,0,0-.168.1h0l-.033.02h0q-3.06,1.869-6.277,3.5-3.929,1.988-8.071,3.6h0l-.187.072h0l-.035.013h0l-.148.057h0l-.034.013h0l-.032.012-.006,0-.034.013h0l-.111.042,0,0-.032.012-.006,0-.031.012-.007,0-.033.012h0l-.075.028h0l-.034.013-.008,0-.028.011-.009,0-.027.01-.009,0-.031.012,0,0-.073.027-.008,0-.028.01-.011,0-.024.009-.012,0-.025.009-.011,0-.03.011-.005,0-.036.013-.009,0-.027.01-.011,0-.024.009-.013,0-.023.009-.013,0-.022.008-.014.005-.028.01-.007,0-.035.013-.011,0-.024.009-.014.005-.022.008-.015.005-.022.008-.013,0-.024.009-.013,0-.034.012-.006,0-.03.011-.016.006-.02.007-.017.006-.018.007-.018.006-.018.007-.017.006-.018.007-.017.006-.025.009-.026.009-.017.006-.019.007-.017.006-.018.007-.016.006-.02.007-.015.005-.02.007-.015.005-.037.013-.016.006-.019.007-.016.006-.02.007-.016.006-.02.007-.015.005-.02.007-.014,0-.022.008-.008,0-.052.019-.006,0-.021.007-.015.005-.021.007-.014,0-.021.008-.013,0-.023.008-.01,0-.024.009h0l-.06.021h0l-.025.009-.009,0-.024.008-.011,0-.024.008-.01,0-.025.009-.006,0-.091.032h0l-.026.009-.008,0-.026.009-.008,0-.026.009-.008,0-.119.042-.007,0-.026.009-.008,0-.026.009-.008,0-.026.009-.006,0-.124.043h0l-.029.01-.006,0-.028.01-.005,0-.029.01h0l-.127.043h0l-.03.01h0l-.03.01h0l-.159.054h0l-.029.01h0l-.193.065h0l-.228.076h0l-.032.011h0q-2.523.836-5.109,1.526h0l-.2.053h0l-.031.008h0l-.165.043h0l-.031.008h0l-.03.008h-.005l-.031.008h0l-.132.034h0l-.029.007-.008,0-.028.007-.006,0-.029.008h0l-.1.025h0l-.028.007-.009,0-.027.007-.008,0-.027.007-.008,0-.126.032h0l-.028.007-.008,0-.026.007-.01,0-.026.007-.008,0-.088.022-.008,0-.024.006-.012,0-.024.006-.012,0-.024.006-.011,0-.025.006-.008,0-.086.021-.011,0-.022.006-.014,0-.022.005-.014,0-.022.005-.015,0-.022.005-.013,0-.056.014h0l-.022.005-.015,0-.019,0-.018,0-.019,0-.02,0-.017,0-.019,0-.018,0-.019,0-.031.008-.021,0-.019,0-.018,0-.019,0-.017,0-.02,0-.017,0-.019,0-.02,0-.018,0-.032.008-.019,0-.02,0-.018,0-.019,0-.018,0-.019,0-.018,0-.02,0-.017,0-.023.006-.014,0-.036.009-.013,0-.024.006-.016,0-.022.005-.016,0-.022.005-.016,0-.022.005-.015,0-.028.007-.009,0-.037.009-.012,0-.024.006-.016,0-.023.005-.014,0-.023.005-.015,0-.025.006-.012,0-.036.008-.007,0-.031.007-.012,0-.026.006-.013,0-.025.006-.014,0-.024.006-.014,0-.029.007-.008,0-.038.009-.007,0-.031.007-.012,0-.025.006-.014,0-.024.006-.013,0-.024.005-.014,0-.029.007-.008,0-.037.008-.012,0-.025.006-.014,0-.024.005-.014,0-.024.005-.013,0-.026.006-.012,0-.036.008h0l-.037.008-.011,0-.026.006-.014,0-.023.005-.016,0-.023.005-.014,0-.027.006-.01,0-.038.008h-.006l-.032.007-.013,0-.025.005-.014,0-.024.005-.014,0-.025.005-.013,0-.027.006-.011,0-.038.008h0l-.032.007-.013,0-.026.006-.013,0-.025.005-.013,0-.026.006-.012,0-.035.008h0l-.039.008-.007,0-.03.006-.012,0-.026.006-.012,0-.026.006-.013,0-.029.006-.008,0-.076.016-.01,0-.028.006-.012,0-.027.006-.012,0-.026.005-.013,0-.028.006-.01,0-.038.008h0l-.033.007-.012,0-.026.005-.013,0-.027.006-.011,0-.028.006-.011,0-.035.007h0l-.039.008H108.3l-.032.007-.009,0-.029.006-.01,0-.029.006-.009,0-.032.006h-.007l-.078.016h-.007l-.031.006-.01,0-.028.006-.013,0-.027.005-.011,0-.031.006-.008,0-.077.016-.008,0-.03.006-.011,0-.028.006-.011,0-.028.006-.011,0-.032.006h-.006l-.039.008h0l-.037.007-.008,0-.03.006-.011,0-.028.005-.012,0-.029.006-.008,0-.035.007h0l-.039.008-.008,0-.03.006-.013,0-.026.005-.013,0-.026.005-.012,0-.03.006-.009,0-.077.015h-.008l-.031.006-.01,0-.029.006-.01,0-.03.006-.009,0-.035.007h0l-.079.015h-.007l-.031.006-.011,0-.027.005-.012,0-.029.005-.009,0-.034.007h0l-.039.007h-.007l-.031.006-.012,0-.027.005-.013,0-.026,0-.012,0-.029.005-.01,0-.077.014h-.007l-.031.006-.011,0-.027,0-.013,0-.027,0-.012,0-.03.005h-.008l-.078.014H106.2l-.03.005-.011,0-.027,0-.013,0-.027,0-.011,0-.03.005h-.008l-.039.007h0l-.038.007-.008,0-.031.005-.01,0-.029.005-.011,0-.031.005h-.008l-.079.014h0l-.034.006-.01,0-.03.005h-.008l-.031.005h-.009l-.033.006h-.005l-.079.014h0l-.034.006-.01,0-.03.005-.01,0-.03.005-.009,0-.036.006h0l-.08.014h0l-.033.006-.01,0-.029,0-.01,0-.031.005h-.007l-.079.013h0l-.036.006h-.009l-.03.005-.01,0-.03.005h-.009l-.032.005H104.9l-.079.013h0l-.037.006h-.009l-.029,0-.012,0-.029,0-.009,0-.032.005h-.008l-.078.013h-.007l-.032.005-.01,0-.028,0-.012,0-.028,0-.01,0-.033.005h-.005l-.04.006h0l-.038.006h-.008l-.031,0h-.009l-.03,0-.01,0-.031,0H104.2l-.038.006h0l-.041.006h0l-.036.006-.01,0-.03,0h-.009l-.031,0h-.009l-.034.005h-.005l-.08.012h0l-.034.005h-.009l-.03,0-.01,0-.03,0h-.009l-.038.006h0l-.081.012h-.006l-.033,0h-.01l-.03,0-.01,0-.029,0-.01,0-.035.005h0l-.04.006h0l-.035.005h-.009l-.029,0-.012,0-.027,0-.011,0-.029,0h-.01l-.078.012h-.006l-.033,0h-.01l-.029,0-.012,0-.028,0-.011,0-.031,0h-.008l-.079.011h-.008l-.031,0h-.01l-.029,0-.012,0-.028,0-.011,0-.031,0h-.008l-.079.011h-.008l-.032,0h-.01l-.03,0h-.01l-.032,0h-.007l-.08.011h0l-.035,0-.011,0-.028,0-.012,0-.028,0-.011,0-.031,0h-.007l-.079.011h-.006l-.032,0-.012,0-.028,0-.012,0-.026,0-.013,0-.03,0h-.008l-.079.011h-.008l-.031,0h-.011l-.029,0h-.01l-.03,0h-.01l-.035,0h0l-.04.005h0l-.038,0h-.006l-.032,0h-.01l-.03,0h-.01l-.032,0h-.007l-.08.01h0l-.035,0h-.008l-.031,0h-.011l-.029,0h-.01l-.032,0h-.007l-.08.01h-.007l-.033,0h-.009l-.03,0h-.01l-.03,0h-.009l-.032,0h-.008l-.079.01h-.009l-.03,0h-.012l-.028,0h-.012l-.029,0h-.009l-.036,0h0l-.04,0h-.007l-.031,0-.014,0-.026,0-.013,0-.026,0-.013,0-.027,0h-.012l-.079.009h-.007l-.032,0h-.011l-.028,0h-.013l-.027,0-.013,0-.029,0h-.009l-.08.009h-.007l-.032,0h-.011l-.029,0h-.012l-.029,0h-.01l-.034,0h-.005l-.04,0h0l-.038,0h-.009l-.031,0h-.011l-.028,0h-.011l-.03,0h-.009l-.08.009h0l-.037,0h-.007l-.032,0h-.01l-.031,0h-.009l-.034,0h0l-.081.009h-.005l-.034,0h-.01l-.03,0h-.011l-.031,0h-.009l-.034,0h-.007l-.08.008h-.007l-.032,0-.039,0h-.012l-.031,0h-.008l-.12.012h-.008l-.032,0h-.009l-.031,0h-.01l-.032,0H99l-.12.012-.04,0h-.011l-.04,0-.033,0h-.007l-.08.008h-.006l-.033,0-.04,0h-.011l-.04,0-.035,0h0l-.041,0h0l-.036,0-.039,0h-.012l-.04,0-.04,0-.035,0h0l-.04,0h0l-.034,0-.039,0h-.013l-.039,0-.033,0h-.007l-.08.007-.04,0-.039,0h-.012l-.028,0h-.012l-.039,0-.079.007h-.01l-.029,0h-.012l-.028,0h-.013l-.039,0-.04,0-.079.007-.04,0H97.4l-.027,0h-.013l-.04,0-.035,0h0l-.04,0h-.006l-.044,0-.029,0h-.012l-.027,0h-.013l-.03,0h-.008l-.081.006h-.006l-.044,0-.03,0H96.9l-.04,0-.039,0-.04,0h0l-.049,0-.028,0h-.013l-.039,0-.04,0-.038,0h0l-.042,0h0l-.048,0-.029,0h-.013l-.027,0H96.4l-.039,0-.081.006-.04,0-.04,0h-.012l-.04,0-.04,0-.08.005h-.009l-.031,0-.039,0h-.013l-.04,0-.034,0h-.005l-.041,0h0l-.049,0-.029,0h-.013l-.027,0h-.013l-.028,0h-.012l-.04,0-.05,0-.028,0h-.014l-.026,0h-.015l-.04,0-.027,0H95.39l-.039,0h0l-.05,0-.03,0h-.013l-.028,0h-.013l-.028,0h-.013l-.039,0-.04,0h0l-.048,0-.028,0h-.094l-.04,0-.047,0-.032,0h-.094l-.04,0-.08,0-.04,0h-.134l-.08,0h-.133l-.04,0-.04,0h-.173l-.04,0-.049,0h-.2l-.05,0h-.124l-.04,0h-.092l-.042,0h-.119l-.047,0h-.207l-.051,0h-5.2l-.09,0h-.458l-.054,0h-.2l-.053,0h-.05l-.045,0-.043,0h-.059l-.044,0h0l-.042,0h-.058l-.044,0h-.059l-.04,0h0l-.045,0h-.012l-.046,0-.053,0-.037,0h-.013l-.045,0-.055,0h-.048l-.088,0h-.013l-.045,0-.053,0-.037,0h-.012l-.041,0h0l-.056,0-.035,0h-.012l-.044,0h-.005l-.04,0h-.012l-.045,0-.054,0-.048,0-.09,0H85.24l-.034,0h-.012l-.052,0-.037,0h-.012l-.039,0h-.006l-.044,0h-.012l-.046,0-.045,0h0l-.04,0h-.012l-.045,0-.045,0h-.008l-.037,0H84.7l-.043,0h0l-.045,0h-.012l-.046,0-.051,0-.038,0h-.013l-.045,0-.054,0-.047,0-.045,0h0l-.044,0H84.2l-.045,0-.054,0-.036,0h-.013l-.04,0h0l-.055,0-.047,0-.045,0h-.006l-.038,0H83.8l-.045,0-.043,0H83.7l-.033,0h-.013l-.042,0h0l-.04,0h-.014l-.033,0h-.012l-.044,0-.045,0h-.013l-.039,0h0l-.044,0h-.012l-.034,0H83.26l-.044,0h-.006l-.039,0H83.16l-.045,0-.045,0-.045,0h-.012l-.042,0h0l-.044,0h-.013l-.033,0h-.013l-.043,0-.045,0h-.013l-.045,0-.043,0h-.012l-.033,0h-.013l-.044,0h0l-.04,0h-.012l-.036,0h-.01l-.043,0h-.011l-.034,0h-.013l-.038,0h-.007l-.043,0H82.27l-.033,0h-.012l-.043,0-.044,0h-.014l-.036,0H82.08l-.043,0h-.013l-.033,0h-.013l-.044,0h0l-.043,0h-.013l-.033,0h-.012l-.043,0h-.01l-.034,0H81.73l-.037,0h-.007l-.043,0H81.63l-.032,0h-.013l-.043,0h-.009l-.036,0h-.013l-.035,0h-.01l-.043,0h-.012l-.034,0h-.013l-.043,0h0l-.042,0h-.014l-.032,0h-.012l-.043,0h-.011l-.034,0h-.014l-.035,0h-.009l-.042,0h-.014l-.032,0h-.014l-.043,0H80.9l-.037,0h-.014l-.035,0H80.8l-.043,0h-.012l-.032,0H80.7l-.039,0h0l-.042,0-.015,0-.031,0h-.014l-.042,0H80.5l-.031,0-.017,0-.032,0h-.012l-.041,0-.015,0-.03,0-.015,0-.041,0h-.009l-.036,0h-.014l-.032,0h-.013l-.041,0-.014,0-.03,0-.016,0-.034,0h-.01l-.04,0-.016,0-.029,0-.015,0-.041,0h-.013l-.031,0-.016,0-.031,0h-.013l-.041,0-.015,0-.029,0-.017,0-.038,0h-.012l-.034,0-.017,0-.027,0-.016,0-.04,0-.016,0-.028,0-.017,0-.031,0h-.013l-.039,0-.044-.005-.018,0-.039,0-.015,0-.028,0-.019,0-.027,0-.015,0-.04,0-.016,0-.027,0-.017,0-.032,0-.02,0-.031,0-.018,0-.025,0-.019,0-.039,0-.016,0-.028,0-.017,0-.03,0-.013,0-.04-.005-.017,0-.027,0-.017,0-.039,0-.013,0-.031,0-.017,0-.028,0-.016,0-.039-.005-.017,0-.027,0-.017,0-.032,0-.017,0-.034,0-.018,0-.027,0-.016,0-.039-.005-.018,0-.024,0-.044-.006-.021,0-.036,0-.02,0-.023,0-.02,0-.03,0-.024,0-.026,0-.021,0-.023,0-.02,0-.037-.005-.042-.006-.021,0-.022,0-.033,0-.024,0-.021,0-.021,0-.022,0-.027,0-.03,0-.021,0-.022,0-.022,0-.02,0-.037-.005-.02,0-.023,0-.021,0-.023,0-.035,0-.021,0-.022,0-.021,0-.022,0L77.2,179.1l-.022,0-.02,0-.023,0-.021,0-.034,0-.023,0-.023,0-.02,0-.022,0-.023,0-.036-.005-.02,0-.022,0-.02,0-.022,0-.036-.005-.022,0-.02,0-.023,0-.02,0-.038-.006-.02,0-.023,0-.019,0-.023,0-.024,0L76.551,179l-.019,0-.023,0-.019,0-.037-.006-.022,0-.022,0-.019,0-.023,0-.021,0-.035-.005-.022,0-.022,0-.02,0-.022,0-.035-.005-.024,0-.018,0-.024,0-.017,0-.043-.007-.016,0-.024,0-.018,0-.024,0-.016,0-.043-.007-.016,0-.025,0-.016,0-.054-.008h-.006l-.027,0-.015,0-.025,0-.016,0-.045-.007-.014,0-.026,0-.014,0-.086-.014-.016,0-.026,0-.015,0-.048-.008-.011,0-.027,0-.015,0-.026,0-.011,0-.049-.008-.015,0-.025,0-.015,0-.049-.008-.012,0-.025,0-.016,0-.026,0-.013,0-.049-.008-.012,0-.028,0-.011,0-.088-.015-.014,0-.026,0-.012,0-.057-.01h0l-.028,0-.013,0-.028,0h0l-.06-.01-.01,0-.028,0-.012,0-.09-.016-.011,0-.028,0h-.007l-.059-.01h-.006l-.029-.005-.01,0-.093-.016h-.007l-.031-.005h-.005l-.1-.017-.01,0-.1-.017h-.006L74,178.582h-.007l-.1-.017h-.005l-.032-.006h0l-.068-.012h0l-.031-.006h-.007l-.1-.018h-.006l-.032-.006h0l-.1-.018h-.006l-.134-.025h0l-.1-.019h0l-.033-.006h0l-.1-.019h0l-.1-.019h0L73,178.4h0l-.1-.019h0a89.308,89.308,0,0,1-11.528-3.027h0l-.032-.011h0l-.1-.032h0l-.091-.031-.007,0-.029-.01-.005,0-.091-.031-.006,0-.095-.032h0l-.03-.01-.006,0-.09-.031-.007,0-.028-.01-.007,0-.06-.021h0l-.028-.01-.01,0-.027-.009h0l-.055-.019-.01,0-.026-.009-.01,0-.084-.029-.013,0-.025-.009-.012,0-.046-.016-.011,0-.025-.009-.013,0-.08-.028-.014-.005-.024-.008-.014,0-.043-.015-.014,0-.023-.008-.016-.006-.023-.008-.014,0-.041-.014-.016-.006-.022-.008-.016-.006-.032-.011-.023-.008-.021-.008-.018-.007-.021-.008-.017-.006-.038-.014-.016-.006-.022-.008-.018-.006-.021-.007-.034-.012-.018-.007-.02-.007-.02-.007-.021-.008-.025-.009-.027-.01-.02-.007-.02-.007-.019-.007-.022-.008-.031-.011-.02-.007-.019-.007-.022-.008-.017-.006-.036-.013-.017-.006-.023-.008-.018-.007-.025-.009-.017-.006-.032-.012-.016-.006-.026-.009-.015-.005-.037-.014-.012,0-.027-.01L59,174.518l-.027-.01-.013,0-.037-.014-.014-.005-.026-.01-.015-.006-.035-.013-.01,0-.032-.012-.014-.005-.027-.01-.013,0-.037-.014-.014-.005-.027-.01-.014-.005-.03-.011-.01,0-.038-.014-.013,0-.029-.011-.013,0-.039-.014-.007,0-.033-.012-.012,0-.032-.012-.008,0-.039-.015-.012,0-.03-.011-.011,0-.039-.015h0l-.038-.014-.012,0-.031-.012-.01,0-.04-.015-.008,0-.033-.012-.011,0-.037-.014h0l-.04-.015-.011,0-.031-.012-.01,0-.04-.015h0l-.037-.014-.011,0-.034-.013-.007,0-.041-.016-.005,0-.036-.014-.009,0L57.631,174l-.01,0-.033-.013-.007,0-.041-.016h0l-.038-.015-.008,0-.038-.015h0l-.041-.016-.007,0-.035-.014-.008,0-.082-.032-.008,0-.037-.015h0l-.043-.017h0l-.039-.015-.006,0-.084-.033h0l-.041-.016h0l-.085-.033-.006,0-.084-.033h0l-.039-.015,0,0-.083-.033-.007,0-.038-.015,0,0-.043-.017h0l-.039-.016-.007,0-.084-.034h0l-.041-.016h0l-.085-.034,0,0-.086-.035h0l-.042-.017,0,0-.085-.035h0L56,173.355h0l-.13-.053h0l-.086-.035h0l-.13-.054h0A89.959,89.959,0,0,1,33.87,160.357h0l-.109-.087h0l-.29-.233h0l-.18-.146,0,0-.107-.087h0l-.071-.058h0L33,159.651h0l-.18-.148h0l-.287-.238h0l-.071-.059h0l-.035-.029h0l-.071-.059h0l-.105-.088,0,0-.069-.058,0,0-.032-.027h0l-.07-.059,0,0-.07-.059h0l-.034-.028,0,0-.069-.058,0,0-.1-.087,0,0-.069-.059h0l-.033-.028,0,0-.068-.058,0,0-.068-.058h0l-.033-.028,0,0-.068-.058,0,0-.031-.027,0,0-.067-.058,0,0-.067-.058,0,0-.031-.027,0,0-.068-.058,0,0-.068-.059,0,0-.03-.026-.006-.005-.066-.057-.005,0-.029-.026,0,0-.034-.029h0l-.032-.028-.006-.005-.032-.028h0l-.034-.029,0,0-.028-.025-.006-.005-.065-.057-.006,0-.03-.027,0,0-.033-.029,0,0-.028-.025-.007-.006-.064-.057-.007-.006-.027-.024-.007-.006-.032-.029h0l-.03-.027-.007-.006-.03-.027h0l-.033-.029-.005,0-.028-.025-.005,0-.065-.058-.007-.006-.027-.024-.005,0-.032-.029,0,0-.028-.025-.007-.007-.064-.057-.007-.006-.027-.024-.006-.005-.033-.029h0l-.03-.027-.008-.007-.027-.024-.005,0-.032-.029,0,0-.028-.025-.007-.006-.064-.058-.007-.006-.028-.025,0,0-.033-.03,0,0-.029-.027-.006-.005-.03-.027,0,0-.032-.029-.006-.005-.027-.025-.006-.005-.064-.058-.006-.005-.03-.027,0,0-.033-.03,0,0-.028-.025-.006-.006-.031-.028h0l-.032-.029-.006-.006-.027-.025-.005,0-.032-.029,0,0-.028-.026-.008-.008-.028-.026,0,0-.031-.029-.007-.007-.025-.023-.007-.007-.031-.029h0l-.031-.028-.008-.008-.024-.022-.008-.007-.03-.028-.007-.007-.023-.021-.01-.01-.026-.024,0,0-.03-.028-.01-.009-.022-.02-.01-.009L28.814,156l-.009-.008-.022-.021-.01-.01-.023-.021-.008-.007-.03-.028L28.7,155.9l-.024-.022-.009-.008-.03-.028h0l-.03-.028-.009-.009-.023-.022-.008-.008-.029-.027-.009-.008-.022-.021-.009-.009-.026-.024-.005,0-.03-.028-.01-.009-.021-.02-.01-.009-.029-.027-.007-.006-.023-.022-.011-.011-.022-.021-.008-.007-.029-.027-.011-.01-.02-.019-.012-.011-.025-.023-.008-.007-.026-.025-.01-.01-.022-.02-.009-.009-.03-.028-.006-.006-.024-.023-.01-.009-.025-.024-.005-.005-.03-.028-.009-.009-.022-.021-.009-.008-.03-.029,0,0-.028-.027-.008-.007-.024-.023-.007-.007-.03-.028-.007-.007-.023-.022-.009-.009-.027-.025,0,0-.029-.028-.01-.01-.022-.021-.009-.009-.029-.028-.007-.007-.024-.023-.009-.009-.023-.022-.007-.007-.029-.028-.008-.008-.022-.022-.009-.008-.03-.029,0,0-.027-.026-.01-.01-.022-.021-.008-.008-.029-.028-.008-.008-.023-.022-.01-.01-.025-.024,0,0-.029-.028-.01-.009-.021-.021-.01-.009-.029-.028-.007-.007-.023-.022-.011-.011-.021-.021-.008-.008-.029-.029-.008-.007-.022-.022-.01-.009-.026-.026-.007-.007-.025-.025-.01-.01-.021-.02-.009-.009-.028-.028-.008-.008-.022-.021-.011-.01-.023-.022-.007-.007-.028-.028-.01-.01-.021-.021-.01-.009-.028-.028-.007-.007-.023-.023-.009-.009-.022-.022L26.721,154l-.028-.028-.01-.01-.019-.019-.011-.011-.024-.023-.008-.008-.025-.025-.01-.01-.022-.022-.008-.008-.029-.029-.009-.009-.021-.021-.01-.01-.023-.023-.006-.006-.029-.028-.01-.01-.021-.02-.01-.01-.029-.029,0,0-.027-.027-.009-.009-.022-.022-.008-.008-.028-.028-.008-.008-.021-.022-.01-.01-.025-.025,0,0-.028-.029-.01-.01-.02-.02-.01-.011-.028-.028-.008-.008-.022-.022-.011-.011-.022-.022-.007-.007L26,153.278l-.01-.01-.021-.021-.009-.009-.027-.027-.008-.008-.022-.023-.011-.011-.019-.019-.011-.011-.027-.027-.01-.01-.02-.02-.011-.011-.022-.022-.008-.008-.026-.027L25.728,153l-.018-.018-.011-.011-.027-.027-.01-.01-.019-.02-.012-.012-.019-.019-.01-.01-.027-.027-.011-.012-.018-.018-.012-.013-.023-.023-.011-.011-.021-.022-.013-.013-.017-.018-.011-.012-.027-.027-.01-.011-.018-.019-.012-.013-.018-.018-.014-.014-.023-.024-.012-.012-.017-.017-.012-.013-.024-.025-.012-.012-.019-.02-.012-.013-.017-.018-.012-.012-.026-.027-.012-.013-.017-.017-.013-.013-.018-.018-.018-.019-.018-.019-.012-.013-.017-.018-.012-.012-.026-.027-.012-.012-.017-.017-.013-.013-.018-.019-.01-.011-.026-.027-.012-.012-.017-.018-.012-.012-.02-.021-.017-.018-.017-.018-.013-.014-.015-.016L24.76,152l-.025-.027-.013-.014-.015-.016-.014-.015-.016-.016-.019-.021-.017-.018-.015-.016-.012-.013-.016-.017-.01-.01-.03-.032-.011-.011-.016-.017-.012-.013-.022-.023-.017-.018-.015-.016-.012-.013-.016-.017-.014-.014-.024-.025-.014-.015-.015-.016-.012-.013-.015-.016-.018-.019-.02-.022-.014-.015-.014-.015-.014-.015-.023-.024-.015-.016-.014-.015L24.2,151.4l-.015-.016-.017-.018-.02-.021-.015-.016-.014-.015L24.1,151.3l-.019-.02-.018-.019-.016-.017-.012-.013-.015-.016-.013-.014-.024-.026-.014-.015-.014-.016-.013-.014-.015-.016-.021-.023-.017-.018-.013-.014-.015-.017-.012-.013L23.825,151l-.013-.014-.015-.017-.012-.014-.015-.016-.017-.018-.02-.022-.014-.016-.014-.015-.014-.015-.016-.017-.022-.024-.014-.016-.012-.014-.015-.016-.013-.015-.023-.025-.015-.016-.014-.016-.013-.015-.014-.015-.018-.019-.02-.022-.014-.015-.014-.015-.014-.015-.018-.02-.02-.022-.012-.013-.016-.017-.013-.014-.018-.02-.019-.02-.014-.016-.015-.016-.014-.015-.013-.015-.024-.026-.013-.015-.014-.016-.013-.015-.015-.016-.022-.024-.015-.017-.014-.016-.013-.014-.014-.016L23.1,150.2l-.023-.025-.012-.014-.015-.017-.013-.014-.014-.015-.024-.026-.015-.017-.012-.013-.015-.017-.012-.013L22.916,150l-.012-.014-.015-.017-.012-.013-.015-.017-.023-.026-.015-.017-.01-.012-.016-.018-.01-.011-.027-.03-.012-.013-.015-.017-.011-.013-.015-.017-.013-.014-.025-.028-.013-.014-.015-.017-.011-.012-.03-.034-.008-.009-.016-.018-.01-.012-.017-.019-.008-.01-.03-.034-.01-.011-.016-.018-.011-.012-.016-.018,0,0-.034-.039-.01-.011-.016-.018-.011-.013-.027-.03-.011-.013-.015-.017-.011-.012-.015-.018-.012-.014-.025-.029-.012-.014-.015-.017-.011-.013-.053-.061-.01-.012-.016-.018-.01-.012-.027-.031-.011-.013-.015-.018-.01-.012-.016-.019-.008-.009-.029-.034-.011-.013-.015-.017-.012-.014-.022-.025-.015-.018-.015-.017-.011-.013-.015-.017-.011-.012-.027-.032-.01-.012-.016-.018-.01-.011-.053-.061-.012-.014-.015-.017-.011-.012-.029-.034-.008-.009-.016-.019-.01-.012-.016-.019-.005-.006-.033-.039-.008-.01-.016-.019-.009-.011-.037-.044h0l-.017-.02-.009-.01-.017-.019-.008-.01-.031-.037-.007-.008-.017-.02-.009-.01-.017-.019,0,0-.035-.041-.009-.011-.016-.019-.008-.009-.032-.038-.007-.008-.016-.019-.01-.011-.016-.019-.007-.008-.031-.037-.009-.01-.017-.02-.009-.01-.038-.045h0l-.017-.02-.008-.01-.017-.02-.006-.007-.034-.04-.006-.007-.017-.021-.007-.008-.056-.067-.007-.008-.018-.021-.006-.008-.036-.043,0,0-.017-.02-.009-.011-.017-.02,0,0-.037-.044,0-.005-.018-.022-.007-.008-.056-.068-.007-.008-.017-.021-.007-.008-.034-.041,0-.005-.018-.021-.007-.008-.018-.021h0l-.039-.047-.006-.007-.017-.021-.007-.009-.055-.067-.008-.009-.017-.021,0,0-.034-.042-.007-.008-.017-.021-.008-.009-.056-.068-.006-.007-.018-.022-.005-.006-.036-.045,0,0-.018-.022-.006-.008-.057-.069-.006-.008-.018-.022-.005-.006-.058-.071,0-.006L20.1,146.7h0l-.041-.05,0,0-.018-.023-.006-.007-.057-.07-.005-.006-.018-.023,0,0-.059-.073,0-.006-.019-.023h0l-.039-.049,0,0-.019-.024,0,0-.06-.074,0,0-.082-.1,0,0-.06-.075,0,0-.019-.024,0,0-.059-.074,0-.005-.06-.076h0l-.02-.025,0,0-.059-.074,0-.005-.08-.1,0,0-.06-.076h0l-.02-.025,0,0-.06-.076,0,0-.082-.1v0l-.061-.078h0l-.082-.105,0,0-.082-.106h0l-.288-.374h0a90.037,90.037,0,0,1-7.934-12.3,2.5,2.5,0,0,1,2.206-3.673ZM90,0h.036A90.588,90.588,0,0,1,105.2,1.278q3.794.645,7.468,1.6A89.314,89.314,0,0,1,124.4,6.806c.594.246,1.18.5,1.768.754l0,0,.048.021.027.012.048.021a89.818,89.818,0,0,1,13.533,7.421q3.192,2.126,6.188,4.511a90.541,90.541,0,0,1,14.44,14.44q2.383,2.993,4.511,6.188a89.818,89.818,0,0,1,7.421,13.533l.021.048.012.027.021.048,0,0c.258.587.508,1.174.754,1.768a89.314,89.314,0,0,1,3.928,11.729q.955,3.679,1.6,7.468A90.588,90.588,0,0,1,180,89.964V90c0,.013,0,.025,0,.038v.014c0,.008,0,.016,0,.024s0,.01,0,.016,0,.015,0,.022,0,.01,0,.016,0,.015,0,.022,0,.014,0,.017v.021c0,.006,0,.011,0,.017v.038c0,.007,0,.014,0,.02v.018c0,.007,0,.014,0,.02s0,.012,0,.018,0,.013,0,.02v.017c0,.007,0,.014,0,.021v.054c0,.008,0,.015,0,.023v.09s0,.007,0,.01,0,.019,0,.028V90.6c0,.007,0,.014,0,.022s0,.012,0,.018v.075q0,.01,0,.021v.037c0,.006,0,.012,0,.018v.075c0,.007,0,.014,0,.021v.13c0,.012,0,.025,0,.037v.13c0,.007,0,.014,0,.021v2.922l0,.037v.491l0,.032v.462l0,.038v.465l0,.038v.464l-.006.085v.007l0,.024v.31l0,.021v.053l0,.021v0l0,.064v0l0,.024v.013l0,.023v.014l0,.022v.015l0,.021v.09l0,.02v.017l0,.021v.015l0,.022v.015l0,.022v.013l0,.024v.011l0,.026v.008l-.007.092v.008l0,.026v.011l0,.023v.014l0,.023v.014l0,.022v.014l0,.023v.014l0,.022V97.5l0,.022v.014l0,.023v.013l0,.024v.011l0,.025v.01l-.011.126v.008l0,.026v.01l0,.025v.013l0,.023v.013l0,.023v.015l0,.022v.015l0,.021V98l0,.021v.015l0,.022v.015l0,.022v.013l0,.023v.012l0,.025v.008l-.009.1v0l0,.026v.011l0,.025v.012l0,.025v.012l0,.024v.013l0,.024v.012l0,.023V98.5l0,.024v.012l0,.024v.013l0,.025v.011l0,.025v.011l0,.026v0l-.01.1h0l0,.03v.006l0,.025v.012l0,.024v.012l0,.023v.015l0,.022v.013l0,.023V99l0,.022v.014l0,.022,0,.015,0,.022v.014l0,.023v.015l0,.022,0,.016,0,.021v.013l-.009.091v0l0,.026v.011l0,.025v.012l0,.024v.012l0,.024v.013l0,.022v.014l0,.023v.012l0,.024v.012l0,.025v.01l0,.026v.011l0,.026v.008l0,.028V99.7l-.015.135v0l0,.032v0l0,.028v.01l0,.025v.011l0,.025v.011l0,.026v.009l0,.026v.011l0,.025v.01l0,.027v.009l0,.028v0l-.019.17v0l0,.028v.008l0,.027v.009l0,.028v.008l0,.027v.01l0,.026v.01l0,.026v.011l0,.026v.01l0,.026v.009l0,.028v.005l0,.031v0l-.02.17v0l0,.027v.01l0,.025v.01l0,.026v.01l0,.026v.01l0,.026v.011l0,.026v.009l0,.028v.007l0,.029v.007l0,.029v.006l-.021.167v0l0,.029v.007l0,.027v.01l0,.024,0,.012,0,.024v.012l0,.025v.01l0,.027v.009l0,.026v.01l0,.027v.007l0,.029v0l-.027.2v0l0,.029v.007l0,.027v.009l0,.027v.009l0,.027v.009l0,.027v.008l0,.028v.007l0,.028v.006l0,.03v0l-.033.241v0l0,.03v.007l0,.028v.008l0,.026v.01l0,.026v.01l0,.026v.01l0,.027v.008l0,.028v.005l-.034.24h0l0,.031v.005l0,.029v.007l0,.028v.009l0,.028v.007l0,.028v.008l0,.028v.007l0,.028v.007l0,.029v0l-.03.206v0l0,.029v.007l0,.029v.007l0,.029v.006l0,.03v.006l0,.028v.008l0,.027v.008l0,.028v.007l0,.029v0l0,.032v0l-.026.172h0l0,.031v0l0,.029v.006l0,.028v.009l0,.027v.008l0,.027v.008l0,.029v.006l0,.03v0l-.005.032h0l-.039.243h0l-.005.032v0l0,.03v.005l0,.03v.005l0,.029v.007l0,.029v.005l0,.03v0l-.045.271v.005l0,.029v.006l0,.028v.008l0,.028V105l0,.029v.007l0,.028v.008l0,.027,0,.009,0,.027v.006l-.005.03v0l-.034.2v.006l0,.028v.007l0,.028v.007l0,.028v.007l0,.027v.009l0,.028v.007l0,.028v.007l-.005.029v0l-.005.03v.006l-.036.2h0l-.006.033v0l-.005.029v.008l0,.027v.007l-.005.028V106l-.005.028v.007l-.005.028v.007l-.005.028v.005l-.006.031v0l-.044.239v0l-.005.029v.007l-.005.028v.007l0,.027,0,.009-.005.027v.007l-.005.027,0,.008-.005.028v.006l-.005.029v.006l-.006.03h0l-.039.2v0l-.005.029v.007l-.005.028v.006l-.005.028v.008L178.4,107l0,.008-.005.026,0,.009-.005.027v.006l-.006.029v0l-.006.03v0l-.04.2h0l-.006.032v0l-.006.03v.006l-.005.027,0,.009-.005.027,0,.008-.005.027,0,.008-.005.027,0,.008-.005.027,0,.009-.005.027v0l-.006.031h0l-.034.171h0l-.006.029v.007l-.006.028v.007l-.005.026,0,.01-.005.026,0,.009L178.2,108l0,.01-.005.025,0,.009-.005.026,0,.009-.005.027v.007l-.006.028v.007l-.041.2v0l-.006.029v.006l-.006.027,0,.009-.005.026,0,.009-.005.025,0,.009-.006.027,0,.008-.006.026,0,.009-.006.028v.005l-.006.029v.007l-.006.028v0l-.035.166v0l-.007.031v0l-.006.029v.006l-.006.028,0,.008-.006.026,0,.009-.006.026,0,.008-.006.027v.007l-.006.029v0l-.006.03v0l-.051.233v0l-.006.03v.006l-.006.029v.006l-.006.029v.006l-.006.029v.005l-.006.029v.006l-.006.029v0l-.007.032h0l-.061.271v0l-.007.032v0l-.007.03v.005l-.007.029v0l-.007.03v0l-.007.032h0l-.008.033h0c-.026.114-.052.226-.078.34h0l-.008.034h0l-.008.034h0a89.356,89.356,0,0,1-5.8,16.984,2.5,2.5,0,0,1-4.544-2.085,84.516,84.516,0,0,0,5.689-16.98,85.847,85.847,0,0,0,.264-35.516,84.507,84.507,0,0,0-12.787-30.385,85.262,85.262,0,0,0-37.4-30.8,84.534,84.534,0,0,0-15.949-4.951A85.653,85.653,0,0,0,90,5h0A85.653,85.653,0,0,0,72.864,6.727,84.508,84.508,0,0,0,42.479,19.514a85.262,85.262,0,0,0-30.8,37.4A84.534,84.534,0,0,0,6.727,72.864a85.741,85.741,0,0,0,1.3,39.691,2.5,2.5,0,0,1-4.82,1.331q-.476-1.733-.884-3.493h0l-.008-.034h0l-.023-.1v0l-.007-.032v0l-.022-.1v0l-.007-.03v-.006l-.021-.094v-.006l-.007-.03v-.007l-.021-.092,0-.009-.006-.028,0-.01-.02-.09,0-.008-.006-.028,0-.01-.02-.09,0-.008-.006-.028,0-.01-.019-.087,0-.013L2.1,109.41l0-.014-.006-.026v0l-.012-.054,0-.015-.005-.024,0-.016-.005-.023,0-.017-.009-.041,0-.017,0-.022,0-.018,0-.022,0-.019-.008-.038,0-.018,0-.022,0-.019,0-.021L2,108.937l-.006-.03,0-.021,0-.021,0-.019,0-.021-.006-.027-.006-.027,0-.022,0-.02,0-.022,0-.018-.007-.033,0-.021-.005-.024,0-.019,0-.022,0-.019-.006-.03,0-.024,0-.024,0-.019,0-.024,0-.016-.007-.034,0-.018-.006-.027,0-.017-.005-.024,0-.017-.008-.038,0-.01-.006-.03,0-.016-.005-.027,0-.015-.007-.033,0-.019-.006-.027,0-.017-.005-.026,0-.015-.008-.038,0-.01-.007-.032,0-.016-.005-.027,0-.014-.008-.039,0-.009-.007-.034,0-.015-.005-.027,0-.015-.008-.038v-.007l-.007-.036,0-.013-.006-.031,0-.011-.008-.041v0l-.008-.038,0-.013-.006-.029,0-.013-.007-.038v-.007l-.007-.037,0-.014-.006-.03,0-.012-.008-.039v0l-.008-.041,0-.012-.006-.031,0-.012-.016-.084,0-.01-.007-.034,0-.009-.016-.085,0-.01-.006-.033,0-.01-.016-.084,0-.01-.006-.034,0-.009-.016-.085,0-.009-.006-.033,0-.011-.008-.041h0l-.008-.043v-.007L1.51,106.5l0-.008-.016-.087V106.4l-.007-.038v-.007l-.016-.087v-.006l-.007-.038v-.006l-.016-.088v0l-.007-.039v-.007l-.016-.088v0l-.007-.04v-.006l-.016-.089v0l-.007-.04v-.006l-.016-.089v0l-.007-.041v0l-.016-.09v0l-.007-.041v-.006l-.015-.089h0l-.007-.043v0L1.3,105.3h0l-.007-.042v-.006l-.015-.089v0l-.007-.041v-.006l-.015-.09h0l-.007-.043v-.006l-.022-.134v0l-.022-.135v0l-.022-.134v0l-.022-.134v-.006l-.022-.135v0l-.022-.136v0l-.021-.136v0l-.021-.136v0l-.021-.136v0l-.007-.045h0l-.014-.091v0L1,103.448v0l-.02-.136v0l-.007-.044h0l-.014-.092v0l-.007-.045h0l-.013-.092v0l-.006-.044h0l-.013-.091v0l-.006-.044h0L.9,102.75v0L.889,102.7h0l-.013-.092v0l-.006-.045h0l-.013-.091v0l-.006-.043v0l-.013-.091v0l-.006-.043v0l-.012-.09v-.005l-.006-.041v0L.8,102.049v0L.793,102v0l-.012-.092v0l-.006-.044v0l-.012-.092v0l-.006-.045h0l-.012-.093h0l-.006-.045h0l-.012-.093h0l-.006-.046v0l-.012-.093h0L.7,101.3v0l-.017-.139h0l-.011-.093v0l-.005-.044v0l-.011-.093h0l-.005-.045v0l-.011-.091v0l-.005-.042v0l-.011-.091v0L.617,100.6v0L.606,100.5v0L.6,100.457v0l-.016-.138v0l-.016-.139v0l-.015-.139v0l-.01-.092h0l0-.045v0l-.015-.138v0l-.015-.138v0l-.015-.139v0l-.014-.138v0l-.014-.138v0l-.014-.137v0L.435,98.9v0l-.009-.092h0l0-.045v0l-.013-.137v0l-.013-.137v-.006l0-.043v0l-.008-.092V98.33l0-.044h0l-.008-.092v0l0-.044h0l-.008-.092v-.006l0-.043h0L.343,97.91V97.9l0-.041v0l-.008-.091v-.006l0-.041v0l0-.046v0l0-.042v-.008l0-.04v-.005l-.007-.091v-.006l0-.042v0L.3,97.341v-.007l0-.039v-.006L.284,97.2v-.006l0-.041v0l-.007-.091V97.05l0-.041v0l-.007-.091v-.007l0-.04v0l-.007-.091v-.007l0-.039v-.007l-.007-.09v-.006l0-.04v-.006l-.006-.09v-.007l0-.039v-.007l-.006-.09v-.008l0-.039V96.29L.21,96.2v-.009l0-.037v-.009L.2,96.057v-.009l0-.037V96l-.006-.089v-.008l0-.038v-.007l-.006-.09v-.008l0-.038v-.007l-.006-.09V95.62l0-.037v-.009l-.005-.089v-.007l0-.038v-.008l-.005-.089v-.008l0-.037v-.009L.148,95.2v-.008l0-.038v-.008l-.005-.09v-.007l0-.037V95l0-.089V94.9l0-.037v-.01l0-.042v0l0-.045V94.76l0-.036v-.01l0-.089v-.008l0-.036v-.01l0-.043h0l0-.045v-.008l0-.037v-.011l0-.042h0l0-.046V94.33l0-.038v-.01l0-.04v0l0-.045v-.008l0-.037v-.011l0-.04v0l0-.045v-.009l0-.036v-.011l0-.039V93.95l0-.044V93.85l0-.036v-.008l0-.044v-.1l0-.044v-.1l0-.044v-.1l0-.044v-.1l0-.044V91.157c0-.014,0-.026,0-.04v-.012c0-.011,0-.022,0-.032V91.06c0-.015,0-.029,0-.043v-.2c0-.01,0-.02,0-.031v-.1s0-.011,0-.014v-.032s0-.009,0-.013v-.1c0-.011,0-.021,0-.033s0-.01,0-.013,0-.029,0-.044v-.057c0-.01,0-.021,0-.031s0-.011,0-.014,0-.029,0-.043H0c0-.014,0-.028,0-.042s0-.009,0-.013,0-.021,0-.033,0-.01,0-.013c0-.029,0-.058,0-.087,0,0,0-.011,0-.014s0-.021,0-.032v-.013c0-.015,0-.029,0-.044v-.036A90.588,90.588,0,0,1,1.278,74.8q.645-3.794,1.6-7.468A89.314,89.314,0,0,1,6.806,55.6c.246-.594.5-1.18.754-1.768l0,0,.021-.048.012-.027.021-.048a89.818,89.818,0,0,1,7.421-13.533q2.126-3.192,4.511-6.188a90.541,90.541,0,0,1,14.44-14.44q2.993-2.383,6.188-4.511A89.818,89.818,0,0,1,53.71,7.616l.048-.021.027-.012.048-.021,0,0c.587-.258,1.174-.508,1.768-.754A89.314,89.314,0,0,1,67.334,2.878q3.679-.955,7.468-1.6A90.588,90.588,0,0,1,89.964,0Z" fill="#fff"/>
    <path id="Elipse_158" data-name="Elipse 158" d="M2.609,74.407A2.5,2.5,0,0,1,5.1,76.771a67.409,67.409,0,0,0,6.327,25.134A67.927,67.927,0,0,0,73,141a68.981,68.981,0,0,0,8.705-.551,2.5,2.5,0,0,1,.641,4.959q-1.124.144-2.256.253h0l-.113.011-.028,0h0l-.109.01-.03,0-.031,0h-.005l-.052,0-.024,0-.031,0-.032,0h-.008l-.041,0-.029,0h-.015l-.018,0-.033,0h-.012l-.036,0h-.031l-.033,0h-.033l-.045,0h-.034l-.033,0-.032,0-.044,0-.02,0H79.12l-.033,0-.022,0h-.011l-.032,0h-.01l-.023,0h-.012l-.034,0-.024,0h-.009l-.042,0-.025,0h-.011l-.023,0H78.8l-.033,0-.04,0-.037,0-.034,0-.032,0h0l-.04,0-.037,0-.035,0-.069.005h0l-.037,0-.035,0-.069,0h0l-.037,0-.035,0-.07,0h0l-.038,0-.035,0-.07,0h0l-.03,0h-.006l-.031,0h0l-.071,0h0l-.03,0h-.006l-.031,0h0l-.071,0h0l-.031,0h0l-.033,0h0l-.071,0h0l-.036,0-.033,0h0l-.071,0-.036,0h0l-.106.006h0l-.033,0h0l-.107.006h0l-.032,0h0l-.107.006h0l-.034,0h0l-.108.006h0l-.035,0h0l-.108.005h0l-.034,0h0l-.107.005h0l-.033,0h0l-.072,0h0l-.034,0h-.04l-.072,0h-.074l-.072,0h-.074l-.072,0h-.074l-.072,0H75.8l-.106,0h-.076l-.077,0h-.036l-.071,0h-.076l-.07,0h-.077l-.07,0h-.077l-.07,0H74.92l-.07,0h-.077l-.076,0h-.071l-.076,0h-4.02l-.115,0h-.732l-.116-.005h-.373l-.029,0h-.011l-.029,0h-.028l-.029,0h-.046l-.03,0-.029,0-.031,0-.028,0-.032,0-.028,0h-.005l-.115-.007-.029,0-.028,0-.029,0-.029,0-.029,0-.028,0-.029,0-.029,0-.029,0-.028,0h-.01l-.029,0h-.047l-.028,0h-.04l-.028,0-.029,0-.029,0-.028,0-.029,0-.029,0-.029,0-.028,0-.174-.012-.028,0-.029,0-.029,0-.028,0-.028,0-.029,0-.029,0-.029,0-.028,0h-.182l-.029,0-.029,0h-.019l-.029,0-.03,0-.028,0-.032,0-.029,0h0l-.173-.014-.029,0-.028,0-.029,0-.028,0-.029,0-.028,0-.029,0-.028,0-.03,0-.028,0-.029,0h-.007l-.021,0h-.008l-.021,0h-.008l-.02,0h-.009l-.02,0-.028,0-.03,0-.028,0-.029,0-.029,0-.031,0-.03,0h0l-.23-.021-.029,0-.028,0-.029,0-.028,0-.028,0-.028,0-.028,0-.028,0-.029,0h-.008l-.021,0h-.008l-.021,0-.029,0-.03,0-.028,0-.028,0-.029,0h-.007l-.028,0-.029,0-.028,0-.028,0-.056-.006h0l-.229-.024h0l-.025,0h0l-.025,0-.028,0-.028,0-.029,0-.028,0-.028,0H65.1l-.021,0h-.008l-.021,0h-.007l-.022,0h-.006l-.023,0-.028,0-.029,0h-.006l-.023,0H64.9l-.024,0-.028,0h-.005l-.025,0h0l-.027,0h0l-.027,0h0l-.257-.029h0l-.027,0h0l-.028,0h0l-.026,0h0l-.024,0h0l-.024,0h0l-.024,0h-.005l-.023,0H64.3l-.023,0h-.006l-.024,0h0l-.024,0h-.006l-.023,0-.028,0h-.007l-.023,0h0l-.024,0h0l-.025,0h0l-.025,0h0l-.113-.014h0l-.228-.029h0l-.026,0h0l-.027,0h0l-.025,0h0l-.025,0h0l-.025,0h0l-.024,0-.029,0H63.5l-.023,0h-.006l-.023,0h0l-.024,0h0l-.024,0h0l-.024,0h0l-.024,0h0l-.024,0h0l-.023,0h-.005l-.023,0h0l-.025,0h0l-.027,0h0l-.369-.051h0l-.026,0h0l-.025,0h0l-.026,0h0l-.026,0h0l-.026,0h0l-.024,0h0l-.024,0h-.005l-.023,0h0l-.024,0h-.005l-.023,0h0l-.025,0h0l-.026,0h0l-.026,0h0l-.026,0h0l-.027,0h0l-.056-.008h0l-.34-.051h0l-.027,0h0l-.026,0h0l-.025,0h0l-.024,0h-.006l-.023,0h-.005l-.023,0h0l-.025,0h0l-.025,0h0l-.026,0h0l-.026,0h0l-.026,0h0l-.026,0h0l-.027,0h0l-.536-.086h0l-.027,0h0l-.027,0h0l-.026,0h0l-.025,0h0l-.026,0h0l-.027,0h0l-.027,0h0l-.027,0h0l-.534-.091h0l-.027,0h0l-.054-.01h0l-.026,0h0l-.026,0h0l-.025,0h0l-.025,0h0l-.025,0h0l-.026,0h0l-.027,0h0l-.027,0h0l-.616-.113h0l-.027-.005h0l-.026,0h0l-.026,0h0l-.026,0h0l-.027-.005h0l-.027-.005h0l-.056-.011h0l-.53-.1h0l-.027-.005h0l-.026-.005h0l-.026-.005h0l-.026-.005h0l-.026-.005h0l-.026-.005h0l-.027-.005h0l-.028-.006h0l-.027-.005h0l-.555-.115h0l-.027-.006h0l-.027-.006h0l-.027-.006h0l-.027-.006h0l-.11-.024h0q-.319-.068-.637-.14h0l-.027-.006h0c-.221-.05-.441-.1-.662-.152h0l-.054-.013h0l-.055-.013h0l-.055-.013h0l-.054-.013h0l-.549-.133h0l-.054-.013h0l-.054-.013h0c-.219-.054-.437-.109-.656-.165h0l-.026-.007h0l-.027-.007h0l-.027-.007h0l-.025-.006h0l-.024-.006h0l-.025-.007h0l-.025-.007h0l-.025-.006h0l-.026-.007h0l-.081-.021h0l-.436-.116h0l-.053-.014h0l-.025-.007h0l-.025-.007h0l-.025-.007h0l-.025-.007h0l-.025-.007h0l-.025-.007h0l-.025-.007h0l-.026-.007h0l-.515-.143h0l-.026-.007h0l-.025-.007h0l-.024-.007h0l-.024-.007h0l-.024-.007h0l-.024-.007h0l-.023-.007h0l-.023-.006h0l-.024-.007h0l-.023-.007h0l-.023-.007h0l-.026-.007h0l-.027-.008h0l-.378-.109h0l-.026-.008h0l-.025-.007h0l-.024-.007h0l-.022-.007-.006,0-.021-.006-.006,0-.02-.006-.006,0-.021-.006-.005,0-.021-.006-.006,0L52.235,143h0L52.209,143l-.006,0-.021-.006-.006,0-.02-.006-.007,0-.02-.006-.006,0-.022-.007h0l-.024-.007h0l-.024-.007h0l-.026-.008h0l-.268-.081h0l-.023-.007-.007,0-.02-.006-.006,0-.02-.006-.006,0-.02-.006-.006,0-.02-.006-.007,0-.019-.006-.007,0-.02-.006-.007,0-.019-.006-.008,0-.018-.006-.009,0-.017-.005-.009,0-.018-.006-.008,0-.019-.006-.008,0-.018-.006-.009,0-.018-.006-.008,0-.018-.006-.009,0-.017-.005-.009,0-.017-.005-.01,0-.018-.006-.008,0-.02-.006-.006,0-.022-.007h0l-.024-.007h0l-.16-.05h0L51,142.626h0l-.024-.008-.006,0-.021-.007-.005,0-.02-.006-.008,0-.019-.006-.008,0-.018-.006-.009,0-.018-.006-.008,0-.018-.006-.009,0-.018-.006-.008,0-.018-.006-.009,0-.018-.006-.009,0-.017-.005-.01,0-.017-.005-.009,0-.017-.005-.01,0-.017-.005-.009,0L50.6,142.5l-.01,0-.017-.005-.009,0-.017-.005-.01,0-.017-.006-.009,0-.016-.005-.01,0-.017-.005-.009,0-.017-.005-.01,0-.019-.006-.007,0-.025-.008h0l-.106-.035h0l-.023-.008-.009,0-.016-.005-.012,0-.014,0-.012,0-.014,0-.012,0-.015,0-.011,0-.015-.005-.012,0-.014,0-.012,0-.014,0-.013,0-.013,0-.013,0-.013,0-.014,0-.012,0-.013,0-.013,0-.013,0-.013,0-.012,0-.014,0-.013,0-.013,0-.013,0-.013,0-.013,0-.013,0-.013,0-.012,0-.014,0-.011,0-.014,0-.012,0-.015,0-.011,0-.015,0-.011,0-.016-.006-.006,0-.019-.006-.008,0-.018-.006h0l-.022-.007h0l-.069-.023-.006,0-.012,0-.014,0-.014,0-.011,0-.016-.005-.01,0-.014,0-.012,0-.014,0-.012,0-.016-.005-.01,0-.016-.005-.011,0-.014,0-.012,0-.014,0-.013,0-.014,0-.011,0-.015-.005-.011,0-.015-.005-.01,0-.015-.005-.011,0-.015-.005-.01,0-.016-.006-.011,0-.015-.005-.011,0-.014,0-.012,0-.014,0-.011,0-.015-.005-.011,0-.015-.005-.011,0L49,141.963l-.011,0-.016-.005-.009,0-.017-.006-.009,0-.017-.006-.01,0-.016-.006-.012,0-.014-.005-.007,0-.142-.05-.005,0-.016-.006-.011,0-.015-.005-.01,0-.016-.006-.01,0-.017-.006-.009,0-.016-.006-.011,0-.016-.006-.009,0-.017-.006-.009,0-.018-.006-.008,0-.017-.006-.009,0-.018-.006-.007,0-.018-.007-.007,0-.019-.007-.006,0-.019-.007-.008,0-.019-.007-.006,0-.02-.007-.006,0-.021-.007h0l-.021-.007-.006,0-.02-.007h0l-.022-.008h0l-.048-.017h0l-.3-.11h0l-.024-.009h0l-.024-.009h0l-.025-.009h0l-.023-.009h0l-.022-.008h0l-.023-.008h0L47.7,141.5h0l-.023-.009h0l-.024-.009h0l-.025-.009h0l-.024-.009h0l-.024-.009h0q-.3-.112-.6-.228h0l-.05-.019h0q-.729-.279-1.451-.573-1.095-.446-2.172-.927h0l-.1-.043h0l-.072-.032h0l-.024-.011h0l-.388-.176h0l-.022-.01h0l-.022-.01h0l-.022-.01h0l-.02-.009,0,0-.02-.009,0,0-.021-.01h0l-.021-.01h0l-.02-.009-.006,0-.019-.009,0,0-.019-.009-.005,0-.02-.009,0,0-.019-.009-.007,0-.018-.008-.006,0-.018-.008-.007,0-.018-.008-.006,0-.018-.008-.009,0-.017-.008-.006,0-.019-.009-.005,0-.235-.11,0,0-.02-.009,0,0-.018-.008-.007,0-.018-.008-.006,0-.017-.008-.008,0-.016-.008-.008,0-.016-.008-.009,0-.016-.008-.007,0-.017-.008-.009,0-.015-.007-.009,0-.015-.007-.009,0L41.768,139l-.008,0-.016-.008-.009,0-.015-.007-.008,0-.016-.008-.009,0-.016-.008-.008,0-.016-.008-.009,0-.016-.007-.008,0-.016-.008-.009,0-.016-.008-.007,0-.017-.008-.008,0-.016-.008-.007,0-.017-.008,0,0-.137-.066,0,0-.019-.009,0,0-.017-.008-.007,0-.016-.008-.008,0-.015-.007-.01,0-.015-.007-.009,0-.015-.007-.01,0-.015-.007-.01,0-.014-.007-.011-.005-.014-.007-.011-.005-.013-.006-.011-.006-.013-.006-.012-.006-.012-.006-.013-.006-.013-.006-.011-.006-.012-.006-.012-.006L41,138.63l-.013-.006-.011-.005-.013-.006-.012-.006-.012-.006-.012-.006-.014-.007-.011-.005-.014-.007-.01,0-.014-.007-.011-.005-.014-.007-.01-.005-.017-.008-.007,0-.045-.022,0,0-.049-.024h0l-.023-.011,0,0-.021-.01-.009,0-.016-.008-.008,0-.016-.008-.009,0-.016-.008-.01,0-.014-.007-.011-.005-.014-.007-.011-.005-.013-.007-.01-.005-.015-.007-.009,0-.015-.007-.01,0-.015-.008-.008,0-.016-.008-.008,0-.017-.008-.008,0-.016-.008-.009,0-.016-.008-.008,0-.017-.008-.008,0-.018-.009-.006,0-.017-.009-.008,0-.018-.009-.006,0-.018-.009-.006,0-.019-.01-.006,0-.017-.009-.008,0-.018-.009-.006,0-.021-.011,0,0-.023-.012h0l-.024-.012h0l-.1-.05h0l-.023-.011h0l-.022-.011,0,0-.021-.011,0,0-.02-.01-.007,0-.018-.009-.006,0-.018-.009-.007,0-.017-.009-.008,0-.015-.008-.009,0L39.745,138l-.008,0-.016-.008-.008,0-.016-.008-.008,0-.016-.008-.008,0-.017-.009-.006,0-.018-.009-.006,0-.018-.009-.007,0-.018-.009-.007,0-.018-.009-.006,0-.019-.01-.005,0-.02-.01,0,0-.021-.011,0,0-.293-.152h0l-.023-.012h0l-.023-.012h0l-.021-.011,0,0-.021-.011,0,0-.02-.011,0,0-.02-.01-.006,0-.019-.01-.006,0-.018-.009-.007,0-.018-.009-.006,0-.019-.01,0,0-.02-.011,0,0-.02-.011,0,0-.021-.011,0,0-.021-.011,0,0-.021-.011,0,0-.021-.011,0,0-.023-.012h0l-.292-.156h0l-.023-.012,0,0-.021-.011,0,0-.02-.011-.005,0-.019-.01,0,0-.019-.01-.006,0-.018-.01-.006,0-.018-.01-.007,0-.017-.009-.007,0-.017-.009-.008,0-.016-.009-.008,0-.016-.008-.009,0-.015-.008-.008,0-.016-.009-.008,0-.018-.01-.006,0-.019-.01-.006,0-.018-.01-.005,0-.019-.01-.005,0-.021-.011h0l-.02-.011,0,0-.192-.105,0,0-.02-.011,0,0-.021-.012,0,0-.021-.012h0l-.021-.012-.006,0-.018-.01-.005,0-.019-.01-.006,0-.019-.01-.005,0-.018-.01-.007,0-.017-.01-.006,0-.018-.01-.006,0-.018-.01-.006,0-.018-.01-.007,0-.017-.01-.006,0-.017-.01-.007,0-.017-.009-.007,0-.015-.009-.009,0-.016-.009-.007,0-.018-.01,0,0-.02-.011,0,0-.019-.011,0,0-.021-.012h0l-.023-.013h0l-.023-.013h0l-.1-.054h0l-.023-.013-.005,0-.019-.01-.005,0-.018-.01-.007,0-.016-.009-.009,0-.015-.008-.009-.005-.015-.009-.007,0-.017-.01-.007,0-.016-.009-.008,0-.015-.009-.01-.005-.014-.008-.009-.005-.014-.008-.009-.005-.014-.008-.009-.005-.014-.008-.01-.006-.014-.008-.009-.005-.014-.008-.01-.006-.014-.008-.01-.006-.013-.008-.011-.006-.013-.008-.01-.006-.013-.007-.011-.007-.012-.007-.011-.006-.012-.007-.012-.007-.012-.007-.011-.006-.013-.008-.011-.006-.012-.007-.011-.006-.012-.007-.012-.007-.07-.041-.006,0-.017-.01-.01-.006-.015-.008-.009-.005-.014-.008-.012-.007-.012-.007-.012-.007-.011-.006-.012-.007-.012-.007-.011-.006-.012-.007-.012-.007-.012-.007-.012-.007-.01-.006-.012-.007-.012-.007-.011-.006-.012-.007-.011-.007-.012-.007-.012-.007-.011-.007-.012-.007-.012-.007-.012-.007-.011-.006-.013-.007-.01-.006-.013-.008L36.1,136l-.014-.008-.009-.005-.014-.008-.009-.005-.014-.008-.01-.006-.014-.008-.008,0-.015-.009-.008,0-.016-.009-.005,0-.018-.011,0,0-.224-.133,0,0-.02-.012,0,0-.019-.011,0,0-.019-.011,0,0-.018-.011-.005,0-.018-.011,0,0-.018-.011,0,0-.019-.011,0,0-.019-.011,0,0-.02-.012h0l-.02-.012,0,0-.021-.012h0l-.021-.012,0,0-.021-.013h0l-.022-.013h0q-1.025-.617-2.028-1.267-.847-.548-1.677-1.119h0l-.021-.015h0l-.021-.015h0l-.02-.014,0,0-.018-.012-.005,0-.017-.012,0,0-.018-.012,0,0-.018-.012,0,0-.017-.012,0,0-.018-.012,0,0-.019-.013,0,0-.019-.013,0,0-.018-.013-.005,0L31.409,133l0,0-.017-.012-.005,0-.017-.012,0,0-.018-.012-.005,0-.017-.012,0,0-.019-.013,0,0-.018-.012,0,0-.017-.012-.008-.005-.076-.053,0,0-.019-.014h0l-.017-.012-.006,0-.017-.012,0,0-.015-.01-.008-.006-.013-.009-.008-.006-.014-.01-.009-.006-.014-.01-.008-.006L31,132.716l-.01-.007-.012-.008-.01-.007-.012-.009-.01-.007-.012-.009-.009-.007-.012-.009-.011-.008-.011-.008-.01-.007-.012-.009-.01-.007-.012-.008-.009-.007-.013-.009-.009-.007-.013-.009-.009-.006-.013-.009-.009-.007-.013-.009-.009-.006-.013-.009-.01-.007-.012-.008-.011-.008-.011-.008-.011-.008-.011-.008-.01-.007-.011-.008-.012-.009-.009-.007-.014-.01-.008-.006-.088-.063,0,0-.017-.012-.007-.005-.015-.01-.008-.006-.013-.01-.009-.006-.013-.01-.009-.007-.013-.009-.009-.006-.013-.009-.01-.007-.012-.009-.009-.007-.013-.009-.009-.007-.012-.009-.01-.007-.012-.009-.01-.007-.012-.008-.01-.007-.012-.009-.01-.007-.012-.009-.009-.007-.013-.009-.01-.007-.012-.008-.01-.007-.012-.009-.01-.007-.012-.009-.009-.007-.012-.008-.011-.008-.01-.007-.011-.008-.011-.008-.011-.008-.011-.008-.01-.007-.012-.008-.011-.008-.01-.007L30.005,132l-.01-.008-.012-.008-.015-.011-.006,0-.014-.01-.011-.008-.041-.03-.005,0-.017-.013,0,0-.019-.014-.009-.006-.014-.01-.007-.006-.014-.01-.008-.006-.014-.01-.009-.007-.012-.009-.01-.007-.012-.009-.009-.007-.012-.009-.01-.007-.013-.009-.01-.007-.011-.008-.011-.008-.011-.008-.01-.007-.012-.009-.01-.007-.012-.009-.01-.007-.011-.008-.01-.008-.012-.009-.009-.007-.013-.009-.009-.007-.012-.009-.01-.007-.01-.008-.011-.009-.01-.007-.012-.009-.009-.007-.012-.009-.011-.008-.011-.008-.01-.007-.012-.009-.009-.007-.013-.01-.008-.006-.013-.01-.008-.006-.014-.011h0l-.1-.075-.005,0-.013-.01-.008-.006-.01-.007-.012-.009-.009-.007-.012-.009-.011-.008-.01-.007-.013-.01-.009-.007-.011-.009-.01-.008-.011-.008-.01-.008-.011-.008-.01-.008-.012-.009-.009-.007-.011-.009-.01-.008-.012-.009L29,131.255l-.012-.009-.009-.007-.013-.01-.008-.006-.012-.009-.01-.008-.012-.009-.009-.007-.012-.009-.009-.007-.013-.01-.009-.007-.012-.009-.01-.007-.013-.01-.007-.005-.014-.011-.006,0-.016-.012,0,0-.017-.013-.005,0-.016-.013h0l-.02-.015,0,0-.163-.125,0,0-.017-.013,0,0-.015-.012-.007-.005-.015-.012-.005,0-.016-.012-.005,0-.016-.013,0,0-.016-.013-.005,0-.016-.012-.005,0-.016-.012-.006,0-.016-.012,0,0-.016-.013-.005,0-.017-.013,0,0-.018-.014,0,0-.018-.014,0,0-.018-.014,0,0-.018-.014,0,0-.019-.014,0,0-.018-.014,0,0-.019-.015,0,0-.332-.26h0l-.021-.016h0l-.02-.016h0l-.02-.016h0l-.02-.016h0l-.083-.066h0q-2.573-2.04-4.953-4.3a73.429,73.429,0,0,1-7.609-8.441h0l-.016-.021h0l-.015-.019,0,0-.014-.019v0l-.015-.02h0l-.031-.041h0l-.015-.02h0l-.015-.02h0l-.015-.02h0l-.015-.02,0,0-.014-.019v0l-.207-.272h0l-.015-.02h0l-.014-.018,0,0-.013-.017,0,0-.012-.016,0,0-.013-.017,0,0-.013-.017,0,0-.013-.018,0,0-.013-.017,0-.006-.012-.016,0,0-.012-.016,0-.006-.013-.017,0,0-.013-.018,0,0-.014-.018v0l-.014-.019,0,0-.014-.019h0l-.015-.02,0,0-.015-.02h0l-.015-.02,0,0-.03-.04h0l-.089-.119-.006-.009-.01-.014-.005-.007L14.3,116.4l0-.007-.011-.015,0-.007-.01-.014-.006-.008-.011-.015,0-.006-.011-.015-.005-.007-.01-.013-.006-.008-.009-.012-.007-.01-.009-.012-.007-.009-.009-.013-.007-.009-.009-.013-.006-.009-.009-.012-.007-.01-.008-.012-.007-.009-.009-.012-.007-.01-.008-.012-.007-.01-.008-.011-.008-.011-.008-.011-.007-.01-.009-.012-.007-.01-.008-.012-.007-.01-.008-.012L14,116,14,115.99l-.007-.009-.009-.013-.007-.009-.009-.012-.008-.011-.007-.01-.008-.012-.008-.011-.005-.007-.01-.014,0-.006-.011-.015-.016-.022,0,0-.014-.019-.009-.013-.006-.009-.008-.011-.008-.011-.006-.008-.011-.015-.005-.007-.01-.014-.006-.009-.009-.013-.008-.01-.008-.012-.007-.009-.009-.013-.007-.009-.009-.012-.007-.01-.008-.011-.008-.011-.008-.011-.007-.01-.009-.012-.007-.01-.009-.012-.007-.01-.009-.012-.007-.01-.009-.012-.007-.009-.009-.013-.007-.009-.009-.012-.007-.01-.009-.012-.007-.01-.009-.013-.006-.008-.01-.014-.006-.009-.009-.013-.006-.009-.009-.013-.007-.01-.009-.013-.006-.009-.01-.014L13.5,115.3l-.009-.012-.007-.01-.008-.011-.008-.012-.009-.012-.007-.009-.009-.013-.013-.019-.009-.013,0-.006-.011-.016-.006-.008-.01-.014,0-.007-.011-.015-.006-.009-.01-.014-.005-.008-.01-.014-.005-.008-.011-.015,0-.006-.011-.015-.006-.008-.01-.014-.006-.009-.009-.013-.007-.01-.009-.013-.006-.009-.009-.013-.007-.01-.009-.013-.007-.009-.009-.012-.007-.01-.009-.013-.006-.009-.009-.013-.007-.009-.009-.013-.006-.009-.009-.013-.007-.009-.009-.013-.006-.009-.009-.013-.006-.009-.01-.014-.005-.008-.01-.015-.005-.008-.01-.015,0-.007-.01-.014-.006-.008-.01-.014-.006-.008-.01-.014-.006-.008-.012-.017,0,0-.014-.02,0,0-.031-.045,0-.005-.012-.017,0-.006-.011-.017,0-.005-.012-.017,0-.007-.011-.016-.006-.008-.009-.014-.006-.008-.01-.014-.005-.008-.01-.015,0-.006-.011-.016-.005-.008-.01-.014-.006-.008-.01-.014-.006-.008-.01-.014-.006-.008-.01-.014-.006-.009-.01-.014-.006-.008-.01-.014-.006-.009-.009-.014-.006-.008-.009-.014-.007-.01-.009-.013-.006-.009-.009-.013-.006-.009-.009-.013-.006-.008-.009-.014-.006-.009-.009-.013-.006-.009-.01-.014-.006-.008-.011-.016,0-.006L12.6,114,12.589,114l-.01-.014-.005-.008-.01-.015-.005-.008-.026-.038-.012-.018-.008-.011-.007-.011-.008-.011-.008-.011-.008-.011-.008-.012-.007-.01-.008-.012-.007-.011-.007-.011-.008-.012-.007-.01-.009-.013-.006-.01-.008-.012-.007-.011-.008-.012-.007-.01-.008-.012-.007-.01-.009-.013-.006-.01-.008-.012-.007-.011-.008-.012-.007-.011-.008-.011-.007-.011-.008-.012-.007-.01-.008-.012-.007-.011-.008-.012-.007-.01-.008-.012-.007-.01-.008-.013-.007-.01-.008-.011-.008-.011-.008-.011-.007-.011-.008-.012-.007-.01-.009-.014-.006-.009-.009-.014-.006-.008-.011-.016,0-.006-.013-.019,0,0-.015-.022h0l-.045-.069,0,0-.013-.02,0-.006-.011-.017,0-.007-.011-.016,0-.006-.011-.017,0-.007-.01-.015-.006-.009-.008-.013-.007-.011-.008-.012-.006-.009-.009-.014-.006-.009-.009-.014-.006-.009L11.922,113l-.006-.009-.009-.014-.005-.008-.01-.015-.005-.008-.009-.014-.006-.009-.008-.013-.007-.011-.008-.013-.006-.009-.009-.014-.006-.01-.008-.012-.007-.01-.008-.012L11.8,112.8l-.008-.012-.006-.01-.009-.014-.006-.009-.009-.013-.006-.01-.008-.012-.008-.012-.008-.012-.006-.01-.01-.015-.005-.008-.01-.016,0-.007-.009-.014-.006-.009-.029-.045-.007-.01-.008-.012-.01-.016,0-.006-.009-.014-.006-.009L11.6,112.5l-.006-.01-.008-.012-.007-.01-.008-.012-.006-.01-.008-.012-.007-.011-.008-.013-.006-.009-.009-.014-.006-.009-.009-.014-.005-.008-.009-.014-.006-.01-.008-.012-.006-.01-.008-.013-.007-.01-.008-.012-.007-.011-.007-.012-.008-.012-.007-.011-.007-.011-.008-.012-.007-.01-.008-.013-.006-.01-.008-.013-.006-.01-.008-.013-.006-.009-.008-.013-.006-.01-.008-.013-.006-.01-.008-.013-.007-.01-.008-.012-.006-.009-.009-.014,0-.006L11.278,112h0l-.066-.105,0-.007-.009-.015,0-.008-.009-.014-.006-.009-.009-.014-.006-.009-.009-.014-.006-.009-.009-.014-.005-.008-.009-.014-.006-.009-.008-.013-.006-.01-.008-.012-.007-.011-.008-.013-.006-.01-.008-.013-.006-.01-.009-.014-.006-.009-.008-.014-.006-.009-.009-.015-.005-.008-.009-.014-.006-.01L11,111.551l-.007-.011-.007-.012-.007-.011-.008-.013-.006-.01-.008-.013-.007-.011-.008-.013-.007-.011-.007-.012-.006-.01-.009-.014,0-.007-.01-.016-.005-.008-.009-.015-.005-.008-.009-.015,0-.007-.08-.129h0l-.013-.02v0l-.01-.016-.005-.008-.009-.015,0-.007-.009-.015-.005-.008-.009-.014,0-.008-.009-.015-.005-.008-.01-.016,0-.006-.01-.017,0-.006-.01-.016,0-.007-.009-.015-.005-.009-.009-.015,0-.008-.01-.016,0-.007-.01-.016,0-.007-.01-.016,0-.007-.01-.017,0-.005-.011-.018,0-.006-.01-.017,0-.006-.01-.016-.005-.008-.009-.015,0-.007-.01-.016,0-.007-.01-.017,0-.005-.011-.018,0-.006-.011-.018h0l-.123-.2h0l-.013-.021v0l-.011-.018,0-.006-.01-.017,0-.005-.01-.017,0-.007-.01-.016,0-.007-.009-.015-.005-.009-.009-.014-.005-.008-.009-.015,0-.007-.01-.017,0-.006-.009-.016,0-.008-.009-.016,0-.007-.01-.016,0-.007-.01-.016,0-.007-.01-.016,0-.007-.01-.016,0-.006-.01-.017,0-.005-.011-.018,0,0-.01-.017,0-.008-.009-.016,0-.006-.01-.017,0,0-.025-.042,0,0-.079-.134h0l-.025-.043,0,0-.012-.02,0,0-.011-.019,0,0-.012-.02v0l-.011-.019,0-.006-.01-.018,0-.005-.01-.017,0-.006-.01-.017,0-.006-.01-.017,0-.007-.01-.017,0-.005-.01-.018,0-.006-.01-.017,0-.006-.01-.017,0-.007-.01-.017,0-.006-.01-.017,0-.006-.01-.018,0,0-.011-.019,0,0-.011-.02v0l-.012-.021v0l-.158-.276h0l-.012-.022v0l-.012-.02,0,0-.011-.02,0,0-.011-.019,0,0-.011-.019,0,0-.01-.018,0-.006-.01-.018,0,0-.01-.018,0-.005L9.42,108.9l0,0-.01-.018,0-.006-.01-.018,0-.005-.01-.018,0-.006-.01-.018,0,0-.01-.019,0,0-.011-.019v0l-.012-.021,0,0-.011-.02,0,0-.011-.02,0,0-.025-.044h0l-.128-.23v0l-.012-.022h0l-.012-.021,0,0-.011-.02,0,0-.01-.019,0-.005-.01-.019,0,0-.01-.019,0-.005-.01-.018,0-.005-.01-.018,0-.006-.01-.019,0,0-.011-.02,0,0L9,108.15l0,0-.011-.019,0,0-.011-.019,0,0-.011-.02,0,0-.011-.019,0,0-.011-.019,0,0-.011-.02h0l-.177-.326h0l-.011-.021,0,0-.011-.02,0,0-.011-.02,0,0-.011-.02,0,0-.01-.019,0-.005-.01-.019,0,0-.01-.019,0,0-.01-.019,0,0-.01-.018,0-.006-.01-.018,0,0-.01-.019,0,0L8.6,107.4l0,0-.011-.02,0-.005-.01-.019,0,0-.01-.019,0,0-.01-.019,0,0-.011-.02,0,0-.01-.019v0l-.011-.021v0l-.072-.136,0,0-.011-.02,0,0-.01-.02,0,0-.012-.022h0l-.01-.02,0,0-.01-.019,0,0-.01-.018,0-.006-.009-.017,0-.006-.009-.016,0-.008-.008-.016,0-.008-.008-.016,0-.008-.009-.016,0-.007-.009-.017,0-.008-.008-.016,0-.008-.009-.016,0-.008-.008-.016,0-.008-.008-.015-.005-.01-.007-.014-.005-.01-.008-.015,0-.009-.008-.015,0-.008-.009-.017,0-.007-.009-.017,0-.006-.009-.018,0-.006-.009-.017,0-.008-.008-.016,0-.007-.009-.017v0l-.06-.117h0l-.01-.019,0-.006-.008-.016,0-.009-.008-.016,0-.008-.008-.016,0-.008L8,106.27l0-.008-.008-.016,0-.008-.008-.017,0-.008-.008-.015,0-.009-.007-.014-.005-.01-.006-.013-.006-.012-.007-.013-.006-.011L7.92,106.1l-.006-.012-.007-.013-.005-.011-.007-.014-.005-.01-.007-.014-.005-.011-.007-.013L7.865,106l-.006-.012-.006-.012-.006-.011-.007-.013-.006-.012-.006-.012-.006-.012-.006-.013-.006-.012-.006-.012-.006-.012-.006-.012-.006-.012-.007-.015,0-.009-.009-.017,0-.007-.049-.1h0l-.024-.047,0-.007-.009-.018,0-.006-.009-.019,0,0-.01-.02,0,0-.01-.019,0-.007-.009-.018,0-.007-.009-.017,0-.008-.008-.017,0-.008-.008-.015,0-.01-.008-.015,0-.009-.008-.016,0-.008-.008-.017,0-.008-.008-.015,0-.009-.008-.016,0-.008-.009-.017,0-.007-.009-.018,0-.006-.009-.018,0-.007-.01-.019,0,0-.01-.021,0,0-.011-.022v0l-.011-.022v0l-.133-.273h0l-.011-.023v0l-.011-.023h0l-.012-.024h0l-.012-.024v0l-.011-.022,0,0-.01-.021v0l-.011-.022,0,0-.01-.021,0,0-.01-.021,0,0-.01-.021v0l-.011-.023v0l-.011-.024h0l-.012-.024h0A72.505,72.505,0,0,1,.489,81.5h0l0-.028h0l0-.029h0l0-.028h0l0-.027v0l0-.027h0l0-.028h0c-.015-.134-.03-.267-.044-.4v0l0-.027h0l0-.028v0l0-.027v0l0-.025v-.005l0-.023v-.005l0-.023v-.005l0-.024v0l0-.023V80.69l0-.023v-.005l0-.023v0l0-.023v-.005l0-.022v-.007l0-.021v-.008l0-.02v-.008l0-.02V80.49l0-.018v-.01l0-.018v-.01l0-.019V80.4l0-.02v-.008l0-.02v-.009l0-.023v0l-.014-.143v0l0-.023v-.01l0-.018v-.013l0-.016V80.08l0-.016v-.478l0-.019v-.008l0-.021v0l0-.023V79.5l0-.022v0l-.016-.187v-.007l0-.02v-.008l0-.02v-.008l0-.021V79.2l0-.021v-.007l0-.021v-.007l0-.022v-.007l0-.022v-.006l0-.022V79.06l0-.022v-.006l0-.022V79l0-.022v-.006l0-.023v-.005l0-.023v0l0-.024v0l0-.024v0l0-.024v0l0-.025v0Q.159,77.93.11,77.043a2.5,2.5,0,0,1,2.36-2.633C2.517,74.408,2.563,74.407,2.609,74.407ZM73,0c.8,0,1.6.013,2.395.039q.769.025,1.534.065l.384.021a72.559,72.559,0,0,1,30,8.426l.093.05.122.065.038.02.032.017,0,0,.09.048.169.092.043.023.019.01.191.1.189.1.231.128.04.022.1.055.128.072.124.07.031.017.106.06.05.029.157.09.03.017.129.074.005,0a73.041,73.041,0,0,1,6.271,4.06l.047.034.049.035.094.068.089.065.04.029.056.041.067.049a73.293,73.293,0,0,1,7.4,6.222q.541.52,1.072,1.05t1.05,1.072a73.294,73.294,0,0,1,6.222,7.4l.049.067.041.056.029.04.065.089.068.094.035.049.034.047a73.04,73.04,0,0,1,4.06,6.271l0,.005.074.129.017.03.09.157.029.05.06.106.017.031.07.124.072.128.055.1.022.04.128.231.1.189.1.191.01.019.023.043.092.169.048.09,0,0,.017.032.02.038.065.122.05.093a72.559,72.559,0,0,1,8.426,30c.007.126.015.258.021.384q.041.765.065,1.534c.026.8.039,1.593.039,2.395h0v.026s0,.006,0,.009v.02s0,0,0,.007,0,.016,0,.026,0,0,0,.007,0,.015,0,.02,0,.006,0,.009,0,.016,0,.026h0c0,.01,0,.016,0,.026s0,0,0,.007,0,.012,0,.022,0,0,0,0v.026s0,.005,0,.008v.02s0,0,0,.007,0,.016,0,.026,0,0,0,.006v.021s0,0,0,.007v.053s0,0,0,.007v.021s0,0,0,.006,0,.016,0,.026,0,0,0,.006v.02s0,.006,0,.009,0,.016,0,.023,0,0,0,0,0,.016,0,.026v.121h0c0,.01,0,.016,0,.026V73.7s0,0,0,.007,0,.015,0,.025v.008s0,.015,0,.019v.13s0,.01,0,.015v2.005l0,.054v.093l0,.054v0l0,.056v.03l0,.058h0c-.03.689-.07,1.378-.12,2.062a2.5,2.5,0,0,1-4.987-.367C140.94,76.318,141,74.65,141,73a67.659,67.659,0,0,0-11.61-38.016A68.213,68.213,0,0,0,99.467,10.342,67.57,67.57,0,0,0,73,5h0A68.24,68.24,0,0,0,55.74,7.208a2.5,2.5,0,0,1-1.265-4.837q.762-.2,1.531-.383h0l.1-.025h0l.033-.008h0l.1-.024h0l.034-.008h0l.07-.016h0L56.39,1.9h0l.033-.008h0l.069-.016h0l.032-.007h0l.069-.016h0l.031-.007h.006l.029-.007h0l.067-.015h0l.028-.006.007,0,.029-.007h0l.067-.015.007,0,.026-.006.008,0,.066-.015h0l.029-.006.008,0,.026-.006.008,0,.066-.015.007,0,.026-.006.009,0,.026-.006.007,0,.065-.014.01,0,.023-.005.01,0,.027-.006h.005l.033-.007h0l.028-.006.009,0,.024-.005.009,0,.029-.006h0l.032-.007.009,0,.022,0,.012,0,.022,0,.01,0,.032-.007h0l.031-.007.012,0,.021,0,.013,0,.022,0,.01,0,.031-.007.009,0,.023,0,.013,0,.019,0,.013,0,.022,0,.011,0,.03-.006.011,0,.021,0,.013,0,.02,0,.013,0,.024,0,.014,0,.024-.005.013,0,.02,0,.013,0,.019,0,.014,0,.03-.006.011,0,.022,0,.013,0,.019,0,.013,0,.021,0,.012,0,.031-.006.01,0,.021,0,.014,0,.019,0,.014,0,.02,0,.02,0,.022,0,.015,0,.017,0,.016,0,.017,0,.015,0,.021,0,.022,0,.018,0,.015,0,.016,0,.016,0,.017,0,.015,0,.028-.006.017,0,.015,0,.016,0,.016,0,.016,0,.015,0L58.8,1.38l.017,0,.017,0,.015,0,.017,0,.014,0,.018,0,.013,0,.034-.007.013,0,.019,0,.012,0,.019,0,.013,0,.019,0,.011,0,.035-.007.013,0,.018,0,.013,0,.018,0,.013,0,.028-.005.018,0,.018,0,.013,0,.019,0,.012,0,.019,0,.012,0,.035-.007.012,0,.019,0,.012,0,.019,0,.013,0,.019,0h.007l.042-.008.009,0,.02,0,.011,0,.021,0,.009,0,.068-.013.013,0,.019,0,.012,0,.02,0,.009,0,.044-.008h.006l.022,0,.009,0,.021,0,.01,0,.022,0h0l.047-.009.009,0,.021,0,.011,0,.02,0,.01,0,.069-.012.01,0,.02,0,.011,0,.02,0,.01,0,.07-.012.009,0,.021,0,.011,0,.021,0h0l.049-.009h0l.021,0,.01,0,.021,0,.009,0,.073-.013h.007l.022,0h.009l.022,0h.007l.073-.013h.008l.022,0,.009,0,.022,0h0l.077-.013H60.7l.022,0h.008l.075-.013h.005l.023,0h.008l.022,0h.009l.073-.012h.007l.022,0,.01,0,.021,0h.007l.074-.012h.008l.023,0h.007L61.2.948h0l.024,0h.006l.024,0h0l.077-.012h.006l.023,0h.008l.023,0h.005L61.481.9h.008l.022,0h.008l.023,0h0L61.6.885h0l.023,0h.008l.022,0h.009l.074-.012h.006l.022,0,.01,0,.022,0H61.8l.073-.011.01,0,.021,0,.01,0,.022,0h.006l.049-.007h0l.023,0h.008l.022,0h.008L62.133.8h.006l.022,0h.01l.022,0H62.2l.075-.011h.006l.023,0h.008l.023,0h.006l.077-.011h.006l.023,0h.008l.077-.011h0l.023,0h.009l.022,0H62.6l.074-.011h.007l.031,0,.023,0h.006l.075-.01.031,0,.032,0h0l.078-.011h.007l.024,0h.007l.077-.01.028,0,.031,0h.008l.074-.01.03,0,.032,0h0l.077-.01h.008l.023,0h.007l.077-.01.029,0,.031,0h.007L63.611.6l.03,0,.032,0h.006L63.753.58h.01l.022,0,.031,0h.005l.048-.006.028,0,.031,0h.01L64.01.548l.03,0,.032,0h.009l.072-.009.031,0,.032,0h.007L64.27.517l.026,0h.011l.021,0h.011L64.411.5l.03,0,.032,0h.01l.072-.008.031,0,.031,0h.011l.042,0,.028,0h.011l.021,0,.032,0h.008l.041,0,.03,0,.033,0,.032,0h0l.047-.005.032,0,.033,0h.012l.034,0,.033,0,.014,0,.019,0,.033,0h.012l.035,0,.032,0h.013l.019,0,.032,0h.009l.038,0,.032,0,.032,0,.044,0,.034,0,.033,0,.016,0,.017,0,.046,0,.015,0,.018,0,.015,0,.018,0,.032,0h.013l.035,0,.032,0H65.8l.019,0h.014L65.9.341l.032,0,.032,0,.048,0,.033,0h.014l.019,0,.032,0,.048,0,.032,0,.032,0h.015l.018,0L66.3.3l.033,0h.016l.017,0,.041,0,.038,0,.034,0h.033l.045,0,.017,0h.016l.033,0h.033l.047,0,.033,0,.033,0,.04,0,.039,0,.033,0h.033l.019,0,.024,0,.019,0H67l.033,0h.034l.044,0h.035l.033,0,.033,0,.046,0,.034,0h.033l.041,0,.037,0,.034,0,.033,0,.043,0,.021,0h.015l.034,0,.033,0,.028,0h.018l.033,0,.033,0,.033,0,.046,0,.033,0h.055l.023,0h.036l.033,0,.033,0,.045,0,.035,0,.033,0,.034,0,.046,0,.034,0h.07l.041,0,.034,0,.033,0,.046,0h.035l.033,0,.033,0,.046,0,.034,0,.034,0,.034,0,.045,0,.034,0,.034,0h.079l.034,0,.034,0,.041,0,.037,0,.034,0h.033l.032,0,.034,0,.035,0h.011l.037,0,.03,0h.012l.035,0,.034,0,.032,0h.047l.034,0h.034l.044,0,.036,0h.034l.033,0,.045,0,.035,0h.034l.04,0H73Z" transform="translate(17 17)" fill="#fff"/>
    <path id="Caminho_1532" data-name="Caminho 1532" d="M100.6,135.392a2.5,2.5,0,0,1,.981,4.8q-.842.359-1.694.7h0l-.035.014h0l-.071.028h0l-.069.027-.006,0-.029.012,0,0-.033.013-.007,0L99.6,141l-.01,0-.029.011-.006,0-.028.011-.012,0-.021.008-.012,0-.029.011-.013,0-.019.007-.015.006-.019.007-.022.009-.018.007-.017.007-.013.005-.065.025-.009,0-.021.008,0,0-.046.018h0l-.023.009-.007,0-.072.028h0c-.714.273-1.429.534-2.154.785a2.5,2.5,0,0,1-1.632-4.726c1.459-.506,2.92-1.069,4.342-1.675A2.491,2.491,0,0,1,100.6,135.392Z" transform="translate(17 17)" fill="#fff"/>
    <path id="Caminho_1532-2" data-name="Caminho 1532" d="M5.965,0A2.5,2.5,0,0,1,7.645,4.353C6.5,5.391,5.374,6.482,4.3,7.6A2.5,2.5,0,0,1,.7,4.128Q2.257,2.511,3.912.99h0L3.969.938l0,0L4,.912l0,0L4.026.885l0,0,.021-.02L4.059.855,4.084.832,4.089.827l.02-.018L4.118.8,4.137.784l.011-.01.02-.018L4.179.746,4.192.734,4.2.723,4.222.707,4.241.69,4.248.683l.04-.037A2.49,2.49,0,0,1,5.965,0Z" transform="translate(59.119 21.187) rotate(17)" fill="#fff"/>
    <path id="Elipse_156" data-name="Elipse 156" d="M55.5,0h2.954l.054,0h.144l.047,0h.152l.05,0h.145l.054,0h.147l.05,0h.147l.052,0h.127L59.7.156h0l.021,0,.021,0h.019l.02,0,.021,0h.02l.073.006h0l.021,0,.021,0h.021l.021,0,.02,0,.019,0,.071.006h0l.02,0,.021,0h.02l.021,0,.02,0h.017L60.291.2h0l.021,0,.02,0h.02l.02,0,.017,0h0l.1.009h0l.02,0,.021,0,.02,0,.021,0,.019,0,.017,0h0l.078.007h0l.018,0h0l.017,0h0l.017,0h0l.02,0L60.9.26h0l.021,0,.017,0h0l.017,0h0l.156.015h0l.2.02h0A55.168,55.168,0,0,1,75.073,3.55a2.5,2.5,0,0,1-1.764,4.679A50.309,50.309,0,0,0,55.5,5a2.5,2.5,0,0,1,0-5ZM86.265,96.16a2.5,2.5,0,0,1,1.46,4.531,55.245,55.245,0,0,1-18.011,8.472,2.5,2.5,0,0,1-1.271-4.836,50.1,50.1,0,0,0,16.371-7.7A2.488,2.488,0,0,1,86.265,96.16ZM14.7,19.167a2.5,2.5,0,0,1,1.922,4.1A50.242,50.242,0,0,0,7.745,39.032,2.5,2.5,0,1,1,3.018,37.4,55.415,55.415,0,0,1,12.779,20.07,2.494,2.494,0,0,1,14.7,19.167Z" transform="translate(35 35)" fill="#fff"/>
    <path id="Elipse_157" data-name="Elipse 157" d="M17.226,0h1.255l.091,0h.088l.068,0h.066l.111,0h.045q1.652.05,3.279.2a2.5,2.5,0,0,1-.451,4.98c-1.5-.134-3.033-.2-4.55-.2a2.5,2.5,0,1,1,0-5ZM2.5,103.928a2.5,2.5,0,0,1,.694.1c1.45.418,2.936.775,4.42,1.061A2.5,2.5,0,0,1,6.668,110h0l-.017,0h0q-2.461-.475-4.841-1.163a2.5,2.5,0,0,1,.692-4.9Z" transform="matrix(0.966, -0.259, 0.259, 0.966, 59.493, 41.35)" fill="#fff"/>
    <path id="Elipse_155" data-name="Elipse 155" d="M39,5.2A33.81,33.81,0,0,0,25.845,70.146,33.81,33.81,0,0,0,52.155,7.854,33.583,33.583,0,0,0,39,5.2M39,0A39,39,0,1,1,0,39,39,39,0,0,1,39,0Z" transform="translate(51 51.001)" fill="#fff"/>
  </g>
  <g id="logo-canarinhos" transform="translate(76 71)">
    <path id="Unio_8" data-name="Unio 8" d="M2.568,37.773A3.651,3.651,0,0,1,.043,34.6a3.27,3.27,0,0,1,1.516-3.294,4.32,4.32,0,0,1,3.419-.751,11.407,11.407,0,0,1,1.53.366v-12.6l3.3-.839L7.538,7.76,5.986,7.486,7.41,4.31,3.758.063,6.144.033S10.007,0,11.941,0a3.6,3.6,0,0,1,3.208,1.657q6.38,9.728,12.761,19.456c.023.036.09.163.09.163s-.861.676-1.263,1c.035.3.076.5.133.991H22.72l0,7.659c0,2.615-1.8,3.9-3.884,4.193a3.781,3.781,0,0,1-2.693-.636,3.6,3.6,0,0,1-1.671-3.84,3.852,3.852,0,0,1,3.21-2.9,7.149,7.149,0,0,1,1.409,0c.457.038.908.148,1.492.249V21.452C16.364,22.2,8.4,23.666,8.4,23.666v9.874A4.424,4.424,0,0,1,3.96,38,4.371,4.371,0,0,1,2.568,37.773ZM22.716,21.3h3.377c-1.1-1.693-2.2-3.326-3.377-5.141ZM6.875,1.469c.916,1.1,1.751,2.033,2.508,2.942L8.317,6.964l1.241.443,2.14,9.765,10.414-2.018c-.314-.515-.544-.921-.8-1.309-1.022-1.55-2.059-3.091-3.078-4.643-1.31-2-2.607-4-3.913-6-.5-.765-1.03-1.6-2-1.654-1.293-.069-2.651-.077-4.093-.077Zm3.77,2.736A1.134,1.134,0,1,1,11.779,5.36,1.144,1.144,0,0,1,10.645,4.205Z" transform="translate(0 0)" fill="#fff" stroke="rgba(0,0,0,0)" stroke-width="1"/>
  </g>
</svg>
