<svg xmlns="http://www.w3.org/2000/svg" width="156.471" height="190.363" viewBox="0 0 156.471 190.363">
  <g id="telefone" transform="translate(0 40.326) rotate(-30)">
    <path id="Caminho_1523" data-name="Caminho 1523" d="M48.344,173.248c-1.481-.81-3.182-.832-4.758-1.323a32.151,32.151,0,0,1-14.065-8.976A107,107,0,0,1,5.43,122.543,109.652,109.652,0,0,1,.636,99.793c-2.055-19.826.939-38.945,8.012-57.5a69.869,69.869,0,0,1,7.328-13.456A3.421,3.421,0,0,1,20.8,27.548c1.629,1.006,2.034,2.953.913,4.9-2.019,3.507-4.433,6.793-5.974,10.564a119.856,119.856,0,0,0-8.383,33.77A108.44,108.44,0,0,0,8.1,104.426,99.186,99.186,0,0,0,35.34,159.131a23.667,23.667,0,0,0,26.444,5.391c1.356-.572,1.522-.888.6-2.113-8.982-11.993-17.5-24.315-25.9-36.723-3.958-5.847-6.132-12.369-7.758-19.1C23.23,83.779,27.443,62.5,39.049,42.423A270.445,270.445,0,0,1,61.812,9.738c.24-.3.468-.614.813-1.068C54.4,5.6,46.774,6.372,39.6,11.232c-.792.536-1.513,1.177-2.314,1.7a3.307,3.307,0,0,1-4.665-.614A3.414,3.414,0,0,1,33.281,7.5a29.7,29.7,0,0,1,8.131-5.073A30.647,30.647,0,0,1,78.185,12.668c3.128,4.26,3.354,9.248.258,13.5Q66.962,41.957,55.268,57.586c-2.26,3.038-5.331,3.944-8.994,2.931a32.018,32.018,0,0,1-6.323-2.3c-.728-.379-1.025-.216-1.32.539a76.155,76.155,0,0,0-5.313,32.739,78.906,78.906,0,0,0,4.726,22.375c.444,1.214.867,1.235,1.878.748,3.367-1.623,6.827-2.631,10.582-1.3a12.323,12.323,0,0,1,6.008,4.707c6.664,9.359,13.305,18.734,20.044,28.039a13.375,13.375,0,0,1-1.1,16.895c-5.258,5.494-11.425,9.031-19.011,9.987-.118.015-.214.2-.321.308Zm25.4-153.7a3.978,3.978,0,0,0-.916-2.7,30.279,30.279,0,0,0-3.076-3.58c-.9-.942-1.4-.888-2.179.154-3.5,4.7-7.151,9.273-10.589,14.01a188.926,188.926,0,0,0-14.428,22.8c-.543,1.031-.662,1.548.63,2.049,1.575.611,3.161,1.145,4.773,1.642A1.68,1.68,0,0,0,50.1,53.2q11.311-15.368,22.65-30.717A4.317,4.317,0,0,0,73.744,19.547Zm-1.38,135.019a7.8,7.8,0,0,0-1.47-4.718q-9.65-13.466-19.264-26.956c-2.649-3.707-4.316-4.135-8.459-2.38-1.179.5-1.345.866-.586,2q9.661,14.384,19.808,28.428,2.93,4.035,5.917,8.03c.248.333.463,1.134,1.1.427C70.828,157.811,72.5,156.344,72.364,154.566Z" fill="#fff"/>
    <path id="Caminho_1524" data-name="Caminho 1524" d="M3.455,6.99A3.431,3.431,0,0,1,0,3.644,3.619,3.619,0,0,1,3.418,0,3.548,3.548,0,0,1,6.842,3.282,3.661,3.661,0,0,1,3.455,6.99Z" transform="translate(23.5 16.604)" fill="#fff"/>
  </g>
</svg>
