<svg id="pin-location" xmlns="http://www.w3.org/2000/svg" width="102.327" height="151.811" viewBox="0 0 102.327 151.811">
  <path id="Caminho_1519" data-name="Caminho 1519" d="M704.951,509.8c2.185.62,4.466.717,6.665,1.308,18.34,4.931,30.734,16.372,36.7,34.336,4.073,12.269,3.171,24.516-2.109,36.382a59.77,59.77,0,0,1-5.259,9.081q-19.061,28.231-38.071,56.494c-.248.369-.487.747-.769,1.088a3.05,3.05,0,0,1-4.966-.008c-.913-1.162-1.708-2.419-2.535-3.647q-18.911-28.063-37.8-56.142a48.349,48.349,0,0,1-7.961-22.214,51.161,51.161,0,0,1,43.13-56.2c.776-.12,1.54-.317,2.309-.479Zm-5.45,6.11c-1.976.318-4.1.146-6.215.474a44.905,44.905,0,0,0-38.4,46.9,41.692,41.692,0,0,0,6.839,21.457c12.007,18.036,24.18,35.962,36.288,53.931,1.6,2.37,1.606,2.371,3.194.014q17.782-26.406,35.56-52.814a43.429,43.429,0,0,0,6.761-34.029C739.265,530.859,721.157,516.1,699.5,515.908Z" transform="translate(-648.531 -509.798)" fill="#fff"/>
  <path id="Caminho_1520" data-name="Caminho 1520" d="M720.256,902.311H754.3c.542,0,1.086-.012,1.628.014a3.061,3.061,0,1,1-.057,6.115c-4.094.04-8.19.017-12.285.017H686.3c-.543,0-1.087.016-1.628-.015a3.126,3.126,0,0,1-3.053-3.016,3.059,3.059,0,0,1,2.962-3.09c.54-.039,1.085-.024,1.627-.024Z" transform="translate(-669.343 -756.654)" fill="#fff"/>
  <path id="Caminho_1521" data-name="Caminho 1521" d="M746.561,581.923a23.488,23.488,0,0,1,12,3.724c1.912,1.2,2.369,3.395,1.051,4.912-1.011,1.163-2.391,1.394-4.027.517a24.153,24.153,0,0,0-6.275-2.562A17.628,17.628,0,1,0,763.37,606.3c.107-2.364,1.41-3.731,3.4-3.568,1.889.155,2.87,1.705,2.808,3.966a23.907,23.907,0,1,1-27.148-24.617A15.572,15.572,0,0,1,746.561,581.923Z" transform="translate(-694.604 -555.107)" fill="#fff"/>
  <path id="Caminho_1522" data-name="Caminho 1522" d="M830.5,617.864a3.052,3.052,0,1,1,3.145-3.028A2.993,2.993,0,0,1,830.5,617.864Z" transform="translate(-761.073 -573.925)" fill="#fff"/>
</svg>
