<svg xmlns="http://www.w3.org/2000/svg" width="23.5" height="24.5" viewBox="0 0 23.5 24.5">
  <g id="compartilhar" transform="translate(-2.75 -1.709)">
    <path id="Caminho_1994" data-name="Caminho 1994" d="M29.5,6.5A3.5,3.5,0,1,1,26,3a3.5,3.5,0,0,1,3.5,3.5Z" transform="translate(-4 -0.541)" fill="none" stroke="#FFF" stroke-linecap="round" stroke-linejoin="round" stroke-width="1.5"/>
    <path id="Caminho_1995" data-name="Caminho 1995" d="M11.5,17A3.5,3.5,0,1,1,8,13.5,3.5,3.5,0,0,1,11.5,17Z" transform="translate(-1 -3.042)" fill="none" stroke="#FFF" stroke-linecap="round" stroke-linejoin="round" stroke-width="1.5"/>
    <path id="Caminho_1996" data-name="Caminho 1996" d="M29.5,27.5A3.5,3.5,0,1,1,26,24,3.5,3.5,0,0,1,29.5,27.5Z" transform="translate(-4 -5.541)" fill="none" stroke="#FFF" stroke-linecap="round" stroke-linejoin="round" stroke-width="1.5"/>
    <path id="União_34" data-name="União 34" d="M8393.5,19558.465l7.826,5Zm7.816-8-7.816,4.988Z" transform="translate(-8382.998 -19543.002)" fill="none" stroke="#FFF" stroke-linecap="round" stroke-linejoin="round" stroke-width="1.5"/>
  </g>
</svg>
