<svg xmlns="http://www.w3.org/2000/svg" width="43" height="40" viewBox="0 0 43 40">
  <g id="youtube" transform="translate(-373.499 -2958)">
    <rect id="moldura" width="40" height="40" transform="translate(375 2958)" fill="none" opacity="0"/>
    <path id="youtube-2" data-name="youtube" d="M40.214,9.194a5.207,5.207,0,0,0-3.536-3.8c-3.119-.9-15.628-.9-15.628-.9s-12.508,0-15.628.9a5.207,5.207,0,0,0-3.536,3.8C1.05,12.543,1.05,19.53,1.05,19.53s0,6.987.836,10.336A5.123,5.123,0,0,0,5.422,33.6c3.119.9,15.628.9,15.628.9s12.508,0,15.628-.9a5.123,5.123,0,0,0,3.536-3.736c.836-3.349.836-10.336.836-10.336s0-6.987-.836-10.336ZM16.959,25.874V13.186L27.414,19.53,16.959,25.874Z" transform="translate(373.949 2958.5)" fill="none" stroke="#FFF" stroke-linecap="round" stroke-linejoin="round" stroke-width="3"/>
  </g>
</svg>
