<svg xmlns="http://www.w3.org/2000/svg" width="200" height="175" viewBox="0 0 200 175.523">
  <g id="ilustração" transform="translate(21 6.774)">
    <rect id="Retângulo_3715" data-name="Retângulo 3715" width="200" height="170" transform="translate(-21 -4)" fill="none"/>
    <g id="passarinho" transform="translate(117.526 48.863)">
      <path id="Caminho_1853" data-name="Caminho 1853" d="M102.476,67.464s.827,34.662-30.283,46.941c-25.424,10.037-47.6,4.309-63.313-5.728-14.523-9.28-3.193-19.1-3.193-19.1l5.716-6.72,63.12-74.21s10.962,6.828,15.9,15.831" transform="translate(-130.004 -15.787)" fill="none" stroke="#fff" stroke-linecap="round" stroke-linejoin="round" stroke-width="5.5"/>
      <path id="Caminho_1854" data-name="Caminho 1854" d="M13.488,15.35" transform="translate(-69.545 -26.896)" fill="none" stroke="#fff" stroke-linecap="round" stroke-linejoin="round" stroke-width="5.5"/>
      <path id="Caminho_1855" data-name="Caminho 1855" d="M0,35.279S47.683,61.984,62,0" transform="matrix(0.998, 0.07, -0.07, 0.998, -118.666, 36.941)" fill="none" stroke="#fff" stroke-linecap="round" stroke-linejoin="round" stroke-width="5.5"/>
      <path id="Caminho_1856" data-name="Caminho 1856" d="M21.844,32.12a32.56,32.56,0,0,1-12-5" transform="translate(-76.37 76.746)" fill="none" stroke="#fff" stroke-linecap="round" stroke-width="5.5"/>
      <path id="Caminho_1857" data-name="Caminho 1857" d="M6.479,25.294,1.9,35.236s-2.171,5.028,1.866,8c4.988,3.683,13.551-3.472,13.551-3.472" transform="translate(-123.848 72.57)" fill="none" stroke="#fff" stroke-linecap="round" stroke-linejoin="round" stroke-width="5.5"/>
      <path id="Caminho_1858" data-name="Caminho 1858" d="M30.436,15.148s-6.979-1.119-11-4.362v19" transform="translate(-49.962 4.229)" fill="none" stroke="#fff" stroke-linecap="round" stroke-linejoin="round" stroke-width="5.5"/>
      <path id="Caminho_1859" data-name="Caminho 1859" d="M36.093,9.681s-7.245-9-14,0" transform="translate(-25.619 -31.545)" fill="none" stroke="#fff" stroke-linecap="round" stroke-linejoin="round" stroke-width="5.5"/>
      <path id="Caminho_1860" data-name="Caminho 1860" d="M13.595,46.358s-1.366-28.4,19.262-39.4,40.3-5.7,53.279,8.97,9.02,36.953,3.965,51.082l11.475,29.078" transform="translate(-69.102 -53.951)" fill="none" stroke="#fff" stroke-linecap="round" stroke-linejoin="round" stroke-width="5.5"/>
      <path id="Caminho_1861" data-name="Caminho 1861" d="M26.679,4.952s11.259,2.819,13.508,9.635-3.963,8.365-3.963,8.365" transform="translate(-1.205 -29.813)" fill="none" stroke="#fff" stroke-linecap="round" stroke-linejoin="round" stroke-width="5.5"/>
      <path id="Caminho_1862" data-name="Caminho 1862" d="M21,81.277v-46.9c0-8.863,7.385-9.763,7.385-9.763S62.331,16.9,69.716,17.292s6.22,8.863,6.22,8.863V69.97" transform="translate(-25.529 24.86)" fill="none" stroke="#fff" stroke-linecap="round" stroke-linejoin="round" stroke-width="5.5"/>
      <line id="Linha_586" data-name="Linha 586" y1="8" x2="37" transform="translate(-4.526 60.219)" fill="none" stroke="#fff" stroke-linecap="round" stroke-linejoin="round" stroke-width="5.5"/>
      <path id="Caminho_1863" data-name="Caminho 1863" d="M28.421,17.041a6,6,0,1,1-10.507-3.975" transform="translate(-58.947 17.929)" fill="none" stroke="#fff" stroke-linecap="round" stroke-linejoin="round" stroke-width="5.5"/>
      <path id="Caminho_1864" data-name="Caminho 1864" d="M41.987,35.625a12,12,0,1,1-21.008-7.95" transform="translate(-46.513 69.461)" fill="none" stroke="#fff" stroke-linecap="round" stroke-linejoin="round" stroke-width="5.5"/>
      <path id="Caminho_1865" data-name="Caminho 1865" d="M51.625,33.47a12,12,0,1,1-21.008-7.95" transform="translate(-1.151 61.617)" fill="none" stroke="#fff" stroke-linecap="round" stroke-linejoin="round" stroke-width="5.5"/>
    </g>
  </g>
</svg>
