<svg xmlns="http://www.w3.org/2000/svg" width="170" height="170" viewBox="0 0 83 83">
  <path id="piano" d="M23.664,0a44.516,44.516,0,0,1,4.723,1.036A21.209,21.209,0,0,1,41.975,13.573,34.6,34.6,0,0,0,55.463,29.924a34.026,34.026,0,0,0,16.174,5.42A12.3,12.3,0,0,1,82.989,47.364c.02,2.025.01,4.052,0,6.079,0,1.011-.546,1.66-1.371,1.66s-1.383-.637-1.386-1.644c-.008-1.919,0-3.837,0-5.756A9.657,9.657,0,0,0,71.2,38.06c-14.664-1.554-25.248-8.993-31.315-22.488-2.07-4.607-4.845-8.392-9.39-10.716A19.056,19.056,0,0,0,2.973,18.776a19.539,19.539,0,0,0-.206,3.068q-.02,17.023-.008,34.044c0,2.186,1.089,3.261,3.3,3.265H9.13c.017-.345.04-.634.041-.925,0-1.565-.035-3.134.02-4.7a4.109,4.109,0,0,1,4.173-4.076h.405q27.92,0,55.84.008a5.925,5.925,0,0,1,1.753.236,4.208,4.208,0,0,1,2.822,4.509,1.409,1.409,0,0,1-1.364,1.346,1.391,1.391,0,0,1-1.384-1.4c-.153-1.668-.443-1.937-2.1-1.937H13.972c-1.66,0-2.032.379-2.033,2.059v4.879H76.414c1.041.027,1.554.511,1.555,1.542.008,6.079.02,12.159,0,18.237A4.106,4.106,0,0,1,73.952,83H9.513a4.176,4.176,0,0,1-4.4-3.285,2.989,2.989,0,0,1-.083-.641q-.01-6.038,0-12.077a1.331,1.331,0,0,1,1.009-1.391,1.2,1.2,0,0,1,1.474.546,2.349,2.349,0,0,1,.264,1.15c.018,3.621.01,7.242.01,10.862v.566a1.373,1.373,0,0,0,1.451,1.494c2.35.02,4.7,0,7.051,0a1.411,1.411,0,0,0,.3-.091c0-1.712.012-3.433-.017-5.156a.7.7,0,0,0-.4-.48A4.257,4.257,0,0,1,13.3,70.083c.025-2.4,0-4.814,0-7.213v-.946H7.486A17.675,17.675,0,0,1,4.9,61.857,5.456,5.456,0,0,1,.166,57.68c-.045-.153-.106-.3-.166-.45V19.779c.048-.206.111-.408.143-.618C1.542,9.811,6.826,3.76,15.769.868A37.523,37.523,0,0,1,19.936,0ZM66.925,61.983H54.632V74.523c0,1.106-.717,1.751-1.66,1.551-.734-.154-1.089-.681-1.089-1.66V61.973H39.6c0,2.8-.01,5.553,0,8.3,0,1.205.549,1.672,1.869,1.677,1.389,0,1.935-.453,1.954-1.677s0-2.432,0-3.652c0-1.061.483-1.66,1.328-1.682.881-.027,1.426.6,1.434,1.675q.015,1.826,0,3.652a4.179,4.179,0,0,1-2.814,4.21c-.186.075-.448.294-.452.45-.032,1.745-.02,3.486-.02,5.276H63.584v-5.55l-.506-.209A4.051,4.051,0,0,1,60.347,70.6c-.061-1.456-.03-2.917,0-4.376a1.383,1.383,0,0,1,1.4-1.542c.832.007,1.341.576,1.353,1.572.015,1.3,0,2.595,0,3.891.008,1.345.5,1.811,1.9,1.813s1.919-.46,1.927-1.785V65.793ZM40.1,80.221c0-1.795.015-3.518-.022-5.239,0-.178-.279-.427-.481-.51a4.167,4.167,0,0,1-2.782-4.15c-.013-1.459,0-2.917,0-4.376V61.961H31.124V75.194a1.414,1.414,0,0,1-1.434,1.6c-.8-.037-1.32-.654-1.328-1.625q-.01-6.159,0-12.317v-.891H16.1c-.015.221-.04.4-.04.586,0,2.567-.008,5.131,0,7.7,0,1.247.539,1.708,1.919,1.708s1.889-.455,1.9-1.725,0-2.538,0-3.808c0-1.049.5-1.66,1.328-1.693.853-.028,1.421.631,1.431,1.7.012,1.243,0,2.49,0,3.729a4.231,4.231,0,0,1-2.855,4.345c-.166.066-.42.251-.422.383-.028,1.773-.018,3.546-.018,5.342ZM69.689,61.95V70.21a4.2,4.2,0,0,1-2.822,4.278c-.183.073-.43.3-.433.458-.032,1.743-.02,3.486-.02,5.3h6.972c1.373,0,1.826-.465,1.826-1.863V62.75c0-.261-.022-.521-.035-.8Z" fill="#FFF"/>
</svg>
