<svg xmlns="http://www.w3.org/2000/svg" width="170" height="170" viewBox="0 0 170 170">
  <path id="Caminho_1613" data-name="Caminho 1613" d="M4269.5,22399.836c-3.12-.646-6.353-.973-9.354-1.994-20.2-6.887-33.427-20.537-38.093-41.488-3.305-14.848,1.282-27.834,11.766-38.717a5.827,5.827,0,0,1,3.6-1.176,36.685,36.685,0,0,0,21.84-8.5c5.706-4.744,10-10.494,11.311-17.982a21.028,21.028,0,0,0-.112-6.393,3.906,3.906,0,0,1,1.287-3.986c1.636-1.377,3.227-2.811,4.964-4.334-4.351-4.322-8.663-8.6-12.969-12.885-3.407-3.4-6.791-6.8-10.22-10.2-2.536-2.52-4.706-2.469-7.292.051-1.259,1.23-2.586,2.383-4.087,3.771,1.827,1.736,3.384,3.221,4.913,4.723,4.087,4.053,8.129,8.129,12.194,12.188a2.757,2.757,0,0,1,.607,3.6,2.56,2.56,0,0,1-3.12,1.266,4.035,4.035,0,0,1-1.642-1.047q-12.564-12.513-25.1-25.084c-1.433-1.439-1.535-3.035-.371-4.256s2.917-1.174,4.374.287,2.794,2.963,4.368,4.65c1.535-1.609,2.788-3,4.115-4.33,4.486-4.475,10.355-4.508,14.836-.051q11.519,11.461,22.976,22.982a10.59,10.59,0,0,1,1.045,1.445,48.88,48.88,0,0,1,34.967-5.145c2.159.473,3.25,1.8,2.878,3.508s-1.855,2.541-4.053,2.041a43.1,43.1,0,0,0-19.878.039,41.706,41.706,0,0,0-18.119,9.557,2.1,2.1,0,0,0-.742,1.473c.911,9.107-2.6,16.686-8.343,23.342a41.3,41.3,0,0,1-29.339,14.756,3.962,3.962,0,0,0-2.946,1.834c-8.6,10.541-11.367,22.553-7.185,35.428,5.863,18.023,18.214,29.816,36.861,34.072,12.008,2.721,22.824-.6,32.263-8.5,1.1-.922,1.164-1.99,1.31-3.209,1.939-16.545,10.226-28.514,25.59-35.311a24.249,24.249,0,0,1,12.176-1.793,2.3,2.3,0,0,0,1.687-.59c11.7-12.283,14.156-34.467,5.47-49.156a7.756,7.756,0,0,0-.613-.686,8.571,8.571,0,0,1-.979,1.563q-8.82,9.226-17.691,18.416c-5.059,5.25-10.709,5.285-15.887.119-.821-.822-1.647-1.631-2.462-2.463-4.48-4.582-4.424-10.518.2-14.959q17.194-16.444,34.421-32.854c5.239-4.992,10.468-9.99,15.955-15.229-1.276-1.17-2.53-2.244-3.694-3.4-1.456-1.449-1.518-3.176-.253-4.367s2.777-1.057,4.245.4c1.169,1.164,2.282,2.379,3.542,3.738l6.308-6.037c-1.208-1.176-2.384-2.26-3.48-3.379-2.445-2.445-1.422-3.8-.4-4.822a2.678,2.678,0,0,1,3.744,0c1.664,1.658,2.423,2.586,4.25,4.209,5.267-4.592,10.141-4.816,14.453-1.057,4.767,4.172,6.5,10.457.68,16.186,1.737,1.73,2.76,2.748,4.121,4.109a2.7,2.7,0,0,1-.343,3.738c-1.36,1.361-3.4,1.018-4.694-.562-1.023-1.023-2.383-2.383-3.137-3.176-2.237,2.041-3.75,4.076-5.773,6.184,1.36,1.287,2.266,2.383,3.407,3.564a2.739,2.739,0,0,1,.112,4.121,2.774,2.774,0,0,1-4.132-.191c-1.141-1.1-2.1-2-3.5-3.48-.68.68-.989,1.023-1.439,1.49q-5.9,6.182-11.828,12.322c-1.529,1.586-3.244,1.793-4.492.6s-1.141-2.883.4-4.492q13.728-14.282,27.456-28.562c2.974-3.1,1.793-7.455-2.367-8.674-1.8-.529-3.17.246-4.452,1.479q-12.5,12.006-25.05,23.947-19.775,18.873-39.577,37.75c-.478.455-1.141.871-1.344,1.439-.41,1.141-1.1,2.6-.714,3.529a12.766,12.766,0,0,0,6.813,6.836c1.76.771,3.272-.314,4.525-1.629q8.728-9.1,17.461-18.17c1.366-1.434,2.76-2.867,4.166-4.277,1.777-1.777,3.547-1.609,4.925.5a48.727,48.727,0,0,1,8.05,28.221,47.186,47.186,0,0,1-5.532,21.277,1.677,1.677,0,0,0,.365,2.385c7.415,7.346,14.617,14.93,22.223,22.076,5.729,5.385,5.678,12.238,0,17.033-1.051.895-2.018,1.883-3.216,3.014,1.6,1.557,3.07,2.951,4.492,4.391s1.6,3.152.388,4.379-2.861,1.129-4.374-.377q-14.605-14.581-29.188-29.187c-1.49-1.5-1.546-3.16-.264-4.379,1.226-1.158,2.811-1.047,4.255.387,1.833,1.828,3.609,3.705,5.324,5.465l7.342-7.32-11.316-11.293c-1.31,1.5-2.7,3.3-4.34,4.846a3.745,3.745,0,0,1-2.873,1.084c-5.447-1.23-10.473,0-15.111,2.723-11.03,6.52-17.27,16.24-18.344,29.008a9.437,9.437,0,0,1-3.671,7.117c-6.813,5.633-14.543,9.4-23.38,10.377-.31.033-.641.1-.854.117q-1.822.164-3.648.166T4269.5,22399.836Zm84.516-32.42,10.912,10.969c1.568-1.562,3.154-3.014,4.587-4.605,1.366-1.506,1.658-3.625.343-5-2.867-3-5.993-5.764-8.792-8.41Zm-85.579-.518c-2.165-1.838-4.087-3.979-6.1-5.969q-3.483-3.492-6.949-6.971c-1.411-1.43-1.535-3.1-.359-4.268s2.8-1.062,4.25.383q6.341,6.308,12.643,12.688a14.817,14.817,0,0,1,1.6,2.451c-.753.877-1.271,2.018-2.035,2.227a3.451,3.451,0,0,1-.893.107A3.506,3.506,0,0,1,4268.442,22366.9Zm17.174-6.516a2.74,2.74,0,0,1-2.023-3.221,23.12,23.12,0,0,1,8.921-14.666c1.81-1.344,3.7-2.576,5.532-3.908a6.111,6.111,0,0,0,2.884-4.957c.045-2.215,1.107-3.441,2.783-3.414,1.749.035,2.766,1.412,2.715,3.66a11.277,11.277,0,0,1-5.048,9.113c-1.681,1.248-3.423,2.406-5.138,3.615a17.09,17.09,0,0,0-6.971,10.5,11.943,11.943,0,0,1-.354,1.406,2.791,2.791,0,0,1-2.6,1.969A2.551,2.551,0,0,1,4285.616,22360.383Zm-23.864-23.953a2.751,2.751,0,0,1,1.754-3.283c.506-.168,1.04-.258,1.563-.383a17.391,17.391,0,0,0,10.451-7.1c1.551-2.191,3.047-4.441,4.772-6.492a10.266,10.266,0,0,1,8.613-3.609,2.791,2.791,0,0,1,2.844,2.721,2.655,2.655,0,0,1-2.749,2.766c-2.681-.078-4.436,1.26-5.891,3.316-1.659,2.322-3.222,4.711-5.065,6.875-3.446,4.059-8.039,6.18-13.171,7.219a2.72,2.72,0,0,1-.451.037A2.754,2.754,0,0,1,4261.752,22336.43Z" transform="translate(-4221 -22230.002)" fill="#FFF"/>
</svg>
