<svg xmlns="http://www.w3.org/2000/svg" width="184" height="224" viewBox="0 0 184 224">
  <g id="bolinhas" transform="translate(1934 113) rotate(90)">
    <circle id="bolinha" cx="2" cy="2" r="2" transform="translate(87 1750)" fill="#7a162e"/>
    <circle id="bolinha-2" data-name="bolinha" cx="2" cy="2" r="2" transform="translate(-33 1750)" fill="#7a162e"/>
    <circle id="bolinha-3" data-name="bolinha" cx="2" cy="2" r="2" transform="translate(87 1850)" fill="#7a162e"/>
    <circle id="bolinha-4" data-name="bolinha" cx="2" cy="2" r="2" transform="translate(-33 1850)" fill="#7a162e"/>
    <circle id="bolinha-5" data-name="bolinha" cx="2" cy="2" r="2" transform="translate(87 1770)" fill="#7a162e"/>
    <circle id="bolinha-6" data-name="bolinha" cx="2" cy="2" r="2" transform="translate(-33 1770)" fill="#7a162e"/>
    <circle id="bolinha-7" data-name="bolinha" cx="2" cy="2" r="2" transform="translate(87 1870)" fill="#7a162e"/>
    <circle id="bolinha-8" data-name="bolinha" cx="2" cy="2" r="2" transform="translate(-33 1870)" fill="#7a162e"/>
    <circle id="bolinha-9" data-name="bolinha" cx="2" cy="2" r="2" transform="translate(87 1790)" fill="#7a162e"/>
    <circle id="bolinha-10" data-name="bolinha" cx="2" cy="2" r="2" transform="translate(-33 1790)" fill="#7a162e"/>
    <circle id="bolinha-11" data-name="bolinha" cx="2" cy="2" r="2" transform="translate(87 1890)" fill="#7a162e"/>
    <circle id="bolinha-12" data-name="bolinha" cx="2" cy="2" r="2" transform="translate(-33 1890)" fill="#7a162e"/>
    <circle id="bolinha-13" data-name="bolinha" cx="2" cy="2" r="2" transform="translate(87 1810)" fill="#7a162e"/>
    <circle id="bolinha-14" data-name="bolinha" cx="2" cy="2" r="2" transform="translate(-33 1810)" fill="#7a162e"/>
    <circle id="bolinha-15" data-name="bolinha" cx="2" cy="2" r="2" transform="translate(87 1910)" fill="#7a162e"/>
    <circle id="bolinha-16" data-name="bolinha" cx="2" cy="2" r="2" transform="translate(-33 1910)" fill="#7a162e"/>
    <circle id="bolinha-17" data-name="bolinha" cx="2" cy="2" r="2" transform="translate(87 1830)" fill="#7a162e"/>
    <circle id="bolinha-18" data-name="bolinha" cx="2" cy="2" r="2" transform="translate(-33 1830)" fill="#7a162e"/>
    <circle id="bolinha-19" data-name="bolinha" cx="2" cy="2" r="2" transform="translate(87 1930)" fill="#7a162e"/>
    <circle id="bolinha-20" data-name="bolinha" cx="2" cy="2" r="2" transform="translate(-33 1930)" fill="#7a162e"/>
    <circle id="bolinha-21" data-name="bolinha" cx="2" cy="2" r="2" transform="translate(47 1750)" fill="#7a162e"/>
    <circle id="bolinha-22" data-name="bolinha" cx="2" cy="2" r="2" transform="translate(-73 1750)" fill="#7a162e"/>
    <circle id="bolinha-23" data-name="bolinha" cx="2" cy="2" r="2" transform="translate(47 1850)" fill="#7a162e"/>
    <circle id="bolinha-24" data-name="bolinha" cx="2" cy="2" r="2" transform="translate(-73 1850)" fill="#7a162e"/>
    <circle id="bolinha-25" data-name="bolinha" cx="2" cy="2" r="2" transform="translate(47 1770)" fill="#7a162e"/>
    <circle id="bolinha-26" data-name="bolinha" cx="2" cy="2" r="2" transform="translate(-73 1770)" fill="#7a162e"/>
    <circle id="bolinha-27" data-name="bolinha" cx="2" cy="2" r="2" transform="translate(47 1870)" fill="#7a162e"/>
    <circle id="bolinha-28" data-name="bolinha" cx="2" cy="2" r="2" transform="translate(-73 1870)" fill="#7a162e"/>
    <circle id="bolinha-29" data-name="bolinha" cx="2" cy="2" r="2" transform="translate(47 1790)" fill="#7a162e"/>
    <circle id="bolinha-30" data-name="bolinha" cx="2" cy="2" r="2" transform="translate(-73 1790)" fill="#7a162e"/>
    <circle id="bolinha-31" data-name="bolinha" cx="2" cy="2" r="2" transform="translate(47 1890)" fill="#7a162e"/>
    <circle id="bolinha-32" data-name="bolinha" cx="2" cy="2" r="2" transform="translate(-73 1890)" fill="#7a162e"/>
    <circle id="bolinha-33" data-name="bolinha" cx="2" cy="2" r="2" transform="translate(47 1810)" fill="#7a162e"/>
    <circle id="bolinha-34" data-name="bolinha" cx="2" cy="2" r="2" transform="translate(-73 1810)" fill="#7a162e"/>
    <circle id="bolinha-35" data-name="bolinha" cx="2" cy="2" r="2" transform="translate(47 1910)" fill="#7a162e"/>
    <circle id="bolinha-36" data-name="bolinha" cx="2" cy="2" r="2" transform="translate(-73 1910)" fill="#7a162e"/>
    <circle id="bolinha-37" data-name="bolinha" cx="2" cy="2" r="2" transform="translate(47 1830)" fill="#7a162e"/>
    <circle id="bolinha-38" data-name="bolinha" cx="2" cy="2" r="2" transform="translate(-73 1830)" fill="#7a162e"/>
    <circle id="bolinha-39" data-name="bolinha" cx="2" cy="2" r="2" transform="translate(47 1930)" fill="#7a162e"/>
    <circle id="bolinha-40" data-name="bolinha" cx="2" cy="2" r="2" transform="translate(-73 1930)" fill="#7a162e"/>
    <circle id="bolinha-41" data-name="bolinha" cx="2" cy="2" r="2" transform="translate(7 1750)" fill="#7a162e"/>
    <circle id="bolinha-42" data-name="bolinha" cx="2" cy="2" r="2" transform="translate(-113 1750)" fill="#7a162e"/>
    <circle id="bolinha-43" data-name="bolinha" cx="2" cy="2" r="2" transform="translate(7 1850)" fill="#7a162e"/>
    <circle id="bolinha-44" data-name="bolinha" cx="2" cy="2" r="2" transform="translate(-113 1850)" fill="#7a162e"/>
    <circle id="bolinha-45" data-name="bolinha" cx="2" cy="2" r="2" transform="translate(7 1770)" fill="#7a162e"/>
    <circle id="bolinha-46" data-name="bolinha" cx="2" cy="2" r="2" transform="translate(-113 1770)" fill="#7a162e"/>
    <circle id="bolinha-47" data-name="bolinha" cx="2" cy="2" r="2" transform="translate(7 1870)" fill="#7a162e"/>
    <circle id="bolinha-48" data-name="bolinha" cx="2" cy="2" r="2" transform="translate(-113 1870)" fill="#7a162e"/>
    <circle id="bolinha-49" data-name="bolinha" cx="2" cy="2" r="2" transform="translate(7 1790)" fill="#7a162e"/>
    <circle id="bolinha-50" data-name="bolinha" cx="2" cy="2" r="2" transform="translate(-113 1790)" fill="#7a162e"/>
    <circle id="bolinha-51" data-name="bolinha" cx="2" cy="2" r="2" transform="translate(7 1890)" fill="#7a162e"/>
    <circle id="bolinha-52" data-name="bolinha" cx="2" cy="2" r="2" transform="translate(-113 1890)" fill="#7a162e"/>
    <circle id="bolinha-53" data-name="bolinha" cx="2" cy="2" r="2" transform="translate(7 1810)" fill="#7a162e"/>
    <circle id="bolinha-54" data-name="bolinha" cx="2" cy="2" r="2" transform="translate(-113 1810)" fill="#7a162e"/>
    <circle id="bolinha-55" data-name="bolinha" cx="2" cy="2" r="2" transform="translate(7 1910)" fill="#7a162e"/>
    <circle id="bolinha-56" data-name="bolinha" cx="2" cy="2" r="2" transform="translate(-113 1910)" fill="#7a162e"/>
    <circle id="bolinha-57" data-name="bolinha" cx="2" cy="2" r="2" transform="translate(7 1830)" fill="#7a162e"/>
    <circle id="bolinha-58" data-name="bolinha" cx="2" cy="2" r="2" transform="translate(-113 1830)" fill="#7a162e"/>
    <circle id="bolinha-59" data-name="bolinha" cx="2" cy="2" r="2" transform="translate(7 1930)" fill="#7a162e"/>
    <circle id="bolinha-60" data-name="bolinha" cx="2" cy="2" r="2" transform="translate(-113 1930)" fill="#7a162e"/>
    <circle id="bolinha-61" data-name="bolinha" cx="2" cy="2" r="2" transform="translate(107 1750)" fill="#7a162e"/>
    <circle id="bolinha-62" data-name="bolinha" cx="2" cy="2" r="2" transform="translate(-13 1750)" fill="#7a162e"/>
    <circle id="bolinha-63" data-name="bolinha" cx="2" cy="2" r="2" transform="translate(107 1850)" fill="#7a162e"/>
    <circle id="bolinha-64" data-name="bolinha" cx="2" cy="2" r="2" transform="translate(-13 1850)" fill="#7a162e"/>
    <circle id="bolinha-65" data-name="bolinha" cx="2" cy="2" r="2" transform="translate(107 1770)" fill="#7a162e"/>
    <circle id="bolinha-66" data-name="bolinha" cx="2" cy="2" r="2" transform="translate(-13 1770)" fill="#7a162e"/>
    <circle id="bolinha-67" data-name="bolinha" cx="2" cy="2" r="2" transform="translate(107 1870)" fill="#7a162e"/>
    <circle id="bolinha-68" data-name="bolinha" cx="2" cy="2" r="2" transform="translate(-13 1870)" fill="#7a162e"/>
    <circle id="bolinha-69" data-name="bolinha" cx="2" cy="2" r="2" transform="translate(107 1790)" fill="#7a162e"/>
    <circle id="bolinha-70" data-name="bolinha" cx="2" cy="2" r="2" transform="translate(-13 1790)" fill="#7a162e"/>
    <circle id="bolinha-71" data-name="bolinha" cx="2" cy="2" r="2" transform="translate(107 1890)" fill="#7a162e"/>
    <circle id="bolinha-72" data-name="bolinha" cx="2" cy="2" r="2" transform="translate(-13 1890)" fill="#7a162e"/>
    <circle id="bolinha-73" data-name="bolinha" cx="2" cy="2" r="2" transform="translate(107 1810)" fill="#7a162e"/>
    <circle id="bolinha-74" data-name="bolinha" cx="2" cy="2" r="2" transform="translate(-13 1810)" fill="#7a162e"/>
    <circle id="bolinha-75" data-name="bolinha" cx="2" cy="2" r="2" transform="translate(107 1910)" fill="#7a162e"/>
    <circle id="bolinha-76" data-name="bolinha" cx="2" cy="2" r="2" transform="translate(-13 1910)" fill="#7a162e"/>
    <circle id="bolinha-77" data-name="bolinha" cx="2" cy="2" r="2" transform="translate(107 1830)" fill="#7a162e"/>
    <circle id="bolinha-78" data-name="bolinha" cx="2" cy="2" r="2" transform="translate(-13 1830)" fill="#7a162e"/>
    <circle id="bolinha-79" data-name="bolinha" cx="2" cy="2" r="2" transform="translate(107 1930)" fill="#7a162e"/>
    <circle id="bolinha-80" data-name="bolinha" cx="2" cy="2" r="2" transform="translate(-13 1930)" fill="#7a162e"/>
    <circle id="bolinha-81" data-name="bolinha" cx="2" cy="2" r="2" transform="translate(67 1750)" fill="#7a162e"/>
    <circle id="bolinha-82" data-name="bolinha" cx="2" cy="2" r="2" transform="translate(-53 1750)" fill="#7a162e"/>
    <circle id="bolinha-83" data-name="bolinha" cx="2" cy="2" r="2" transform="translate(67 1850)" fill="#7a162e"/>
    <circle id="bolinha-84" data-name="bolinha" cx="2" cy="2" r="2" transform="translate(-53 1850)" fill="#7a162e"/>
    <circle id="bolinha-85" data-name="bolinha" cx="2" cy="2" r="2" transform="translate(67 1770)" fill="#7a162e"/>
    <circle id="bolinha-86" data-name="bolinha" cx="2" cy="2" r="2" transform="translate(-53 1770)" fill="#7a162e"/>
    <circle id="bolinha-87" data-name="bolinha" cx="2" cy="2" r="2" transform="translate(67 1870)" fill="#7a162e"/>
    <circle id="bolinha-88" data-name="bolinha" cx="2" cy="2" r="2" transform="translate(-53 1870)" fill="#7a162e"/>
    <circle id="bolinha-89" data-name="bolinha" cx="2" cy="2" r="2" transform="translate(67 1790)" fill="#7a162e"/>
    <circle id="bolinha-90" data-name="bolinha" cx="2" cy="2" r="2" transform="translate(-53 1790)" fill="#7a162e"/>
    <circle id="bolinha-91" data-name="bolinha" cx="2" cy="2" r="2" transform="translate(67 1890)" fill="#7a162e"/>
    <circle id="bolinha-92" data-name="bolinha" cx="2" cy="2" r="2" transform="translate(-53 1890)" fill="#7a162e"/>
    <circle id="bolinha-93" data-name="bolinha" cx="2" cy="2" r="2" transform="translate(67 1810)" fill="#7a162e"/>
    <circle id="bolinha-94" data-name="bolinha" cx="2" cy="2" r="2" transform="translate(-53 1810)" fill="#7a162e"/>
    <circle id="bolinha-95" data-name="bolinha" cx="2" cy="2" r="2" transform="translate(67 1910)" fill="#7a162e"/>
    <circle id="bolinha-96" data-name="bolinha" cx="2" cy="2" r="2" transform="translate(-53 1910)" fill="#7a162e"/>
    <circle id="bolinha-97" data-name="bolinha" cx="2" cy="2" r="2" transform="translate(67 1830)" fill="#7a162e"/>
    <circle id="bolinha-98" data-name="bolinha" cx="2" cy="2" r="2" transform="translate(-53 1830)" fill="#7a162e"/>
    <circle id="bolinha-99" data-name="bolinha" cx="2" cy="2" r="2" transform="translate(67 1930)" fill="#7a162e"/>
    <circle id="bolinha-100" data-name="bolinha" cx="2" cy="2" r="2" transform="translate(-53 1930)" fill="#7a162e"/>
    <circle id="bolinha-101" data-name="bolinha" cx="2" cy="2" r="2" transform="translate(27 1750)" fill="#7a162e"/>
    <circle id="bolinha-102" data-name="bolinha" cx="2" cy="2" r="2" transform="translate(-93 1750)" fill="#7a162e"/>
    <circle id="bolinha-103" data-name="bolinha" cx="2" cy="2" r="2" transform="translate(27 1850)" fill="#7a162e"/>
    <circle id="bolinha-104" data-name="bolinha" cx="2" cy="2" r="2" transform="translate(-93 1850)" fill="#7a162e"/>
    <circle id="bolinha-105" data-name="bolinha" cx="2" cy="2" r="2" transform="translate(27 1770)" fill="#7a162e"/>
    <circle id="bolinha-106" data-name="bolinha" cx="2" cy="2" r="2" transform="translate(-93 1770)" fill="#7a162e"/>
    <circle id="bolinha-107" data-name="bolinha" cx="2" cy="2" r="2" transform="translate(27 1870)" fill="#7a162e"/>
    <circle id="bolinha-108" data-name="bolinha" cx="2" cy="2" r="2" transform="translate(-93 1870)" fill="#7a162e"/>
    <circle id="bolinha-109" data-name="bolinha" cx="2" cy="2" r="2" transform="translate(27 1790)" fill="#7a162e"/>
    <circle id="bolinha-110" data-name="bolinha" cx="2" cy="2" r="2" transform="translate(-93 1790)" fill="#7a162e"/>
    <circle id="bolinha-111" data-name="bolinha" cx="2" cy="2" r="2" transform="translate(27 1890)" fill="#7a162e"/>
    <circle id="bolinha-112" data-name="bolinha" cx="2" cy="2" r="2" transform="translate(-93 1890)" fill="#7a162e"/>
    <circle id="bolinha-113" data-name="bolinha" cx="2" cy="2" r="2" transform="translate(27 1810)" fill="#7a162e"/>
    <circle id="bolinha-114" data-name="bolinha" cx="2" cy="2" r="2" transform="translate(-93 1810)" fill="#7a162e"/>
    <circle id="bolinha-115" data-name="bolinha" cx="2" cy="2" r="2" transform="translate(27 1910)" fill="#7a162e"/>
    <circle id="bolinha-116" data-name="bolinha" cx="2" cy="2" r="2" transform="translate(-93 1910)" fill="#7a162e"/>
    <circle id="bolinha-117" data-name="bolinha" cx="2" cy="2" r="2" transform="translate(27 1830)" fill="#7a162e"/>
    <circle id="bolinha-118" data-name="bolinha" cx="2" cy="2" r="2" transform="translate(-93 1830)" fill="#7a162e"/>
    <circle id="bolinha-119" data-name="bolinha" cx="2" cy="2" r="2" transform="translate(27 1930)" fill="#7a162e"/>
    <circle id="bolinha-120" data-name="bolinha" cx="2" cy="2" r="2" transform="translate(-93 1930)" fill="#7a162e"/>
  </g>
</svg>
