<svg xmlns="http://www.w3.org/2000/svg" width="200" height="170.004" viewBox="0 0 200 170.004">
  <g id="organ" transform="translate(17 4)">
    <path id="Caminho_1278" data-name="Caminho 1278" d="M73.724-8.847C30.131-8.847-36.2,4.243-40.255,52.624S48.427,141.153,92.02,141.153s53.6-30.144,53.6-73.616S117.317-8.847,73.724-8.847Z" transform="translate(30.384 14.848)" fill="#fffbe5"/>
    <path id="Caminho_1612" data-name="Caminho 1612" d="M3415.393,22401.977c-1.445-.863-3.179-1.463-4.261-2.654a8.9,8.9,0,0,1-2.315-4.607c-.95-9.635-1.653-19.287-2.384-28.937-.161-2.109.95-3.352,2.747-3.363a2.788,2.788,0,0,1,2.862,2.834c.7,8.6,1.365,17.207,2.044,25.8.075.939.127,1.885.282,2.8a2.847,2.847,0,0,0,2.885,2.453,2.938,2.938,0,0,0,2.759-2.625,7.227,7.227,0,0,0,.034-1v-33.7c0-.488-.052-.967-.086-1.531H3271.987v34.859c0,.391-.017.783,0,1.162a2.932,2.932,0,0,0,2.741,2.822,2.791,2.791,0,0,0,2.926-2.58c.409-3.686.662-7.383.956-11.074.368-4.635.7-9.271,1.083-13.895.167-1.947,1.054-3,2.551-3.209,1.837-.248,3.26,1.227,3.1,3.369-.5,6.8-1.048,13.563-1.578,20.346-.121,1.545-.248,3.086-.392,4.629a8.478,8.478,0,0,1-6.219,7.77,2.966,2.966,0,0,0-.536.316h-3.334c-3.49-1.115-6.041-3.174-6.812-6.945a12.71,12.71,0,0,1-.161-2.475v-34.2a2.3,2.3,0,0,0-1.284-2.348,8.086,8.086,0,0,1-4-7.176c-.04-2.1-.034-4.205,0-6.307a8.523,8.523,0,0,1,8.373-8.562c1.255-.043,2.522,0,3.991,0,0-3.061-.034-5.979,0-8.893a8.485,8.485,0,0,1,6.675-8.57,11.436,11.436,0,0,1,2.47-.2q63.491,0,126.977-.025a9,9,0,0,1,5.747,1.764,2.889,2.889,0,0,1,.789,3.961c-.858,1.273-2.384,1.51-3.968.742a6.782,6.782,0,0,0-2.793-.76q-63.319-.05-126.642-.027c-2.615,0-3.571.967-3.588,3.633-.017,3.543,0,7.084,0,10.625-.017,2.459-.968,3.381-3.438,3.4-.9.006-1.791,0-2.684-.006-.979,0-1.969-.006-2.955.006-2.211.047-3.253,1.094-3.288,3.287-.035,1.826-.029,3.652,0,5.477.029,2.2,1.042,3.209,3.265,3.3.438.018.881,0,1.325,0H3420.83a15.733,15.733,0,0,0,1.82-.053,2.748,2.748,0,0,0,2.672-2.844q.095-3.155,0-6.307a2.81,2.81,0,0,0-2.689-2.846,15.006,15.006,0,0,0-1.826-.027H3293.162c-.685,0-1.336.023-1.993-.035a2.723,2.723,0,0,1-2.585-2.535,2.765,2.765,0,0,1,2.171-2.936,10.231,10.231,0,0,1,2.142-.127h127.477c6.237,0,8.276,1.33,10.625,6.93v9.629c-.835,2.25-1.877,4.393-4.112,5.557a2.052,2.052,0,0,0-1.221,2.2q.052,17.156,0,34.307a12.231,12.231,0,0,1-.178,2.469c-.754,3.768-3.306,5.816-6.784,6.936Zm-154.354-78.826c-.029-4.418,0-8.84,0-13.279,0-3.705-.029-7.412,0-11.121a8.445,8.445,0,0,1,8.581-8.648c2.148-.025,4.3,0,6.657,0v-27.961c0-5.746,3.449-9.207,9.162-9.225,1.106,0,2.212-.047,3.317.023a2.8,2.8,0,1,1,0,5.6c-.7.041-1.4.035-2.1.025-.633-.006-1.261-.012-1.889.021a2.726,2.726,0,0,0-2.816,2.857c-.034,9.455,0,18.918,0,28.518h13.429v-2.1c0-15.053.1-30.105-.057-45.152-.081-5.283,1.658-9,6.859-10.7h11.3c.34.162.651.34,1,.484a8.381,8.381,0,0,1,5.655,7.969c.04,4.238,0,8.477,0,12.6h13.5c0-3.943-.1-7.969.052-11.988a13.317,13.317,0,0,1,1.1-4.758c1.019-2.361,3.288-3.422,5.574-4.32h11.287c.288.133.564.295.864.4a8.348,8.348,0,0,1,5.834,8.01c.063,4.238,0,8.479,0,12.646h13.516v-1.668c0-3.7-.063-7.4.023-11.1a8.223,8.223,0,0,1,5.027-7.562c.541-.248,1.088-.471,1.624-.713h11.287c5.183,1.7,6.939,5.412,6.887,10.7-.161,15.029-.057,30.072-.057,45.113v2.164h13.435v-27.3c0-3.254-.679-3.955-3.922-4.111a2.832,2.832,0,1,1-.011-5.648c5.811-.236,9.577,3.334,9.588,9.121q.017,13.1,0,26.209v1.85h1.883c1.658,0,3.323-.053,4.976,0,4.55.189,7.089,2.844,8.385,6.973l.006,27.24a2.728,2.728,0,0,0-.323.361,2.68,2.68,0,0,1-3.369,1.355,2.85,2.85,0,0,1-1.969-3.094q.017-11.628,0-23.238c0-3.062-.881-3.955-3.945-3.955H3333.6c-2.776,0-4.2-1-4.146-2.908.052-1.842,1.405-2.74,4.129-2.746h19.125v-48.514c0-3.064-.847-3.916-3.945-3.922h-5.31c-3.4,0-4.141.76-4.141,4.221v34.525c-.034,2.258-1.06,3.518-2.856,3.523s-2.8-1.248-2.8-3.529v-14.1c0-2.752-.973-3.721-3.68-3.744h-6.306c-2.494.02-3.507,1.025-3.507,3.555v29.715c0,3.059-.852,3.922-3.945,3.922h-45.5c-3.19,0-4.037.84-4.037,4.008v23.4a2.915,2.915,0,0,1-2.827,3.064A2.87,2.87,0,0,1,3261.039,22323.15Zm44.066-85.473c-3.219,0-4.048.8-4.048,3.99v46.625c0,.576.063,1.152.1,1.768l13.228-.012c.04-.373.086-.582.086-.795V22240.8c0-2.066-1.111-3.1-3.236-3.127-.682-.012-1.363-.016-2.044-.016C3307.832,22237.662,3306.469,22237.678,3305.106,22237.678Zm56.535,20.889c-2.114.027-3.225,1.041-3.231,3.148-.035,9.236,0,18.469,0,27.705a3,3,0,0,0,.126.594h32.434v-34.541c0-4.762.017-9.525,0-14.281,0-2.551-1-3.514-3.507-3.531h-6.127c-2.862,0-3.784.916-3.784,3.756v32.52c0,1.992.046,3.98-.017,5.977a2.766,2.766,0,0,1-3.064,2.926c-1.635-.115-2.568-1.256-2.574-3.236v-17.592c0-2.408-1.042-3.428-3.444-3.443-1.512,0-3.023-.012-4.537-.012Q3362.78,22258.555,3361.64,22258.566Z" transform="translate(-3263 -22235.998)" fill="#f7d204"/>
    <rect id="Retângulo_3714" data-name="Retângulo 3714" width="200" height="170" transform="translate(-17 -4)" fill="none"/>
  </g>
</svg>
