<svg xmlns="http://www.w3.org/2000/svg" width="170" height="170" viewBox="0 0 170.002 170.001">
  <g id="Grupo_58572" data-name="Grupo 58572" transform="translate(3.001 4.001)">
    <path id="conductor" d="M170.665,14.515a14.553,14.553,0,0,1-3.894,6.026Q114.527,74.794,62.306,129.047a23.212,23.212,0,0,0-6.737,14.693c-.546,6.435-3.626,11.737-8.365,16.07a2.4,2.4,0,0,1-3.554.045,2.474,2.474,0,0,1,.2-3.684,20.561,20.561,0,0,0,6.3-10.3c.481-2.088.594-4.258.979-6.373a24.792,24.792,0,0,1,6.411-12.643l-9.4-9.384c-1.549,1.078-3.238,2.4-5.065,3.5A24.846,24.846,0,0,1,32.223,124.2a19.126,19.126,0,0,0-11.977,5.4c-3.176,3.073-6.332,6.181-9.371,9.378a17.727,17.727,0,0,0,24.915,25.207c.282-.261.549-.546.852-.786a2.426,2.426,0,0,1,3.434.017,2.456,2.456,0,0,1-.027,3.557,22,22,0,0,1-10.717,6.273,22.711,22.711,0,0,1-22.2-37.586c3.149-3.327,6.411-6.558,9.724-9.724a23.837,23.837,0,0,1,14.961-6.692,21.753,21.753,0,0,0,13.79-6.431Q65.3,93.725,85.093,74.763l43.382-41.7c.158-.155.312-.316.477-.46,1.27-1.1,2.7-1.147,3.7-.127a2.508,2.508,0,0,1-.233,3.688c-2.077,2.06-4.2,4.079-6.311,6.109Q89.539,77.418,52.994,112.552a6.558,6.558,0,0,1-1.167.742l9.556,9.525c.244-.233.642-.587,1.01-.968Q112.824,69.424,163.252,16.984a17.374,17.374,0,0,0,1.758-1.974,3.678,3.678,0,0,0-5.23-5.044c-1.205.961-2.283,2.084-3.4,3.156q-7.9,7.578-15.768,15.16c-.436.415-.9,1.075-1.374,1.113a4.985,4.985,0,0,1-2.853-.409,1.97,1.97,0,0,1-.484-2.809,7.489,7.489,0,0,1,1.3-1.487c5.683-5.494,11.4-10.933,17.059-16.448A14.4,14.4,0,0,1,160.4,4.231a5.494,5.494,0,0,1,3.314,0,9.94,9.94,0,0,1,6.95,6.964A5.494,5.494,0,0,1,170.665,14.515Z" transform="translate(-3.922 -7.977)" fill="#991c3a"/>
    <path id="Caminho_1608" data-name="Caminho 1608" d="M3271.588,22749a10.68,10.68,0,0,1-5.613-1.592,10.5,10.5,0,0,1-3.951-4.375,10.388,10.388,0,0,1,3.306-12.926,3.634,3.634,0,0,1,2.05-.8,2.033,2.033,0,0,1,1.678.947,1.88,1.88,0,0,1,.394,1.639,3.667,3.667,0,0,1-1.382,1.787,5.951,5.951,0,0,0,3.523,10.824,7.011,7.011,0,0,0,1-.074,5.657,5.657,0,0,0,3.643-2.066,6.6,6.6,0,0,0,1.4-4.18c.009-3.521.008-7.127.006-10.309v-1.123q0-1.151,0-2.293c-.006-2.25-.006-4.6-.006-6.863,0-2.477.471-3.021,2.963-3.432,1.065-.174,2.165-.367,3.1-.533l.668-.117.182-.033c.788-.141,1.626-.291,2.45-.43a3.754,3.754,0,0,1,.617-.057,2.2,2.2,0,0,1,2.324,1.713,1.983,1.983,0,0,1-.251,1.553,2.837,2.837,0,0,1-1.85,1.166c-1.059.219-2.118.414-3.015.576l-.375.068c-.566.1-1.207.223-1.869.35a.492.492,0,0,0-.4.488v19.094a11.342,11.342,0,0,1-2.124,6.834,10.492,10.492,0,0,1-5.778,3.82A10.933,10.933,0,0,1,3271.588,22749Z" transform="translate(-3122.998 -22583.002)" fill="#991c3a"/>
    <path id="Caminho_1609" data-name="Caminho 1609" d="M3271.318,22764c-.118,0-.242,0-.4-.01l-.016,0a10.376,10.376,0,0,1-9.461-7.422,10.5,10.5,0,0,1,3.708-11.346,3.01,3.01,0,0,1,1.743-.652,2.027,2.027,0,0,1,1.588.777c.86,1.037.645,2.3-.577,3.389a6.678,6.678,0,0,0-2.411,5.313,5.735,5.735,0,0,0,2.5,4.41,5.924,5.924,0,0,0,9.25-3.781v-.012a13.7,13.7,0,0,0,.16-2.32v-29.891c0-2.656.334-3.051,2.977-3.525l32.44-5.84a5.171,5.171,0,0,1,.937-.09c.959,0,2.234.287,2.234,2.764.017,10.291.017,20.729,0,31.018,0,1.264-.375,2.773-2.16,2.795h-.063c-1.315,0-2.074-.867-2.257-2.578a5.9,5.9,0,0,0-5.662-5.57c-.092-.006-.177-.006-.269-.006a5.98,5.98,0,0,0-5.9,5.063,5.675,5.675,0,0,0,.885,4.1,6.411,6.411,0,0,0,3.525,2.561c.138.039.274.074.417.107l.03.008.134.037.2.053a2.232,2.232,0,0,1-.514,4.422,3.044,3.044,0,0,1-.469-.039,10.463,10.463,0,0,1-.908-20.447,10.773,10.773,0,0,1,2.656-.344,11.1,11.1,0,0,1,5.1,1.3.515.515,0,0,0,.228.055.5.5,0,0,0,.5-.5v-19.322a.494.494,0,0,0-.183-.383.477.477,0,0,0-.315-.117.658.658,0,0,0-.09.008l-28.589,5.162a.5.5,0,0,0-.411.488v2.063c0,1.523,0,3.061,0,4.59v.055c0,1.5,0,2.99,0,4.457.01,5.469.018,11.912-.006,18.221a11.332,11.332,0,0,1-3.011,7.912A10.358,10.358,0,0,1,3271.318,22764Z" transform="translate(-3264.008 -22716.998)" fill="#991c3a"/>
  </g>
</svg>
