<svg xmlns="http://www.w3.org/2000/svg" width="200" height="170.004" viewBox="0 0 200 170.004">
  <g id="guitar" transform="translate(21 4)">
    <rect id="Retângulo_3715" data-name="Retângulo 3715" width="200" height="170" transform="translate(-21 -4)" fill="none"/>
    <path id="pal" d="M73.724-8.847C30.131-8.847-36.2,4.243-40.255,52.624S48.427,141.153,92.02,141.153s53.6-30.144,53.6-73.616S117.317-8.847,73.724-8.847Z" transform="translate(26.384 14.848)" fill="#eff8f9"/>
    <path id="Caminho_1268" data-name="Caminho 1268" d="M148.623,0l.5.355a2.556,2.556,0,0,1,1.218,3.082,2.6,2.6,0,0,1-2.748,1.888H132.726c-2.6,0-3.516.893-3.519,3.441v13.9c0,2.41.9,3.322,3.281,3.329q8.214.019,16.434,0c2.474,0,3.361-.909,3.381-3.418.019-2.186-.019-4.372.016-6.558.029-2.036.935-2.945,2.976-2.983q2.892-.058,5.784,0a2.632,2.632,0,0,1,2.873,2.631,2.7,2.7,0,0,1-2.873,2.676c-1.08.054-2.166,0-3.432,0,0,1.648.019,3.143,0,4.634a8.218,8.218,0,0,1-4.721,7.681A2.019,2.019,0,0,0,152,32.137c-.067,5.518,0,11.039-.071,16.556,0,1.111.5,1.376,1.4,1.6,5.646,1.443,10.82,3.841,14.981,8,6.356,6.366,7.61,14.025,5.55,22.506-1.019,4.186-2.127,8.376-2.76,12.626a18.972,18.972,0,0,0,2.686,12.565c2.413,4.116,5.016,8.229,6.671,12.665,4.958,13.279-.549,27.592-12.876,34.656a51.643,51.643,0,0,1-21.209,6.4c-.508.048-1,.189-1.5.285h-8.464c-3.233-.522-6.507-.867-9.7-1.6-7.87-1.773-15.074-4.932-20.6-11.045-8.1-8.962-9.486-21.469-3.724-32.915a49.176,49.176,0,0,1,3.824-6.619c4.261-5.931,4.7-12.389,3.1-19.223-.964-4.046-2.073-8.065-2.767-12.162-1.391-8.216,3.3-17.529,10.6-21.578a2.647,2.647,0,0,1,3.609.7,2.592,2.592,0,0,1-.562,3.623c-.88.733-1.87,1.338-2.728,2.093-5.591,4.919-6.726,11.093-5.042,18.051.964,3.94,2.1,7.854,2.751,11.842a24.358,24.358,0,0,1-3.213,17.421c-1.514,2.429-2.989,4.884-4.39,7.38-7.42,13.177-2.224,28.018,10.855,33.926,14.718,6.648,29.67,6.644,44.375-.074,12.96-5.915,18-20.666,10.865-33.59a60.018,60.018,0,0,0-3.316-5.652c-5.026-7.169-5.784-14.966-3.747-23.258a110.145,110.145,0,0,0,2.629-11.858c.839-6.456-1.851-11.567-7.05-15.379a27.87,27.87,0,0,0-10.245-4.59V82.024a7.606,7.606,0,0,1-.177,2.01,2.607,2.607,0,0,1-5.068-.214,11.773,11.773,0,0,1-.1-2.023V31.436H134.651v14.55h3.985c2.069.019,3.342,1.069,3.316,2.714s-1.237,2.586-3.236,2.608c-1.3.016-2.6,0-4.039,0V69.279c1.555,0,3.1-.026,4.656,0,2.008.038,3.127,1.043,3.091,2.717-.035,1.6-1.166,2.56-3.075,2.608-1.459.035-2.921.032-4.38.054-.09,0-.18.08-.347.16v17.1c.62-.147,1.205-.266,1.777-.422a16.978,16.978,0,1,1,6.308,33.26c-9.467,1.015-18.208-6-18.837-15.107-.148-2.148.672-3.405,2.33-3.578s2.754.96,2.989,3.069a11.675,11.675,0,1,0,4.971-10.8c-1.128.781-2.343,1.578-3.535.586a4.228,4.228,0,0,1-1.369-2.724c-.164-3.271-.061-6.558-.061-9.838q0-26.958.019-53.91a2.076,2.076,0,0,0-1.234-2.173,7.567,7.567,0,0,1-4.116-6.884c-.032-1.6,0-3.2,0-5.044h-3.181c-2.265-.022-3.454-.96-3.438-2.724s1.141-2.589,3.348-2.612h3.352c-.495-5.764-.225-11.1,6.514-13.02Z" transform="translate(-61.58 1)" fill="#62bcc4"/>
    <path id="Caminho_1270" data-name="Caminho 1270" d="M198.531,420.4h-7.845c-1.616,0-2.5-.789-2.5-2.13s.924-2.12,2.522-2.125q7.847-.015,15.692,0c1.536,0,2.532.873,2.524,2.148s-.97,2.1-2.56,2.1C203.759,420.416,201.145,420.4,198.531,420.4Z" transform="translate(-119.885 -281.743)" fill="#62bcc4"/>
    <path id="Caminho_1610" data-name="Caminho 1610" d="M3271.049,22762.674c-.115,0-.236,0-.391-.01l-.015,0a10.108,10.108,0,0,1-9.215-7.229,10.229,10.229,0,0,1,3.611-11.051,2.935,2.935,0,0,1,1.7-.635,1.97,1.97,0,0,1,1.547.758c.838,1.01.628,2.242-.562,3.3a6.5,6.5,0,0,0-2.348,5.174,5.587,5.587,0,0,0,2.437,4.3,5.771,5.771,0,0,0,9.009-3.684v-.012a13.31,13.31,0,0,0,.156-2.26v-29.111c0-2.586.325-2.971,2.9-3.434l31.594-5.687a5.069,5.069,0,0,1,.913-.086c.934,0,2.176.279,2.176,2.691.017,10.021.017,20.188,0,30.207,0,1.232-.365,2.7-2.1,2.723h-.061c-1.281,0-2.021-.844-2.2-2.51a5.745,5.745,0,0,0-5.514-5.426c-.089-.006-.173-.006-.261-.006a5.826,5.826,0,0,0-5.748,4.93,5.529,5.529,0,0,0,.862,3.99,6.258,6.258,0,0,0,3.433,2.494c.135.037.267.072.406.1l.029.008.131.037c.065.016.129.033.191.051a2.173,2.173,0,0,1-.5,4.307,2.89,2.89,0,0,1-.456-.039,10.19,10.19,0,0,1-.885-19.914,10.488,10.488,0,0,1,2.587-.334,10.8,10.8,0,0,1,4.969,1.27.515.515,0,0,0,.222.053.485.485,0,0,0,.485-.488v-18.818a.476.476,0,0,0-.178-.371.466.466,0,0,0-.307-.115.626.626,0,0,0-.088.008l-27.844,5.027a.485.485,0,0,0-.4.477v2.008c0,1.484,0,2.98,0,4.471v.053c0,1.461,0,2.912,0,4.342.01,5.326.018,11.6-.006,17.744a11.041,11.041,0,0,1-2.932,7.707A10.092,10.092,0,0,1,3271.049,22762.674Z" transform="translate(-3135.572 -22717)" fill="#62bcc4"/>
    <path id="Caminho_1611" data-name="Caminho 1611" d="M3271.588,22749a10.68,10.68,0,0,1-5.613-1.592,10.5,10.5,0,0,1-3.951-4.375,10.388,10.388,0,0,1,3.306-12.926,3.634,3.634,0,0,1,2.05-.8,2.033,2.033,0,0,1,1.678.947,1.88,1.88,0,0,1,.394,1.639,3.667,3.667,0,0,1-1.382,1.787,5.951,5.951,0,0,0,3.523,10.824,7.011,7.011,0,0,0,1-.074,5.657,5.657,0,0,0,3.643-2.066,6.6,6.6,0,0,0,1.4-4.18c.009-3.521.008-7.127.006-10.309v-1.123q0-1.151,0-2.293c-.006-2.25-.006-4.6-.006-6.863,0-2.477.471-3.021,2.963-3.432,1.065-.174,2.165-.367,3.1-.533l.668-.117.182-.033c.788-.141,1.626-.291,2.45-.43a3.754,3.754,0,0,1,.617-.057,2.2,2.2,0,0,1,2.324,1.713,1.983,1.983,0,0,1-.251,1.553,2.837,2.837,0,0,1-1.85,1.166c-1.059.219-2.118.414-3.015.576l-.375.068c-.566.1-1.207.223-1.869.35a.492.492,0,0,0-.4.488v19.094a11.342,11.342,0,0,1-2.124,6.834,10.492,10.492,0,0,1-5.778,3.82A10.933,10.933,0,0,1,3271.588,22749Z" transform="translate(-3282 -22582.998)" fill="#62bcc4"/>
  </g>
</svg>
