<svg xmlns="http://www.w3.org/2000/svg" width="89.056" height="83.212" viewBox="0 0 89.056 83.212">
  <g id="icones" transform="translate(9594.408 9148.108)">
    <path id="Icon_awesome-plane" data-name="Icon awesome-plane" d="M37.5,15H28.571L20.36.63A1.251,1.251,0,0,0,19.274,0H14.157a1.249,1.249,0,0,0-1.2,1.593L16.786,15H8.75L5.375,10.5a1.25,1.25,0,0,0-1-.5H1.251A1.25,1.25,0,0,0,.038,11.553L2.5,20,.038,28.447A1.25,1.25,0,0,0,1.251,30H4.375a1.249,1.249,0,0,0,1-.5L8.75,25h8.036l-3.83,13.406A1.25,1.25,0,0,0,14.157,40h5.117a1.251,1.251,0,0,0,1.085-.63L28.571,25H37.5c2.762,0,7.5-2.238,7.5-5S40.262,15,37.5,15Z" transform="translate(-9564.359 -9136.01) rotate(-14)" fill="none" stroke="#fff" stroke-linecap="round" stroke-linejoin="round" stroke-width="2" stroke-dasharray="60 6"/>
    <path id="Caminho_1969" data-name="Caminho 1969" d="M-9565.391-9115.09c-9.947,3.012-11.9.984-13.984-3.861s-4.856-5.8-9.447-6.664-5.115-5.175-2.648-6.687,5.787.631,4.264,6.031-7.2,17.787-1.615,28.734,19.783,13.621,38.406,12.7,40.336-10.457,44.118,5.45-22.712,10.849-22.712,10.849" transform="translate(-0.431 0.878)" fill="none" stroke="#fff" stroke-linecap="round" stroke-linejoin="round" stroke-width="2" stroke-dasharray="7 6"/>
    <circle id="Elipse_230" data-name="Elipse 230" cx="3" cy="3" r="3" transform="translate(-9540.359 -9071.896)" fill="none" stroke="#fff" stroke-linecap="round" stroke-linejoin="round" stroke-width="2"/>
  </g>
</svg>
