<svg xmlns="http://www.w3.org/2000/svg" width="111.315" height="80.989" viewBox="0 0 111.315 80.989">
  <g id="Grupo_58490" data-name="Grupo 58490" transform="translate(20.939 1.212)">
    <path id="Caminho_1980" data-name="Caminho 1980" d="M32.214,0A32.071,32.071,0,0,1,64.239,32.382,32.529,32.529,0,0,1,32.025,64.953,32.071,32.071,0,0,1,0,32.571,32.529,32.529,0,0,1,32.214,0Z" transform="translate(0 15.541) rotate(-14)" fill="none" stroke="#fff" stroke-linecap="round" stroke-width="2" stroke-dasharray="16 190"/>
    <path id="Caminho_1978" data-name="Caminho 1978" d="M12.078.038a27.835,27.835,0,0,0-5.6,1.455A13.867,13.867,0,0,0,1.227,4.775,5.275,5.275,0,0,0,0,8.239a5.5,5.5,0,0,0,9.005,4.24A5.5,5.5,0,0,0,14.5,17.74a5.629,5.629,0,0,0,4.625-2.521A5.229,5.229,0,0,0,20,12.24a20.321,20.321,0,0,0-1.1-5.651,18.153,18.153,0,0,0-2.005-4.3A5,5,0,0,0,12.078.038Z" transform="translate(31.433 13.459) rotate(132)" fill="none" stroke="#fff" stroke-linecap="round" stroke-linejoin="round" stroke-width="2" stroke-dasharray="48.6 7"/>
    <path id="Exclusão_2" data-name="Exclusão 2" d="M12.113,30.428h0A5.266,5.266,0,0,1,8.2,28.682a4.8,4.8,0,0,1-1.13-3.914l.087-.669a4.989,4.989,0,0,0-1.674-4.415L1.778,15.739A5.518,5.518,0,0,1,.3,9.833,5.382,5.382,0,0,1,1.81,7.466,4.54,4.54,0,0,1,4.449,6.329L9.995,5.8a4.992,4.992,0,0,0,3.95-2.588l.322-.592A4.813,4.813,0,0,1,18.576,0a5.266,5.266,0,0,1,3.912,1.747A4.8,4.8,0,0,1,23.616,5.66l-.087.669A4.989,4.989,0,0,0,25.2,10.744l3.573,3.147c1.477,1.287,1.927,3.529,1.172,5.85a7.259,7.259,0,0,1-1.8,2.938A4.868,4.868,0,0,1,25.2,24.1l-4.51.526a4.992,4.992,0,0,0-3.95,2.588l-.322.592A4.813,4.813,0,0,1,12.113,30.428ZM15.07,10.214a5,5,0,1,0,5,5A5.006,5.006,0,0,0,15.07,10.214Z" transform="translate(11.749 27.568)" fill="none" stroke="#fff" stroke-linecap="round" stroke-linejoin="round" stroke-width="2"/>
    <g id="Grupo_58487" data-name="Grupo 58487" transform="translate(38.732 7.782)">
      <circle id="Elipse_234" data-name="Elipse 234" cx="6" cy="6" r="6" transform="translate(18.3)" fill="none" stroke="#fff" stroke-linecap="round" stroke-linejoin="round" stroke-width="2" stroke-dasharray="9 20"/>
      <circle id="Elipse_235" data-name="Elipse 235" cx="4" cy="4" r="4" transform="translate(10.3 1)" fill="none" stroke="#fff" stroke-linecap="round" stroke-linejoin="round" stroke-width="2" stroke-dasharray="7 15"/>
      <circle id="Elipse_236" data-name="Elipse 236" cx="4" cy="4" r="4" transform="translate(24.3 12)" fill="none" stroke="#fff" stroke-linecap="round" stroke-linejoin="round" stroke-width="2" stroke-dasharray="14 15"/>
      <path id="Caminho_1974" data-name="Caminho 1974" d="M14.179,5.331a4.5,4.5,0,0,1,6.273,5.953,3.752,3.752,0,0,1-3.25,2.368,4.555,4.555,0,0,1-1.207.038,20.606,20.606,0,0,1-4.586-.791c-1.369-.119-4.043-.061-4.9,1.013l-.346.433C5.833,14.76-3.563,15.754,14.179,5.331Z" transform="translate(6.345 13.286)" fill="none" stroke="#fff" stroke-linecap="round" stroke-width="2" stroke-dasharray="26 30"/>
      <path id="Caminho_1975" data-name="Caminho 1975" d="M5.822.53A3.868,3.868,0,0,0,.432,5.645,3.322,3.322,0,0,0,1.8,7.242a3.305,3.305,0,0,0,1.427.438,3.914,3.914,0,0,0,1.037.033c1.9-.06,5.293.6,6.718,2.112S14.6,12.39,16.409,11.87l1.414-.4Z" transform="matrix(0.438, 0.899, -0.899, 0.438, 10.79, 5.884)" fill="none" stroke="#fff" stroke-linecap="round" stroke-width="2" stroke-dasharray="29 30"/>
      <path id="Caminho_1976" data-name="Caminho 1976" d="M5168.457-10943.392c7.286-17.472,14.006-20.7,14.006-20.7" transform="translate(-5162.7 10976)" fill="none" stroke="#fff" stroke-linecap="round" stroke-linejoin="round" stroke-width="2"/>
    </g>
    <path id="Caminho_1977" data-name="Caminho 1977" d="M5185.312-10943.392l2.977,3.067s2.217,1.895,0,3.668-1.552,2.445-2.023,3.648-.517,2.32-3.482,3.295-3.75,1.608-4.125,4.2-2.135,3.1-4.054,3.7a7.958,7.958,0,0,0-3.747,2.657c-.791.89-2.294,1.443-3.169.657l-3.783-3.794s-1.653-2.009,1.1-4.2,4.391-.806,6.263-2.7.583-3.317,2.64-5.416,4.346-1.363,5.708-2.885a3.951,3.951,0,0,0,1.032-3.187" transform="translate(-5123.734 10983.781)" fill="none" stroke="#fff" stroke-linecap="round" stroke-linejoin="round" stroke-width="2"/>
    <path id="Caminho_1979" data-name="Caminho 1979" d="M5134.859-10961.6c-14.924,26.753,7.9,52.108,30.56,49.277s30.492-23.991,28.06-37.458" transform="translate(-5122.987 10983.781)" fill="none" stroke="#fff" stroke-linecap="round" stroke-linejoin="round" stroke-width="2"/>
    <path id="Icon_awesome-utensils" data-name="Icon awesome-utensils" d="M11.162,1.236c.043.382.864,7.684.864,10.472,0,4.252-1.493,7.285-3.7,8.5L9.02,39.572c.038,1.114-.548,2.057-1.289,2.057H4.3c-.736,0-1.326-.935-1.289-2.057L3.7,20.213c-2.212-1.22-3.7-4.26-3.7-8.5,0-2.8.821-10.09.864-10.472a1.287,1.287,0,0,1,2.572.089V12.806c.07.276.811.26.859,0,.075-2.057.424-11.318.43-11.529a1.286,1.286,0,0,1,2.572,0c.011.22.354,9.472.43,11.529.048.26.795.276.859,0V1.325A1.289,1.289,0,0,1,11.162,1.236Z" transform="matrix(0.966, 0.259, -0.259, 0.966, -8.94, 8.814)" fill="none" stroke="#fff" stroke-linecap="round" stroke-linejoin="round" stroke-width="2"/>
    <path id="Icon_awesome-utensils-2" data-name="Icon awesome-utensils" d="M3.7,24.465l-.781,15.05c-.062,1.138.515,2.114,1.244,2.114H7.077c.692,0,1.249-.87,1.249-1.951V1.951C8.326.878,7.769,0,7.077,0,2.783,0-4.446,14.513,3.7,24.465Z" transform="matrix(0.966, 0.259, -0.259, 0.966, 81.109, 30.408)" fill="none" stroke="#fff" stroke-linecap="round" stroke-linejoin="round" stroke-width="2"/>
  </g>
</svg>
