<svg xmlns="http://www.w3.org/2000/svg" width="50.828" height="77" viewBox="0 0 50.828 77">
  <g id="lightbulb" transform="translate(9580.773 9142.725)">
    <path id="Icon_awesome-lightbulb" data-name="Icon awesome-lightbulb" d="M24.806,12.512A12.89,12.89,0,0,0,12.133,25.581a2.536,2.536,0,1,1-5.069,0c0-10.089,7.959-18.3,17.742-18.3a2.615,2.615,0,0,1,0,5.228Z" transform="translate(-9579.962 -9130.094)" fill="none" stroke="#fff" stroke-linecap="round" stroke-linejoin="round" stroke-width="2" stroke-dasharray="20 45"/>
    <path id="Icon_awesome-lightbulb-2" data-name="Icon awesome-lightbulb" d="M0,19.708A19.812,19.812,0,0,0,4.787,32.672a32.333,32.333,0,0,1,5.738,10.24c0,.029.008.058.012.087H28.148c0-.029.008-.057.012-.087A32.333,32.333,0,0,1,33.9,32.672a19.812,19.812,0,0,0,4.787-12.965A19.526,19.526,0,0,0,19.282,0,19.452,19.452,0,0,0,0,19.708Z" transform="translate(-9574.702 -9124.494)" fill="none" stroke="#fff" stroke-linecap="round" stroke-linejoin="round" stroke-width="2" stroke-dasharray="63 10"/>
    <path id="Retângulo_4314" data-name="Retângulo 4314" d="M0,0H17a0,0,0,0,1,0,0V6a5,5,0,0,1-5,5H5A5,5,0,0,1,0,6V0A0,0,0,0,1,0,0Z" transform="translate(-9563.859 -9077.725)" fill="none" stroke="#fff" stroke-linecap="round" stroke-linejoin="round" stroke-width="2" stroke-dasharray="67 0"/>
    <line id="Linha_599" data-name="Linha 599" y2="8" transform="translate(-9555.359 -9141.725)" fill="none" stroke="#fff" stroke-linecap="round" stroke-linejoin="round" stroke-width="2"/>
    <line id="Linha_600" data-name="Linha 600" y2="8" transform="translate(-9579.359 -9133.725) rotate(-45)" fill="none" stroke="#fff" stroke-linecap="round" stroke-linejoin="round" stroke-width="2"/>
    <line id="Linha_601" data-name="Linha 601" y2="8" transform="translate(-9531.359 -9133.725) rotate(45)" fill="none" stroke="#fff" stroke-linecap="round" stroke-linejoin="round" stroke-width="2"/>
  </g>
</svg>
