<svg xmlns="http://www.w3.org/2000/svg" width="73" height="71.418" viewBox="0 0 73 71.418">
  <g id="lampada-cerebro" transform="translate(1633 21327.414)">
    <line id="Linha_615" data-name="Linha 615" x2="6" transform="translate(-1632 -21301)" fill="none" stroke="#fff" stroke-linecap="round" stroke-linejoin="round" stroke-width="2"/>
    <line id="Linha_620" data-name="Linha 620" x2="5.776" transform="translate(-1622 -21326) rotate(45)" fill="none" stroke="#fff" stroke-linecap="round" stroke-linejoin="round" stroke-width="2"/>
    <line id="Linha_622" data-name="Linha 622" x2="5.776" transform="translate(-1622 -21273.916) rotate(-45)" fill="none" stroke="#fff" stroke-linecap="round" stroke-linejoin="round" stroke-width="2"/>
    <line id="Linha_621" data-name="Linha 621" x2="5.776" transform="translate(-1570.016 -21326) rotate(135)" fill="none" stroke="#fff" stroke-linecap="round" stroke-linejoin="round" stroke-width="2"/>
    <line id="Linha_623" data-name="Linha 623" y1="0.001" x2="5.775" transform="translate(-1570.016 -21273.916) rotate(-135)" fill="none" stroke="#fff" stroke-linecap="round" stroke-linejoin="round" stroke-width="2"/>
    <line id="Linha_616" data-name="Linha 616" x2="5" transform="translate(-1566 -21301)" fill="none" stroke="#fff" stroke-linecap="round" stroke-linejoin="round" stroke-width="2"/>
    <path id="Caminho_1988" data-name="Caminho 1988" d="M129.863,125.875a24.926,24.926,0,0,1-9.124-8.523,25.312,25.312,0,0,1,7.477-34.831,24.86,24.86,0,0,1,34.546,7.538,25.312,25.312,0,0,1-7.477,34.831,28.665,28.665,0,0,1-2.988,1.653,5.261,5.261,0,0,0-2.407,3.716,5.464,5.464,0,0,0-.058.762l.058,6.964a8.4,8.4,0,0,1-7.128,8.453,8.169,8.169,0,0,1-9.151-8.148l.058-7.269a5.464,5.464,0,0,0-.058-.762,5.062,5.062,0,0,0-2.419-3.634Z" transform="translate(-1737.75 -21403.504)" fill="none" stroke="#fff" stroke-linecap="round" stroke-linejoin="round" stroke-width="2" stroke-dasharray="67 6"/>
    <g id="brain" transform="translate(-1612 -21314)">
      <path id="Icon_awesome-brain" data-name="Icon awesome-brain" d="M11.927,0A3.7,3.7,0,0,0,8.383,2.918c-.046,0-.08-.012-.126-.012a3.78,3.78,0,0,0-3.67,3.875,3.76,3.76,0,0,0,.1.848,4.851,4.851,0,0,0-2.85,4.48,5.071,5.071,0,0,0,.476,2.113,4.947,4.947,0,0,0,.522,8.658,4.677,4.677,0,0,0-.08.854,4.246,4.246,0,0,0,4.129,4.359,3.689,3.689,0,0,0,.688-.073A4.145,4.145,0,0,0,11.468,31,4.246,4.246,0,0,0,15.6,26.641V3.875A3.78,3.78,0,0,0,11.927,0ZM34,18.406a4.869,4.869,0,0,0-2.311-4.184,4.984,4.984,0,0,0,.476-2.113,4.851,4.851,0,0,0-2.85-4.48,4.121,4.121,0,0,0,.1-.848,3.78,3.78,0,0,0-3.67-3.875c-.046,0-.086.012-.126.012A3.7,3.7,0,0,0,22.073,0,3.776,3.776,0,0,0,18.4,3.875V26.641A4.246,4.246,0,0,0,22.532,31a4.145,4.145,0,0,0,3.9-2.979,3.689,3.689,0,0,0,.688.073,4.246,4.246,0,0,0,4.129-4.359,4.677,4.677,0,0,0-.08-.854A4.852,4.852,0,0,0,34,18.406Z" transform="translate(-1 -1)" fill="none" stroke="#fff" stroke-linecap="round" stroke-linejoin="round" stroke-width="2" stroke-dasharray="111 6"/>
      <ellipse id="Elipse_224" data-name="Elipse 224" cx="4" cy="4" rx="4" ry="4" transform="translate(14.5 22) rotate(90)" fill="none" stroke="#fff" stroke-linecap="round" stroke-linejoin="round" stroke-width="2" stroke-dasharray="14 26"/>
      <ellipse id="Elipse_229" data-name="Elipse 229" cx="4.004" cy="4.004" rx="4.004" ry="4.004" transform="translate(-1 21.046) rotate(-90)" fill="none" stroke="#fff" stroke-linecap="round" stroke-linejoin="round" stroke-width="2" stroke-dasharray="8 50"/>
      <ellipse id="Elipse_226" data-name="Elipse 226" cx="3.326" cy="3.326" rx="3.326" ry="3.326" transform="translate(7.95 7)" fill="none" stroke="#fff" stroke-linecap="round" stroke-linejoin="round" stroke-width="2" stroke-dasharray="5 40"/>
      <ellipse id="Elipse_227" data-name="Elipse 227" cx="1.626" cy="1.626" rx="1.626" ry="1.626" transform="translate(6.324 17.041)" fill="none" stroke="#fff" stroke-linecap="round" stroke-linejoin="round" stroke-width="2" stroke-dasharray="4 40"/>
      <ellipse id="Elipse_228" data-name="Elipse 228" cx="2.126" cy="2.126" rx="2.126" ry="2.126" transform="translate(21.874 11.41)" fill="none" stroke="#fff" stroke-linecap="round" stroke-linejoin="round" stroke-width="2" stroke-dasharray="3 8"/>
      <ellipse id="Elipse_225" data-name="Elipse 225" cx="4.5" cy="4.5" rx="4.5" ry="4.5" transform="translate(24 21.999) rotate(-90)" fill="none" stroke="#fff" stroke-linecap="round" stroke-linejoin="round" stroke-width="2" stroke-dasharray="15 40"/>
    </g>
    <line id="Linha_624" data-name="Linha 624" x1="11" transform="translate(-1599 -21272)" fill="none" stroke="#fff" stroke-linecap="round" stroke-linejoin="round" stroke-width="2" stroke-dasharray="67 6"/>
    <line id="Linha_625" data-name="Linha 625" x1="6.5" transform="translate(-1594.5 -21266.5)" fill="none" stroke="#fff" stroke-linecap="round" stroke-linejoin="round" stroke-width="2" stroke-dasharray="67 6"/>
    <line id="Linha_626" data-name="Linha 626" x1="4" transform="translate(-1603 -21262)" fill="none" stroke="#fff" stroke-linecap="round" stroke-linejoin="round" stroke-width="2" stroke-dasharray="67 6"/>
  </g>
</svg>
