<svg xmlns="http://www.w3.org/2000/svg" width="84.081" height="73" viewBox="0 0 84.081 73">
  <g id="micro" transform="translate(5.539 1)">
    <path id="Caminho_1745" data-name="Caminho 1745" d="M38.544,7.056a10.3,10.3,0,0,1,3.482,7.74V42.222a10.244,10.244,0,0,1-10.2,10.287h-11.6a10.244,10.244,0,0,1-10.2-10.287V14.8a10.244,10.244,0,0,1,10.2-10.287h11.6" transform="translate(10.475 -4.509)" fill="none" stroke="#fff" stroke-linecap="round" stroke-linejoin="round" stroke-width="2"/>
    <rect id="Ret창ngulo_4046" data-name="Ret창ngulo 4046" width="16" height="13" transform="translate(28.501 48)" fill="none" stroke="#fff" stroke-linecap="round" stroke-linejoin="round" stroke-width="2"/>
    <line id="Linha_562" data-name="Linha 562" x2="24" transform="translate(24.501 56)" fill="none" stroke="#fff" stroke-linecap="round" stroke-linejoin="round" stroke-width="2"/>
    <path id="Caminho_1746" data-name="Caminho 1746" d="M20.174,26.372" transform="translate(31.067 38.812)" fill="none" stroke="#fff" stroke-linecap="round" stroke-linejoin="round" stroke-width="2"/>
    <line id="Linha_563" data-name="Linha 563" y2="42" transform="translate(36.501 6)" fill="none" stroke="#fff" stroke-linecap="round" stroke-linejoin="round" stroke-width="2"/>
    <line id="Linha_568" data-name="Linha 568" x2="8" transform="translate(20.501 13.668)" fill="none" stroke="#fff" stroke-linecap="round" stroke-linejoin="round" stroke-width="2"/>
    <line id="Linha_605" data-name="Linha 605" x2="8" transform="translate(44.501 13.668)" fill="none" stroke="#fff" stroke-linecap="round" stroke-linejoin="round" stroke-width="2"/>
    <line id="Linha_569" data-name="Linha 569" x2="8" transform="translate(20.501 21.465)" fill="none" stroke="#fff" stroke-linecap="round" stroke-linejoin="round" stroke-width="2"/>
    <line id="Linha_606" data-name="Linha 606" x2="8" transform="translate(44.501 21.465)" fill="none" stroke="#fff" stroke-linecap="round" stroke-linejoin="round" stroke-width="2"/>
    <line id="Linha_570" data-name="Linha 570" x2="8" transform="translate(20.501 29.391)" fill="none" stroke="#fff" stroke-linecap="round" stroke-linejoin="round" stroke-width="2"/>
    <line id="Linha_607" data-name="Linha 607" x2="8" transform="translate(44.501 29.391)" fill="none" stroke="#fff" stroke-linecap="round" stroke-linejoin="round" stroke-width="2"/>
    <line id="Linha_604" data-name="Linha 604" x2="4" transform="translate(24.501 37.317)" fill="none" stroke="#fff" stroke-linecap="round" stroke-linejoin="round" stroke-width="2"/>
    <line id="Linha_608" data-name="Linha 608" x2="8" transform="translate(44.501 37.317)" fill="none" stroke="#fff" stroke-linecap="round" stroke-linejoin="round" stroke-width="2"/>
    <path id="Ret창ngulo_4047" data-name="Ret창ngulo 4047" d="M0,0H5A0,0,0,0,1,5,0V7.5A2.5,2.5,0,0,1,2.5,10h0A2.5,2.5,0,0,1,0,7.5V0A0,0,0,0,1,0,0Z" transform="translate(33.501 61)" fill="none" stroke="#fff" stroke-linecap="round" stroke-linejoin="round" stroke-width="2"/>
    <path id="Caminho_1747" data-name="Caminho 1747" d="M24.722,4.509" transform="translate(40.208 -4.509)" fill="none" stroke="#fff" stroke-linecap="round" stroke-linejoin="round" stroke-width="2"/>
    <g id="Grupo_57464" data-name="Grupo 57464" transform="translate(63.501 2.668)">
      <path id="Caminho_1748" data-name="Caminho 1748" d="M23.665,9.5s8.96,9.362,0,23.155" transform="translate(-23.665 2.979)" fill="none" stroke="#fff" stroke-linecap="round" stroke-linejoin="round" stroke-width="2"/>
      <path id="Caminho_1749" data-name="Caminho 1749" d="M25.647,5.209s18.756,18.6,0,46" transform="translate(-19.983 -5.209)" fill="none" stroke="#fff" stroke-linecap="round" stroke-linejoin="round" stroke-width="2"/>
    </g>
    <g id="Grupo_57465" data-name="Grupo 57465" transform="translate(-4.499 2.668)">
      <path id="Caminho_1750" data-name="Caminho 1750" d="M10.447,9.135s-8.96,9.362,0,23.155" transform="translate(3.553 3.341)" fill="none" stroke="#fff" stroke-linecap="round" stroke-linejoin="round" stroke-width="2"/>
      <path id="Caminho_1751" data-name="Caminho 1751" d="M11.345,4.847s-18.753,18.6,0,46" transform="translate(-3.01 -4.847)" fill="none" stroke="#fff" stroke-linecap="round" stroke-linejoin="round" stroke-width="2"/>
    </g>
    <path id="Caminho_1752" data-name="Caminho 1752" d="M18.028,4.546" transform="translate(26.807 -4.437)" fill="none" stroke="#fff" stroke-linecap="round" stroke-linejoin="round" stroke-width="2"/>
    <path id="Caminho_1753" data-name="Caminho 1753" d="M18.028,4.546" transform="translate(26.807 -4.437)" fill="none" stroke="#fff" stroke-linecap="round" stroke-linejoin="round" stroke-width="2"/>
  </g>
</svg>
