<svg xmlns="http://www.w3.org/2000/svg" width="89.567" height="81.806" viewBox="0 0 89.567 81.806">
  <g id="ilustra" transform="translate(9787.56 9061.109)">
    <g id="boneco" transform="translate(-9786.432 -9041)">
      <path id="Caminho_1960" data-name="Caminho 1960" d="M43.53,11.409a2.311,2.311,0,0,0-2.76-1.679A80.549,80.549,0,0,1,23.427,11.5,82.018,82.018,0,0,1,6.084,9.752a2.282,2.282,0,0,0-2.76,1.679l-.046.115a2.3,2.3,0,0,0,1.679,2.806A85.112,85.112,0,0,0,16.526,16.1V41.4a2.307,2.307,0,0,0,2.3,2.3h0a2.307,2.307,0,0,0,2.3-2.3V29.9h4.6V41.4a2.307,2.307,0,0,0,2.3,2.3h0a2.307,2.307,0,0,0,2.3-2.3V16.1A85.112,85.112,0,0,0,41.9,14.353a2.3,2.3,0,0,0,1.679-2.806ZM23.427,7.2a4.614,4.614,0,0,0,4.6-4.6,4.6,4.6,0,0,0-9.2,0A4.614,4.614,0,0,0,23.427,7.2Z" transform="translate(-3.211)" fill="none" stroke="#fff" stroke-linecap="round" stroke-linejoin="round" stroke-width="2" stroke-dasharray="54 6"/>
      <path id="Caminho_1960-2" data-name="Caminho 1960" d="M10.6,17.275c2.167.362,4.634.662,7.021.863v6.634c0,.678,8.865.169,5.282-8.382C19.979,9.416,8.885,16.989,10.6,17.275Z" transform="translate(-10.546 3.356)" fill="none" stroke="#fff" stroke-linecap="round" stroke-linejoin="round" stroke-width="2" stroke-dasharray="13 60"/>
    </g>
    <g id="boneca" transform="translate(-9739.431 -9031.671)">
      <path id="União_32" data-name="União 32" d="M14.163,41.4l-.227-6.775H10.911A1.665,1.665,0,0,1,9.3,32.519l4.021-16.127-.01-.292a84.926,84.926,0,0,1-11.57-1.748A2.3,2.3,0,0,1,.067,11.546l.046-.115a2.282,2.282,0,0,1,2.76-1.679A82.044,82.044,0,0,0,20.216,11.5,80.56,80.56,0,0,0,37.559,9.729a2.31,2.31,0,0,1,2.759,1.679l.047.138a2.3,2.3,0,0,1-1.679,2.806A84.947,84.947,0,0,1,27.116,16.1l-.036.059,4.046,16.358a1.666,1.666,0,0,1-1.607,2.11H27.605l2.552,5.5A2.3,2.3,0,1,1,26.1,42.286l-4.073-7.659H18.764V41.4a2.3,2.3,0,0,1-4.6,0ZM15.615,2.6a4.6,4.6,0,1,1,9.2,0,4.6,4.6,0,0,1-9.2,0Z" transform="translate(0 0)" fill="none" stroke="#fff" stroke-linecap="round" stroke-linejoin="round" stroke-width="2" stroke-dasharray="105 6"/>
      <path id="Caminho_1963" data-name="Caminho 1963" d="M0,5.242C3.716,8.343,12.084,9.158,13.549,0" transform="matrix(0.978, -0.208, 0.208, 0.978, 23.701, 43.84)" fill="rgba(0,0,0,0)" stroke="#fff" stroke-linecap="round" stroke-linejoin="round" stroke-width="2"/>
    </g>
    <g id="nota-musical" transform="translate(-9741 -9059.527)">
      <path id="Caminho_1253" data-name="Caminho 1253" d="M13.5,18.908V6.421L24.306,4.5V16.987" transform="translate(-10.098 -5.082)" fill="none" stroke="#fff" stroke-linecap="round" stroke-linejoin="round" stroke-width="2" stroke-dasharray="190 10"/>
      <path id="Caminho_1254" data-name="Caminho 1254" d="M9.9,25.2a2.7,2.7,0,1,1-2.7-2.7A2.7,2.7,0,0,1,9.9,25.2Z" transform="translate(-6.5 -11.375)" fill="none" stroke="#fff" stroke-linecap="round" stroke-linejoin="round" stroke-width="2" stroke-dasharray="11 8"/>
      <path id="Caminho_1255" data-name="Caminho 1255" d="M5.4,2.7A2.7,2.7,0,1,0,2.7,5.4,2.7,2.7,0,0,0,5.4,2.7Z" transform="translate(8.807 14.727) rotate(-90)" fill="none" stroke="#fff" stroke-linecap="round" stroke-linejoin="round" stroke-width="2" stroke-dasharray="8 6"/>
    </g>
  </g>
</svg>
