<svg xmlns="http://www.w3.org/2000/svg" width="70.489" height="77.336" viewBox="0 0 70.489 77.336">
  <g id="ilustra" transform="translate(9582.769 9100.129)">
    <path id="Icon_open-puzzle-piece" data-name="Icon open-puzzle-piece" d="M11.25,0a3.8,3.8,0,0,0-2.7,1.05A3.8,3.8,0,0,0,7.5,3.75c0,1.05.675,1.8,1.05,2.7A2.7,2.7,0,0,1,8.663,7.5H0V30H8.663a3.7,3.7,0,0,0-.113-1.05c-.375-.9-1.05-1.65-1.05-2.7a3.8,3.8,0,0,1,1.05-2.7,3.8,3.8,0,0,1,2.7-1.05,3.8,3.8,0,0,1,2.7,1.05A3.8,3.8,0,0,1,15,26.25c0,1.05-.675,1.8-1.05,2.7A2.7,2.7,0,0,0,13.838,30H22.5V21.337a3.7,3.7,0,0,1,1.05.112c.9.375,1.65,1.05,2.7,1.05a3.751,3.751,0,1,0,0-7.5c-1.05,0-1.8.675-2.7,1.05a2.7,2.7,0,0,1-1.05.112V7.5H13.838a3.7,3.7,0,0,1,.113-1.05C14.325,5.55,15,4.8,15,3.75a3.8,3.8,0,0,0-1.05-2.7A3.8,3.8,0,0,0,11.25,0Z" transform="translate(-9581.769 -9076.629)" fill="none" stroke="#fff" stroke-linecap="round" stroke-linejoin="round" stroke-width="2"/>
    <path id="Icon_open-puzzle-piece-2" data-name="Icon open-puzzle-piece" d="M11.25,0a3.8,3.8,0,0,0-2.7,1.05A3.8,3.8,0,0,0,7.5,3.75c0,1.05.675,1.8,1.05,2.7A2.7,2.7,0,0,1,8.663,7.5H0V30H8.663a3.7,3.7,0,0,0-.113-1.05c-.375-.9-1.05-1.65-1.05-2.7a3.8,3.8,0,0,1,1.05-2.7,3.8,3.8,0,0,1,2.7-1.05,3.8,3.8,0,0,1,2.7,1.05A3.8,3.8,0,0,1,15,26.25c0,1.05-.675,1.8-1.05,2.7A2.7,2.7,0,0,0,13.838,30H22.5V21.337a3.7,3.7,0,0,1,1.05.112c.9.375,1.65,1.05,2.7,1.05a3.751,3.751,0,1,0,0-7.5c-1.05,0-1.8.675-2.7,1.05a2.7,2.7,0,0,1-1.05.112V7.5H13.838a3.7,3.7,0,0,1,.113-1.05C14.325,5.55,15,4.8,15,3.75a3.8,3.8,0,0,0-1.05-2.7A3.8,3.8,0,0,0,11.25,0Z" transform="translate(-9581.769 -9099.129)" fill="none" stroke="#fff" stroke-linecap="round" stroke-linejoin="round" stroke-width="2" stroke-dasharray="23 6"/>
    <path id="Icon_open-puzzle-piece-3" data-name="Icon open-puzzle-piece" d="M11.25,0a3.8,3.8,0,0,0-2.7,1.05A3.8,3.8,0,0,0,7.5,3.75c0,1.05.675,1.8,1.05,2.7A2.7,2.7,0,0,1,8.663,7.5H0V30H8.663a3.7,3.7,0,0,0-.113-1.05c-.375-.9-1.05-1.65-1.05-2.7a3.8,3.8,0,0,1,1.05-2.7,3.8,3.8,0,0,1,2.7-1.05,3.8,3.8,0,0,1,2.7,1.05A3.8,3.8,0,0,1,15,26.25c0,1.05-.675,1.8-1.05,2.7A2.7,2.7,0,0,0,13.837,30H22.5V21.337a3.7,3.7,0,0,1,1.05.113c.9.375,1.65,1.05,2.7,1.05a3.751,3.751,0,1,0,0-7.5c-1.05,0-1.8.675-2.7,1.05a2.7,2.7,0,0,1-1.05.112V7.5H13.838a3.7,3.7,0,0,1,.113-1.05C14.325,5.55,15,4.8,15,3.75a3.8,3.8,0,0,0-1.05-2.7A3.8,3.8,0,0,0,11.25,0Z" transform="translate(-9529.318 -9091.629) rotate(90)" fill="none" stroke="#fff" stroke-linecap="round" stroke-linejoin="round" stroke-width="2" stroke-dasharray="52 6"/>
    <path id="Subtração_4" data-name="Subtração 4" d="M22.682,22.182H0v-8.54H.009a2.784,2.784,0,0,1,1.049.112,8.648,8.648,0,0,1,.821.4,3.976,3.976,0,0,0,1.9.631A3.9,3.9,0,0,0,6.5,13.753a3.721,3.721,0,0,0,1.058-2.662A3.721,3.721,0,0,0,6.5,8.429,3.9,3.9,0,0,0,3.78,7.394a3.976,3.976,0,0,0-1.9.631,8.651,8.651,0,0,1-.821.4A3.823,3.823,0,0,1,0,8.54V0H8.732a3.561,3.561,0,0,1-.113,1.036,8.311,8.311,0,0,1-.413.8A3.776,3.776,0,0,0,7.561,3.7,3.721,3.721,0,0,0,8.619,6.359a3.9,3.9,0,0,0,2.722,1.035,3.9,3.9,0,0,0,2.722-1.035A3.721,3.721,0,0,0,15.121,3.7a3.775,3.775,0,0,0-.645-1.859,8.314,8.314,0,0,1-.414-.8A2.625,2.625,0,0,1,13.949,0h8.732V8.54h.1a2.475,2.475,0,0,0,.954-.11,8.645,8.645,0,0,0,.821-.4,3.976,3.976,0,0,1,1.9-.631,3.9,3.9,0,0,1,2.722,1.035,3.721,3.721,0,0,1,1.058,2.662,3.721,3.721,0,0,1-1.058,2.662,3.9,3.9,0,0,1-2.722,1.035,3.976,3.976,0,0,1-1.9-.631,8.646,8.646,0,0,0-.821-.4,3.823,3.823,0,0,0-1.058-.111v8.539Z" transform="matrix(0.966, 0.259, -0.259, 0.966, -9542.716, -9053.271)" fill="none" stroke="#fff" stroke-linecap="round" stroke-linejoin="round" stroke-width="2" stroke-dasharray="120 8"/>
  </g>
</svg>
