<svg xmlns="http://www.w3.org/2000/svg" width="26" height="21" viewBox="0 0 26 21">
  <g id="Icon_feather-mail" data-name="Icon feather-mail" transform="translate(-3 -6)">
    <g id="Caminho_1718" data-name="Caminho 1718" transform="translate(0 0)" fill="none" stroke-linecap="round" stroke-linejoin="round">
      <path d="M5.6,6H26.4A2.62,2.62,0,0,1,29,8.625v15.75A2.62,2.62,0,0,1,26.4,27H5.6A2.62,2.62,0,0,1,3,24.375V8.625A2.62,2.62,0,0,1,5.6,6Z" stroke="none"/>
      <path d="M 5.599998474121094 8 C 5.274768829345703 8 4.999998092651367 8.286209106445312 4.999998092651367 8.625 L 4.999998092651367 24.375 C 4.999998092651367 24.71379089355469 5.274768829345703 25 5.599998474121094 25 L 26.39999961853027 25 C 26.72522926330566 25 27 24.71379089355469 27 24.375 L 27 8.625 C 27 8.286209106445312 26.72522926330566 8 26.39999961853027 8 L 5.599998474121094 8 M 5.599998474121094 6 L 26.39999961853027 6 C 27.82999801635742 6 29 7.181249618530273 29 8.625 L 29 24.375 C 29 25.81875038146973 27.82999801635742 27 26.39999961853027 27 L 5.599998474121094 27 C 4.169998168945312 27 2.999998092651367 25.81875038146973 2.999998092651367 24.375 L 2.999998092651367 8.625 C 2.999998092651367 7.181249618530273 4.169998168945312 6 5.599998474121094 6 Z" stroke="none" fill="#991c3a"/>
    </g>
    <path id="Caminho_1719" data-name="Caminho 1719" d="M22.82,9l-9.91,7.756L3,9" transform="translate(3.09 -0.256)" fill="none" stroke="#991c3a" stroke-linecap="round" stroke-linejoin="round" stroke-width="2"/>
  </g>
</svg>
