<svg xmlns="http://www.w3.org/2000/svg" width="26.5" height="23.5" viewBox="0 0 26.5 23.5">
  <g id="imagem" transform="translate(-234.25 -236.25)">
    <rect id="Retângulo_4249" data-name="Retângulo 4249" width="25" height="22" rx="3" transform="translate(235 237)" fill="none" stroke="#991c3a" stroke-linecap="round" stroke-linejoin="round" stroke-width="1.5"/>
    <circle id="Elipse_211" data-name="Elipse 211" cx="1.698" cy="1.698" r="1.698" transform="translate(253.605 239.971)" fill="#991c3a" stroke="#991c3a" stroke-width="1"/>
    <path id="Caminho_1924" data-name="Caminho 1924" d="M243.614,246.171a.669.669,0,0,1,1.027-.066l6.05,6.425a.839.839,0,0,0,1.246.059l4.426-4.5a.663.663,0,0,1,1.137.449v7.55a.818.818,0,0,1-.826.809H239.326a.82.82,0,0,1-.826-.809v-2.473a1.014,1.014,0,0,1,.15-.531Z" transform="translate(-0.499 -0.894)" fill="#991c3a" stroke="#991c3a" stroke-width="1"/>
  </g>
</svg>
