<svg xmlns="http://www.w3.org/2000/svg" width="26.5" height="26.5" viewBox="0 0 26.5 26.5">
  <g id="icone-player" transform="translate(-1401.641 -1660.094)">
    <circle id="Elipse_217" data-name="Elipse 217" cx="12.5" cy="12.5" r="12.5" transform="translate(1402.391 1660.844)" fill="none" stroke="#991c3a" stroke-linecap="round" stroke-linejoin="round" stroke-width="1.5" stroke-dasharray="44 6"/>
    <path id="Caminho_1643" data-name="Caminho 1643" d="M1545.513,1747.853q-3.34-2.171-6.681-4.341a.613.613,0,0,0-.666-.076.586.586,0,0,0-.306.582c0,1.454,0,2.908,0,4.361s0,2.9,0,4.344a.979.979,0,0,0,.016.224.591.591,0,0,0,.936.3c2.232-1.461,4.473-2.908,6.71-4.361A.562.562,0,0,0,1545.513,1747.853Z" transform="translate(-126.469 -75.023)" fill="#991c3a" stroke="#991c3a" stroke-width="1"/>
  </g>
</svg>
