<svg xmlns="http://www.w3.org/2000/svg" width="28" height="28" viewBox="0 0 28 28">
  <path id="Icon_awesome-linkedin-in" data-name="Icon awesome-linkedin-in" d="M6.243,26H0V8.642H6.243ZM3.122,6.274A3.137,3.137,0,1,1,6.243,3.122,3.148,3.148,0,0,1,3.122,6.274ZM25.994,26H20.615V17.55c0-2.014-.041-4.6-2.8-4.6-2.8,0-3.232,2.188-3.232,4.451V26H9.2V8.642h5.17v2.368h.075a5.664,5.664,0,0,1,5.1-2.8C25,8.206,26,11.8,26,16.465V26Z" transform="translate(1 0.999)" fill="none" stroke="#991c3a" stroke-linecap="round" stroke-linejoin="round" stroke-width="2"/>
</svg>
