<svg xmlns="http://www.w3.org/2000/svg" width="23" height="20" viewBox="0 0 23 20">
  <g id="Grupo_58587" data-name="Grupo 58587" transform="translate(0 0)">
    <path id="Caminho_1507" data-name="Caminho 1507" d="M8.754,12.584a1.628,1.628,0,0,0,2.491,0l8.292-9.508A1.845,1.845,0,0,0,18.292,0H1.708A1.845,1.845,0,0,0,.463,3.076Z" transform="translate(23 0) rotate(90)" fill="#991c3a"/>
    <path id="Caminho_1506" data-name="Caminho 1506" d="M8.754,12.584a1.628,1.628,0,0,0,2.491,0l8.292-9.508A1.845,1.845,0,0,0,18.292,0H1.708A1.845,1.845,0,0,0,.463,3.076Z" transform="translate(13.164 0) rotate(90)" fill="#991c3a"/>
  </g>
</svg>
