<svg xmlns="http://www.w3.org/2000/svg" width="20.004" height="26" viewBox="0 0 20.004 26">
  <path id="Icon_awesome-pinterest-p" data-name="Icon awesome-pinterest-p" d="M10.627.457C5.282.457,0,4.02,0,9.787c0,3.667,2.063,5.751,3.313,5.751.516,0,.813-1.438.813-1.844,0-.484-1.235-1.516-1.235-3.532A7.04,7.04,0,0,1,10.205,3c3.548,0,6.173,2.016,6.173,5.72,0,2.766-1.11,7.955-4.7,7.955A2.313,2.313,0,0,1,9.267,14.4c0-1.969,1.375-3.876,1.375-5.907,0-3.449-4.892-2.823-4.892,1.344a6.12,6.12,0,0,0,.5,2.641c-.719,3.094-2.188,7.7-2.188,10.893,0,.985.141,1.953.234,2.938.177.2.089.177.359.078,2.625-3.594,2.532-4.3,3.719-9a4.225,4.225,0,0,0,3.61,1.875C17.519,19.257,20,13.866,20,9.005,20,3.833,15.534.457,10.627.457Z" transform="translate(0 -0.457)" fill="#991c3a"/>
</svg>
