<svg id="Grupo_58588" data-name="Grupo 58588" xmlns="http://www.w3.org/2000/svg" width="23" height="20" viewBox="0 0 23 20">
  <path id="Caminho_1507" data-name="Caminho 1507" d="M8.754.58a1.628,1.628,0,0,1,2.491,0l8.292,9.508a1.845,1.845,0,0,1-1.246,3.076H1.708A1.845,1.845,0,0,1,.463,10.088Z" transform="translate(13.163 0) rotate(90)" fill="#991c3a"/>
  <path id="Caminho_1506" data-name="Caminho 1506" d="M8.754.58a1.628,1.628,0,0,1,2.491,0l8.292,9.508a1.845,1.845,0,0,1-1.246,3.076H1.708A1.845,1.845,0,0,1,.463,10.088Z" transform="translate(23 0) rotate(90)" fill="#991c3a"/>
</svg>
