<svg xmlns="http://www.w3.org/2000/svg" width="40" height="40" viewBox="0 0 40 40">
  <g id="spotify" transform="translate(-343 -1714.426)">
    <path id="Design_sem_nome_1_" data-name="Design sem nome (1)" d="M265.311,273.812a43.6,43.6,0,0,0-10.537,1.278A1.859,1.859,0,0,0,253.282,277a1.689,1.689,0,0,0,1.711,1.71c.218,0,.855-.216,1.292-.216a39.473,39.473,0,0,1,8.826-1.062,28.913,28.913,0,0,1,14.395,3.618,3.023,3.023,0,0,0,1.292.414,2.1,2.1,0,0,0,1.947-1.475,1.993,1.993,0,0,0-1.092-1.926A32.142,32.142,0,0,0,265.311,273.812Zm0,0" transform="translate(92.957 1465.963)" fill="#991c3a"/>
    <path id="Design_sem_nome_1_2" data-name="Design sem nome (1)" d="M264.675,264.668a40.386,40.386,0,0,0-10.974,1.476,2.335,2.335,0,0,0-1.728,2.34,2.154,2.154,0,0,0,2.166,2.124,3.126,3.126,0,0,0,1.292-.2,35.687,35.687,0,0,1,9.026-1.062c7.1,0,13.321,1.692,17.853,4.464a2.975,2.975,0,0,0,1.492.432,2.227,2.227,0,0,0,2.166-2.34,2.3,2.3,0,0,0-1.31-2.124C279.07,266.36,271.99,264.668,264.675,264.668Z" transform="translate(92.957 1466.03)" fill="#991c3a"/>
    <path id="Design_sem_nome_1_3" data-name="Design sem nome (1)" d="M265.33,255.308A44.49,44.49,0,0,0,251.991,257a2.42,2.42,0,0,0-1.947,2.556,2.359,2.359,0,0,0,2.584,2.556c.655,0,1.073-.216,1.511-.216a47.522,47.522,0,0,1,11.173-1.278c7.516,0,15.269,1.71,20.437,4.7a4.107,4.107,0,0,0,1.493.415,2.813,2.813,0,0,0,2.8-2.556,2.651,2.651,0,0,0-1.511-2.539C282.09,257.018,273.5,255.308,265.33,255.308Z" transform="translate(92.957 1466.117)" fill="#991c3a"/>
    <rect id="moldura" width="40" height="40" transform="translate(343 1714.426)" fill="none" opacity="0"/>
  </g>
</svg>
