<svg xmlns="http://www.w3.org/2000/svg" width="19.501" height="19.502" viewBox="0 0 19.501 19.502">
  <path id="Icon_feather-phone" data-name="Icon feather-phone" d="M21.167,16.476v2.71a1.809,1.809,0,0,1-1.973,1.806,17.933,17.933,0,0,1-7.81-2.773A17.631,17.631,0,0,1,5.954,12.8,17.852,17.852,0,0,1,3.175,4.969,1.808,1.808,0,0,1,4.976,3H7.691A1.809,1.809,0,0,1,9.5,4.554a11.579,11.579,0,0,0,.634,2.538A1.8,1.8,0,0,1,9.728,9L8.578,10.145a14.466,14.466,0,0,0,5.43,5.419l1.149-1.147a1.813,1.813,0,0,1,1.91-.406,11.64,11.64,0,0,0,2.543.632,1.808,1.808,0,0,1,1.557,1.834Z" transform="translate(-2.417 -2.25)" fill="none" stroke="#991c3a" stroke-linecap="round" stroke-linejoin="round" stroke-width="1.5"/>
</svg>
